<?xml version="1.0" encoding="UTF-8"?>
<!DOCTYPE svg PUBLIC "-//W3C//DTD SVG 1.1//EN" "http://www.w3.org/Graphics/SVG/1.1/DTD/svg11.dtd">
<svg xmlns="http://www.w3.org/2000/svg" version="1.1" width="292px" height="293px" style="shape-rendering:geometricPrecision; text-rendering:geometricPrecision; image-rendering:optimizeQuality; fill-rule:evenodd; clip-rule:evenodd" xmlns:xlink="http://www.w3.org/1999/xlink">
<g><path style="opacity:1" fill="#f1e623" d="M 141.5,9.5 C 145.514,9.33449 149.514,9.50115 153.5,10C 196.055,52.2212 238.222,94.7212 280,137.5C 282.814,142.006 283.147,146.673 281,151.5C 237.5,195 194,238.5 150.5,282C 146.167,284 141.833,284 137.5,282C 95.1934,239.605 53.0267,197.105 11,154.5C 7.66667,149.5 7.66667,144.5 11,139.5C 54.3949,95.9382 97.8949,52.6048 141.5,9.5 Z"/></g>
<g><path style="opacity:1" fill="#1b1805" d="M 164.5,29.5 C 174.78,41.4476 185.78,52.7809 197.5,63.5C 223.524,88.3569 248.69,114.024 273,140.5C 273.667,143.5 273.667,146.5 273,149.5C 268.667,154.5 264.333,159.5 260,164.5C 223.437,200.061 186.937,236.228 150.5,273C 144.408,275.683 139.075,274.85 134.5,270.5C 130.167,264.167 124.833,258.833 118.5,254.5C 89.5544,225.22 60.5544,195.887 31.5,166.5C 28.8333,161.833 25.1667,158.167 20.5,155.5C 16.789,150.326 16.6224,144.993 20,139.5C 59.8333,99.6667 99.6667,59.8333 139.5,20C 144.013,17.2463 148.68,16.9129 153.5,19C 157.668,22.002 161.335,25.502 164.5,29.5 Z"/></g>
<g><path style="opacity:1" fill="#f5ea23" d="M 152.5,22.5 C 158.167,28.8333 164.167,34.8333 170.5,40.5C 195.167,65.5 219.833,90.5 244.5,115.5C 252.167,123.833 260.167,131.833 268.5,139.5C 270.842,142.717 271.009,146.05 269,149.5C 228.833,189.667 188.667,229.833 148.5,270C 145.05,272.009 141.717,271.842 138.5,269.5C 134.5,264.833 130.167,260.5 125.5,256.5C 103.167,233.5 80.5,210.833 57.5,188.5C 46.8869,176.219 35.5535,164.552 23.5,153.5C 20.6858,149.04 20.8525,144.706 24,140.5C 63.5276,100.639 103.361,61.1388 143.5,22C 146.592,21.2642 149.592,21.4309 152.5,22.5 Z"/></g>
<g><path style="opacity:1" fill="#4d460b" d="M 152.5,22.5 C 159.5,27.5 165.5,33.5 170.5,40.5C 164.167,34.8333 158.167,28.8333 152.5,22.5 Z"/></g>
<g><path style="opacity:1" fill="#544d0c" d="M 164.5,29.5 C 176.22,40.2191 187.22,51.5524 197.5,63.5C 185.78,52.7809 174.78,41.4476 164.5,29.5 Z"/></g>
<g><path style="opacity:1" fill="#060501" d="M 157.5,118.5 C 150.5,118.5 143.5,118.5 136.5,118.5C 136.825,110.981 136.492,103.648 135.5,96.5C 132.219,98.6056 129.052,100.939 126,103.5C 121.202,99.0319 116.702,94.1986 112.5,89C 124.012,76.6552 135.679,64.4885 147.5,52.5C 159.42,64.5835 170.42,77.4168 180.5,91C 176.365,95.9707 172.032,100.804 167.5,105.5C 165.378,102.876 163.045,100.376 160.5,98C 159.552,97.5172 158.552,97.3505 157.5,97.5C 157.5,104.5 157.5,111.5 157.5,118.5 Z"/></g>
<g><path style="opacity:1" fill="#534c0c" d="M 244.5,115.5 C 252.745,122.24 260.578,129.573 268,137.5C 268.464,138.094 268.631,138.761 268.5,139.5C 260.167,131.833 252.167,123.833 244.5,115.5 Z"/></g>
<g><path style="opacity:1" fill="#746b0d" d="M 135.5,96.5 C 136.492,103.648 136.825,110.981 136.5,118.5C 143.5,118.5 150.5,118.5 157.5,118.5C 150.352,119.492 143.019,119.825 135.5,119.5C 135.5,111.833 135.5,104.167 135.5,96.5 Z"/></g>
<g><path style="opacity:1" fill="#e37411" d="M 183.5,201.5 C 183.667,190.162 183.5,178.828 183,167.5C 175.5,160 168,152.5 160.5,145C 149.5,144.333 138.5,144.333 127.5,145C 119.632,153.036 111.632,160.869 103.5,168.5C 110.574,159.922 118.24,151.755 126.5,144C 138.167,143.333 149.833,143.333 161.5,144C 169,151.5 176.5,159 184,166.5C 184.826,178.341 184.659,190.007 183.5,201.5 Z"/></g>
<g><path style="opacity:1" fill="#d50200" d="M 183.5,201.5 C 176.369,209.132 169.036,216.632 161.5,224C 149.833,224.667 138.167,224.667 126.5,224C 119,216.5 111.5,209 104,201.5C 103.5,190.505 103.333,179.505 103.5,168.5C 111.632,160.869 119.632,153.036 127.5,145C 138.5,144.333 149.5,144.333 160.5,145C 168,152.5 175.5,160 183,167.5C 183.5,178.828 183.667,190.162 183.5,201.5 Z"/></g>
<g><path style="opacity:1" fill="#544d0c" d="M 23.5,153.5 C 35.5535,164.552 46.8869,176.219 57.5,188.5C 45.4465,177.448 34.1131,165.781 23.5,153.5 Z"/></g>
<g><path style="opacity:1" fill="#4b450b" d="M 20.5,155.5 C 25.1667,158.167 28.8333,161.833 31.5,166.5C 27.5,163.167 23.8333,159.5 20.5,155.5 Z"/></g>
<g><path style="opacity:1" fill="#4a440a" d="M 118.5,254.5 C 124.833,258.833 130.167,264.167 134.5,270.5C 128.833,265.5 123.5,260.167 118.5,254.5 Z"/></g>
<g><path style="opacity:1" fill="#4a440a" d="M 125.5,256.5 C 130.167,260.5 134.5,264.833 138.5,269.5C 133.167,266.167 128.833,261.833 125.5,256.5 Z"/></g>
</svg>
