<?xml version="1.0" encoding="UTF-8"?>
<!DOCTYPE svg PUBLIC "-//W3C//DTD SVG 1.1//EN" "http://www.w3.org/Graphics/SVG/1.1/DTD/svg11.dtd">
<svg xmlns="http://www.w3.org/2000/svg" version="1.1" width="283px" height="283px" style="shape-rendering:geometricPrecision; text-rendering:geometricPrecision; image-rendering:optimizeQuality; fill-rule:evenodd; clip-rule:evenodd" xmlns:xlink="http://www.w3.org/1999/xlink">
<g><path style="opacity:1" fill="#aba9aa" d="M 269.5,3.5 C 183.763,3.16955 98.096,3.50288 12.5,4.5C 12.1667,4.5 11.8333,4.5 11.5,4.5C 12.6808,2.9328 14.3474,2.09946 16.5,2C 99.8333,1.33333 183.167,1.33333 266.5,2C 267.737,2.23209 268.737,2.73209 269.5,3.5 Z"/></g>
<g><path style="opacity:1" fill="#f5f4f4" d="M 269.5,3.5 C 270.922,3.70858 272.255,4.20858 273.5,5C 274.833,5.66667 274.833,6.33333 273.5,7C 274.253,8.48701 275.086,8.65367 276,7.5C 276.464,8.09442 276.631,8.76109 276.5,9.5C 275.167,9.83333 275.167,10.1667 276.5,10.5C 276.987,11.4734 277.487,12.4734 278,13.5C 278.5,98.166 278.667,182.833 278.5,267.5C 278.25,269.674 277.25,271.341 275.5,272.5C 275.167,271.167 274.833,271.167 274.5,272.5C 273.833,272.5 273.5,272.833 273.5,273.5C 272.167,273.833 272.167,274.167 273.5,274.5C 273.027,275.906 272.027,276.573 270.5,276.5C 270.167,275.167 269.833,275.167 269.5,276.5C 183.846,277.831 98.179,277.831 12.5,276.5C 11.0783,276.291 9.74499,275.791 8.5,275C 7.16667,274 7.16667,273 8.5,272C 7.9558,271.283 7.28913,270.783 6.5,270.5C 6.01328,269.527 5.51328,268.527 5,267.5C 4.5,182.501 4.33334,97.5007 4.5,12.5C 4.35055,11.448 4.51722,10.448 5,9.5C 5.66667,8.16667 6.33333,8.16667 7,9.5C 8.75827,8.53054 9.25827,7.36387 8.5,6C 9.24382,4.96141 10.2438,4.46141 11.5,4.5C 11.8333,5.83333 12.1667,5.83333 12.5,4.5C 98.096,3.50288 183.763,3.16955 269.5,3.5 Z"/></g>
<g><path style="opacity:1" fill="#191818" d="M 15.5,6.5 C 99.1673,6.33334 182.834,6.5 266.5,7C 269.539,8.03138 272.039,9.86471 274,12.5C 275.661,96.4187 275.994,180.419 275,264.5C 273.585,268.251 271.085,271.084 267.5,273C 183.167,273.667 98.8333,273.667 14.5,273C 11.2716,271.437 9.10491,268.937 8,265.5C 7.33333,181.833 7.33333,98.1667 8,14.5C 10.0282,11.3078 12.5282,8.64111 15.5,6.5 Z"/></g>
<g><path style="opacity:1" fill="#fdfcfc" d="M 265.5,268.5 C 182.096,268.83 98.7626,268.497 15.5,267.5C 14.7784,267.082 14.2784,266.416 14,265.5C 13.3333,181.833 13.3333,98.1667 14,14.5C 14.9025,13.2986 16.0692,12.4652 17.5,12C 100.167,11.3333 182.833,11.3333 265.5,12C 266.931,12.4652 268.097,13.2986 269,14.5C 269.667,98.1667 269.667,181.833 269,265.5C 267.961,266.71 266.794,267.71 265.5,268.5 Z"/></g>
<g><path style="opacity:1" fill="#9d9d9d" d="M 4.5,12.5 C 4.33334,97.5007 4.5,182.501 5,267.5C 5.51328,268.527 6.01328,269.527 6.5,270.5C 6.18999,271.738 5.68999,271.738 5,270.5C 3.9562,268.285 3.28953,265.952 3,263.5C 2.33333,181.5 2.33333,99.5 3,17.5C 3.19808,15.6183 3.69808,13.9516 4.5,12.5 Z"/></g>
<g><path style="opacity:1" fill="#6c6c6c" d="M 276.5,9.5 C 277.79,10.0577 278.623,11.0577 279,12.5C 279.832,97.6677 279.666,182.668 278.5,267.5C 278.667,182.833 278.5,98.166 278,13.5C 277.487,12.4734 276.987,11.4734 276.5,10.5C 276.5,10.1667 276.5,9.83333 276.5,9.5 Z"/></g>
<g><path style="opacity:1" fill="#d35658" d="M 127.5,26.5 C 125.095,27.7682 122.428,28.4349 119.5,28.5C 121.838,26.9605 124.505,26.2938 127.5,26.5 Z"/></g>
<g><path style="opacity:1" fill="#fb080e" d="M 127.5,26.5 C 172.641,23.69 208.474,40.3567 235,76.5C 255.944,110.745 259.277,146.745 245,184.5C 219.029,235.406 177.529,257.906 120.5,252C 69.2397,240.071 38.0731,208.238 27,156.5C 22.0351,102.589 43.2018,62.7552 90.5,37C 99.6953,32.3932 109.362,29.5599 119.5,28.5C 122.428,28.4349 125.095,27.7682 127.5,26.5 Z"/></g>
<g><path style="opacity:1" fill="#fcfbfb" d="M 127.5,48.5 C 172.884,46.4192 205.384,65.7526 225,106.5C 238.716,151.51 226.883,188.01 189.5,216C 153.504,236.507 118.504,235.173 84.5,212C 46.7262,178.04 39.2262,138.206 62,92.5C 74.1544,73.6987 90.6544,60.532 111.5,53C 117.185,51.8271 122.518,50.3271 127.5,48.5 Z"/></g>
<g><path style="opacity:1" fill="#201b19" d="M 152.5,176.5 C 161.632,185.131 170.632,193.964 179.5,203C 175.985,206.682 172.318,210.182 168.5,213.5C 165.849,211.35 163.349,209.017 161,206.5C 160.5,213.492 160.334,220.492 160.5,227.5C 155.5,227.5 150.5,227.5 145.5,227.5C 145.666,220.492 145.5,213.492 145,206.5C 142.651,209.017 140.151,211.35 137.5,213.5C 133.682,210.182 130.015,206.682 126.5,203C 135.369,194.298 144.036,185.465 152.5,176.5 Z"/></g>
<g><path style="opacity:1" fill="#241f1d" d="M 168.5,112.5 C 173.673,112.668 177.506,115.002 180,119.5C 186.499,132.836 187.166,146.502 182,160.5C 172.428,174.528 164.428,173.528 158,157.5C 153.458,142.953 155.125,129.287 163,116.5C 164.812,115.023 166.645,113.69 168.5,112.5 Z"/></g>
<g><path style="opacity:1" fill="#241f1d" d="M 139.5,129.5 C 146.506,129.999 151.006,133.665 153,140.5C 154.204,149.107 153.204,157.441 150,165.5C 142.971,173.631 136.138,173.464 129.5,165C 131.754,163.623 133.92,162.123 136,160.5C 140.936,164.661 143.936,163.328 145,156.5C 145.896,151.051 145.563,145.718 144,140.5C 140.706,137.689 137.706,138.022 135,141.5C 133.698,140.915 132.531,140.249 131.5,139.5C 131.5,130.833 131.5,122.167 131.5,113.5C 137.5,113.5 143.5,113.5 149.5,113.5C 149.5,115.833 149.5,118.167 149.5,120.5C 145.833,120.5 142.167,120.5 138.5,120.5C 138.19,123.713 138.523,126.713 139.5,129.5 Z"/></g>
<g><path style="opacity:1" fill="#f9f8f7" d="M 168.5,122.5 C 172.224,122.05 174.391,123.717 175,127.5C 177.506,138.405 176.839,149.072 173,159.5C 168.989,160.66 166.656,158.993 166,154.5C 163.355,143.466 164.188,132.799 168.5,122.5 Z"/></g>
<g><path style="opacity:1" fill="#423f3e" d="M 139.5,129.5 C 138.523,126.713 138.19,123.713 138.5,120.5C 142.167,120.5 145.833,120.5 149.5,120.5C 149.5,118.167 149.5,115.833 149.5,113.5C 143.5,113.5 137.5,113.5 131.5,113.5C 131.5,122.167 131.5,130.833 131.5,139.5C 130.507,130.682 130.173,121.682 130.5,112.5C 137.167,112.5 143.833,112.5 150.5,112.5C 150.5,115.5 150.5,118.5 150.5,121.5C 146.833,121.5 143.167,121.5 139.5,121.5C 139.5,124.167 139.5,126.833 139.5,129.5 Z"/></g>
<g><path style="opacity:1" fill="#5b5958" d="M 84.5,92.5 C 96.989,91.5046 109.656,91.1713 122.5,91.5C 122.5,97.5 122.5,103.5 122.5,109.5C 115.167,109.5 107.833,109.5 100.5,109.5C 100.5,115.167 100.5,120.833 100.5,126.5C 99.5104,120.69 99.1771,114.69 99.5,108.5C 106.833,108.5 114.167,108.5 121.5,108.5C 121.5,103.167 121.5,97.8333 121.5,92.5C 109.167,92.5 96.8333,92.5 84.5,92.5 Z"/></g>
<g><path style="opacity:1" fill="#211c19" d="M 84.5,92.5 C 96.8333,92.5 109.167,92.5 121.5,92.5C 121.5,97.8333 121.5,103.167 121.5,108.5C 114.167,108.5 106.833,108.5 99.5,108.5C 99.1771,114.69 99.5104,120.69 100.5,126.5C 113.529,127.36 122.029,134.026 126,146.5C 127.886,158.145 127.886,169.812 126,181.5C 124.466,191.071 119.966,198.904 112.5,205C 99.7994,210.653 89.7994,207.653 82.5,196C 86.2443,193.045 90.0776,190.211 94,187.5C 102.166,195.192 107.833,193.525 111,182.5C 113.847,172.581 114.181,162.581 112,152.5C 111.036,146.37 107.536,142.703 101.5,141.5C 97.9046,143.102 94.5712,145.102 91.5,147.5C 88.8702,146.622 86.2035,145.955 83.5,145.5C 84.1849,127.842 84.5183,110.175 84.5,92.5 Z"/></g>
<g><path style="opacity:1" fill="#474544" d="M 161.5,78.5 C 160.501,72.5922 160.167,65.9255 160.5,58.5C 155.833,58.5 151.167,58.5 146.5,58.5C 146.83,65.5316 146.497,72.5316 145.5,79.5C 144.893,79.3764 144.56,79.0431 144.5,78.5C 145.491,71.6866 145.825,64.6866 145.5,57.5C 150.833,57.5 156.167,57.5 161.5,57.5C 161.5,64.5 161.5,71.5 161.5,78.5 Z"/></g>
<g><path style="opacity:1" fill="#201c19" d="M 161.5,78.5 C 164.13,76.3719 166.63,74.0386 169,71.5C 172.5,75 176,78.5 179.5,82C 170.721,90.7792 161.887,99.6126 153,108.5C 144.167,99.6667 135.333,90.8333 126.5,82C 130.054,78.4022 133.721,74.9022 137.5,71.5C 140.188,73.5211 142.521,75.8544 144.5,78.5C 144.56,79.0431 144.893,79.3764 145.5,79.5C 146.497,72.5316 146.83,65.5316 146.5,58.5C 151.167,58.5 155.833,58.5 160.5,58.5C 160.167,65.9255 160.501,72.5922 161.5,78.5 Z"/></g>
<g><path style="opacity:1" fill="#343332" d="M 15.5,267.5 C 98.7626,268.497 182.096,268.83 265.5,268.5C 224.001,269.167 182.335,269.5 140.5,269.5C 98.4946,269.5 56.8279,268.833 15.5,267.5 Z"/></g>
<g><path style="opacity:0.533" fill="#575857" d="M 274.5,272.5 C 274.833,272.5 275.167,272.5 275.5,272.5C 275.315,273.17 274.981,273.17 274.5,272.5 Z"/></g>
<g><path style="opacity:0.478" fill="#626362" d="M 273.5,273.5 C 273.833,273.5 274.167,273.5 274.5,273.5C 274.315,274.17 273.981,274.17 273.5,273.5 Z"/></g>
<g><path style="opacity:0.533" fill="#595959" d="M 12.5,276.5 C 98.179,277.831 183.846,277.831 269.5,276.5C 269.833,276.5 270.167,276.5 270.5,276.5C 270.082,277.222 269.416,277.722 268.5,278C 183.833,278.667 99.1667,278.667 14.5,278C 13.5842,277.722 12.9175,277.222 12.5,276.5 Z"/></g>
</svg>
