<?xml version="1.0" encoding="UTF-8"?>
<!DOCTYPE svg PUBLIC "-//W3C//DTD SVG 1.1//EN" "http://www.w3.org/Graphics/SVG/1.1/DTD/svg11.dtd">
<svg xmlns="http://www.w3.org/2000/svg" version="1.1" width="283px" height="283px" style="shape-rendering:geometricPrecision; text-rendering:geometricPrecision; image-rendering:optimizeQuality; fill-rule:evenodd; clip-rule:evenodd" xmlns:xlink="http://www.w3.org/1999/xlink">
<g><path style="opacity:1" fill="#aaa8a9" d="M 272.5,5.5 C 272.167,5.5 271.833,5.5 271.5,5.5C 270.527,5.01328 269.527,4.51328 268.5,4C 183.501,3.5 98.5007,3.33334 13.5,3.5C 13.1667,3.5 12.8333,3.5 12.5,3.5C 13.6085,2.71003 14.9419,2.21003 16.5,2C 99.5,1.33333 182.5,1.33333 265.5,2C 268.445,2.139 270.779,3.30566 272.5,5.5 Z"/></g>
<g><path style="opacity:1" fill="#f1f1f0" d="M 12.5,3.5 C 12.8333,4.83333 13.1667,4.83333 13.5,3.5C 98.5007,3.33334 183.501,3.5 268.5,4C 269.527,4.51328 270.527,5.01328 271.5,5.5C 271.833,6.83333 272.167,6.83333 272.5,5.5C 275.173,5.68448 275.84,6.85115 274.5,9C 275.253,10.487 276.086,10.6537 277,9.5C 277.333,10.1667 277.667,10.8333 278,11.5C 278.667,97.5 278.667,183.5 278,269.5C 277.051,271.093 275.885,272.426 274.5,273.5C 274.167,272.167 273.833,272.167 273.5,273.5C 272.167,273.833 272.167,274.167 273.5,274.5C 272.089,276.539 270.089,277.539 267.5,277.5C 267.167,276.167 266.833,276.167 266.5,277.5C 182.833,277.667 99.166,277.5 15.5,277C 13.8455,276.392 12.1789,275.892 10.5,275.5C 8.62143,275.607 8.2881,275.107 9.5,274C 8.74714,272.513 7.9138,272.346 7,273.5C 5.9055,271.922 5.07217,270.255 4.5,268.5C 4.5,184.5 4.5,100.5 4.5,16.5C 4.39387,13.9214 5.06054,11.588 6.5,9.5C 8.23267,8.99236 8.566,8.15902 7.5,7C 8.78925,5.19784 10.4559,4.03118 12.5,3.5 Z"/></g>
<g><path style="opacity:1" fill="#121110" d="M 7.5,263.5 C 7.16963,180.096 7.50296,96.7626 8.5,13.5C 9.6799,10.1554 12.0132,7.98869 15.5,7C 99.1667,6.33333 182.833,6.33333 266.5,7C 269.937,8.10491 272.437,10.2716 274,13.5C 274.667,97.8333 274.667,182.167 274,266.5C 272.5,269.333 270.333,271.5 267.5,273C 182.833,273.667 98.1667,273.667 13.5,273C 10.0201,270.703 8.02013,267.536 7.5,263.5 Z"/></g>
<g><path style="opacity:1" fill="#fcfbfb" d="M 264.5,268.5 C 181.429,268.83 98.4293,268.497 15.5,267.5C 14.2101,266.942 13.3768,265.942 13,264.5C 12.3333,181.167 12.3333,97.8333 13,14.5C 14.1711,13.1068 15.6711,12.2735 17.5,12C 99.8333,11.3333 182.167,11.3333 264.5,12C 266.286,12.7845 267.786,13.9512 269,15.5C 269.667,98.5 269.667,181.5 269,264.5C 268.208,266.644 266.708,267.977 264.5,268.5 Z"/></g>
<g><path style="opacity:0.302" fill="#838280" d="M 6.5,9.5 C 5.06054,11.588 4.39387,13.9214 4.5,16.5C 3.83333,99.1667 3.16667,181.833 2.5,264.5C 2.33334,181.166 2.5,97.8327 3,14.5C 3.47093,12.7536 4.13759,11.087 5,9.5C 5.68999,8.26166 6.18999,8.26166 6.5,9.5 Z"/></g>
<g><path style="opacity:1" fill="#e7e6e5" d="M 8.5,13.5 C 7.50296,96.7626 7.16963,180.096 7.5,263.5C 6.83334,222.001 6.50001,180.335 6.5,138.5C 6.50008,96.4946 7.16674,54.8279 8.5,13.5 Z"/></g>
<g><path style="opacity:1" fill="#d0cfcd" d="M 4.5,16.5 C 4.5,100.5 4.5,184.5 4.5,268.5C 3.65536,267.329 2.98869,265.995 2.5,264.5C 3.16667,181.833 3.83333,99.1667 4.5,16.5 Z"/></g>
<g><path style="opacity:1" fill="#de2d2f" d="M 155.5,26.5 C 145.5,26.5 135.5,26.5 125.5,26.5C 135.508,23.9157 145.508,23.9157 155.5,26.5 Z"/></g>
<g><path style="opacity:1" fill="#ef4b48" d="M 253.5,120.5 C 254.942,125.255 255.608,130.255 255.5,135.5C 255.319,142.696 254.652,149.696 253.5,156.5C 254.549,144.49 254.549,132.49 253.5,120.5 Z"/></g>
<g><path style="opacity:1" fill="#fb080e" d="M 125.5,26.5 C 135.5,26.5 145.5,26.5 155.5,26.5C 194.744,31.5429 223.91,51.5429 243,86.5C 248.362,97.2864 251.862,108.62 253.5,120.5C 254.549,132.49 254.549,144.49 253.5,156.5C 244.558,201.947 218.225,232.447 174.5,248C 159.792,251.958 144.792,253.458 129.5,252.5C 127.162,250.96 124.495,250.294 121.5,250.5C 81.0604,242.585 52.5604,219.585 36,181.5C 18.3896,128.092 30.8896,83.259 73.5,47C 84.705,39.3975 96.705,33.3975 109.5,29C 114.686,27.2154 120.02,26.3821 125.5,26.5 Z"/></g>
<g><path style="opacity:1" fill="#848181" d="M 73.5,142.5 C 74.0431,142.56 74.3764,142.893 74.5,143.5C 67.8665,144.497 61.1998,144.83 54.5,144.5C 54.5,149.5 54.5,154.5 54.5,159.5C 54.1667,159.5 53.8333,159.5 53.5,159.5C 53.5,159.167 53.5,158.833 53.5,158.5C 53.5,153.5 53.5,148.5 53.5,143.5C 60.3543,143.824 67.021,143.491 73.5,142.5 Z"/></g>
<g><path style="opacity:1" fill="#211c19" d="M 54.5,159.5 C 54.5,154.5 54.5,149.5 54.5,144.5C 61.1998,144.83 67.8665,144.497 74.5,143.5C 74.3764,142.893 74.0431,142.56 73.5,142.5C 71.7059,140.203 69.7059,138.037 67.5,136C 71,132.5 74.5,129 78,125.5C 86.8333,134.333 95.6667,143.167 104.5,152C 95.6667,160.833 86.8333,169.667 78,178.5C 74.3176,174.985 70.8176,171.318 67.5,167.5C 69.6499,164.849 71.9832,162.349 74.5,160C 67.8417,159.5 61.175,159.334 54.5,159.5 Z"/></g>
<g><path style="opacity:1" fill="#fcfbfb" d="M 155.5,228.5 C 147.868,229.358 140.201,229.691 132.5,229.5C 91.1647,223.168 64.8314,199.835 53.5,159.5C 53.8333,159.5 54.1667,159.5 54.5,159.5C 61.175,159.334 67.8417,159.5 74.5,160C 71.9832,162.349 69.6499,164.849 67.5,167.5C 70.8176,171.318 74.3176,174.985 78,178.5C 86.8333,169.667 95.6667,160.833 104.5,152C 95.6667,143.167 86.8333,134.333 78,125.5C 74.5,129 71,132.5 67.5,136C 69.7059,138.037 71.7059,140.203 73.5,142.5C 67.021,143.491 60.3543,143.824 53.5,143.5C 53.5,148.5 53.5,153.5 53.5,158.5C 45.6671,111.332 63.0004,76.8324 105.5,55C 149.493,39.7311 186.159,49.8977 215.5,85.5C 238.307,121.261 238.14,156.927 215,192.5C 199.889,212.306 180.056,224.306 155.5,228.5 Z"/></g>
<g><path style="opacity:1" fill="#979493" d="M 223.5,159.5 C 216.833,160.167 210.167,160.833 203.5,161.5C 202.711,161.217 202.044,160.717 201.5,160C 208.826,159.5 216.159,159.334 223.5,159.5 Z"/></g>
<g><path style="opacity:1" fill="#211c1a" d="M 223.5,159.5 C 216.159,159.334 208.826,159.5 201.5,160C 202.044,160.717 202.711,161.217 203.5,161.5C 205.963,163.461 208.297,165.628 210.5,168C 206.367,171.131 202.534,174.631 199,178.5C 190.167,169.667 181.333,160.833 172.5,152C 181.333,143.167 190.167,134.333 199,125.5C 202.833,129.333 206.667,133.167 210.5,137C 207.537,138.961 204.871,141.294 202.5,144C 209.492,144.5 216.492,144.666 223.5,144.5C 223.5,149.5 223.5,154.5 223.5,159.5 Z"/></g>
<g><path style="opacity:1" fill="#221e1b" d="M 179.5,75.5 C 184.74,74.5384 188.907,76.2051 192,80.5C 198.179,93.3816 199.179,106.715 195,120.5C 192.881,126.62 188.881,130.62 183,132.5C 179.913,132.096 177.246,130.763 175,128.5C 168.429,115.867 166.762,102.533 170,88.5C 171.735,82.9944 174.901,78.6611 179.5,75.5 Z"/></g>
<g><path style="opacity:1" fill="#231e1c" d="M 162.5,83.5 C 158.833,83.5 155.167,83.5 151.5,83.5C 150.945,87.0122 151.612,90.0122 153.5,92.5C 159.655,93.1542 163.488,96.4875 165,102.5C 165.667,108.167 165.667,113.833 165,119.5C 163.905,129.609 158.405,134.109 148.5,133C 145.833,131.667 143.833,129.667 142.5,127C 145.456,123.253 148.789,122.753 152.5,125.5C 153.672,125.081 154.672,124.415 155.5,123.5C 158.602,117.072 159.102,110.406 157,103.5C 153.877,99.5664 150.71,99.5664 147.5,103.5C 146.264,102.754 144.93,102.421 143.5,102.5C 143.5,100.5 143.5,98.5 143.5,96.5C 144.491,89.6866 144.825,82.6866 144.5,75.5C 150.5,75.5 156.5,75.5 162.5,75.5C 162.5,78.1667 162.5,80.8333 162.5,83.5 Z"/></g>
<g><path style="opacity:1" fill="#999695" d="M 162.5,83.5 C 162.833,83.5 163.167,83.5 163.5,83.5C 160.038,84.4816 156.371,84.815 152.5,84.5C 152.279,87.2788 152.612,89.9455 153.5,92.5C 151.612,90.0122 150.945,87.0122 151.5,83.5C 155.167,83.5 158.833,83.5 162.5,83.5 Z"/></g>
<g><path style="opacity:1" fill="#f3f3f2" d="M 181.5,84.5 C 184.595,84.6263 186.428,86.293 187,89.5C 190.589,100.761 189.923,111.761 185,122.5C 184.439,123.022 183.772,123.355 183,123.5C 180.974,122.48 179.641,120.813 179,118.5C 175.011,106.742 175.844,95.4087 181.5,84.5 Z"/></g>
<g><path style="opacity:1" fill="#211c1a" d="M 97.5,75.5 C 109.5,75.5 121.5,75.5 133.5,75.5C 133.5,80.8333 133.5,86.1667 133.5,91.5C 126.313,91.1755 119.313,91.5088 112.5,92.5C 112.5,98.1667 112.5,103.833 112.5,109.5C 126.882,110.042 135.715,117.375 139,131.5C 140.856,142.868 140.523,154.202 138,165.5C 136.287,176.126 130.787,183.959 121.5,189C 110.886,192.573 102.386,189.74 96,180.5C 95.2888,178.633 95.7888,177.133 97.5,176C 100.632,174.365 103.632,172.532 106.5,170.5C 108.659,172.995 111.326,174.661 114.5,175.5C 119.599,173.214 122.765,169.214 124,163.5C 125.548,154.562 125.881,145.562 125,136.5C 121.169,123.033 114.169,121.033 104,130.5C 101.485,129.885 99.152,128.885 97,127.5C 96.3891,110.158 96.5558,92.8246 97.5,75.5 Z"/></g>
<g><path style="opacity:1" fill="#4a4746" d="M 163.5,83.5 C 163.167,83.5 162.833,83.5 162.5,83.5C 162.5,80.8333 162.5,78.1667 162.5,75.5C 156.5,75.5 150.5,75.5 144.5,75.5C 144.825,82.6866 144.491,89.6866 143.5,96.5C 143.5,89.1667 143.5,81.8333 143.5,74.5C 150.167,74.5 156.833,74.5 163.5,74.5C 163.5,77.5 163.5,80.5 163.5,83.5 Z"/></g>
<g><path style="opacity:1" fill="#4f4c4b" d="M 97.5,75.5 C 109.655,74.5048 121.989,74.1714 134.5,74.5C 134.5,80.5 134.5,86.5 134.5,92.5C 127.167,92.5 119.833,92.5 112.5,92.5C 119.313,91.5088 126.313,91.1755 133.5,91.5C 133.5,86.1667 133.5,80.8333 133.5,75.5C 121.5,75.5 109.5,75.5 97.5,75.5 Z"/></g>
<g><path style="opacity:1" fill="#c75654" d="M 155.5,228.5 C 154.737,229.268 153.737,229.768 152.5,230C 145.654,230.821 138.987,230.654 132.5,229.5C 140.201,229.691 147.868,229.358 155.5,228.5 Z"/></g>
<g><path style="opacity:1" fill="#e56165" d="M 121.5,250.5 C 124.495,250.294 127.162,250.96 129.5,252.5C 126.572,252.435 123.905,251.768 121.5,250.5 Z"/></g>
<g><path style="opacity:1" fill="#343434" d="M 15.5,267.5 C 98.4293,268.497 181.429,268.83 264.5,268.5C 223.168,269.167 181.668,269.5 140,269.5C 98.1613,269.5 56.6613,268.833 15.5,267.5 Z"/></g>
<g><path style="opacity:0.471" fill="#565756" d="M 273.5,273.5 C 273.833,273.5 274.167,273.5 274.5,273.5C 274.315,274.17 273.981,274.17 273.5,273.5 Z"/></g>
<g><path style="opacity:0.463" fill="#5a5a5a" d="M 10.5,275.5 C 12.1789,275.892 13.8455,276.392 15.5,277C 99.166,277.5 182.833,277.667 266.5,277.5C 266.833,277.5 267.167,277.5 267.5,277.5C 183.334,278.666 99.001,278.832 14.5,278C 12.6803,277.8 11.347,276.966 10.5,275.5 Z"/></g>
</svg>
