<?xml version="1.0" encoding="UTF-8"?>
<!DOCTYPE svg PUBLIC "-//W3C//DTD SVG 1.1//EN" "http://www.w3.org/Graphics/SVG/1.1/DTD/svg11.dtd">
<svg xmlns="http://www.w3.org/2000/svg" version="1.1" width="292px" height="293px" style="shape-rendering:geometricPrecision; text-rendering:geometricPrecision; image-rendering:optimizeQuality; fill-rule:evenodd; clip-rule:evenodd" xmlns:xlink="http://www.w3.org/1999/xlink">
<g><path style="opacity:1" fill="#f4e924" d="M 129.5,281.5 C 92.4669,243.8 55.1336,206.467 17.5,169.5C 7.05795,155.97 6.89128,142.304 17,128.5C 52.0608,94.6056 86.5608,60.2722 120.5,25.5C 124.05,22.0249 127.717,18.5249 131.5,15C 142.778,7.67938 154.111,7.67938 165.5,15C 204.333,53.8333 243.167,92.6667 282,131.5C 289.542,143.682 289.209,155.682 281,167.5C 242.833,205.667 204.667,243.833 166.5,282C 153.998,290.776 141.664,290.61 129.5,281.5 Z"/></g>
<g><path style="opacity:1" fill="#9e9b62" d="M 114.5,77.5 C 103.654,77.1722 92.9869,77.5056 82.5,78.5C 81.9569,78.44 81.6236,78.1067 81.5,77.5C 92.6596,76.1762 103.66,76.1762 114.5,77.5 Z"/></g>
<g><path style="opacity:1" fill="#9d9a62" d="M 182.5,77.5 C 193.007,76.1765 203.674,76.1765 214.5,77.5C 214.376,78.1067 214.043,78.44 213.5,78.5C 203.347,77.5058 193.014,77.1724 182.5,77.5 Z"/></g>
<g><path style="opacity:1" fill="#383636" d="M 82.5,78.5 C 92.9869,77.5056 103.654,77.1722 114.5,77.5C 125.417,94.4226 136.75,111.089 148.5,127.5C 160.25,111.089 171.583,94.4226 182.5,77.5C 193.014,77.1724 203.347,77.5058 213.5,78.5C 197.221,102.62 180.721,126.62 164,150.5C 163.5,179.165 163.333,207.831 163.5,236.5C 153.833,236.5 144.167,236.5 134.5,236.5C 134.833,207.826 134.5,179.159 133.5,150.5C 116.443,126.459 99.4426,102.459 82.5,78.5 Z"/></g>
<g><path style="opacity:0.998" fill="#3b3935" d="M 116.5,21.5 C 116.343,22.8734 116.51,24.2068 117,25.5C 117.986,24.8288 119.153,24.8288 120.5,25.5C 86.5608,60.2722 52.0608,94.6056 17,128.5C 6.89128,142.304 7.05795,155.97 17.5,169.5C 55.1336,206.467 92.4669,243.8 129.5,281.5C 126.858,281.488 125.525,282.821 125.5,285.5C 87.2013,247.701 49.0346,209.701 11,171.5C 0.728955,155.912 1.06229,140.579 12,125.5C 46.7013,90.6319 81.5346,55.9652 116.5,21.5 Z"/></g>
<g><path style="opacity:0.958" fill="#333230" d="M 291.5,136.5 C 291.5,144.833 291.5,153.167 291.5,161.5C 289.653,165.373 287.32,169.04 284.5,172.5C 245.626,210.874 206.96,249.374 168.5,288C 165.609,289.274 162.942,290.774 160.5,292.5C 152.5,292.5 144.5,292.5 136.5,292.5C 132.359,290.928 128.692,288.595 125.5,285.5C 125.525,282.821 126.858,281.488 129.5,281.5C 141.664,290.61 153.998,290.776 166.5,282C 204.667,243.833 242.833,205.667 281,167.5C 289.209,155.682 289.542,143.682 282,131.5C 243.167,92.6667 204.333,53.8333 165.5,15C 154.111,7.67938 142.778,7.67938 131.5,15C 127.717,18.5249 124.05,22.0249 120.5,25.5C 119.153,24.8288 117.986,24.8288 117,25.5C 116.51,24.2068 116.343,22.8734 116.5,21.5C 130.652,3.19756 147.986,-0.635772 168.5,10C 206.903,48.2809 245.403,86.4476 284,124.5C 286.79,128.428 289.29,132.428 291.5,136.5 Z"/></g>
</svg>
