<?xml version="1.0" encoding="UTF-8"?>
<!DOCTYPE svg PUBLIC "-//W3C//DTD SVG 1.1//EN" "http://www.w3.org/Graphics/SVG/1.1/DTD/svg11.dtd">
<svg xmlns="http://www.w3.org/2000/svg" version="1.1" width="292px" height="293px" style="shape-rendering:geometricPrecision; text-rendering:geometricPrecision; image-rendering:optimizeQuality; fill-rule:evenodd; clip-rule:evenodd" xmlns:xlink="http://www.w3.org/1999/xlink">
<g><path style="opacity:0.944" fill="#30302f" d="M 139.5,-0.5 C 141.833,-0.5 144.167,-0.5 146.5,-0.5C 152.451,0.545113 158.118,2.71178 163.5,6C 203,45.5 242.5,85 282,124.5C 290.896,138.748 290.563,152.748 281,166.5C 241.833,205.667 202.667,244.833 163.5,284C 148.764,292.535 134.431,291.868 120.5,282C 82.6667,244.167 44.8333,206.333 7,168.5C 4.20983,164.572 1.70983,160.572 -0.5,156.5C -0.5,148.833 -0.5,141.167 -0.5,133.5C 1.3727,129.763 3.53937,126.096 6,122.5C 44.5,84 83,45.5 121.5,7C 127.149,3.40228 133.149,0.902276 139.5,-0.5 Z"/></g>
<g><path style="opacity:1" fill="#ebde2a" d="M 272.5,166.5 C 245.5,194.167 218.167,221.5 190.5,248.5C 190.586,247.504 190.252,246.671 189.5,246C 191.64,245.027 193.307,243.527 194.5,241.5C 191.972,240.483 191.972,239.316 194.5,238C 194.167,237.667 193.833,237.333 193.5,237C 196.101,236.08 198.768,235.413 201.5,235C 202.815,233.605 202.481,232.605 200.5,232C 200.966,230.701 200.966,229.201 200.5,227.5C 203.386,228.246 206.386,228.08 209.5,227C 209.5,225 209.5,223 209.5,221C 212.101,220.08 214.768,219.413 217.5,219C 217.5,217 217.5,215 217.5,213C 220.101,212.08 222.768,211.413 225.5,211C 225.745,208.911 225.745,206.911 225.5,205C 228.101,204.08 230.768,203.413 233.5,203C 233.5,201 233.5,199 233.5,197C 236.101,196.08 238.768,195.413 241.5,195C 241.5,193 241.5,191 241.5,189C 244.101,188.08 246.768,187.413 249.5,187C 249.5,185 249.5,183 249.5,181C 252.101,180.08 254.768,179.413 257.5,179C 257.5,177 257.5,175 257.5,173C 260.639,172.246 263.639,171.246 266.5,170C 265.833,169.333 265.167,168.667 264.5,168C 264.966,166.701 264.966,165.201 264.5,163.5C 266.821,164.625 269.154,164.792 271.5,164C 269.258,165.007 269.592,165.841 272.5,166.5 Z"/></g>
<g><path style="opacity:1" fill="#f4e924" d="M 272.5,166.5 C 269.592,165.841 269.258,165.007 271.5,164C 269.154,164.792 266.821,164.625 264.5,163.5C 264.966,165.201 264.966,166.701 264.5,168C 265.167,168.667 265.833,169.333 266.5,170C 263.639,171.246 260.639,172.246 257.5,173C 257.5,175 257.5,177 257.5,179C 254.768,179.413 252.101,180.08 249.5,181C 249.5,183 249.5,185 249.5,187C 246.768,187.413 244.101,188.08 241.5,189C 241.5,191 241.5,193 241.5,195C 238.768,195.413 236.101,196.08 233.5,197C 233.5,199 233.5,201 233.5,203C 230.768,203.413 228.101,204.08 225.5,205C 225.745,206.911 225.745,208.911 225.5,211C 222.768,211.413 220.101,212.08 217.5,213C 217.5,215 217.5,217 217.5,219C 214.768,219.413 212.101,220.08 209.5,221C 209.5,223 209.5,225 209.5,227C 206.386,228.08 203.386,228.246 200.5,227.5C 200.966,229.201 200.966,230.701 200.5,232C 202.481,232.605 202.815,233.605 201.5,235C 198.768,235.413 196.101,236.08 193.5,237C 193.833,237.333 194.167,237.667 194.5,238C 191.972,239.316 191.972,240.483 194.5,241.5C 193.307,243.527 191.64,245.027 189.5,246C 190.252,246.671 190.586,247.504 190.5,248.5C 181.036,258.465 171.369,268.298 161.5,278C 147.37,287.355 134.037,286.355 121.5,275C 105.965,259.632 90.6315,244.132 75.5,228.5C 77.3304,225.162 76.3304,223.496 72.5,223.5C 71.5504,220.932 71.5504,218.432 72.5,216C 70.36,215.027 68.6933,213.527 67.5,211.5C 66.2638,212.246 64.9305,212.579 63.5,212.5C 63.2865,210.856 63.6198,209.356 64.5,208C 62.36,207.027 60.6933,205.527 59.5,203.5C 58.2638,204.246 56.9305,204.579 55.5,204.5C 55.2865,202.856 55.6198,201.356 56.5,200C 54.36,199.027 52.6933,197.527 51.5,195.5C 50.2638,196.246 48.9305,196.579 47.5,196.5C 47.2865,194.856 47.6198,193.356 48.5,192C 46.36,191.027 44.6933,189.527 43.5,187.5C 42.2638,188.246 40.9305,188.579 39.5,188.5C 39.2865,186.856 39.6198,185.356 40.5,184C 38.36,183.027 36.6933,181.527 35.5,179.5C 34.2638,180.246 32.9305,180.579 31.5,180.5C 31.2865,178.856 31.6198,177.356 32.5,176C 30.36,175.027 28.6933,173.527 27.5,171.5C 26.2638,172.246 24.9305,172.579 23.5,172.5C 23.8072,170.554 23.8072,168.887 23.5,167.5C 22.7022,169.078 22.2022,170.744 22,172.5C 21.31,171.262 20.81,171.262 20.5,172.5C 3.89267,161.177 0.0593414,146.511 9,128.5C 46.4721,90.0277 84.3054,51.861 122.5,14C 134.976,3.60043 147.976,2.93376 161.5,12C 199.667,50.1667 237.833,88.3333 276,126.5C 285.639,140.898 284.472,154.232 272.5,166.5 Z"/></g>
<g><path style="opacity:1" fill="#5b5956" d="M 139.5,65.5 C 132.018,66.492 124.352,66.8254 116.5,66.5C 116.5,119.167 116.5,171.833 116.5,224.5C 115.501,171.669 115.168,118.669 115.5,65.5C 123.5,65.5 131.5,65.5 139.5,65.5 Z"/></g>
<g><path style="opacity:1" fill="#383636" d="M 139.5,65.5 C 141.322,82.1371 142.156,99.1371 142,116.5C 153.177,99.4715 164.344,82.4715 175.5,65.5C 184.682,65.1734 193.682,65.5067 202.5,66.5C 182.921,95.9292 163.088,125.262 143,154.5C 142.5,177.831 142.333,201.164 142.5,224.5C 133.833,224.5 125.167,224.5 116.5,224.5C 116.5,171.833 116.5,119.167 116.5,66.5C 124.352,66.8254 132.018,66.492 139.5,65.5 Z"/></g>
<g><path style="opacity:1" fill="#d3ca49" d="M 202.5,66.5 C 193.682,65.5067 184.682,65.1734 175.5,65.5C 183.902,64.8202 192.402,64.1535 201,63.5C 201.925,64.0465 202.758,64.7132 203.5,65.5C 203.376,66.1067 203.043,66.44 202.5,66.5 Z"/></g>
<g><path style="opacity:1" fill="#ebdf2a" d="M 75.5,228.5 C 57.0787,210.556 38.912,192.556 21,174.5C 20.5357,173.906 20.369,173.239 20.5,172.5C 20.81,171.262 21.31,171.262 22,172.5C 22.2022,170.744 22.7022,169.078 23.5,167.5C 23.8072,168.887 23.8072,170.554 23.5,172.5C 24.9305,172.579 26.2638,172.246 27.5,171.5C 28.6933,173.527 30.36,175.027 32.5,176C 31.6198,177.356 31.2865,178.856 31.5,180.5C 32.9305,180.579 34.2638,180.246 35.5,179.5C 36.6933,181.527 38.36,183.027 40.5,184C 39.6198,185.356 39.2865,186.856 39.5,188.5C 40.9305,188.579 42.2638,188.246 43.5,187.5C 44.6933,189.527 46.36,191.027 48.5,192C 47.6198,193.356 47.2865,194.856 47.5,196.5C 48.9305,196.579 50.2638,196.246 51.5,195.5C 52.6933,197.527 54.36,199.027 56.5,200C 55.6198,201.356 55.2865,202.856 55.5,204.5C 56.9305,204.579 58.2638,204.246 59.5,203.5C 60.6933,205.527 62.36,207.027 64.5,208C 63.6198,209.356 63.2865,210.856 63.5,212.5C 64.9305,212.579 66.2638,212.246 67.5,211.5C 68.6933,213.527 70.36,215.027 72.5,216C 71.5504,218.432 71.5504,220.932 72.5,223.5C 76.3304,223.496 77.3304,225.162 75.5,228.5 Z"/></g>
</svg>
