<?xml version="1.0" encoding="UTF-8"?>
<!DOCTYPE svg PUBLIC "-//W3C//DTD SVG 1.1//EN" "http://www.w3.org/Graphics/SVG/1.1/DTD/svg11.dtd">
<svg xmlns="http://www.w3.org/2000/svg" version="1.1" width="292px" height="293px" style="shape-rendering:geometricPrecision; text-rendering:geometricPrecision; image-rendering:optimizeQuality; fill-rule:evenodd; clip-rule:evenodd" xmlns:xlink="http://www.w3.org/1999/xlink">
<g><path style="opacity:0.979" fill="#333230" d="M 138.5,1.5 C 149.561,-0.0679771 159.561,2.43202 168.5,9C 206.667,47.1667 244.833,85.3333 283,123.5C 292.572,137.974 292.905,152.641 284,167.5C 245.167,206.333 206.333,245.167 167.5,284C 151.082,294.62 135.416,293.62 120.5,281C 82.6667,242.833 44.8333,204.667 7,166.5C -1.89643,152.252 -1.5631,138.252 8,124.5C 46.5,86 85,47.5 123.5,9C 128.045,5.39389 133.045,2.89389 138.5,1.5 Z"/></g>
<g><path style="opacity:1" fill="#e8dc2c" d="M 284.5,152.5 C 282.872,157.09 280.705,161.423 278,165.5C 255.632,188.035 233.132,210.368 210.5,232.5C 209.91,230.903 208.91,229.569 207.5,228.5C 208.833,228.167 210.167,227.833 211.5,227.5C 211.937,224.949 211.937,222.282 211.5,219.5C 212.723,218.386 214.056,218.219 215.5,219C 213.431,219.324 213.098,220.158 214.5,221.5C 213.452,223.456 212.952,225.456 213,227.5C 214.736,224.633 216.736,221.966 219,219.5C 219.333,219.833 219.667,220.167 220,220.5C 222.968,216.196 226.301,212.863 230,210.5C 231.793,208.03 233.627,205.53 235.5,203C 234.167,200.667 234.833,199.667 237.5,200C 236.483,201.049 236.316,202.216 237,203.5C 239.005,200.57 241.172,197.737 243.5,195C 242.167,192.667 242.833,191.667 245.5,192C 244.483,193.049 244.316,194.216 245,195.5C 247.005,192.57 249.172,189.737 251.5,187C 250.167,184.667 250.833,183.667 253.5,184C 252.483,185.049 252.316,186.216 253,187.5C 255.005,184.57 257.172,181.737 259.5,179C 260.131,176.688 260.131,174.188 259.5,171.5C 260.723,170.386 262.056,170.219 263.5,171C 262.833,171.333 262.167,171.667 261.5,172C 262.784,172.684 263.951,172.517 265,171.5C 265.308,172.308 265.808,172.975 266.5,173.5C 267.645,172.224 267.645,170.891 266.5,169.5C 268.531,167.751 268.865,165.751 267.5,163.5C 269.473,162.669 271.473,162.502 273.5,163C 274.227,161.601 274.727,160.101 275,158.5C 275.654,159.696 276.154,159.696 276.5,158.5C 275.41,157.391 275.41,156.391 276.5,155.5C 279.422,154.993 282.089,153.993 284.5,152.5 Z"/></g>
<g><path style="opacity:1" fill="#f4e924" d="M 284.5,152.5 C 282.089,153.993 279.422,154.993 276.5,155.5C 275.41,156.391 275.41,157.391 276.5,158.5C 276.154,159.696 275.654,159.696 275,158.5C 274.727,160.101 274.227,161.601 273.5,163C 271.473,162.502 269.473,162.669 267.5,163.5C 268.865,165.751 268.531,167.751 266.5,169.5C 267.645,170.891 267.645,172.224 266.5,173.5C 265.808,172.975 265.308,172.308 265,171.5C 263.951,172.517 262.784,172.684 261.5,172C 262.167,171.667 262.833,171.333 263.5,171C 262.056,170.219 260.723,170.386 259.5,171.5C 260.131,174.188 260.131,176.688 259.5,179C 257.172,181.737 255.005,184.57 253,187.5C 252.316,186.216 252.483,185.049 253.5,184C 250.833,183.667 250.167,184.667 251.5,187C 249.172,189.737 247.005,192.57 245,195.5C 244.316,194.216 244.483,193.049 245.5,192C 242.833,191.667 242.167,192.667 243.5,195C 241.172,197.737 239.005,200.57 237,203.5C 236.316,202.216 236.483,201.049 237.5,200C 234.833,199.667 234.167,200.667 235.5,203C 233.627,205.53 231.793,208.03 230,210.5C 226.301,212.863 222.968,216.196 220,220.5C 219.667,220.167 219.333,219.833 219,219.5C 216.736,221.966 214.736,224.633 213,227.5C 212.952,225.456 213.452,223.456 214.5,221.5C 213.098,220.158 213.431,219.324 215.5,219C 214.056,218.219 212.723,218.386 211.5,219.5C 211.937,222.282 211.937,224.949 211.5,227.5C 210.167,227.833 208.833,228.167 207.5,228.5C 208.91,229.569 209.91,230.903 210.5,232.5C 194.308,249.859 177.308,266.359 159.5,282C 148.82,286.999 138.487,286.333 128.5,280C 89.6667,241.167 50.8333,202.333 12,163.5C 4.3687,151.241 4.70204,139.241 13,127.5C 51.861,88.3055 91.0276,49.4721 130.5,11C 145.765,4.27552 159.098,6.94219 170.5,19C 206.817,55.9301 243.317,92.7634 280,129.5C 284.038,136.629 285.538,144.296 284.5,152.5 Z"/></g>
<g><path style="opacity:1" fill="#292929" d="M 130.5,54.5 C 140.958,62.4525 151.292,70.6192 161.5,79C 157.514,79.4988 153.514,79.6655 149.5,79.5C 149.884,84.7681 152.217,88.9347 156.5,92C 170.577,92.3469 182.077,97.8469 191,108.5C 200.158,131.377 193.324,147.877 170.5,158C 162.453,158.617 154.786,160.617 147.5,164C 142.161,168.463 140.994,173.963 144,180.5C 145.088,184.182 147.254,187.016 150.5,189C 156.422,190.828 162.422,192.495 168.5,194C 178.273,197.442 184.106,204.275 186,214.5C 186.5,221.826 186.666,229.159 186.5,236.5C 171.833,236.5 157.167,236.5 142.5,236.5C 142.941,227.724 142.441,219.058 141,210.5C 139.5,209 138,207.5 136.5,206C 121.775,205.668 109.942,199.835 101,188.5C 92.9042,168.462 98.7375,153.962 118.5,145C 125.534,143.399 132.534,141.732 139.5,140C 148.448,135.918 152.614,129.084 152,119.5C 150.193,113.693 146.36,109.859 140.5,108C 129.467,107.231 119.967,103.065 112,95.5C 109.267,90.3999 108.767,85.0666 110.5,79.5C 105.489,79.6659 100.489,79.4993 95.5,79C 107.233,70.8111 118.9,62.6444 130.5,54.5 Z"/></g>
</svg>
