<?xml version="1.0" encoding="UTF-8"?>
<!DOCTYPE svg PUBLIC "-//W3C//DTD SVG 1.1//EN" "http://www.w3.org/Graphics/SVG/1.1/DTD/svg11.dtd">
<svg xmlns="http://www.w3.org/2000/svg" version="1.1" width="283px" height="283px" style="shape-rendering:geometricPrecision; text-rendering:geometricPrecision; image-rendering:optimizeQuality; fill-rule:evenodd; clip-rule:evenodd" xmlns:xlink="http://www.w3.org/1999/xlink">
<g><path style="opacity:0.306" fill="#7f7f7f" d="M 15.5,1.5 C 98.834,1.33334 182.167,1.5 265.5,2C 267.246,2.47093 268.913,3.13759 270.5,4C 271.738,4.68999 271.738,5.18999 270.5,5.5C 268.703,4.27024 266.703,3.60357 264.5,3.5C 181.5,2.83333 98.5,2.16667 15.5,1.5 Z"/></g>
<g><path style="opacity:1" fill="#d0d0d0" d="M 15.5,1.5 C 98.5,2.16667 181.5,2.83333 264.5,3.5C 180.166,3.33334 95.8327,3.5 11.5,4C 10.0161,4.66218 8.68275,5.49551 7.5,6.5C 6.66763,5.67149 7.00097,4.83816 8.5,4C 10.743,2.86381 13.0763,2.03048 15.5,1.5 Z"/></g>
<g><path style="opacity:1" fill="#f0f0ef" d="M 264.5,3.5 C 266.703,3.60357 268.703,4.27024 270.5,5.5C 271.931,6.42102 273.264,7.42102 274.5,8.5C 273.167,8.83333 273.167,9.16667 274.5,9.5C 274.987,10.4734 275.487,11.4734 276,12.5C 276.667,97.5 276.667,182.5 276,267.5C 275.487,268.527 274.987,269.527 274.5,270.5C 273.167,270.833 273.167,271.167 274.5,271.5C 274.5,273.5 273.5,274.5 271.5,274.5C 271.167,273.167 270.833,273.167 270.5,274.5C 269.167,274.833 269.167,275.167 270.5,275.5C 270.158,276.338 269.492,276.672 268.5,276.5C 268.167,275.167 267.833,275.167 267.5,276.5C 183.528,277.658 99.528,277.825 15.5,277C 13.7525,276.648 12.0858,276.148 10.5,275.5C 10.1667,274.167 9.83333,274.167 9.5,275.5C 7.62143,275.607 7.2881,275.107 8.5,274C 7.9558,273.283 7.28913,272.783 6.5,272.5C 4.81957,270.473 3.65291,268.139 3,265.5C 2.33333,181.5 2.33333,97.5 3,13.5C 3.84661,11.8068 4.67994,10.1401 5.5,8.5C 6.5,8.16667 7.16667,7.5 7.5,6.5C 8.68275,5.49551 10.0161,4.66218 11.5,4C 95.8327,3.5 180.166,3.33334 264.5,3.5 Z"/></g>
<g><path style="opacity:1" fill="#131313" d="M 13.5,6.5 C 97.5007,6.33334 181.501,6.5 265.5,7C 269.333,8.16667 271.833,10.6667 273,14.5C 273.667,98.1667 273.667,181.833 273,265.5C 271.895,268.937 269.728,271.437 266.5,273C 182.167,273.667 97.8333,273.667 13.5,273C 11.3762,271.878 9.5429,270.378 8,268.5C 6.33893,183.581 6.00559,98.5813 7,13.5C 8.69406,10.6424 10.8607,8.30904 13.5,6.5 Z"/></g>
<g><path style="opacity:1" fill="#fcfbfb" d="M 14.5,11.5 C 97.5007,11.3333 180.501,11.5 263.5,12C 264.931,12.4652 266.097,13.2986 267,14.5C 268.162,56.2507 268.662,98.084 268.5,140C 268.333,181.167 268.167,222.333 268,263.5C 267.691,264.766 267.191,265.933 266.5,267C 182.581,268.661 98.5813,268.994 14.5,268C 13.6667,267.167 12.8333,266.333 12,265.5C 11.3333,181.833 11.3333,98.1667 12,14.5C 13.045,13.6266 13.8783,12.6266 14.5,11.5 Z"/></g>
<g><path style="opacity:0.463" fill="#5e5d5b" d="M 5.5,8.5 C 4.67994,10.1401 3.84661,11.8068 3,13.5C 2.33333,97.5 2.33333,181.5 3,265.5C 3.65291,268.139 4.81957,270.473 6.5,272.5C 5.67149,273.332 4.83816,272.999 4,271.5C 3.33333,270.167 2.66667,268.833 2,267.5C 1.33333,182.5 1.33333,97.5 2,12.5C 2.66667,11.1667 3.33333,9.83333 4,8.5C 4.68999,7.26166 5.18999,7.26166 5.5,8.5 Z"/></g>
<g><path style="opacity:1" fill="#a8a6a7" d="M 274.5,8.5 C 276.694,10.2214 277.861,12.5547 278,15.5C 278.667,98.5 278.667,181.5 278,264.5C 277.861,267.445 276.694,269.779 274.5,271.5C 274.5,271.167 274.5,270.833 274.5,270.5C 274.987,269.527 275.487,268.527 276,267.5C 276.667,182.5 276.667,97.5 276,12.5C 275.487,11.4734 274.987,10.4734 274.5,9.5C 274.5,9.16667 274.5,8.83333 274.5,8.5 Z"/></g>
<g><path style="opacity:1" fill="#ea2c2d" d="M 155.5,26.5 C 144.464,25.4645 133.464,25.4645 122.5,26.5C 127.916,24.9715 133.583,24.3048 139.5,24.5C 145.098,24.2762 150.431,24.9429 155.5,26.5 Z"/></g>
<g><path style="opacity:1" fill="#fc070d" d="M 155.5,26.5 C 199.24,33.3799 229.74,57.3799 247,98.5C 262.619,148.707 251.119,191.373 212.5,226.5C 196.998,239.081 179.331,247.081 159.5,250.5C 156.505,250.294 153.838,250.96 151.5,252.5C 104.083,254.755 67.5831,236.088 42,196.5C 15.7129,144.403 22.5462,97.2359 62.5,55C 79.7322,39.6462 99.7322,30.1462 122.5,26.5C 133.464,25.4645 144.464,25.4645 155.5,26.5 Z"/></g>
<g><path style="opacity:1" fill="#fdfcfc" d="M 129.5,47.5 C 171.991,45.5463 203.158,63.213 223,100.5C 237.749,139.193 231.249,173.693 203.5,204C 171.843,231.466 136.843,236.799 98.5,220C 58.1987,194.889 43.0321,159.055 53,112.5C 66.1733,75.8936 91.6733,54.2269 129.5,47.5 Z"/></g>
<g><path style="opacity:1" fill="#aba9a8" d="M 140.5,118.5 C 141.289,118.783 141.956,119.283 142.5,120C 117.502,120.5 92.5022,120.667 67.5,120.5C 91.8333,119.833 116.167,119.167 140.5,118.5 Z"/></g>
<g><path style="opacity:1" fill="#201b18" d="M 67.5,120.5 C 92.5022,120.667 117.502,120.5 142.5,120C 141.956,119.283 141.289,118.783 140.5,118.5C 134.703,112.202 128.703,106.035 122.5,100C 131.014,91.3189 139.681,82.8189 148.5,74.5C 170.167,95.5 191.5,116.833 212.5,138.5C 191.681,159.82 170.681,180.986 149.5,202C 148.833,202.667 148.167,202.667 147.5,202C 139.167,193.667 130.833,185.333 122.5,177C 128.833,170.667 135.167,164.333 141.5,158C 116.836,157.5 92.1689,157.333 67.5,157.5C 67.5,145.167 67.5,132.833 67.5,120.5 Z"/></g>
<g><path style="opacity:1" fill="#e7898e" d="M 159.5,250.5 C 157.095,251.768 154.428,252.435 151.5,252.5C 153.838,250.96 156.505,250.294 159.5,250.5 Z"/></g>
<g><path style="opacity:0.463" fill="#595956" d="M 270.5,274.5 C 270.833,274.5 271.167,274.5 271.5,274.5C 271.315,275.17 270.981,275.17 270.5,274.5 Z"/></g>
<g><path style="opacity:0.376" fill="#707070" d="M 9.5,275.5 C 9.83333,275.5 10.1667,275.5 10.5,275.5C 12.0858,276.148 13.7525,276.648 15.5,277C 99.528,277.825 183.528,277.658 267.5,276.5C 267.833,276.5 268.167,276.5 268.5,276.5C 268.082,277.222 267.416,277.722 266.5,278C 182.167,278.667 97.8333,278.667 13.5,278C 11.6803,277.8 10.347,276.966 9.5,275.5 Z"/></g>
</svg>
