<?xml version="1.0" encoding="UTF-8"?>
<!DOCTYPE svg PUBLIC "-//W3C//DTD SVG 1.1//EN" "http://www.w3.org/Graphics/SVG/1.1/DTD/svg11.dtd">
<svg xmlns="http://www.w3.org/2000/svg" version="1.1" width="292px" height="293px" style="shape-rendering:geometricPrecision; text-rendering:geometricPrecision; image-rendering:optimizeQuality; fill-rule:evenodd; clip-rule:evenodd" xmlns:xlink="http://www.w3.org/1999/xlink">
<g><path style="opacity:0.985" fill="#3a3935" d="M 161.5,5.5 C 159.142,4.82159 156.975,4.48826 155,4.5C 153.955,5.37344 153.122,6.37344 152.5,7.5C 143.969,6.42991 135.969,7.92991 128.5,12C 90.2987,50.3681 51.9654,88.5348 13.5,126.5C 13.7593,124.011 12.7593,122.344 10.5,121.5C 48.3264,82.8403 86.6598,44.6736 125.5,7C 134.138,1.8687 143.472,0.202031 153.5,2C 156.476,2.70477 159.142,3.87143 161.5,5.5 Z"/></g>
<g><path style="opacity:1" fill="#f4e924" d="M 152.5,7.5 C 152.5,8.16667 152.833,8.5 153.5,8.5C 154.185,10.4144 154.685,12.4144 155,14.5C 156.204,13.5294 156.704,12.5294 156.5,11.5C 157.672,11.9186 158.672,12.5853 159.5,13.5C 159.154,14.6956 158.654,14.6956 158,13.5C 158.148,14.825 157.982,15.9916 157.5,17C 158.549,17.4922 159.549,17.3256 160.5,16.5C 164.436,18.133 167.769,20.4664 170.5,23.5C 170.56,27.0047 170.894,30.5047 171.5,34C 172.744,34.4561 173.577,33.9561 174,32.5C 174.308,33.3081 174.808,33.9747 175.5,34.5C 175.109,33.2815 175.776,32.4482 177.5,32C 174.895,31.9736 173.729,30.807 174,28.5C 175.307,29.7717 176.807,30.7717 178.5,31.5C 178.56,35.0047 178.894,38.5047 179.5,42C 180.744,42.4561 181.577,41.9561 182,40.5C 182.308,41.3081 182.808,41.9747 183.5,42.5C 183.109,41.2815 183.776,40.4482 185.5,40C 182.895,39.9736 181.729,38.807 182,36.5C 183.307,37.7717 184.807,38.7717 186.5,39.5C 186.56,43.0047 186.894,46.5047 187.5,50C 188.744,50.4561 189.577,49.9561 190,48.5C 190.308,49.3081 190.808,49.9747 191.5,50.5C 191.109,49.2815 191.776,48.4482 193.5,48C 190.895,47.9736 189.729,46.807 190,44.5C 191.307,45.7717 192.807,46.7717 194.5,47.5C 194.56,51.0047 194.894,54.5047 195.5,58C 196.744,58.4561 197.577,57.9561 198,56.5C 198.308,57.3081 198.808,57.9747 199.5,58.5C 199.109,57.2815 199.776,56.4482 201.5,56C 198.895,55.9736 197.729,54.807 198,52.5C 199.307,53.7717 200.807,54.7717 202.5,55.5C 202.56,59.0047 202.894,62.5047 203.5,66C 204.744,66.4561 205.577,65.9561 206,64.5C 206.308,65.3081 206.808,65.9747 207.5,66.5C 207.109,65.2815 207.776,64.4482 209.5,64C 206.895,63.9736 205.729,62.807 206,60.5C 207.307,61.7717 208.807,62.7717 210.5,63.5C 210.56,67.0047 210.894,70.5047 211.5,74C 212.744,74.4561 213.577,73.9561 214,72.5C 214.308,73.3081 214.808,73.9747 215.5,74.5C 215.109,73.2815 215.776,72.4482 217.5,72C 214.895,71.9736 213.729,70.807 214,68.5C 215.307,69.7717 216.807,70.7717 218.5,71.5C 218.56,75.0047 218.894,78.5047 219.5,82C 220.744,82.4561 221.577,81.9561 222,80.5C 222.308,81.3081 222.808,81.9747 223.5,82.5C 223.109,81.2815 223.776,80.4482 225.5,80C 222.895,79.9736 221.729,78.807 222,76.5C 223.307,77.7717 224.807,78.7717 226.5,79.5C 226.56,83.0047 226.894,86.5047 227.5,90C 228.744,90.4561 229.577,89.9561 230,88.5C 230.308,89.3081 230.808,89.9747 231.5,90.5C 231.109,89.2815 231.776,88.4482 233.5,88C 230.895,87.9736 229.729,86.807 230,84.5C 231.827,85.6587 233.493,86.992 235,88.5C 234.812,90.6846 234.646,92.6846 234.5,94.5C 235.167,94.8333 235.833,95.1667 236.5,95.5C 235.41,96.6086 235.41,97.6086 236.5,98.5C 237.192,97.9747 237.692,97.3081 238,96.5C 238.308,97.3081 238.808,97.9747 239.5,98.5C 240.891,97.3554 242.224,97.3554 243.5,98.5C 243.167,99.8333 242.833,101.167 242.5,102.5C 242.846,103.696 243.346,103.696 244,102.5C 243.737,103.951 243.904,105.284 244.5,106.5C 245.415,105.672 246.081,104.672 246.5,103.5C 245.674,102.549 245.508,101.549 246,100.5C 250.956,102.936 252.956,106.936 252,112.5C 251.667,111.5 251.333,110.5 251,109.5C 250.28,111.112 250.446,112.612 251.5,114C 252.744,114.456 253.577,113.956 254,112.5C 255.686,115.022 257.019,114.689 258,111.5C 259.117,112.949 259.784,114.616 260,116.5C 260.198,114.618 260.698,112.952 261.5,111.5C 270.298,118.462 277.465,126.796 283,136.5C 285.794,146.096 284.46,155.096 279,163.5C 240.167,202.333 201.333,241.167 162.5,280C 150.262,287.636 138.262,287.302 126.5,279C 88.6667,241.167 50.8333,203.333 13,165.5C 4.19837,152.33 4.36503,139.33 13.5,126.5C 51.9654,88.5348 90.2987,50.3681 128.5,12C 135.969,7.92991 143.969,6.42991 152.5,7.5 Z"/></g>
<g><path style="opacity:1" fill="#ece028" d="M 153.5,8.5 C 157.925,9.87916 161.925,12.0458 165.5,15C 197.701,47.0346 229.701,79.2013 261.5,111.5C 260.698,112.952 260.198,114.618 260,116.5C 259.784,114.616 259.117,112.949 258,111.5C 257.019,114.689 255.686,115.022 254,112.5C 253.577,113.956 252.744,114.456 251.5,114C 250.446,112.612 250.28,111.112 251,109.5C 251.333,110.5 251.667,111.5 252,112.5C 252.956,106.936 250.956,102.936 246,100.5C 245.508,101.549 245.674,102.549 246.5,103.5C 246.081,104.672 245.415,105.672 244.5,106.5C 243.904,105.284 243.737,103.951 244,102.5C 243.346,103.696 242.846,103.696 242.5,102.5C 242.833,101.167 243.167,99.8333 243.5,98.5C 242.224,97.3554 240.891,97.3554 239.5,98.5C 238.808,97.9747 238.308,97.3081 238,96.5C 237.692,97.3081 237.192,97.9747 236.5,98.5C 235.41,97.6086 235.41,96.6086 236.5,95.5C 235.833,95.1667 235.167,94.8333 234.5,94.5C 234.646,92.6846 234.812,90.6846 235,88.5C 233.493,86.992 231.827,85.6587 230,84.5C 229.729,86.807 230.895,87.9736 233.5,88C 231.776,88.4482 231.109,89.2815 231.5,90.5C 230.808,89.9747 230.308,89.3081 230,88.5C 229.577,89.9561 228.744,90.4561 227.5,90C 226.894,86.5047 226.56,83.0047 226.5,79.5C 224.807,78.7717 223.307,77.7717 222,76.5C 221.729,78.807 222.895,79.9736 225.5,80C 223.776,80.4482 223.109,81.2815 223.5,82.5C 222.808,81.9747 222.308,81.3081 222,80.5C 221.577,81.9561 220.744,82.4561 219.5,82C 218.894,78.5047 218.56,75.0047 218.5,71.5C 216.807,70.7717 215.307,69.7717 214,68.5C 213.729,70.807 214.895,71.9736 217.5,72C 215.776,72.4482 215.109,73.2815 215.5,74.5C 214.808,73.9747 214.308,73.3081 214,72.5C 213.577,73.9561 212.744,74.4561 211.5,74C 210.894,70.5047 210.56,67.0047 210.5,63.5C 208.807,62.7717 207.307,61.7717 206,60.5C 205.729,62.807 206.895,63.9736 209.5,64C 207.776,64.4482 207.109,65.2815 207.5,66.5C 206.808,65.9747 206.308,65.3081 206,64.5C 205.577,65.9561 204.744,66.4561 203.5,66C 202.894,62.5047 202.56,59.0047 202.5,55.5C 200.807,54.7717 199.307,53.7717 198,52.5C 197.729,54.807 198.895,55.9736 201.5,56C 199.776,56.4482 199.109,57.2815 199.5,58.5C 198.808,57.9747 198.308,57.3081 198,56.5C 197.577,57.9561 196.744,58.4561 195.5,58C 194.894,54.5047 194.56,51.0047 194.5,47.5C 192.807,46.7717 191.307,45.7717 190,44.5C 189.729,46.807 190.895,47.9736 193.5,48C 191.776,48.4482 191.109,49.2815 191.5,50.5C 190.808,49.9747 190.308,49.3081 190,48.5C 189.577,49.9561 188.744,50.4561 187.5,50C 186.894,46.5047 186.56,43.0047 186.5,39.5C 184.807,38.7717 183.307,37.7717 182,36.5C 181.729,38.807 182.895,39.9736 185.5,40C 183.776,40.4482 183.109,41.2815 183.5,42.5C 182.808,41.9747 182.308,41.3081 182,40.5C 181.577,41.9561 180.744,42.4561 179.5,42C 178.894,38.5047 178.56,35.0047 178.5,31.5C 176.807,30.7717 175.307,29.7717 174,28.5C 173.729,30.807 174.895,31.9736 177.5,32C 175.776,32.4482 175.109,33.2815 175.5,34.5C 174.808,33.9747 174.308,33.3081 174,32.5C 173.577,33.9561 172.744,34.4561 171.5,34C 170.894,30.5047 170.56,27.0047 170.5,23.5C 167.769,20.4664 164.436,18.133 160.5,16.5C 159.549,17.3256 158.549,17.4922 157.5,17C 157.982,15.9916 158.148,14.825 158,13.5C 158.654,14.6956 159.154,14.6956 159.5,13.5C 158.672,12.5853 157.672,11.9186 156.5,11.5C 156.704,12.5294 156.204,13.5294 155,14.5C 154.685,12.4144 154.185,10.4144 153.5,8.5 Z"/></g>
<g><path style="opacity:1" fill="#282829" d="M 115.5,229.5 C 106.167,229.5 96.8333,229.5 87.5,229.5C 87.5,201.833 87.5,174.167 87.5,146.5C 110.339,146.831 133.006,146.497 155.5,145.5C 155.5,129.5 155.5,113.5 155.5,97.5C 147.826,97.6664 140.159,97.4997 132.5,97C 144.347,84.9858 156.347,73.1525 168.5,61.5C 180.5,72.8333 192.167,84.5 203.5,96.5C 196.866,97.4967 190.2,97.83 183.5,97.5C 183.5,123.833 183.5,150.167 183.5,176.5C 160.833,176.5 138.167,176.5 115.5,176.5C 115.5,194.167 115.5,211.833 115.5,229.5 Z"/></g>
<g><path style="opacity:0.985" fill="#333231" d="M 161.5,5.5 C 163.255,6.07217 164.922,6.9055 166.5,8C 205.333,46.8333 244.167,85.6667 283,124.5C 293.582,140.496 292.748,155.829 280.5,170.5C 243.027,208.395 205.36,246.061 167.5,283.5C 152.965,293.91 138.298,294.077 123.5,284C 84.6667,245.167 45.8333,206.333 7,167.5C -1.27662,154.058 -1.60995,140.391 6,126.5C 7.04914,124.382 8.54914,122.716 10.5,121.5C 12.7593,122.344 13.7593,124.011 13.5,126.5C 4.36503,139.33 4.19837,152.33 13,165.5C 50.8333,203.333 88.6667,241.167 126.5,279C 138.262,287.302 150.262,287.636 162.5,280C 201.333,241.167 240.167,202.333 279,163.5C 284.46,155.096 285.794,146.096 283,136.5C 277.465,126.796 270.298,118.462 261.5,111.5C 229.701,79.2013 197.701,47.0346 165.5,15C 161.925,12.0458 157.925,9.87916 153.5,8.5C 152.833,8.5 152.5,8.16667 152.5,7.5C 153.122,6.37344 153.955,5.37344 155,4.5C 156.975,4.48826 159.142,4.82159 161.5,5.5 Z"/></g>
<g><path style="opacity:1" fill="#454638" d="M 155.5,145.5 C 133.006,146.497 110.339,146.831 87.5,146.5C 87.5,174.167 87.5,201.833 87.5,229.5C 96.8333,229.5 106.167,229.5 115.5,229.5C 106.014,230.494 96.3478,230.827 86.5,230.5C 86.5,202.167 86.5,173.833 86.5,145.5C 109.5,145.5 132.5,145.5 155.5,145.5 Z"/></g>
</svg>
