<?xml version="1.0" encoding="UTF-8"?>
<!DOCTYPE svg PUBLIC "-//W3C//DTD SVG 1.1//EN" "http://www.w3.org/Graphics/SVG/1.1/DTD/svg11.dtd">
<svg xmlns="http://www.w3.org/2000/svg" version="1.1" width="375px" height="376px" style="shape-rendering:geometricPrecision; text-rendering:geometricPrecision; image-rendering:optimizeQuality; fill-rule:evenodd; clip-rule:evenodd" xmlns:xlink="http://www.w3.org/1999/xlink">
<g><path style="opacity:1" fill="#f3e823" d="M 185.5,-0.5 C 187.833,-0.5 190.167,-0.5 192.5,-0.5C 194.674,1.08141 197.007,2.58141 199.5,4C 256.306,61.8059 313.472,119.306 371,176.5C 372.459,178.432 373.625,180.432 374.5,182.5C 374.5,185.167 374.5,187.833 374.5,190.5C 373.625,192.568 372.459,194.568 371,196.5C 312.419,255.415 253.585,313.915 194.5,372C 192.273,372.941 190.273,374.108 188.5,375.5C 186.167,375.5 183.833,375.5 181.5,375.5C 178.263,374.208 175.263,372.374 172.5,370C 116.694,313.194 60.5276,256.694 4,200.5C 2.47576,198.102 0.97576,195.769 -0.5,193.5C -0.5,190.167 -0.5,186.833 -0.5,183.5C 58.8841,123.616 118.551,63.7823 178.5,4C 180.993,2.58141 183.326,1.08141 185.5,-0.5 Z"/></g>
<g><path style="opacity:1" fill="#141104" d="M 233.5,49.5 C 259.45,77.1168 286.116,104.117 313.5,130.5C 329.132,145.632 344.632,160.965 360,176.5C 362.835,182.019 363.169,187.686 361,193.5C 316.326,239.34 271.16,284.674 225.5,329.5C 217.255,336.24 209.422,343.573 202,351.5C 201.536,352.094 201.369,352.761 201.5,353.5C 196.494,361.002 189.494,364.169 180.5,363C 177.975,362.576 175.975,361.41 174.5,359.5C 163.114,347.113 151.114,335.447 138.5,324.5C 97.589,283.089 56.4223,241.755 15,200.5C 10.832,193.664 10.4987,186.664 14,179.5C 39.7283,153.605 65.5616,127.938 91.5,102.5C 104.114,91.5534 116.114,79.8867 127.5,67.5C 144.632,49.8681 161.965,32.3681 179.5,15C 187.315,11.182 194.648,11.8486 201.5,17C 212.369,27.7016 223.035,38.5349 233.5,49.5 Z"/></g>
<g><path style="opacity:1" fill="#f4e823" d="M 196.5,19.5 C 206.167,29.8333 216.167,39.8333 226.5,49.5C 268.465,91.9654 310.632,134.299 353,176.5C 358.067,181.64 358.734,187.307 355,193.5C 331.632,216.701 308.465,240.035 285.5,263.5C 265.551,281.782 246.217,300.782 227.5,320.5C 215.368,332.131 203.368,343.965 191.5,356C 186.833,359.333 182.167,359.333 177.5,356C 145.632,323.965 113.632,292.132 81.5,260.5C 61.2177,238.55 40.2177,217.217 18.5,196.5C 16.2013,192.245 16.0346,187.911 18,183.5C 23.3375,176.996 29.1708,170.996 35.5,165.5C 50.5,151.167 65.1667,136.5 79.5,121.5C 113.993,87.8402 147.993,53.6735 181.5,19C 186.606,16.9125 191.606,17.0791 196.5,19.5 Z"/></g>
<g><path style="opacity:1" fill="#6c650f" d="M 196.5,19.5 C 206.746,28.2422 216.579,37.5755 226,47.5C 226.464,48.0944 226.631,48.7611 226.5,49.5C 216.167,39.8333 206.167,29.8333 196.5,19.5 Z"/></g>
<g><path style="opacity:1" fill="#57500c" d="M 233.5,49.5 C 260.884,75.8832 287.55,102.883 313.5,130.5C 286.116,104.117 259.45,77.1168 233.5,49.5 Z"/></g>
<g><path style="opacity:1" fill="#020200" d="M 168.5,160.5 C 165.854,159.836 163.021,159.502 160,159.5C 155.867,159.286 152.034,159.952 148.5,161.5C 146.883,162.038 145.216,162.371 143.5,162.5C 143.671,148.821 143.338,135.154 142.5,121.5C 143.021,107.265 143.687,93.0983 144.5,79C 170.687,78.0111 196.854,77.5111 223,77.5C 226.436,77.8492 229.769,78.5158 233,79.5C 234.15,92.9093 234.65,106.409 234.5,120C 234.641,133.899 234.141,147.732 233,161.5C 232.439,162.022 231.772,162.355 231,162.5C 224.828,159.688 218.328,158.855 211.5,160C 205.567,161.317 199.9,162.984 194.5,165C 193.678,153.242 193.178,141.409 193,129.5C 191.989,128.663 190.822,128.33 189.5,128.5C 189.107,138.036 189.107,147.536 189.5,157C 189.064,160.218 188.398,163.384 187.5,166.5C 185.725,165.061 183.725,164.061 181.5,163.5C 176.952,162.861 172.619,161.861 168.5,160.5 Z"/></g>
<g><path style="opacity:1" fill="#68620f" d="M 127.5,67.5 C 116.114,79.8867 104.114,91.5534 91.5,102.5C 102.886,90.1133 114.886,78.4466 127.5,67.5 Z"/></g>
<g><path style="opacity:1" fill="#7f7611" d="M 79.5,121.5 C 65.1667,136.5 50.5,151.167 35.5,165.5C 48.9116,150.586 62.9116,136.086 77.5,122C 78.0944,121.536 78.7611,121.369 79.5,121.5 Z"/></g>
<g><path style="opacity:1" fill="#ab9d16" d="M 168.5,160.5 C 161.798,160.336 155.131,160.669 148.5,161.5C 152.034,159.952 155.867,159.286 160,159.5C 163.021,159.502 165.854,159.836 168.5,160.5 Z"/></g>
<g><path style="opacity:1" fill="#060501" d="M 155.5,162.5 C 167.08,160.97 176.746,164.47 184.5,173C 188.039,174.504 191.705,174.837 195.5,174C 200.865,170.986 206.199,167.986 211.5,165C 216.904,164.228 222.238,164.561 227.5,166C 233.972,171.067 241.305,174.234 249.5,175.5C 254.418,174.44 259.084,172.774 263.5,170.5C 265.383,170.876 266.883,171.876 268,173.5C 269.515,175.677 271.015,177.844 272.5,180C 270.846,182.987 268.513,185.321 265.5,187C 255.601,192.182 245.601,192.515 235.5,188C 229.927,184.794 224.094,182.294 218,180.5C 215.747,180.631 213.581,181.131 211.5,182C 204.238,188.088 195.905,190.754 186.5,190C 180.39,186.732 174.39,183.232 168.5,179.5C 163.302,178.02 158.302,178.52 153.5,181C 141.906,191.358 129.239,193.024 115.5,186C 113.773,184.611 112.439,182.944 111.5,181C 113.921,177.502 116.588,174.169 119.5,171C 121.807,171.642 124.141,172.642 126.5,174C 129.5,174.667 132.5,174.667 135.5,174C 141.783,169.363 148.449,165.53 155.5,162.5 Z"/></g>
<g><path style="opacity:1" fill="#060401" d="M 167.5,202.5 C 165.007,200.416 162.34,200.083 159.5,201.5C 153.271,203.293 147.604,206.126 142.5,210C 130.052,214.972 119.719,212.306 111.5,202C 113.816,198.534 116.482,195.367 119.5,192.5C 123.738,195.413 128.405,196.58 133.5,196C 141.226,193.638 148.226,189.971 154.5,185C 159.949,182.967 165.283,183.3 170.5,186C 176.393,190.696 182.893,194.196 190,196.5C 197.861,194.105 205.361,190.938 212.5,187C 216.167,186.333 219.833,186.333 223.5,187C 231.389,192.445 240.056,195.945 249.5,197.5C 254.484,195.926 259.318,193.926 264,191.5C 267.656,194.662 270.822,198.329 273.5,202.5C 264.826,210.756 254.493,213.923 242.5,212C 234.252,209.791 226.419,206.624 219,202.5C 211.999,205.25 205.166,208.416 198.5,212C 192.326,214.31 186.326,213.977 180.5,211C 176.822,207.161 172.488,204.328 167.5,202.5 Z"/></g>
<g><path style="opacity:1" fill="#524c0c" d="M 18.5,196.5 C 40.2177,217.217 61.2177,238.55 81.5,260.5C 59.7823,239.783 38.7823,218.45 18.5,196.5 Z"/></g>
<g><path style="opacity:1" fill="#675d0d" d="M 159.5,201.5 C 162.34,200.083 165.007,200.416 167.5,202.5C 164.873,201.908 162.206,201.575 159.5,201.5 Z"/></g>
<g><path style="opacity:1" fill="#020200" d="M 187.5,220.5 C 188.486,238.757 188.82,257.09 188.5,275.5C 190.099,275.768 191.432,275.434 192.5,274.5C 192.5,256.5 192.5,238.5 192.5,220.5C 193.873,220.657 195.207,220.49 196.5,220C 202.21,216.145 208.21,212.812 214.5,210C 217.167,209.333 219.833,209.333 222.5,210C 226.661,211.255 230.661,212.755 234.5,214.5C 234.667,240.502 234.5,266.502 234,292.5C 233.626,293.416 233.126,294.25 232.5,295C 230.5,295.333 228.5,295.667 226.5,296C 198.92,296.581 171.42,296.081 144,294.5C 142.851,281.424 142.351,268.258 142.5,255C 142.351,241.742 142.851,228.576 144,215.5C 151.669,209.791 160.169,207.958 169.5,210C 175.391,213.776 181.391,217.276 187.5,220.5 Z"/></g>
<g><path style="opacity:1" fill="#c5b316" d="M 187.5,220.5 C 189.487,238.136 190.153,256.136 189.5,274.5C 190.5,274.5 191.5,274.5 192.5,274.5C 191.432,275.434 190.099,275.768 188.5,275.5C 188.82,257.09 188.486,238.757 187.5,220.5 Z"/></g>
<g><path style="opacity:1" fill="#403b0a" d="M 285.5,263.5 C 266.783,283.218 247.449,302.218 227.5,320.5C 246.217,300.782 265.551,281.782 285.5,263.5 Z"/></g>
<g><path style="opacity:1" fill="#4e480b" d="M 138.5,324.5 C 151.114,335.447 163.114,347.113 174.5,359.5C 161.886,348.553 149.886,336.887 138.5,324.5 Z"/></g>
<g><path style="opacity:1" fill="#454009" d="M 225.5,329.5 C 217.833,337.833 209.833,345.833 201.5,353.5C 201.369,352.761 201.536,352.094 202,351.5C 209.422,343.573 217.255,336.24 225.5,329.5 Z"/></g>
</svg>
