<?xml version="1.0" encoding="UTF-8"?>
<!DOCTYPE svg PUBLIC "-//W3C//DTD SVG 1.1//EN" "http://www.w3.org/Graphics/SVG/1.1/DTD/svg11.dtd">
<svg xmlns="http://www.w3.org/2000/svg" version="1.1" width="292px" height="293px" style="shape-rendering:geometricPrecision; text-rendering:geometricPrecision; image-rendering:optimizeQuality; fill-rule:evenodd; clip-rule:evenodd" xmlns:xlink="http://www.w3.org/1999/xlink">
<g><path style="opacity:0.071" fill="#c1bec1" d="M 165.5,5.5 C 166.833,6.16667 166.833,6.16667 165.5,5.5 Z"/></g>
<g><path style="opacity:0.02" fill="#c8d9d4" d="M 108.5,15.5 C 109.833,16.1667 109.833,16.1667 108.5,15.5 Z"/></g>
<g><path style="opacity:0.987" fill="#393835" d="M -0.5,152.5 C -0.5,148.167 -0.5,143.833 -0.5,139.5C 1.3136,132.877 4.48026,126.877 9,121.5C 46.1667,84.3333 83.3333,47.1667 120.5,10C 137.06,-2.8558 153.393,-2.52247 169.5,11C 206.027,47.527 242.527,84.027 279,120.5C 293,137.5 293,154.5 279,171.5C 241.139,209.695 202.972,247.528 164.5,285C 149.21,293.9 134.544,292.9 120.5,282C 81.6388,243.472 43.1388,204.639 5,165.5C 2.6512,161.259 0.817868,156.925 -0.5,152.5 Z"/></g>
<g><path style="opacity:1" fill="#f5e924" d="M 139.5,6.5 C 147.413,5.97002 154.746,7.80335 161.5,12C 200.333,50.8333 239.167,89.6667 278,128.5C 285.282,140.139 285.282,151.805 278,163.5C 239.5,202 201,240.5 162.5,279C 151.052,287.056 139.385,287.39 127.5,280C 88.6667,241.167 49.8333,202.333 11,163.5C 3.76569,151.808 3.76569,140.142 11,128.5C 49.8333,89.6667 88.6667,50.8333 127.5,12C 131.481,9.8381 135.481,8.00477 139.5,6.5 Z"/></g>
<g><path style="opacity:1" fill="#373535" d="M 160.5,58.5 C 160.5,82.5 160.5,106.5 160.5,130.5C 184.5,130.5 208.5,130.5 232.5,130.5C 232.5,141.167 232.5,151.833 232.5,162.5C 208.833,162.5 185.167,162.5 161.5,162.5C 160.502,185.994 160.169,209.661 160.5,233.5C 149.833,233.5 139.167,233.5 128.5,233.5C 128.5,209.833 128.5,186.167 128.5,162.5C 104.5,162.5 80.5,162.5 56.5,162.5C 56.5,151.833 56.5,141.167 56.5,130.5C 80.5,130.5 104.5,130.5 128.5,130.5C 128.5,106.5 128.5,82.5 128.5,58.5C 139.167,58.5 149.833,58.5 160.5,58.5 Z"/></g>
<g><path style="opacity:1" fill="#a9a45c" d="M 160.5,58.5 C 161.498,81.9941 161.831,105.661 161.5,129.5C 185.339,129.169 209.006,129.502 232.5,130.5C 208.5,130.5 184.5,130.5 160.5,130.5C 160.5,106.5 160.5,82.5 160.5,58.5 Z"/></g>
<g><path style="opacity:1" fill="#83805f" d="M 161.5,162.5 C 161.5,186.5 161.5,210.5 161.5,234.5C 150.321,234.828 139.321,234.495 128.5,233.5C 139.167,233.5 149.833,233.5 160.5,233.5C 160.169,209.661 160.502,185.994 161.5,162.5 Z"/></g>
</svg>
