<?xml version="1.0" encoding="UTF-8"?>
<!DOCTYPE svg PUBLIC "-//W3C//DTD SVG 1.1//EN" "http://www.w3.org/Graphics/SVG/1.1/DTD/svg11.dtd">
<svg xmlns="http://www.w3.org/2000/svg" version="1.1" width="356px" height="346px" style="shape-rendering:geometricPrecision; text-rendering:geometricPrecision; image-rendering:optimizeQuality; fill-rule:evenodd; clip-rule:evenodd" xmlns:xlink="http://www.w3.org/1999/xlink">
<g><path style="opacity:1" fill="#f2e724" d="M 170.5,-0.5 C 174.167,-0.5 177.833,-0.5 181.5,-0.5C 237.965,56.4654 294.632,113.299 351.5,170C 292.965,228.368 234.632,286.868 176.5,345.5C 176.167,345.5 175.833,345.5 175.5,345.5C 117.368,286.868 59.0347,228.368 0.5,170C 57.368,113.299 114.035,56.4654 170.5,-0.5 Z"/></g>
<g><path style="opacity:1" fill="#080701" d="M 178.5,7.5 C 232.146,61.4791 285.812,115.479 339.5,169.5C 286.375,224.125 232.709,278.292 178.5,332C 176.833,332.667 175.167,332.667 173.5,332C 146.965,305.632 120.632,279.132 94.5,252.5C 68.1168,225.116 41.1168,198.45 13.5,172.5C 12.3143,171.039 12.3143,169.705 13.5,168.5C 67.2987,115.201 120.965,61.7014 174.5,8C 175.793,7.50999 177.127,7.34332 178.5,7.5 Z"/></g>
<g><path style="opacity:1" fill="#47420a" d="M 174.5,16.5 C 175.251,15.4265 176.251,15.2599 177.5,16C 228.751,66.7501 279.418,117.917 329.5,169.5C 278.368,118.868 227.368,68.0347 176.5,17C 175.906,16.5357 175.239,16.369 174.5,16.5 Z"/></g>
<g><path style="opacity:1" fill="#f5ea23" d="M 174.5,16.5 C 175.239,16.369 175.906,16.5357 176.5,17C 227.368,68.0347 278.368,118.868 329.5,169.5C 329.5,169.833 329.5,170.167 329.5,170.5C 303.5,195.833 277.833,221.5 252.5,247.5C 226.833,272.833 201.167,298.167 175.5,323.5C 124.868,272.368 74.0347,221.368 23,170.5C 22.5357,169.906 22.369,169.239 22.5,168.5C 73.5,118.167 124.167,67.5 174.5,16.5 Z"/></g>
<g><path style="opacity:1" fill="#040300" d="M 197.5,64.5 C 199.017,64.5106 200.184,65.1772 201,66.5C 213.281,83.7823 225.948,100.782 239,117.5C 242.386,124.714 240.386,129.381 233,131.5C 227.027,129.6 221.194,127.266 215.5,124.5C 214.967,135.907 213.8,147.241 212,158.5C 206.337,172.762 195.837,180.929 180.5,183C 167.828,183.973 155.161,184.973 142.5,186C 139.533,188.1 137.7,190.934 137,194.5C 136.5,211.497 136.333,228.497 136.5,245.5C 126.167,245.5 115.833,245.5 105.5,245.5C 105.089,225.464 105.589,205.464 107,185.5C 112.826,165.317 126.326,154.817 147.5,154C 156.833,153.667 166.167,153.333 175.5,153C 179.02,152.496 181.52,150.663 183,147.5C 183.5,139.841 183.666,132.174 183.5,124.5C 178.002,126.168 172.669,128.335 167.5,131C 158.85,131.325 155.683,127.159 158,118.5C 171.385,100.622 184.551,82.622 197.5,64.5 Z"/></g>
<g><path style="opacity:1" fill="#47420b" d="M 178.5,7.5 C 177.127,7.34332 175.793,7.50999 174.5,8C 120.965,61.7014 67.2987,115.201 13.5,168.5C 66.2492,114.25 119.583,60.4167 173.5,7C 175.387,6.22039 177.054,6.38705 178.5,7.5 Z"/></g>
<g><path style="opacity:1" fill="#534c0c" d="M 22.5,168.5 C 22.369,169.239 22.5357,169.906 23,170.5C 74.0347,221.368 124.868,272.368 175.5,323.5C 123.917,273.418 72.7501,222.751 22,171.5C 21.2599,170.251 21.4265,169.251 22.5,168.5 Z"/></g>
<g><path style="opacity:1" fill="#534c0c" d="M 13.5,172.5 C 41.1168,198.45 68.1168,225.116 94.5,252.5C 66.8832,226.55 39.8832,199.884 13.5,172.5 Z"/></g>
<g><path style="opacity:1" fill="#383408" d="M 329.5,170.5 C 305.086,196.416 280.086,221.916 254.5,247C 253.906,247.464 253.239,247.631 252.5,247.5C 277.833,221.5 303.5,195.833 329.5,170.5 Z"/></g>
</svg>
