<?xml version="1.0" encoding="UTF-8"?>
<!DOCTYPE svg PUBLIC "-//W3C//DTD SVG 1.1//EN" "http://www.w3.org/Graphics/SVG/1.1/DTD/svg11.dtd">
<svg xmlns="http://www.w3.org/2000/svg" version="1.1" width="292px" height="293px" style="shape-rendering:geometricPrecision; text-rendering:geometricPrecision; image-rendering:optimizeQuality; fill-rule:evenodd; clip-rule:evenodd" xmlns:xlink="http://www.w3.org/1999/xlink">
<g><path style="opacity:1" fill="#f4e924" d="M 279.5,163.5 C 240.755,202.411 201.755,241.245 162.5,280C 153.507,284.759 144.173,285.592 134.5,282.5C 126.938,277.611 120.272,271.611 114.5,264.5C 114.918,263.778 115.584,263.278 116.5,263C 113.745,261.289 111.411,259.122 109.5,256.5C 108.675,255.614 107.675,255.281 106.5,255.5C 106.719,254.325 106.386,253.325 105.5,252.5C 103.696,250.02 101.363,248.353 98.5,247.5C 96.9648,244.768 95.1315,242.102 93,239.5C 77.3203,224.32 61.8203,208.987 46.5,193.5C 45.2638,192.754 43.9305,192.421 42.5,192.5C 42.9175,191.778 43.5842,191.278 44.5,191C 42.8839,190.385 41.5505,189.385 40.5,188C 42.8912,187.309 42.8912,186.309 40.5,185C 41.4506,184.282 41.6172,183.449 41,182.5C 40.2801,184.255 39.1134,185.089 37.5,185C 36.5,182.667 34.8333,181 32.5,180C 33.1667,179.667 33.8333,179.333 34.5,179C 30.7853,177.277 27.452,174.943 24.5,172C 26.8912,171.309 26.8912,170.309 24.5,169C 25.8627,166.871 25.5294,166.371 23.5,167.5C 22.4593,165.009 21.6259,165.009 21,167.5C 19.548,166.093 19.7147,164.593 21.5,163C 20.0039,162.493 18.8373,162.993 18,164.5C 15.2656,163.638 15.0989,162.805 17.5,162C 16.6433,161.311 15.9767,160.478 15.5,159.5C 16.6446,158.109 16.6446,156.776 15.5,155.5C 13.8988,154.835 12.3988,154.501 11,154.5C 10.7216,155.416 10.2216,156.082 9.5,156.5C 6.01777,146.266 7.18444,136.599 13,127.5C 51.8333,88.6667 90.6667,49.8333 129.5,11C 141.915,4.49445 153.915,5.16112 165.5,13C 203.333,50.8333 241.167,88.6667 279,126.5C 287.428,138.756 287.595,151.09 279.5,163.5 Z"/></g>
<g><path style="opacity:0.96" fill="#30302e" d="M 291.5,139.5 C 291.5,143.167 291.5,146.833 291.5,150.5C 290.023,157.787 286.689,164.121 281.5,169.5C 280.399,167.283 279.732,165.283 279.5,163.5C 287.595,151.09 287.428,138.756 279,126.5C 241.167,88.6667 203.333,50.8333 165.5,13C 153.915,5.16112 141.915,4.49445 129.5,11C 90.6667,49.8333 51.8333,88.6667 13,127.5C 7.18444,136.599 6.01777,146.266 9.5,156.5C 10.7347,159.301 12.2347,161.968 14,164.5C 23.3683,174.036 32.8683,183.369 42.5,192.5C 66.1667,216.833 90.1667,240.833 114.5,264.5C 120.272,271.611 126.938,277.611 134.5,282.5C 133.026,283.436 132.026,284.77 131.5,286.5C 128.91,285.872 126.577,284.705 124.5,283C 85.6667,244.167 46.8333,205.333 8,166.5C -0.666667,152.5 -0.666667,138.5 8,124.5C 47.1937,85.3063 86.3604,46.1396 125.5,7C 139.485,-1.62406 153.485,-1.62406 167.5,7C 206.333,45.8333 245.167,84.6667 284,123.5C 287.357,128.542 289.857,133.876 291.5,139.5 Z"/></g>
<g><path style="opacity:1" fill="#292929" d="M 106.5,57.5 C 131.451,67.3175 156.118,77.8175 180.5,89C 171.665,94.5852 162.665,99.9186 153.5,105C 180.505,143.521 193.505,186.354 192.5,233.5C 182.5,233.5 172.5,233.5 162.5,233.5C 165.149,191.621 153.315,154.621 127,122.5C 117.435,127.7 107.935,133.033 98.5,138.5C 98.1667,137.833 97.8333,137.167 97.5,136.5C 100.962,110.217 103.962,83.8835 106.5,57.5 Z"/></g>
<g><path style="opacity:1" fill="#e1d52d" d="M 42.5,192.5 C 32.8683,183.369 23.3683,174.036 14,164.5C 12.2347,161.968 10.7347,159.301 9.5,156.5C 10.2216,156.082 10.7216,155.416 11,154.5C 12.3988,154.501 13.8988,154.835 15.5,155.5C 16.6446,156.776 16.6446,158.109 15.5,159.5C 15.9767,160.478 16.6433,161.311 17.5,162C 15.0989,162.805 15.2656,163.638 18,164.5C 18.8373,162.993 20.0039,162.493 21.5,163C 19.7147,164.593 19.548,166.093 21,167.5C 21.6259,165.009 22.4593,165.009 23.5,167.5C 25.5294,166.371 25.8627,166.871 24.5,169C 26.8912,170.309 26.8912,171.309 24.5,172C 27.452,174.943 30.7853,177.277 34.5,179C 33.8333,179.333 33.1667,179.667 32.5,180C 34.8333,181 36.5,182.667 37.5,185C 39.1134,185.089 40.2801,184.255 41,182.5C 41.6172,183.449 41.4506,184.282 40.5,185C 42.8912,186.309 42.8912,187.309 40.5,188C 41.5505,189.385 42.8839,190.385 44.5,191C 43.5842,191.278 42.9175,191.778 42.5,192.5 Z"/></g>
<g><path style="opacity:1" fill="#ddd12f" d="M 42.5,192.5 C 43.9305,192.421 45.2638,192.754 46.5,193.5C 61.8203,208.987 77.3203,224.32 93,239.5C 95.1315,242.102 96.9648,244.768 98.5,247.5C 101.363,248.353 103.696,250.02 105.5,252.5C 106.386,253.325 106.719,254.325 106.5,255.5C 107.675,255.281 108.675,255.614 109.5,256.5C 111.411,259.122 113.745,261.289 116.5,263C 115.584,263.278 114.918,263.778 114.5,264.5C 90.1667,240.833 66.1667,216.833 42.5,192.5 Z"/></g>
<g><path style="opacity:0.982" fill="#383835" d="M 279.5,163.5 C 279.732,165.283 280.399,167.283 281.5,169.5C 244.035,207.465 206.368,245.299 168.5,283C 156.688,291.315 144.355,292.482 131.5,286.5C 132.026,284.77 133.026,283.436 134.5,282.5C 144.173,285.592 153.507,284.759 162.5,280C 201.755,241.245 240.755,202.411 279.5,163.5 Z"/></g>
</svg>
