<?xml version="1.0" encoding="UTF-8"?>
<!DOCTYPE svg PUBLIC "-//W3C//DTD SVG 1.1//EN" "http://www.w3.org/Graphics/SVG/1.1/DTD/svg11.dtd">
<svg xmlns="http://www.w3.org/2000/svg" version="1.1" width="292px" height="293px" style="shape-rendering:geometricPrecision; text-rendering:geometricPrecision; image-rendering:optimizeQuality; fill-rule:evenodd; clip-rule:evenodd" xmlns:xlink="http://www.w3.org/1999/xlink">
<g><path style="opacity:0.964" fill="#343332" d="M 150.5,292.5 C 147.167,292.5 143.833,292.5 140.5,292.5C 134.94,291.231 129.607,289.065 124.5,286C 85.3333,246.833 46.1667,207.667 7,168.5C -3.3976,150.17 -1.23093,133.504 13.5,118.5C 16.5,116.167 19.1667,113.5 21.5,110.5C 24.5,108.167 27.1667,105.5 29.5,102.5C 32.5,100.167 35.1667,97.5 37.5,94.5C 65.9653,66.5349 94.2987,38.3682 122.5,10C 137.538,0.0046169 152.538,0.0046169 167.5,10C 207.028,49.1943 246.195,88.6943 285,128.5C 292.328,141.192 292.328,153.858 285,166.5C 247.664,204.838 209.83,243.004 171.5,281C 165.566,286.963 158.566,290.797 150.5,292.5 Z"/></g>
<g><path style="opacity:1" fill="#f5e924" d="M 179.5,30.5 C 179.34,32.1992 179.506,33.8659 180,35.5C 181.147,34.5419 182.147,34.8753 183,36.5C 183.36,38.4211 184.194,40.0878 185.5,41.5C 184.645,42.293 183.811,41.9597 183,40.5C 183.077,41.7376 182.911,42.7376 182.5,43.5C 181.029,42.6195 180.196,41.2861 180,39.5C 178.92,42.2371 179.754,43.9037 182.5,44.5C 184.601,44.3684 186.101,43.3684 187,41.5C 187.317,43.3008 187.984,43.6341 189,42.5C 190.74,43.7158 191.74,45.3825 192,47.5C 194,48.8333 195.667,50.5 197,52.5C 197.667,51.1667 198.333,51.1667 199,52.5C 199.36,54.4211 200.194,56.0878 201.5,57.5C 200.645,58.293 199.811,57.9597 199,56.5C 199.077,57.7376 198.911,58.7376 198.5,59.5C 197.029,58.6195 196.196,57.2861 196,55.5C 194.92,58.2371 195.754,59.9037 198.5,60.5C 200.703,59.7049 202.703,58.8715 204.5,58C 206.968,60.4652 208.468,63.2986 209,66.5C 208.333,65.8333 207.667,65.1667 207,64.5C 207.077,65.7376 206.911,66.7376 206.5,67.5C 205.029,66.6195 204.196,65.2861 204,63.5C 202.92,66.2371 203.754,67.9037 206.5,68.5C 208.703,67.7049 210.703,66.8715 212.5,66C 214.968,68.4652 216.468,71.2986 217,74.5C 216.333,73.8333 215.667,73.1667 215,72.5C 215.077,73.7376 214.911,74.7376 214.5,75.5C 213.029,74.6195 212.196,73.2861 212,71.5C 210.92,74.2371 211.754,75.9037 214.5,76.5C 216.703,75.7049 218.703,74.8715 220.5,74C 222.968,76.4652 224.468,79.2986 225,82.5C 224.333,81.8333 223.667,81.1667 223,80.5C 223.077,81.7376 222.911,82.7376 222.5,83.5C 221.029,82.6195 220.196,81.2861 220,79.5C 218.833,83.6667 220.333,85.1667 224.5,84C 225.667,83.5 226.5,82.6667 227,81.5C 230.47,83.7046 232.47,86.7046 233,90.5C 232.333,89.8333 231.667,89.1667 231,88.5C 231.077,89.7376 230.911,90.7376 230.5,91.5C 229.029,90.6195 228.196,89.2861 228,87.5C 226.833,91.6667 228.333,93.1667 232.5,92C 233.667,91.5 234.5,90.6667 235,89.5C 238.47,91.7046 240.47,94.7046 241,98.5C 240.333,97.8333 239.667,97.1667 239,96.5C 239.077,97.7376 238.911,98.7376 238.5,99.5C 237.029,98.6195 236.196,97.2861 236,95.5C 235.28,97.1124 235.446,98.6124 236.5,100C 239.853,99.8335 243.02,99.6668 246,99.5C 246.915,100.328 247.581,101.328 248,102.5C 248.278,101.584 248.778,100.918 249.5,100.5C 261.569,111.067 272.403,122.734 282,135.5C 285.692,145.604 284.692,155.271 279,164.5C 240.167,203.333 201.333,242.167 162.5,281C 150.245,288.633 138.245,288.299 126.5,280C 88.3333,241.833 50.1667,203.667 12,165.5C 5.10453,154.053 4.7712,142.386 11,130.5C 50.1667,91.3333 89.3333,52.1667 128.5,13C 142.082,6.01663 154.748,7.34997 166.5,17C 171.037,21.3688 175.37,25.8688 179.5,30.5 Z"/></g>
<g><path style="opacity:1" fill="#e7db2c" d="M 179.5,30.5 C 203.167,53.5 226.5,76.8333 249.5,100.5C 248.778,100.918 248.278,101.584 248,102.5C 247.581,101.328 246.915,100.328 246,99.5C 243.02,99.6668 239.853,99.8335 236.5,100C 235.446,98.6124 235.28,97.1124 236,95.5C 236.196,97.2861 237.029,98.6195 238.5,99.5C 238.911,98.7376 239.077,97.7376 239,96.5C 239.667,97.1667 240.333,97.8333 241,98.5C 240.47,94.7046 238.47,91.7046 235,89.5C 234.5,90.6667 233.667,91.5 232.5,92C 228.333,93.1667 226.833,91.6667 228,87.5C 228.196,89.2861 229.029,90.6195 230.5,91.5C 230.911,90.7376 231.077,89.7376 231,88.5C 231.667,89.1667 232.333,89.8333 233,90.5C 232.47,86.7046 230.47,83.7046 227,81.5C 226.5,82.6667 225.667,83.5 224.5,84C 220.333,85.1667 218.833,83.6667 220,79.5C 220.196,81.2861 221.029,82.6195 222.5,83.5C 222.911,82.7376 223.077,81.7376 223,80.5C 223.667,81.1667 224.333,81.8333 225,82.5C 224.468,79.2986 222.968,76.4652 220.5,74C 218.703,74.8715 216.703,75.7049 214.5,76.5C 211.754,75.9037 210.92,74.2371 212,71.5C 212.196,73.2861 213.029,74.6195 214.5,75.5C 214.911,74.7376 215.077,73.7376 215,72.5C 215.667,73.1667 216.333,73.8333 217,74.5C 216.468,71.2986 214.968,68.4652 212.5,66C 210.703,66.8715 208.703,67.7049 206.5,68.5C 203.754,67.9037 202.92,66.2371 204,63.5C 204.196,65.2861 205.029,66.6195 206.5,67.5C 206.911,66.7376 207.077,65.7376 207,64.5C 207.667,65.1667 208.333,65.8333 209,66.5C 208.468,63.2986 206.968,60.4652 204.5,58C 202.703,58.8715 200.703,59.7049 198.5,60.5C 195.754,59.9037 194.92,58.2371 196,55.5C 196.196,57.2861 197.029,58.6195 198.5,59.5C 198.911,58.7376 199.077,57.7376 199,56.5C 199.811,57.9597 200.645,58.293 201.5,57.5C 200.194,56.0878 199.36,54.4211 199,52.5C 198.333,51.1667 197.667,51.1667 197,52.5C 195.667,50.5 194,48.8333 192,47.5C 191.74,45.3825 190.74,43.7158 189,42.5C 187.984,43.6341 187.317,43.3008 187,41.5C 186.101,43.3684 184.601,44.3684 182.5,44.5C 179.754,43.9037 178.92,42.2371 180,39.5C 180.196,41.2861 181.029,42.6195 182.5,43.5C 182.911,42.7376 183.077,41.7376 183,40.5C 183.811,41.9597 184.645,42.293 185.5,41.5C 184.194,40.0878 183.36,38.4211 183,36.5C 182.147,34.8753 181.147,34.5419 180,35.5C 179.506,33.8659 179.34,32.1992 179.5,30.5 Z"/></g>
<g><path style="opacity:1" fill="#282829" d="M 173.5,75.5 C 187.965,89.4648 202.299,103.631 216.5,118C 202.327,133.339 187.661,148.173 172.5,162.5C 172.5,153.167 172.5,143.833 172.5,134.5C 151.993,134.17 131.66,134.503 111.5,135.5C 111.5,163.5 111.5,191.5 111.5,219.5C 98.8333,219.5 86.1667,219.5 73.5,219.5C 73.5,179.5 73.5,139.5 73.5,99.5C 106.338,99.8316 139.004,99.4983 171.5,98.5C 172.167,90.8333 172.833,83.1667 173.5,75.5 Z"/></g>
<g><path style="opacity:1" fill="#5f5d3d" d="M 173.5,75.5 C 172.833,83.1667 172.167,90.8333 171.5,98.5C 171.169,90.4723 171.502,82.4723 172.5,74.5C 173.107,74.6236 173.44,74.9569 173.5,75.5 Z"/></g>
<g><path style="opacity:0.024" fill="#c7c7c6" d="M 37.5,94.5 C 36.8333,93.1667 36.8333,93.1667 37.5,94.5 Z"/></g>
<g><path style="opacity:0.024" fill="#c7c7c6" d="M 29.5,102.5 C 28.8333,101.167 28.8333,101.167 29.5,102.5 Z"/></g>
<g><path style="opacity:0.024" fill="#c7c7c6" d="M 21.5,110.5 C 20.8333,109.167 20.8333,109.167 21.5,110.5 Z"/></g>
<g><path style="opacity:0.024" fill="#c7c7c6" d="M 13.5,118.5 C 12.8333,117.167 12.8333,117.167 13.5,118.5 Z"/></g>
<g><path style="opacity:1" fill="#7a753e" d="M 111.5,135.5 C 131.66,134.503 151.993,134.17 172.5,134.5C 172.5,143.833 172.5,153.167 172.5,162.5C 171.501,154.252 171.168,145.252 171.5,135.5C 151.5,135.5 131.5,135.5 111.5,135.5 Z"/></g>
<g><path style="opacity:1" fill="#736f3e" d="M 73.5,99.5 C 73.5,139.5 73.5,179.5 73.5,219.5C 86.1667,219.5 98.8333,219.5 111.5,219.5C 98.6774,220.495 85.6774,220.829 72.5,220.5C 72.1681,179.997 72.5014,139.663 73.5,99.5 Z"/></g>
</svg>
