<?xml version="1.0" encoding="UTF-8"?>
<!DOCTYPE svg PUBLIC "-//W3C//DTD SVG 1.1//EN" "http://www.w3.org/Graphics/SVG/1.1/DTD/svg11.dtd">
<svg xmlns="http://www.w3.org/2000/svg" version="1.1" width="171px" height="170px" style="shape-rendering:geometricPrecision; text-rendering:geometricPrecision; image-rendering:optimizeQuality; fill-rule:evenodd; clip-rule:evenodd" xmlns:xlink="http://www.w3.org/1999/xlink">
<g><path style="opacity:1" fill="#fefffe" d="M -0.5,-0.5 C 26.8333,-0.5 54.1667,-0.5 81.5,-0.5C 54.5,27.1667 27.1667,54.5 -0.5,81.5C -0.5,54.1667 -0.5,26.8333 -0.5,-0.5 Z"/></g>
<g><path style="opacity:1" fill="#fefffe" d="M 88.5,-0.5 C 115.833,-0.5 143.167,-0.5 170.5,-0.5C 170.5,26.8333 170.5,54.1667 170.5,81.5C 142.833,54.5 115.5,27.1667 88.5,-0.5 Z"/></g>
<g><path style="opacity:1" fill="#f9db16" d="M 167.5,85.5 C 140.494,113.339 112.994,140.672 85,167.5C 57.0056,140.672 29.5056,113.339 2.5,85.5C 29.1221,57.0444 56.6221,29.3777 85,2.5C 113.378,29.3777 140.878,57.0444 167.5,85.5 Z"/></g>
<g><path style="opacity:1" fill="#f8dc2b" d="M 81.5,-0.5 C 83.8333,-0.5 86.1667,-0.5 88.5,-0.5C 115.5,27.1667 142.833,54.5 170.5,81.5C 170.5,83.8333 170.5,86.1667 170.5,88.5C 170.167,88.5 169.833,88.5 169.5,88.5C 169.5,87.8333 169.5,87.1667 169.5,86.5C 169.657,85.1266 169.49,83.7932 169,82.5C 142.5,56 116,29.5 89.5,3C 87.0892,0.301592 84.4226,-0.0317416 81.5,2C 54.6667,28.8333 27.8333,55.6667 1,82.5C 0.235015,84.0657 0.401682,85.3991 1.5,86.5C 1.5,86.8333 1.5,87.1667 1.5,87.5C 0.833333,87.5 0.5,87.8333 0.5,88.5C 0.166667,88.5 -0.166667,88.5 -0.5,88.5C -0.5,86.1667 -0.5,83.8333 -0.5,81.5C 27.1667,54.5 54.5,27.1667 81.5,-0.5 Z"/></g>
<g><path style="opacity:1" fill="#221d1e" d="M 73.5,88.5 C 72.5041,102.657 72.1707,116.99 72.5,131.5C 67.6367,131.181 62.97,131.514 58.5,132.5C 57.5027,111.34 57.1694,90.0065 57.5,68.5C 52.8333,68.8333 48.1667,69.1667 43.5,69.5C 45.1915,64.4533 47.6915,59.7866 51,55.5C 55.0571,50.4415 58.7238,45.1082 62,39.5C 64.6324,36.8076 66.9658,37.141 69,40.5C 74.6667,48.8333 80.3333,57.1667 86,65.5C 86.49,66.7932 86.6567,68.1266 86.5,69.5C 82.1434,69.4135 77.81,69.0802 73.5,68.5C 73.5,75.1667 73.5,81.8333 73.5,88.5 Z"/></g>
<g><path style="opacity:1" fill="#281f00" d="M 96.5,38.5 C 97.8283,59.6704 97.8283,81.0038 96.5,102.5C 95.8933,102.376 95.56,102.043 95.5,101.5C 96.4973,80.6733 96.8306,59.6733 96.5,38.5 Z"/></g>
<g><path style="opacity:1" fill="#221e1e" d="M 96.5,38.5 C 96.5,38.1667 96.5,37.8333 96.5,37.5C 101.833,37.5 107.167,37.5 112.5,37.5C 112.169,59.0065 112.503,80.3399 113.5,101.5C 117.772,100.51 122.106,99.8437 126.5,99.5C 126.628,101.655 126.128,103.655 125,105.5C 118.641,114.84 111.975,123.84 105,132.5C 103.739,132.241 102.739,131.574 102,130.5C 96.3333,122.167 90.6667,113.833 85,105.5C 83.872,103.655 83.372,101.655 83.5,99.5C 87.5,100.167 91.5,100.833 95.5,101.5C 95.56,102.043 95.8933,102.376 96.5,102.5C 97.8283,81.0038 97.8283,59.6704 96.5,38.5 Z"/></g>
<g><path style="opacity:1" fill="#867620" d="M 96.5,37.5 C 101.975,36.5111 107.642,36.1778 113.5,36.5C 113.5,58.1667 113.5,79.8333 113.5,101.5C 112.503,80.3399 112.169,59.0065 112.5,37.5C 107.167,37.5 101.833,37.5 96.5,37.5 Z"/></g>
<g><path style="opacity:1" fill="#281f12" d="M 169.5,86.5 C 169.167,86.5 168.833,86.5 168.5,86.5C 168.5,85.8333 168.167,85.5 167.5,85.5C 140.878,57.0444 113.378,29.3777 85,2.5C 56.6221,29.3777 29.1221,57.0444 2.5,85.5C 1.83333,85.5 1.5,85.8333 1.5,86.5C 0.401682,85.3991 0.235015,84.0657 1,82.5C 27.8333,55.6667 54.6667,28.8333 81.5,2C 84.4226,-0.0317416 87.0892,0.301592 89.5,3C 116,29.5 142.5,56 169,82.5C 169.49,83.7932 169.657,85.1266 169.5,86.5 Z"/></g>
<g><path style="opacity:1" fill="#fefffe" d="M -0.5,88.5 C -0.166667,88.5 0.166667,88.5 0.5,88.5C 27.1667,115.5 53.8333,142.5 80.5,169.5C 53.5,169.5 26.5,169.5 -0.5,169.5C -0.5,142.5 -0.5,115.5 -0.5,88.5 Z"/></g>
<g><path style="opacity:1" fill="#fefffe" d="M 169.5,88.5 C 169.833,88.5 170.167,88.5 170.5,88.5C 170.5,115.5 170.5,142.5 170.5,169.5C 143.5,169.5 116.5,169.5 89.5,169.5C 116.167,142.5 142.833,115.5 169.5,88.5 Z"/></g>
<g><path style="opacity:1" fill="#e2c92b" d="M 168.5,86.5 C 168.833,86.5 169.167,86.5 169.5,86.5C 169.5,87.1667 169.5,87.8333 169.5,88.5C 142.833,115.5 116.167,142.5 89.5,169.5C 88.5,169.5 87.5,169.5 86.5,169.5C 113.833,141.833 141.167,114.167 168.5,86.5 Z"/></g>
<g><path style="opacity:1" fill="#040007" d="M 2.5,85.5 C 29.5056,113.339 57.0056,140.672 85,167.5C 112.994,140.672 140.494,113.339 167.5,85.5C 168.167,85.5 168.5,85.8333 168.5,86.5C 141.167,114.167 113.833,141.833 86.5,169.5C 85.5,169.5 84.5,169.5 83.5,169.5C 56.5,141.833 29.1667,114.5 1.5,87.5C 1.5,87.1667 1.5,86.8333 1.5,86.5C 1.5,85.8333 1.83333,85.5 2.5,85.5 Z"/></g>
<g><path style="opacity:1" fill="#271d00" d="M 73.5,88.5 C 73.5,103.167 73.5,117.833 73.5,132.5C 68.5,132.5 63.5,132.5 58.5,132.5C 62.97,131.514 67.6367,131.181 72.5,131.5C 72.1707,116.99 72.5041,102.657 73.5,88.5 Z"/></g>
<g><path style="opacity:1" fill="#e0c82a" d="M 1.5,87.5 C 29.1667,114.5 56.5,141.833 83.5,169.5C 82.5,169.5 81.5,169.5 80.5,169.5C 53.8333,142.5 27.1667,115.5 0.5,88.5C 0.5,87.8333 0.833333,87.5 1.5,87.5 Z"/></g>
</svg>
