<?xml version="1.0" encoding="UTF-8"?>
<!DOCTYPE svg PUBLIC "-//W3C//DTD SVG 1.1//EN" "http://www.w3.org/Graphics/SVG/1.1/DTD/svg11.dtd">
<svg xmlns="http://www.w3.org/2000/svg" version="1.1" width="171px" height="170px" style="shape-rendering:geometricPrecision; text-rendering:geometricPrecision; image-rendering:optimizeQuality; fill-rule:evenodd; clip-rule:evenodd" xmlns:xlink="http://www.w3.org/1999/xlink">
<g><path style="opacity:1" fill="#e1d37c" d="M 80.5,-0.5 C 83.1667,-0.5 85.8333,-0.5 88.5,-0.5C 115.554,27.2208 142.887,54.5541 170.5,81.5C 170.5,83.8333 170.5,86.1667 170.5,88.5C 143.908,115.685 116.908,142.685 89.5,169.5C 88.5,169.5 87.5,169.5 86.5,169.5C 113.833,141.833 141.167,114.167 168.5,86.5C 169.621,84.9106 169.454,83.2439 168,81.5C 140.77,53.5978 113.103,26.5978 85,0.5C 83.7753,0.862286 82.6086,1.36229 81.5,2C 54.7749,28.7251 27.9415,55.5585 1,82.5C 0.235015,84.0657 0.401682,85.3991 1.5,86.5C 28.8333,114.167 56.1667,141.833 83.5,169.5C 82.5,169.5 81.5,169.5 80.5,169.5C 53.1667,142.833 26.1667,115.833 -0.5,88.5C -0.5,85.8333 -0.5,83.1667 -0.5,80.5C 26.8333,53.8333 53.8333,26.8333 80.5,-0.5 Z"/></g>
<g><path style="opacity:1" fill="#fadc1c" d="M 133.5,50.5 C 132.518,51.1408 131.518,51.8075 130.5,52.5C 129.251,49.5821 127.585,46.9154 125.5,44.5C 124.232,45.4279 122.899,45.5946 121.5,45C 122.167,44.6667 122.833,44.3333 123.5,44C 120.786,41.6228 118.453,38.9561 116.5,36C 114.843,35.2748 113.843,35.7748 113.5,37.5C 107.833,37.5 102.167,37.5 96.5,37.5C 95.5027,58.3267 95.1694,79.3267 95.5,100.5C 91.5483,99.7279 87.5483,99.3946 83.5,99.5C 86.8987,98.1802 90.3987,98.1802 94,99.5C 94.4998,90.5062 94.6664,81.5062 94.5,72.5C 93.5,72.5 92.5,72.5 91.5,72.5C 91.6495,73.552 91.4828,74.552 91,75.5C 89.9887,74.6634 88.8221,74.33 87.5,74.5C 87.5,73.5 87.5,72.5 87.5,71.5C 83.19,70.9198 78.8566,70.5865 74.5,70.5C 74.8305,91.3401 74.4972,112.007 73.5,132.5C 73.5,117.833 73.5,103.167 73.5,88.5C 73.5,81.8333 73.5,75.1667 73.5,68.5C 77.8422,68.7395 82.1756,69.0728 86.5,69.5C 84.1476,62.4691 80.4809,56.1357 75.5,50.5C 72.7467,45.9924 69.7467,41.6591 66.5,37.5C 64.7832,35.2673 62.7832,35.2673 60.5,37.5C 58.8955,39.1789 58.2289,41.1789 58.5,43.5C 56.1591,43.9919 54.1591,45.1585 52.5,47C 52.9574,47.414 53.2907,47.914 53.5,48.5C 51.9951,49.8415 51.3285,51.5082 51.5,53.5C 50.5,53.5 49.5,53.5 48.5,53.5C 48.6235,57.0399 46.9568,59.0399 43.5,59.5C 43.9746,62.0821 43.3079,64.0821 41.5,65.5C 43.1369,61.7725 41.8036,59.7725 37.5,59.5C 38.1667,58.5 38.8333,57.5 39.5,56.5C 39.7384,54.4347 39.2384,52.4347 38,50.5C 36.9563,51.6226 36.2896,52.9559 36,54.5C 32.4883,55.4836 30.3217,57.8169 29.5,61.5C 27.5891,62.4767 25.5891,63.1433 23.5,63.5C 43.5058,42.6608 64.0058,22.3275 85,2.5C 101.661,17.9939 117.827,33.9939 133.5,50.5 Z"/></g>
<g><path style="opacity:1" fill="#231e1f" d="M 118.5,100.5 C 121.167,100.5 123.833,100.5 126.5,100.5C 124.108,105.616 121.441,110.616 118.5,115.5C 113.976,120.538 109.976,126.038 106.5,132C 105.5,132.667 104.5,132.667 103.5,132C 102.267,130.333 100.933,128.833 99.5,127.5C 94.9358,120.052 90.1025,112.719 85,105.5C 83.9914,103.975 83.4914,102.308 83.5,100.5C 87.8566,100.586 92.19,100.92 96.5,101.5C 97.1174,101.389 97.6174,101.056 98,100.5C 98.5,79.836 98.6666,59.1694 98.5,38.5C 102.833,38.5 107.167,38.5 111.5,38.5C 110.367,59.8026 110.2,81.136 111,102.5C 113.269,102.904 115.769,103.071 118.5,103C 119.598,102.23 119.598,101.397 118.5,100.5 Z"/></g>
<g><path style="opacity:1" fill="#fcde14" d="M 133.5,50.5 C 144.5,60.8333 155.167,71.5 165.5,82.5C 164.628,85.8112 163.295,88.4778 161.5,90.5C 158.439,90.4443 156.272,91.7776 155,94.5C 154.667,94.1667 154.333,93.8333 154,93.5C 153.505,95.4727 153.338,97.4727 153.5,99.5C 153.167,100.5 152.5,101.167 151.5,101.5C 149.145,100.215 147.312,100.215 146,101.5C 145.144,103.868 144.31,106.202 143.5,108.5C 141.549,108.227 140.049,108.893 139,110.5C 138.667,110.167 138.333,109.833 138,109.5C 137.51,110.793 137.343,112.127 137.5,113.5C 136.127,113.343 134.793,113.51 133.5,114C 134.337,115.011 134.67,116.178 134.5,117.5C 130.745,115.726 128.911,117.059 129,121.5C 128.586,121.043 128.086,120.709 127.5,120.5C 126.673,122.162 125.507,123.495 124,124.5C 123.51,125.793 123.343,127.127 123.5,128.5C 121.396,128.201 119.396,128.534 117.5,129.5C 118.96,132.951 118.627,133.617 116.5,131.5C 115.749,132.376 115.249,133.376 115,134.5C 114.487,131.973 113.32,129.807 111.5,128C 113.017,126.459 114.184,124.625 115,122.5C 116.364,123.258 117.531,122.758 118.5,121C 119.166,119.34 119.166,117.506 118.5,115.5C 120.586,113.572 122.753,111.572 125,109.5C 126.686,106.019 127.519,102.352 127.5,98.5C 123.131,98.4672 118.798,98.8005 114.5,99.5C 114.831,78.6599 114.497,57.9933 113.5,37.5C 113.843,35.7748 114.843,35.2748 116.5,36C 118.453,38.9561 120.786,41.6228 123.5,44C 122.833,44.3333 122.167,44.6667 121.5,45C 122.899,45.5946 124.232,45.4279 125.5,44.5C 127.585,46.9154 129.251,49.5821 130.5,52.5C 131.518,51.8075 132.518,51.1408 133.5,50.5 Z"/></g>
<g><path style="opacity:1" fill="#312910" d="M 96.5,37.5 C 102.167,37.5 107.833,37.5 113.5,37.5C 113.5,58.8333 113.5,80.1667 113.5,101.5C 115.216,101.371 116.883,101.038 118.5,100.5C 119.598,101.397 119.598,102.23 118.5,103C 115.769,103.071 113.269,102.904 111,102.5C 110.2,81.136 110.367,59.8026 111.5,38.5C 107.167,38.5 102.833,38.5 98.5,38.5C 98.6666,59.1694 98.5,79.836 98,100.5C 97.6174,101.056 97.1174,101.389 96.5,101.5C 96.5,80.1667 96.5,58.8333 96.5,37.5 Z"/></g>
<g><path style="opacity:1" fill="#231c15" d="M 66.5,37.5 C 69.7467,41.6591 72.7467,45.9924 75.5,50.5C 72.0283,50.8738 69.0283,49.8738 66.5,47.5C 66.1667,47.8333 65.8333,48.1667 65.5,48.5C 66.1667,49.1667 66.8333,49.8333 67.5,50.5C 66.0499,51.8498 65.3832,53.5165 65.5,55.5C 64.1667,55.5 62.8333,55.5 61.5,55.5C 61.3994,61.7669 60.0661,62.1002 57.5,56.5C 57.8333,55.5 58.1667,54.5 58.5,53.5C 59.3957,54.5063 60.0623,54.5063 60.5,53.5C 59.8108,51.556 59.3108,49.556 59,47.5C 56.4426,50.3922 54.276,53.5589 52.5,57C 53.9561,57.4226 54.4561,58.2559 54,59.5C 52.4157,60.8613 50.5824,61.528 48.5,61.5C 48.5,62.5 48.5,63.5 48.5,64.5C 51.7261,65.2053 54.8928,66.2053 58,67.5C 58.3333,88.5 58.6667,109.5 59,130.5C 63.3487,130.679 67.8487,130.679 72.5,130.5C 72.1709,116.323 72.5042,102.323 73.5,88.5C 73.5,103.167 73.5,117.833 73.5,132.5C 68.1667,132.5 62.8333,132.5 57.5,132.5C 57.5,111.167 57.5,89.8333 57.5,68.5C 52.8333,68.8333 48.1667,69.1667 43.5,69.5C 43.4914,67.6916 43.9914,66.0249 45,64.5C 50.914,56.3399 56.5807,48.0065 62,39.5C 63.1096,37.9632 64.6096,37.2965 66.5,37.5 Z"/></g>
<g><path style="opacity:1" fill="#221e1f" d="M 75.5,50.5 C 80.4809,56.1357 84.1476,62.4691 86.5,69.5C 82.1756,69.0728 77.8422,68.7395 73.5,68.5C 73.5,75.1667 73.5,81.8333 73.5,88.5C 72.5042,102.323 72.1709,116.323 72.5,130.5C 67.8487,130.679 63.3487,130.679 59,130.5C 58.6667,109.5 58.3333,88.5 58,67.5C 54.8928,66.2053 51.7261,65.2053 48.5,64.5C 48.5,63.5 48.5,62.5 48.5,61.5C 50.5824,61.528 52.4157,60.8613 54,59.5C 54.4561,58.2559 53.9561,57.4226 52.5,57C 54.276,53.5589 56.4426,50.3922 59,47.5C 59.3108,49.556 59.8108,51.556 60.5,53.5C 60.0623,54.5063 59.3957,54.5063 58.5,53.5C 58.1667,54.5 57.8333,55.5 57.5,56.5C 60.0661,62.1002 61.3994,61.7669 61.5,55.5C 62.8333,55.5 64.1667,55.5 65.5,55.5C 65.3832,53.5165 66.0499,51.8498 67.5,50.5C 66.8333,49.8333 66.1667,49.1667 65.5,48.5C 65.8333,48.1667 66.1667,47.8333 66.5,47.5C 69.0283,49.8738 72.0283,50.8738 75.5,50.5 Z"/></g>
<g><path style="opacity:1" fill="#322405" d="M 168.5,86.5 C 168.5,85.8333 168.167,85.5 167.5,85.5C 167.573,83.9731 166.906,82.9731 165.5,82.5C 155.167,71.5 144.5,60.8333 133.5,50.5C 117.827,33.9939 101.661,17.9939 85,2.5C 64.0058,22.3275 43.5058,42.6608 23.5,63.5C 15.7765,70.2216 8.77649,77.555 2.5,85.5C 1.83333,85.5 1.5,85.8333 1.5,86.5C 0.401682,85.3991 0.235015,84.0657 1,82.5C 27.9415,55.5585 54.7749,28.7251 81.5,2C 82.6086,1.36229 83.7753,0.862286 85,0.5C 113.103,26.5978 140.77,53.5978 168,81.5C 169.454,83.2439 169.621,84.9106 168.5,86.5 Z"/></g>
<g><path style="opacity:1" fill="#fcdd13" d="M 41.5,65.5 C 41.372,67.6547 41.872,69.6547 43,71.5C 47.105,70.6534 51.2717,69.9868 55.5,69.5C 55.833,89.5111 55.4996,109.511 54.5,129.5C 53.5224,129.023 52.6891,128.357 52,127.5C 51.6667,128.167 51.3333,128.833 51,129.5C 49.4002,128.134 47.5668,127.134 45.5,126.5C 43.5245,125.251 43.1912,123.751 44.5,122C 41.5677,120.7 39.2344,118.7 37.5,116C 38.1667,115.667 38.8333,115.333 39.5,115C 36.9938,113.701 34.3272,112.701 31.5,112C 31.3842,110.732 31.0509,109.398 30.5,108C 28.5405,107.069 26.5405,106.236 24.5,105.5C 23.3591,102.938 22.5257,100.272 22,97.5C 21.3333,98.1667 20.6667,98.8333 20,99.5C 18.0065,98.086 15.8398,97.086 13.5,96.5C 9.5,93.1667 5.83333,89.5 2.5,85.5C 8.77649,77.555 15.7765,70.2216 23.5,63.5C 25.5891,63.1433 27.5891,62.4767 29.5,61.5C 30.3217,57.8169 32.4883,55.4836 36,54.5C 36.2896,52.9559 36.9563,51.6226 38,50.5C 39.2384,52.4347 39.7384,54.4347 39.5,56.5C 38.8333,57.5 38.1667,58.5 37.5,59.5C 41.8036,59.7725 43.1369,61.7725 41.5,65.5 Z"/></g>
<g><path style="opacity:1" fill="#ebd657" d="M 96.5,37.5 C 96.5,58.8333 96.5,80.1667 96.5,101.5C 92.19,100.92 87.8566,100.586 83.5,100.5C 83.5,100.167 83.5,99.8333 83.5,99.5C 87.5483,99.3946 91.5483,99.7279 95.5,100.5C 95.1694,79.3267 95.5027,58.3267 96.5,37.5 Z"/></g>
<g><path style="opacity:1" fill="#e2cc37" d="M 165.5,82.5 C 166.906,82.9731 167.573,83.9731 167.5,85.5C 163.167,90.5 158.5,95.1667 153.5,99.5C 153.338,97.4727 153.505,95.4727 154,93.5C 154.333,93.8333 154.667,94.1667 155,94.5C 156.272,91.7776 158.439,90.4443 161.5,90.5C 163.295,88.4778 164.628,85.8112 165.5,82.5 Z"/></g>
<g><path style="opacity:1" fill="#fbdd15" d="M 83.5,99.5 C 83.5,99.8333 83.5,100.167 83.5,100.5C 83.4914,102.308 83.9914,103.975 85,105.5C 90.1025,112.719 94.9358,120.052 99.5,127.5C 101.164,129.679 100.83,131.512 98.5,133C 103.169,136.624 107.336,136.124 111,131.5C 111.498,134.817 111.665,138.15 111.5,141.5C 107.5,146.167 103.167,150.5 98.5,154.5C 96.4588,154.854 94.6255,154.854 93,154.5C 92.3005,156.032 91.1338,157.032 89.5,157.5C 88.9071,159.511 88.0738,161.844 87,164.5C 86.1004,162.602 84.9337,160.936 83.5,159.5C 82.8869,160.98 82.5536,162.313 82.5,163.5C 79.5076,160.79 77.6743,157.79 77,154.5C 76.4387,155.022 75.772,155.355 75,155.5C 73.5054,153.837 71.672,152.837 69.5,152.5C 65.1667,148.833 61.1667,144.833 57.5,140.5C 55.8784,138.058 55.0451,135.391 55,132.5C 61.2655,133.826 67.4322,133.826 73.5,132.5C 74.4972,112.007 74.8305,91.3401 74.5,70.5C 78.8566,70.5865 83.19,70.9198 87.5,71.5C 87.5,72.5 87.5,73.5 87.5,74.5C 88.8221,74.33 89.9887,74.6634 91,75.5C 91.4828,74.552 91.6495,73.552 91.5,72.5C 92.5,72.5 93.5,72.5 94.5,72.5C 94.6664,81.5062 94.4998,90.5062 94,99.5C 90.3987,98.1802 86.8987,98.1802 83.5,99.5 Z"/></g>
<g><path style="opacity:1" fill="#ead23d" d="M 113.5,37.5 C 114.497,57.9933 114.831,78.6599 114.5,99.5C 118.798,98.8005 123.131,98.4672 127.5,98.5C 127.519,102.352 126.686,106.019 125,109.5C 122.753,111.572 120.586,113.572 118.5,115.5C 121.441,110.616 124.108,105.616 126.5,100.5C 123.833,100.5 121.167,100.5 118.5,100.5C 116.883,101.038 115.216,101.371 113.5,101.5C 113.5,80.1667 113.5,58.8333 113.5,37.5 Z"/></g>
<g><path style="opacity:1" fill="#120600" d="M 2.5,85.5 C 5.83333,89.5 9.5,93.1667 13.5,96.5C 27.8333,111.5 42.5,126.167 57.5,140.5C 61.1667,144.833 65.1667,148.833 69.5,152.5C 74.1756,158.009 79.3422,163.009 85,167.5C 89.9905,163.676 94.4905,159.343 98.5,154.5C 103.167,150.5 107.5,146.167 111.5,141.5C 125.167,128.5 138.5,115.167 151.5,101.5C 152.5,101.167 153.167,100.5 153.5,99.5C 158.5,95.1667 163.167,90.5 167.5,85.5C 168.167,85.5 168.5,85.8333 168.5,86.5C 141.167,114.167 113.833,141.833 86.5,169.5C 85.5,169.5 84.5,169.5 83.5,169.5C 56.1667,141.833 28.8333,114.167 1.5,86.5C 1.5,85.8333 1.83333,85.5 2.5,85.5 Z"/></g>
<g><path style="opacity:1" fill="#eed52a" d="M 151.5,101.5 C 138.5,115.167 125.167,128.5 111.5,141.5C 111.665,138.15 111.498,134.817 111,131.5C 107.336,136.124 103.169,136.624 98.5,133C 100.83,131.512 101.164,129.679 99.5,127.5C 100.933,128.833 102.267,130.333 103.5,132C 104.5,132.667 105.5,132.667 106.5,132C 109.976,126.038 113.976,120.538 118.5,115.5C 119.166,117.506 119.166,119.34 118.5,121C 117.531,122.758 116.364,123.258 115,122.5C 114.184,124.625 113.017,126.459 111.5,128C 113.32,129.807 114.487,131.973 115,134.5C 115.249,133.376 115.749,132.376 116.5,131.5C 118.627,133.617 118.96,132.951 117.5,129.5C 119.396,128.534 121.396,128.201 123.5,128.5C 123.343,127.127 123.51,125.793 124,124.5C 125.507,123.495 126.673,122.162 127.5,120.5C 128.086,120.709 128.586,121.043 129,121.5C 128.911,117.059 130.745,115.726 134.5,117.5C 134.67,116.178 134.337,115.011 133.5,114C 134.793,113.51 136.127,113.343 137.5,113.5C 137.343,112.127 137.51,110.793 138,109.5C 138.333,109.833 138.667,110.167 139,110.5C 140.049,108.893 141.549,108.227 143.5,108.5C 144.31,106.202 145.144,103.868 146,101.5C 147.312,100.215 149.145,100.215 151.5,101.5 Z"/></g>
<g><path style="opacity:1" fill="#e3cb31" d="M 66.5,37.5 C 64.6096,37.2965 63.1096,37.9632 62,39.5C 56.5807,48.0065 50.914,56.3399 45,64.5C 43.9914,66.0249 43.4914,67.6916 43.5,69.5C 48.1667,69.1667 52.8333,68.8333 57.5,68.5C 57.5,89.8333 57.5,111.167 57.5,132.5C 62.8333,132.5 68.1667,132.5 73.5,132.5C 67.4322,133.826 61.2655,133.826 55,132.5C 55.0451,135.391 55.8784,138.058 57.5,140.5C 42.5,126.167 27.8333,111.5 13.5,96.5C 15.8398,97.086 18.0065,98.086 20,99.5C 20.6667,98.8333 21.3333,98.1667 22,97.5C 22.5257,100.272 23.3591,102.938 24.5,105.5C 26.5405,106.236 28.5405,107.069 30.5,108C 31.0509,109.398 31.3842,110.732 31.5,112C 34.3272,112.701 36.9938,113.701 39.5,115C 38.8333,115.333 38.1667,115.667 37.5,116C 39.2344,118.7 41.5677,120.7 44.5,122C 43.1912,123.751 43.5245,125.251 45.5,126.5C 47.5668,127.134 49.4002,128.134 51,129.5C 51.3333,128.833 51.6667,128.167 52,127.5C 52.6891,128.357 53.5224,129.023 54.5,129.5C 55.4996,109.511 55.833,89.5111 55.5,69.5C 51.2717,69.9868 47.105,70.6534 43,71.5C 41.872,69.6547 41.372,67.6547 41.5,65.5C 43.3079,64.0821 43.9746,62.0821 43.5,59.5C 46.9568,59.0399 48.6235,57.0399 48.5,53.5C 49.5,53.5 50.5,53.5 51.5,53.5C 51.3285,51.5082 51.9951,49.8415 53.5,48.5C 53.2907,47.914 52.9574,47.414 52.5,47C 54.1591,45.1585 56.1591,43.9919 58.5,43.5C 58.2289,41.1789 58.8955,39.1789 60.5,37.5C 62.7832,35.2673 64.7832,35.2673 66.5,37.5 Z"/></g>
<g><path style="opacity:1" fill="#eacf2b" d="M 69.5,152.5 C 71.672,152.837 73.5054,153.837 75,155.5C 75.772,155.355 76.4387,155.022 77,154.5C 77.6743,157.79 79.5076,160.79 82.5,163.5C 82.5536,162.313 82.8869,160.98 83.5,159.5C 84.9337,160.936 86.1004,162.602 87,164.5C 88.0738,161.844 88.9071,159.511 89.5,157.5C 91.1338,157.032 92.3005,156.032 93,154.5C 94.6255,154.854 96.4588,154.854 98.5,154.5C 94.4905,159.343 89.9905,163.676 85,167.5C 79.3422,163.009 74.1756,158.009 69.5,152.5 Z"/></g>
</svg>
