<?xml version="1.0" encoding="UTF-8"?>
<!DOCTYPE svg PUBLIC "-//W3C//DTD SVG 1.1//EN" "http://www.w3.org/Graphics/SVG/1.1/DTD/svg11.dtd">
<svg xmlns="http://www.w3.org/2000/svg" version="1.1" width="292px" height="293px" style="shape-rendering:geometricPrecision; text-rendering:geometricPrecision; image-rendering:optimizeQuality; fill-rule:evenodd; clip-rule:evenodd" xmlns:xlink="http://www.w3.org/1999/xlink">
<g><path style="opacity:0.982" fill="#3a3935" d="M 142.5,-0.5 C 144.5,-0.5 146.5,-0.5 148.5,-0.5C 152.457,0.341911 156.457,1.50858 160.5,3C 161.056,3.38258 161.389,3.88258 161.5,4.5C 160.448,4.35055 159.448,4.51722 158.5,5C 159.267,6.47049 159.933,7.97049 160.5,9.5C 149.543,3.86983 138.876,4.36983 128.5,11C 89.6667,49.8333 50.8333,88.6667 12,127.5C 4.71065,139.139 4.71065,150.806 12,162.5C 48.7015,199.035 85.2015,235.701 121.5,272.5C 119.833,273.5 118.5,274.833 117.5,276.5C 81.5346,241.035 45.7013,205.368 10,169.5C -1.82087,154.333 -2.48754,138.666 8,122.5C 46.1667,84.3333 84.3333,46.1667 122.5,8C 128.552,3.49007 135.218,0.656739 142.5,-0.5 Z"/></g>
<g><path style="opacity:0.984" fill="#363533" d="M 161.5,4.5 C 164.516,5.34314 167.183,6.84314 169.5,9C 205.376,45.5086 241.543,81.6752 278,117.5C 291.088,130.611 293.755,145.611 286,162.5C 282.304,166.858 278.637,171.192 275,175.5C 238.078,211.774 201.245,248.274 164.5,285C 146.668,293.65 131.001,290.816 117.5,276.5C 118.5,274.833 119.833,273.5 121.5,272.5C 132.814,285.18 145.814,287.513 160.5,279.5C 200.437,241.064 239.937,202.064 279,162.5C 279.513,161.473 280.013,160.473 280.5,159.5C 286.174,148.563 285.674,137.896 279,127.5C 239.605,87.9381 200.105,48.6048 160.5,9.5C 159.933,7.97049 159.267,6.47049 158.5,5C 159.448,4.51722 160.448,4.35055 161.5,4.5 Z"/></g>
<g><path style="opacity:1" fill="#f5e924" d="M 160.5,9.5 C 200.105,48.6048 239.605,87.9381 279,127.5C 285.674,137.896 286.174,148.563 280.5,159.5C 278.771,158.883 277.271,157.883 276,156.5C 276.026,159.207 275.193,161.874 273.5,164.5C 271.837,163.125 270.503,163.458 269.5,165.5C 268.304,165.154 268.304,164.654 269.5,164C 268.552,163.517 267.552,163.351 266.5,163.5C 267.438,166.089 267.771,168.589 267.5,171C 266.146,172.294 264.812,172.46 263.5,171.5C 262.833,172.167 262.167,172.833 261.5,173.5C 260.304,173.154 260.304,172.654 261.5,172C 260.552,171.517 259.552,171.351 258.5,171.5C 259.438,174.089 259.771,176.589 259.5,179C 257.277,179.652 256.11,181.152 256,183.5C 255.097,182.299 253.931,181.465 252.5,181C 252.833,180.667 253.167,180.333 253.5,180C 252.552,179.517 251.552,179.351 250.5,179.5C 251.438,182.089 251.771,184.589 251.5,187C 250.146,188.294 248.812,188.46 247.5,187.5C 246.833,188.167 246.167,188.833 245.5,189.5C 244.304,189.154 244.304,188.654 245.5,188C 244.552,187.517 243.552,187.351 242.5,187.5C 243.438,190.089 243.771,192.589 243.5,195C 241.277,195.652 240.11,197.152 240,199.5C 239.097,198.299 237.931,197.465 236.5,197C 236.833,196.667 237.167,196.333 237.5,196C 236.552,195.517 235.552,195.351 234.5,195.5C 235.438,198.089 235.771,200.589 235.5,203C 234.146,204.294 232.812,204.46 231.5,203.5C 230.833,204.167 230.167,204.833 229.5,205.5C 228.304,205.154 228.304,204.654 229.5,204C 228.552,203.517 227.552,203.351 226.5,203.5C 227.438,206.089 227.771,208.589 227.5,211C 225.277,211.652 224.11,213.152 224,215.5C 223.097,214.299 221.931,213.465 220.5,213C 220.833,212.667 221.167,212.333 221.5,212C 220.552,211.517 219.552,211.351 218.5,211.5C 219.438,214.089 219.771,216.589 219.5,219C 218.146,220.294 216.812,220.46 215.5,219.5C 214.833,220.167 214.167,220.833 213.5,221.5C 212.304,221.154 212.304,220.654 213.5,220C 212.552,219.517 211.552,219.351 210.5,219.5C 211.438,222.089 211.771,224.589 211.5,227C 209.277,227.652 208.11,229.152 208,231.5C 207.097,230.299 205.931,229.465 204.5,229C 204.833,228.667 205.167,228.333 205.5,228C 204.552,227.517 203.552,227.351 202.5,227.5C 203.438,230.089 203.771,232.589 203.5,235C 202.146,236.294 200.812,236.46 199.5,235.5C 198.833,236.167 198.167,236.833 197.5,237.5C 196.304,237.154 196.304,236.654 197.5,236C 196.552,235.517 195.552,235.351 194.5,235.5C 195.309,237.973 195.642,240.306 195.5,242.5C 193.82,243.769 192.653,245.436 192,247.5C 191.097,246.299 189.931,245.465 188.5,245C 188.833,244.667 189.167,244.333 189.5,244C 188.552,243.517 187.552,243.351 186.5,243.5C 187.438,246.089 187.771,248.589 187.5,251C 186.146,252.294 184.812,252.46 183.5,251.5C 182.833,252.167 182.167,252.833 181.5,253.5C 180.304,253.154 180.304,252.654 181.5,252C 180.552,251.517 179.552,251.351 178.5,251.5C 179.798,254.615 179.464,257.615 177.5,260.5C 175.837,259.125 174.503,259.458 173.5,261.5C 172.304,261.154 172.304,260.654 173.5,260C 172.552,259.517 171.552,259.351 170.5,259.5C 171.438,262.089 171.771,264.589 171.5,267C 170.351,268.744 169.017,268.911 167.5,267.5C 166.833,268.167 166.167,268.833 165.5,269.5C 164.304,269.154 164.304,268.654 165.5,268C 164.552,267.517 163.552,267.351 162.5,267.5C 163.438,270.089 163.771,272.589 163.5,275C 161.859,276.129 160.859,277.629 160.5,279.5C 145.814,287.513 132.814,285.18 121.5,272.5C 85.2015,235.701 48.7015,199.035 12,162.5C 4.71065,150.806 4.71065,139.139 12,127.5C 50.8333,88.6667 89.6667,49.8333 128.5,11C 138.876,4.36983 149.543,3.86983 160.5,9.5 Z"/></g>
<g><path style="opacity:1" fill="#383536" d="M 135.5,57.5 C 146.167,57.5 156.833,57.5 167.5,57.5C 167.5,116.167 167.5,174.833 167.5,233.5C 156.833,233.5 146.167,233.5 135.5,233.5C 135.5,205.167 135.5,176.833 135.5,148.5C 111.5,148.5 87.5,148.5 63.5,148.5C 63.5,142.167 63.5,135.833 63.5,129.5C 87.5,129.5 111.5,129.5 135.5,129.5C 135.5,105.5 135.5,81.5 135.5,57.5 Z"/></g>
<g><path style="opacity:1" fill="#eee127" d="M 280.5,159.5 C 280.013,160.473 279.513,161.473 279,162.5C 239.937,202.064 200.437,241.064 160.5,279.5C 160.859,277.629 161.859,276.129 163.5,275C 163.771,272.589 163.438,270.089 162.5,267.5C 163.552,267.351 164.552,267.517 165.5,268C 164.304,268.654 164.304,269.154 165.5,269.5C 166.167,268.833 166.833,268.167 167.5,267.5C 169.017,268.911 170.351,268.744 171.5,267C 171.771,264.589 171.438,262.089 170.5,259.5C 171.552,259.351 172.552,259.517 173.5,260C 172.304,260.654 172.304,261.154 173.5,261.5C 174.503,259.458 175.837,259.125 177.5,260.5C 179.464,257.615 179.798,254.615 178.5,251.5C 179.552,251.351 180.552,251.517 181.5,252C 180.304,252.654 180.304,253.154 181.5,253.5C 182.167,252.833 182.833,252.167 183.5,251.5C 184.812,252.46 186.146,252.294 187.5,251C 187.771,248.589 187.438,246.089 186.5,243.5C 187.552,243.351 188.552,243.517 189.5,244C 189.167,244.333 188.833,244.667 188.5,245C 189.931,245.465 191.097,246.299 192,247.5C 192.653,245.436 193.82,243.769 195.5,242.5C 195.642,240.306 195.309,237.973 194.5,235.5C 195.552,235.351 196.552,235.517 197.5,236C 196.304,236.654 196.304,237.154 197.5,237.5C 198.167,236.833 198.833,236.167 199.5,235.5C 200.812,236.46 202.146,236.294 203.5,235C 203.771,232.589 203.438,230.089 202.5,227.5C 203.552,227.351 204.552,227.517 205.5,228C 205.167,228.333 204.833,228.667 204.5,229C 205.931,229.465 207.097,230.299 208,231.5C 208.11,229.152 209.277,227.652 211.5,227C 211.771,224.589 211.438,222.089 210.5,219.5C 211.552,219.351 212.552,219.517 213.5,220C 212.304,220.654 212.304,221.154 213.5,221.5C 214.167,220.833 214.833,220.167 215.5,219.5C 216.812,220.46 218.146,220.294 219.5,219C 219.771,216.589 219.438,214.089 218.5,211.5C 219.552,211.351 220.552,211.517 221.5,212C 221.167,212.333 220.833,212.667 220.5,213C 221.931,213.465 223.097,214.299 224,215.5C 224.11,213.152 225.277,211.652 227.5,211C 227.771,208.589 227.438,206.089 226.5,203.5C 227.552,203.351 228.552,203.517 229.5,204C 228.304,204.654 228.304,205.154 229.5,205.5C 230.167,204.833 230.833,204.167 231.5,203.5C 232.812,204.46 234.146,204.294 235.5,203C 235.771,200.589 235.438,198.089 234.5,195.5C 235.552,195.351 236.552,195.517 237.5,196C 237.167,196.333 236.833,196.667 236.5,197C 237.931,197.465 239.097,198.299 240,199.5C 240.11,197.152 241.277,195.652 243.5,195C 243.771,192.589 243.438,190.089 242.5,187.5C 243.552,187.351 244.552,187.517 245.5,188C 244.304,188.654 244.304,189.154 245.5,189.5C 246.167,188.833 246.833,188.167 247.5,187.5C 248.812,188.46 250.146,188.294 251.5,187C 251.771,184.589 251.438,182.089 250.5,179.5C 251.552,179.351 252.552,179.517 253.5,180C 253.167,180.333 252.833,180.667 252.5,181C 253.931,181.465 255.097,182.299 256,183.5C 256.11,181.152 257.277,179.652 259.5,179C 259.771,176.589 259.438,174.089 258.5,171.5C 259.552,171.351 260.552,171.517 261.5,172C 260.304,172.654 260.304,173.154 261.5,173.5C 262.167,172.833 262.833,172.167 263.5,171.5C 264.812,172.46 266.146,172.294 267.5,171C 267.771,168.589 267.438,166.089 266.5,163.5C 267.552,163.351 268.552,163.517 269.5,164C 268.304,164.654 268.304,165.154 269.5,165.5C 270.503,163.458 271.837,163.125 273.5,164.5C 275.193,161.874 276.026,159.207 276,156.5C 277.271,157.883 278.771,158.883 280.5,159.5 Z"/></g>
</svg>
