<?xml version="1.0" encoding="UTF-8"?>
<!DOCTYPE svg PUBLIC "-//W3C//DTD SVG 1.1//EN" "http://www.w3.org/Graphics/SVG/1.1/DTD/svg11.dtd">
<svg xmlns="http://www.w3.org/2000/svg" version="1.1" width="531px" height="537px" style="shape-rendering:geometricPrecision; text-rendering:geometricPrecision; image-rendering:optimizeQuality; fill-rule:evenodd; clip-rule:evenodd" xmlns:xlink="http://www.w3.org/1999/xlink">
<g><path style="opacity:1" fill="#f0e525" d="M 530.5,265.5 C 530.5,267.167 530.5,268.833 530.5,270.5C 442.495,358.338 354.328,446.005 266,533.5C 176.87,445.203 88.0369,356.869 -0.5,268.5C -0.5,268.167 -0.5,267.833 -0.5,267.5C 88.1457,179.188 176.812,90.8544 265.5,2.5C 354.106,89.7723 442.439,177.439 530.5,265.5 Z"/></g>
<g><path style="opacity:1" fill="#0d0b02" d="M 439.5,189.5 C 462.833,213.5 486.5,237.167 510.5,260.5C 510.932,261.71 511.599,262.71 512.5,263.5C 512.677,267.234 512.344,270.901 511.5,274.5C 432.167,354.5 352.5,434.167 272.5,513.5C 268.566,514.36 264.566,514.693 260.5,514.5C 179.462,434.296 99.2948,353.962 20,273.5C 18.5471,269.854 18.3805,266.188 19.5,262.5C 99.3471,181.82 179.68,101.653 260.5,22C 266.018,20.7131 271.018,21.7131 275.5,25C 329.509,79.8806 384.175,134.714 439.5,189.5 Z"/></g>
<g><path style="opacity:1" fill="#f4e923" d="M 262.5,507.5 C 255.112,499.111 247.112,491.444 238.5,484.5C 213.167,459.833 188.167,434.833 163.5,409.5C 162.5,406.5 160.5,404.5 157.5,403.5C 113.535,360.035 69.7013,316.368 26,272.5C 24.627,270.305 24.2937,267.971 25,265.5C 104.167,186.333 183.333,107.167 262.5,28C 264.833,27.3333 267.167,27.3333 269.5,28C 348.333,106.833 427.167,185.667 506,264.5C 506.667,266.833 506.667,269.167 506,271.5C 427.167,350.333 348.333,429.167 269.5,508C 266.961,508.796 264.628,508.629 262.5,507.5 Z"/></g>
<g><path style="opacity:1" fill="#010100" d="M 247.5,397.5 C 230.577,398.485 213.577,398.818 196.5,398.5C 194.503,310.84 193.836,222.84 194.5,134.5C 212.167,134.5 229.833,134.5 247.5,134.5C 247.061,146.909 247.561,159.242 249,171.5C 271.198,209.014 303.698,231.848 346.5,240C 372.803,241.425 399.136,241.925 425.5,241.5C 425.5,258.5 425.5,275.5 425.5,292.5C 402.498,292.333 379.498,292.5 356.5,293C 310.347,299.817 274.513,322.65 249,361.5C 247.541,373.399 247.041,385.399 247.5,397.5 Z"/></g>
<g><path style="opacity:1" fill="#888214" d="M 439.5,189.5 C 463.416,211.914 486.916,234.914 510,258.5C 510.464,259.094 510.631,259.761 510.5,260.5C 486.5,237.167 462.833,213.5 439.5,189.5 Z"/></g>
<g><path style="opacity:1" fill="#f2e723" d="M 247.5,231.5 C 267.739,244.045 288.406,256.045 309.5,267.5C 288.4,278.551 268.067,290.884 248.5,304.5C 247.5,280.176 247.167,255.842 247.5,231.5 Z"/></g>
<g><path style="opacity:1" fill="#898213" d="M 512.5,263.5 C 513.641,266.64 513.808,269.973 513,273.5C 512.617,274.056 512.117,274.389 511.5,274.5C 512.344,270.901 512.677,267.234 512.5,263.5 Z"/></g>
<g><path style="opacity:1" fill="#9d9516" d="M 247.5,397.5 C 239.361,398.831 230.861,399.498 222,399.5C 213.327,399.5 204.827,399.166 196.5,398.5C 213.577,398.818 230.577,398.485 247.5,397.5 Z"/></g>
<g><path style="opacity:1" fill="#918a15" d="M 157.5,403.5 C 160.5,404.5 162.5,406.5 163.5,409.5C 161.167,407.833 159.167,405.833 157.5,403.5 Z"/></g>
<g><path style="opacity:1" fill="#928b15" d="M 238.5,484.5 C 247.112,491.444 255.112,499.111 262.5,507.5C 253.888,500.556 245.888,492.889 238.5,484.5 Z"/></g>
<g><path style="opacity:1" fill="#696410" d="M 272.5,513.5 C 272.389,514.117 272.056,514.617 271.5,515C 267.642,515.81 263.976,515.643 260.5,514.5C 264.566,514.693 268.566,514.36 272.5,513.5 Z"/></g>
</svg>
