<?xml version="1.0" encoding="UTF-8"?>
<!DOCTYPE svg PUBLIC "-//W3C//DTD SVG 1.1//EN" "http://www.w3.org/Graphics/SVG/1.1/DTD/svg11.dtd">
<svg xmlns="http://www.w3.org/2000/svg" version="1.1" width="283px" height="283px" style="shape-rendering:geometricPrecision; text-rendering:geometricPrecision; image-rendering:optimizeQuality; fill-rule:evenodd; clip-rule:evenodd" xmlns:xlink="http://www.w3.org/1999/xlink">
<g><path style="opacity:1" fill="#d9d8d7" d="M 273.5,274.5 C 273.167,273.167 272.833,273.167 272.5,274.5C 271.167,274.833 271.167,275.167 272.5,275.5C 271.571,276.315 270.571,277.148 269.5,278C 184.167,278.667 98.8333,278.667 13.5,278C 12.1667,277.333 10.8333,276.667 9.5,276C 9.83333,275.667 10.1667,275.333 10.5,275C 9.33333,273.833 8.16667,272.667 7,271.5C 6.66667,271.833 6.33333,272.167 6,272.5C 5.20858,271.255 4.70858,269.922 4.5,268.5C 4.5,183.5 4.5,98.5 4.5,13.5C 5.83333,13.1667 5.83333,12.8333 4.5,12.5C 4.70858,11.0783 5.20858,9.74499 6,8.5C 7.36387,9.25827 8.53054,8.75827 9.5,7C 8.65975,5.33353 9.15975,5.16686 11,6.5C 12.487,5.74714 12.6537,4.9138 11.5,4C 12.5,3.66667 13.5,3.33333 14.5,3C 99.1667,2.33333 183.833,2.33333 268.5,3C 269.833,3.66667 271.167,4.33333 272.5,5C 272.167,5.33333 271.833,5.66667 271.5,6C 273,7.5 274.5,9 276,10.5C 276.333,10.1667 276.667,9.83333 277,9.5C 277.862,11.087 278.529,12.7536 279,14.5C 279.167,56.5 279.333,98.5 279.5,140.5C 279.497,182.878 278.831,225.045 277.5,267C 277.957,267.414 278.291,267.914 278.5,268.5C 277.49,271.141 275.824,273.141 273.5,274.5 Z"/></g>
<g><path style="opacity:1" fill="#161616" d="M 13.5,7.5 C 98.5007,7.33334 183.501,7.5 268.5,8C 269.729,9.52921 271.229,10.6959 273,11.5C 274.661,96.7521 274.994,182.085 274,267.5C 272.437,270.728 269.937,272.895 266.5,274C 182.833,274.667 99.1667,274.667 15.5,274C 11.763,272.719 9.26303,270.219 8,266.5C 7.33333,182.5 7.33333,98.5 8,14.5C 9.66647,12.0043 11.4998,9.67098 13.5,7.5 Z"/></g>
<g><path style="opacity:1" fill="#fdfcfc" d="M 15.5,12.5 C 99.1673,12.3333 182.834,12.5 266.5,13C 267.333,13.8333 268.167,14.6667 269,15.5C 269.667,98.8333 269.667,182.167 269,265.5C 268.692,266.308 268.192,266.975 267.5,267.5C 183.54,268.664 99.5403,268.83 15.5,268C 15,267.5 14.5,267 14,266.5C 12.339,182.915 12.0057,99.248 13,15.5C 14.045,14.6266 14.8783,13.6266 15.5,12.5 Z"/></g>
<g><path style="opacity:1" fill="#a0a09e" d="M 4.5,12.5 C 4.5,12.8333 4.5,13.1667 4.5,13.5C 4.5,98.5 4.5,183.5 4.5,268.5C 3.71003,267.391 3.21003,266.058 3,264.5C 2.33333,181.833 2.33333,99.1667 3,16.5C 3.21003,14.9419 3.71003,13.6085 4.5,12.5 Z"/></g>
<g><path style="opacity:1" fill="#fac0c4" d="M 135.5,25.5 C 138.817,24.8348 142.317,24.5014 146,24.5C 149.902,24.5123 153.402,25.179 156.5,26.5C 149.535,25.6591 142.535,25.3257 135.5,25.5 Z"/></g>
<g><path style="opacity:1" fill="#fc060d" d="M 135.5,25.5 C 142.535,25.3257 149.535,25.6591 156.5,26.5C 205.334,35.1676 237.168,63.1676 252,110.5C 261.814,158.732 247.98,198.565 210.5,230C 178.891,252.45 144.225,258.45 106.5,248C 63.2466,231.402 37.4133,200.235 29,154.5C 24.8919,102.208 45.3919,63.0418 90.5,37C 104.703,30.199 119.703,26.3657 135.5,25.5 Z"/></g>
<g><path style="opacity:1" fill="#fcfbfb" d="M 122.5,228.5 C 121.07,227.463 119.403,226.796 117.5,226.5C 95.1118,220.138 77.4452,207.138 64.5,187.5C 44.1916,149.649 46.8583,113.649 72.5,79.5C 101.937,48.7712 136.937,40.6046 177.5,55C 224.506,80.1998 241.006,118.7 227,170.5C 208.506,212.337 176.34,232.171 130.5,230C 127.937,228.921 125.271,228.421 122.5,228.5 Z"/></g>
<g><path style="opacity:1" fill="#3a3939" d="M 95.5,71.5 C 125.995,70.5019 156.662,70.1685 187.5,70.5C 187.5,78.5 187.5,86.5 187.5,94.5C 163.833,94.5 140.167,94.5 116.5,94.5C 116.5,104.5 116.5,114.5 116.5,124.5C 115.506,114.347 115.172,104.014 115.5,93.5C 139.167,93.5 162.833,93.5 186.5,93.5C 186.5,86.1667 186.5,78.8333 186.5,71.5C 156.167,71.5 125.833,71.5 95.5,71.5 Z"/></g>
<g><path style="opacity:1" fill="#010000" d="M 95.5,71.5 C 125.833,71.5 156.167,71.5 186.5,71.5C 186.5,78.8333 186.5,86.1667 186.5,93.5C 162.833,93.5 139.167,93.5 115.5,93.5C 115.172,104.014 115.506,114.347 116.5,124.5C 132.167,124.5 147.833,124.5 163.5,124.5C 163.5,132.167 163.5,139.833 163.5,147.5C 147.5,147.5 131.5,147.5 115.5,147.5C 115.5,158.833 115.5,170.167 115.5,181.5C 138.994,182.498 162.661,182.831 186.5,182.5C 186.5,189.833 186.5,197.167 186.5,204.5C 156.167,204.5 125.833,204.5 95.5,204.5C 95.5,160.167 95.5,115.833 95.5,71.5 Z"/></g>
<g><path style="opacity:1" fill="#616061" d="M 163.5,147.5 C 148.009,148.496 132.342,148.83 116.5,148.5C 116.5,159.5 116.5,170.5 116.5,181.5C 116.167,181.5 115.833,181.5 115.5,181.5C 115.5,170.167 115.5,158.833 115.5,147.5C 131.5,147.5 147.5,147.5 163.5,147.5 Z"/></g>
<g><path style="opacity:1" fill="#363636" d="M 115.5,181.5 C 115.833,181.5 116.167,181.5 116.5,181.5C 140.167,181.5 163.833,181.5 187.5,181.5C 187.5,189.5 187.5,197.5 187.5,205.5C 156.662,205.831 125.995,205.498 95.5,204.5C 125.833,204.5 156.167,204.5 186.5,204.5C 186.5,197.167 186.5,189.833 186.5,182.5C 162.661,182.831 138.994,182.498 115.5,181.5 Z"/></g>
<g><path style="opacity:1" fill="#cd6764" d="M 117.5,226.5 C 119.403,226.796 121.07,227.463 122.5,228.5C 120.302,228.88 118.635,228.213 117.5,226.5 Z"/></g>
<g><path style="opacity:0.153" fill="#666766" d="M 272.5,274.5 C 272.833,274.5 273.167,274.5 273.5,274.5C 273.315,275.17 272.981,275.17 272.5,274.5 Z"/></g>
</svg>
