<?xml version="1.0" encoding="UTF-8"?>
<!DOCTYPE svg PUBLIC "-//W3C//DTD SVG 1.1//EN" "http://www.w3.org/Graphics/SVG/1.1/DTD/svg11.dtd">
<svg xmlns="http://www.w3.org/2000/svg" version="1.1" width="292px" height="293px" style="shape-rendering:geometricPrecision; text-rendering:geometricPrecision; image-rendering:optimizeQuality; fill-rule:evenodd; clip-rule:evenodd" xmlns:xlink="http://www.w3.org/1999/xlink">
<g><path style="opacity:0.996" fill="#373634" d="M 170.5,280.5 C 170.727,278.067 169.727,276.401 167.5,275.5C 204.465,238.035 241.632,200.701 279,163.5C 286.607,151.071 286.107,139.071 277.5,127.5C 262.5,111.833 247.167,96.5 231.5,81.5C 209.035,58.5347 186.368,35.7014 163.5,13C 151.407,5.74962 139.407,5.74962 127.5,13C 88.6667,51.8333 49.8333,90.6667 11,129.5C 3.02405,145.407 5.52405,159.407 18.5,171.5C 16.0274,171.088 14.6941,172.088 14.5,174.5C 2.82738,165.329 -1.67262,153.329 1,138.5C 2.6969,132.104 5.6969,126.438 10,121.5C 47.5,84 85,46.5 122.5,9C 136.959,-0.608516 151.626,-0.941849 166.5,8C 205.333,46.8333 244.167,85.6667 283,124.5C 293.483,140.332 292.816,155.666 281,170.5C 244.299,207.368 207.465,244.035 170.5,280.5 Z"/></g>
<g><path style="opacity:1" fill="#f4e924" d="M 231.5,81.5 C 231.414,82.4959 231.748,83.3292 232.5,84C 229.785,84.8747 228.452,86.7081 228.5,89.5C 231.171,88.7311 233.671,88.3978 236,88.5C 237.688,89.3247 237.855,90.3247 236.5,91.5C 238.475,92.7883 238.475,94.4549 236.5,96.5C 239.101,96.7663 241.601,96.7663 244,96.5C 245.688,97.3247 245.855,98.3247 244.5,99.5C 246.475,100.788 246.475,102.455 244.5,104.5C 247.101,104.766 249.601,104.766 252,104.5C 253.688,105.325 253.855,106.325 252.5,107.5C 255.209,110.117 258.209,112.283 261.5,114C 260.185,115.395 260.519,116.395 262.5,117C 261.707,118.085 261.04,119.252 260.5,120.5C 263.101,120.766 265.601,120.766 268,120.5C 270.097,122.247 270.763,124.58 270,127.5C 270.333,126.833 270.667,126.167 271,125.5C 272.971,127.553 275.138,128.22 277.5,127.5C 286.107,139.071 286.607,151.071 279,163.5C 241.632,200.701 204.465,238.035 167.5,275.5C 154.818,287.456 141.151,288.622 126.5,279C 90.632,242.965 54.632,207.132 18.5,171.5C 5.52405,159.407 3.02405,145.407 11,129.5C 49.8333,90.6667 88.6667,51.8333 127.5,13C 139.407,5.74962 151.407,5.74962 163.5,13C 186.368,35.7014 209.035,58.5347 231.5,81.5 Z"/></g>
<g><path style="opacity:1" fill="#e8dc2b" d="M 231.5,81.5 C 247.167,96.5 262.5,111.833 277.5,127.5C 275.138,128.22 272.971,127.553 271,125.5C 270.667,126.167 270.333,126.833 270,127.5C 270.763,124.58 270.097,122.247 268,120.5C 265.601,120.766 263.101,120.766 260.5,120.5C 261.04,119.252 261.707,118.085 262.5,117C 260.519,116.395 260.185,115.395 261.5,114C 258.209,112.283 255.209,110.117 252.5,107.5C 253.855,106.325 253.688,105.325 252,104.5C 249.601,104.766 247.101,104.766 244.5,104.5C 246.475,102.455 246.475,100.788 244.5,99.5C 245.855,98.3247 245.688,97.3247 244,96.5C 241.601,96.7663 239.101,96.7663 236.5,96.5C 238.475,94.4549 238.475,92.7883 236.5,91.5C 237.855,90.3247 237.688,89.3247 236,88.5C 233.671,88.3978 231.171,88.7311 228.5,89.5C 228.452,86.7081 229.785,84.8747 232.5,84C 231.748,83.3292 231.414,82.4959 231.5,81.5 Z"/></g>
<g><path style="opacity:1" fill="#393636" d="M 80.5,91.5 C 83.6168,92.782 85.9501,94.9487 87.5,98C 95.0319,100.144 101.199,98.3106 106,92.5C 106.87,93.1079 107.37,93.9412 107.5,95C 105.954,98.351 104.954,101.851 104.5,105.5C 115.399,104.617 126.232,103.283 137,101.5C 142.88,101.571 148.38,103.071 153.5,106C 160.833,106.667 168.167,106.667 175.5,106C 182.883,104.088 190.383,102.921 198,102.5C 202.382,102.323 206.548,103.156 210.5,105C 211.717,106.648 212.55,108.481 213,110.5C 214.718,120.113 216.051,129.78 217,139.5C 220.188,149.889 221.355,160.556 220.5,171.5C 219.167,171.5 217.833,171.5 216.5,171.5C 216.599,180.521 216.266,189.521 215.5,198.5C 210.821,198.666 206.155,198.499 201.5,198C 202.949,194.884 205.116,192.384 208,190.5C 208.638,183.792 208.305,177.126 207,170.5C 203.44,166.752 199.273,164.085 194.5,162.5C 194.721,166.795 193.388,167.462 190.5,164.5C 189.15,165.95 187.484,166.617 185.5,166.5C 185.785,164.712 185.452,163.045 184.5,161.5C 182.167,159.833 180.167,157.833 178.5,155.5C 165.842,162.396 152.508,164.396 138.5,161.5C 134.685,170.181 134.018,179.014 136.5,188C 135.833,189.667 135.167,191.333 134.5,193C 135.871,195.319 136.538,197.819 136.5,200.5C 131.833,200.5 127.167,200.5 122.5,200.5C 121.923,197.45 123.09,195.45 126,194.5C 126.167,193 126.333,191.5 126.5,190C 124.753,181.624 123.753,173.124 123.5,164.5C 114.557,165.286 108.391,161.619 105,153.5C 103,147.5 101,141.5 99,135.5C 97.6802,131.818 95.1802,130.318 91.5,131C 87.6656,135.205 82.999,136.871 77.5,136C 74.4221,134.589 72.4221,132.256 71.5,129C 74.1331,122.267 76.4664,115.434 78.5,108.5C 79.7598,107.618 80.9264,106.618 82,105.5C 82.2237,100.776 81.7237,96.1092 80.5,91.5 Z"/></g>
<g><path style="opacity:1" fill="#dbdbdc" d="M 209.5,129.5 C 210.765,130.514 211.431,132.014 211.5,134C 212.333,138.488 212.5,142.988 212,147.5C 210.364,144.394 208.864,141.227 207.5,138C 208.687,135.276 209.353,132.443 209.5,129.5 Z"/></g>
<g><path style="opacity:0.958" fill="#2f2f2f" d="M 18.5,171.5 C 54.632,207.132 90.632,242.965 126.5,279C 141.151,288.622 154.818,287.456 167.5,275.5C 169.727,276.401 170.727,278.067 170.5,280.5C 155.871,293.694 140.204,294.86 123.5,284C 86.9652,247.632 50.6319,211.132 14.5,174.5C 14.6941,172.088 16.0274,171.088 18.5,171.5 Z"/></g>
</svg>
