<?xml version="1.0" encoding="UTF-8"?>
<!DOCTYPE svg PUBLIC "-//W3C//DTD SVG 1.1//EN" "http://www.w3.org/Graphics/SVG/1.1/DTD/svg11.dtd">
<svg xmlns="http://www.w3.org/2000/svg" version="1.1" width="292px" height="293px" style="shape-rendering:geometricPrecision; text-rendering:geometricPrecision; image-rendering:optimizeQuality; fill-rule:evenodd; clip-rule:evenodd" xmlns:xlink="http://www.w3.org/1999/xlink">
<g><path style="opacity:0.016" fill="#c8d9d4" d="M 189.5,21.5 C 190.833,22.1667 190.833,22.1667 189.5,21.5 Z"/></g>
<g><path style="opacity:0.016" fill="#c8d9d4" d="M 197.5,29.5 C 198.833,30.1667 198.833,30.1667 197.5,29.5 Z"/></g>
<g><path style="opacity:0.016" fill="#c8d9d4" d="M 205.5,37.5 C 206.833,38.1667 206.833,38.1667 205.5,37.5 Z"/></g>
<g><path style="opacity:0.016" fill="#c8d9d4" d="M 221.5,53.5 C 222.833,54.1667 222.833,54.1667 221.5,53.5 Z"/></g>
<g><path style="opacity:0.016" fill="#c8d9d4" d="M 229.5,61.5 C 230.833,62.1667 230.833,62.1667 229.5,61.5 Z"/></g>
<g><path style="opacity:0.016" fill="#c8d9d4" d="M 245.5,77.5 C 246.833,78.1667 246.833,78.1667 245.5,77.5 Z"/></g>
<g><path style="opacity:0.016" fill="#c8d9d4" d="M 253.5,85.5 C 254.833,86.1667 254.833,86.1667 253.5,85.5 Z"/></g>
<g><path style="opacity:0.016" fill="#c8d9d4" d="M 277.5,109.5 C 278.833,110.167 278.833,110.167 277.5,109.5 Z"/></g>
<g><path style="opacity:0.946" fill="#303030" d="M 291.5,142.5 C 291.5,144.833 291.5,147.167 291.5,149.5C 290.436,155.979 287.936,161.979 284,167.5C 245.167,206.333 206.333,245.167 167.5,284C 152.573,294.265 137.907,293.931 123.5,283C 87.0133,246.347 50.3466,209.847 13.5,173.5C -0.761245,158.422 -2.59458,142.089 8,124.5C 46.8333,85.6667 85.6667,46.8333 124.5,8C 138.844,-1.89218 153.178,-1.89218 167.5,8C 206.333,46.8333 245.167,85.6667 284,124.5C 287.936,130.021 290.436,136.021 291.5,142.5 Z"/></g>
<g><path style="opacity:1" fill="#f4e925" d="M 140.5,6.5 C 149.213,6.20635 157.213,8.37302 164.5,13C 202.667,51.1667 240.833,89.3333 279,127.5C 287.603,139.817 287.603,152.15 279,164.5C 240.833,202.667 202.667,240.833 164.5,279C 151.545,287.961 138.878,287.627 126.5,278C 89,240.5 51.5,203 14,165.5C 7.42227,156.049 5.7556,145.716 9,134.5C 10.2709,131.567 11.9376,128.901 14,126.5C 51.8333,88.6667 89.6667,50.8333 127.5,13C 131.647,10.2599 135.98,8.09328 140.5,6.5 Z"/></g>
<g><path style="opacity:1" fill="#817f61" d="M 168.5,119.5 C 175.313,120.491 182.313,120.825 189.5,120.5C 189.5,121.5 189.5,122.5 189.5,123.5C 182.412,121.913 175.079,120.913 167.5,120.5C 167.624,119.893 167.957,119.56 168.5,119.5 Z"/></g>
<g><path style="opacity:1" fill="#393737" d="M 189.5,123.5 C 189.5,122.5 189.5,121.5 189.5,120.5C 182.313,120.825 175.313,120.491 168.5,119.5C 174.743,108.43 181.576,97.7636 189,87.5C 201.784,97.9467 214.284,108.78 226.5,120C 220.141,120.169 213.807,120.669 207.5,121.5C 213.418,140.034 213.918,158.701 209,177.5C 207.861,181.112 206.194,184.446 204,187.5C 198.429,184.861 192.929,182.028 187.5,179C 196.092,160.832 196.759,142.332 189.5,123.5 Z"/></g>
<g><path style="opacity:1" fill="#3a3737" d="M 135.5,63.5 C 137.5,63.5 139.5,63.5 141.5,63.5C 142.494,69.7965 143.16,76.1298 143.5,82.5C 122.969,84.8642 106.802,94.5309 95,111.5C 97.5139,118.066 101.014,124.233 105.5,130C 92.1708,130.5 78.8375,130.667 65.5,130.5C 67.58,114.107 70.08,97.7736 73,81.5C 76.5125,86.5374 80.0125,91.5374 83.5,96.5C 91.71,87.7921 100.71,79.9588 110.5,73C 118.609,68.9132 126.942,65.7465 135.5,63.5 Z"/></g>
<g><path style="opacity:1" fill="#3a3838" d="M 89.5,161.5 C 91.0174,161.511 92.1841,162.177 93,163.5C 101.843,181.499 116.009,193.165 135.5,198.5C 140.167,193.5 144.833,188.5 149.5,183.5C 154.028,195.748 158.361,208.082 162.5,220.5C 145.949,223.985 129.283,226.485 112.5,228C 116.5,223.333 120.5,218.667 124.5,214C 103.125,206.294 86.9583,192.461 76,172.5C 75.2888,170.633 75.7888,169.133 77.5,168C 81.7216,166.059 85.7216,163.892 89.5,161.5 Z"/></g>
</svg>
