<?xml version="1.0" encoding="UTF-8"?>
<!DOCTYPE svg PUBLIC "-//W3C//DTD SVG 1.1//EN" "http://www.w3.org/Graphics/SVG/1.1/DTD/svg11.dtd">
<svg xmlns="http://www.w3.org/2000/svg" version="1.1" width="376px" height="375px" style="shape-rendering:geometricPrecision; text-rendering:geometricPrecision; image-rendering:optimizeQuality; fill-rule:evenodd; clip-rule:evenodd" xmlns:xlink="http://www.w3.org/1999/xlink">
<g><path style="opacity:1" fill="#f3e823" d="M 184.5,-0.5 C 187.833,-0.5 191.167,-0.5 194.5,-0.5C 202.675,5.16094 210.175,11.8276 217,19.5C 267.639,71.1392 318.639,122.472 370,173.5C 371.609,176.407 373.442,179.073 375.5,181.5C 375.5,184.167 375.5,186.833 375.5,189.5C 373.442,191.927 371.609,194.593 370,197.5C 311.581,254.918 253.415,312.751 195.5,371C 193.273,371.941 191.273,373.108 189.5,374.5C 186.5,374.5 183.5,374.5 180.5,374.5C 118.804,315.138 58.471,254.471 -0.5,192.5C -0.5,189.5 -0.5,186.5 -0.5,183.5C 58.2433,123.256 117.577,63.4226 177.5,4C 179.76,2.21166 182.093,0.711662 184.5,-0.5 Z"/></g>
<g><path style="opacity:1" fill="#121002" d="M 200.5,14.5 C 213.781,29.4485 227.781,43.7819 242.5,57.5C 273.5,87.8333 304.167,118.5 334.5,149.5C 342.111,158.779 350.445,167.446 359.5,175.5C 360.79,176.058 361.623,177.058 362,178.5C 363.037,184.394 362.371,190.061 360,195.5C 346.632,209.035 333.132,222.369 319.5,235.5C 304.252,249.245 289.419,263.578 275,278.5C 274.536,279.094 274.369,279.761 274.5,280.5C 247.782,306.717 221.116,333.217 194.5,360C 188.167,363.333 181.833,363.333 175.5,360C 141.632,326.299 107.965,292.465 74.5,258.5C 60.4214,242.919 45.7548,227.752 30.5,213C 29.9056,212.536 29.2389,212.369 28.5,212.5C 24.2033,207.702 19.7033,203.035 15,198.5C 10.2132,191.555 10.3799,184.888 15.5,178.5C 31.8333,162.833 47.8333,146.833 63.5,130.5C 101.911,91.5886 140.578,52.7553 179.5,14C 186.677,10.5177 193.677,10.6844 200.5,14.5 Z"/></g>
<g><path style="opacity:1" fill="#59520d" d="M 200.5,14.5 C 215.219,28.2181 229.219,42.5515 242.5,57.5C 227.781,43.7819 213.781,29.4485 200.5,14.5 Z"/></g>
<g><path style="opacity:1" fill="#f4e923" d="M 282.5,104.5 C 297.167,119.833 312.167,134.833 327.5,149.5C 336.798,159.298 346.298,168.965 356,178.5C 358.079,183.275 357.912,187.941 355.5,192.5C 342.833,204.5 330.5,216.833 318.5,229.5C 276.007,271.826 233.34,313.993 190.5,356C 185.972,358.19 181.639,357.856 177.5,355C 167.965,345.298 158.298,335.798 148.5,326.5C 130.218,306.551 111.218,287.217 91.5,268.5C 67.8683,244.368 44.0349,220.368 20,196.5C 17.1539,192.962 16.1539,188.962 17,184.5C 70.8057,129.694 124.972,75.1941 179.5,21C 184.499,16.369 190.166,15.369 196.5,18C 225.368,46.7013 254.035,75.5347 282.5,104.5 Z"/></g>
<g><path style="opacity:1" fill="#4c460b" d="M 282.5,104.5 C 297.748,118.245 312.581,132.578 327,147.5C 327.464,148.094 327.631,148.761 327.5,149.5C 312.167,134.833 297.167,119.833 282.5,104.5 Z"/></g>
<g><path style="opacity:1" fill="#100d04" d="M 283.5,133.5 C 286.014,136.032 285.68,138.365 282.5,140.5C 278.736,139.615 277.736,137.448 279.5,134C 280.793,133.51 282.127,133.343 283.5,133.5 Z"/></g>
<g><path style="opacity:1" fill="#595311" d="M 283.5,133.5 C 282.127,133.343 280.793,133.51 279.5,134C 277.736,137.448 278.736,139.615 282.5,140.5C 279.305,141.677 277.638,140.344 277.5,136.5C 277.57,135.228 277.903,134.062 278.5,133C 280.387,132.22 282.054,132.387 283.5,133.5 Z"/></g>
<g><path style="opacity:1" fill="#1e1b09" d="M 232.5,197.5 C 231.833,197.5 231.5,197.167 231.5,196.5C 247.327,179.84 263.661,163.673 280.5,148C 282.42,147.785 284.086,148.452 285.5,150C 267.664,165.67 249.998,181.504 232.5,197.5 Z"/></g>
<g><path style="opacity:1" fill="#070601" d="M 186.5,184.5 C 186.5,190.833 186.5,197.167 186.5,203.5C 150.833,203.5 115.167,203.5 79.5,203.5C 79.3338,197.158 79.5005,190.825 80,184.5C 86.4569,173.083 93.2902,161.916 100.5,151C 122.167,150.333 143.833,150.333 165.5,151C 172.724,162.051 179.724,173.218 186.5,184.5 Z"/></g>
<g><path style="opacity:1" fill="#3f3a09" d="M 334.5,149.5 C 343.555,157.554 351.889,166.221 359.5,175.5C 350.445,167.446 342.111,158.779 334.5,149.5 Z"/></g>
<g><path style="opacity:1" fill="#f0e523" d="M 104.5,156.5 C 123.836,156.333 143.17,156.5 162.5,157C 165.294,162.09 168.46,166.923 172,171.5C 172.49,172.793 172.657,174.127 172.5,175.5C 146.5,175.5 120.5,175.5 94.5,175.5C 94.4914,173.692 94.9914,172.025 96,170.5C 99.107,165.944 101.94,161.277 104.5,156.5 Z"/></g>
<g><path style="opacity:1" fill="#1c190a" d="M 281.5,157.5 C 282.496,157.414 283.329,157.748 284,158.5C 285.638,163.923 283.805,166.923 278.5,167.5C 277.857,163.567 278.857,160.234 281.5,157.5 Z"/></g>
<g><path style="opacity:1" fill="#423e0a" d="M 63.5,130.5 C 47.8333,146.833 31.8333,162.833 15.5,178.5C 30.2455,162.252 45.5788,146.419 61.5,131C 62.0944,130.536 62.7611,130.369 63.5,130.5 Z"/></g>
<g><path style="opacity:1" fill="#ebdf23" d="M 170.5,185.5 C 176.679,184.858 179.846,187.525 180,193.5C 176.797,199.136 172.797,199.802 168,195.5C 167.125,194.127 166.625,192.627 166.5,191C 167.55,188.971 168.884,187.137 170.5,185.5 Z"/></g>
<g><path style="opacity:1" fill="#f0e423" d="M 91.5,185.5 C 99.5431,186.02 101.876,189.854 98.5,197C 90.2996,200.14 86.7996,197.306 88,188.5C 89.1451,187.364 90.3117,186.364 91.5,185.5 Z"/></g>
<g><path style="opacity:1" fill="#8e8115" d="M 104.5,187.5 C 123.993,186.503 143.66,186.17 163.5,186.5C 163.817,190.702 163.483,194.702 162.5,198.5C 162.5,194.833 162.5,191.167 162.5,187.5C 143.167,187.5 123.833,187.5 104.5,187.5 Z"/></g>
<g><path style="opacity:1" fill="#f0e523" d="M 104.5,187.5 C 123.833,187.5 143.167,187.5 162.5,187.5C 162.5,191.167 162.5,194.833 162.5,198.5C 143.164,198.667 123.83,198.5 104.5,198C 103.18,194.399 103.18,190.899 104.5,187.5 Z"/></g>
<g><path style="opacity:1" fill="#1d1a0a" d="M 280.5,186.5 C 285.377,186.963 286.544,189.296 284,193.5C 281.778,196.303 279.945,196.137 278.5,193C 279.274,190.846 279.941,188.679 280.5,186.5 Z"/></g>
<g><path style="opacity:1" fill="#24220c" d="M 217.5,225.5 C 216.833,225.5 216.167,225.5 215.5,225.5C 229.589,217.931 243.589,210.098 257.5,202C 261.635,199.597 265.968,197.763 270.5,196.5C 270.439,198.592 269.439,200.092 267.5,201C 250.658,208.922 233.991,217.088 217.5,225.5 Z"/></g>
<g><path style="opacity:1" fill="#494409" d="M 186.5,184.5 C 187.491,190.979 187.824,197.646 187.5,204.5C 151.329,204.832 115.329,204.498 79.5,203.5C 115.167,203.5 150.833,203.5 186.5,203.5C 186.5,197.167 186.5,190.833 186.5,184.5 Z"/></g>
<g><path style="opacity:1" fill="#141205" d="M 290.5,202.5 C 293.864,201.873 295.864,203.206 296.5,206.5C 295.156,208.676 293.322,210.343 291,211.5C 289.053,210.956 288.22,209.623 288.5,207.5C 288.437,205.486 289.103,203.819 290.5,202.5 Z"/></g>
<g><path style="opacity:1" fill="#0b0903" d="M 215.5,225.5 C 216.167,225.5 216.833,225.5 217.5,225.5C 218.152,226.725 219.319,227.392 221,227.5C 224.458,225.438 228.292,224.271 232.5,224C 255.438,222.323 278.272,219.823 301,216.5C 303.54,217.207 304.707,218.873 304.5,221.5C 278.449,222.503 252.449,224.17 226.5,226.5C 226.5,227.5 226.5,228.5 226.5,229.5C 172.5,229.5 118.5,229.5 64.5,229.5C 64.5,228.5 64.5,227.5 64.5,226.5C 70.5092,226.666 76.5092,226.499 82.5,226C 84.5037,223.159 85.0037,219.993 84,216.5C 82.6439,215.62 81.1439,215.286 79.5,215.5C 79.5,212.833 79.5,210.167 79.5,207.5C 115.5,207.5 151.5,207.5 187.5,207.5C 188.378,212.087 186.878,215.42 183,217.5C 181.996,220.993 182.496,224.159 184.5,227C 194.5,227.667 204.5,227.667 214.5,227C 215.056,226.617 215.389,226.117 215.5,225.5 Z"/></g>
<g><path style="opacity:1" fill="#433e0f" d="M 231.5,196.5 C 231.5,197.167 231.833,197.5 232.5,197.5C 227.573,202.089 222.573,206.756 217.5,211.5C 216.479,210.998 216.312,210.332 217,209.5C 222.054,205.273 226.887,200.939 231.5,196.5 Z"/></g>
<g><path style="opacity:1" fill="#3d3909" d="M 355.5,192.5 C 344.423,205.08 332.756,217.247 320.5,229C 319.906,229.464 319.239,229.631 318.5,229.5C 330.5,216.833 342.833,204.5 355.5,192.5 Z"/></g>
<g><path style="opacity:1" fill="#4c460b" d="M 28.5,212.5 C 29.2389,212.369 29.9056,212.536 30.5,213C 45.7548,227.752 60.4214,242.919 74.5,258.5C 58.8333,243.5 43.5,228.167 28.5,212.5 Z"/></g>
<g><path style="opacity:1" fill="#ede123" d="M 96.5,215.5 C 121.169,215.333 145.836,215.5 170.5,216C 172.72,219.101 173.053,222.435 171.5,226C 146.5,226.667 121.5,226.667 96.5,226C 95.2035,222.501 95.2035,219.001 96.5,215.5 Z"/></g>
<g><path style="opacity:1" fill="#1d1a09" d="M 308.5,219.5 C 313.328,219.385 314.661,221.552 312.5,226C 311.004,226.507 309.837,226.007 309,224.5C 308.506,222.866 308.34,221.199 308.5,219.5 Z"/></g>
<g><path style="opacity:1" fill="#544d0c" d="M 91.5,268.5 C 111.218,287.217 130.218,306.551 148.5,326.5C 128.782,307.783 109.782,288.449 91.5,268.5 Z"/></g>
<g><path style="opacity:1" fill="#474009" d="M 319.5,235.5 C 304.833,250.833 289.833,265.833 274.5,280.5C 274.369,279.761 274.536,279.094 275,278.5C 289.419,263.578 304.252,249.245 319.5,235.5 Z"/></g>
</svg>
