<?xml version="1.0" encoding="UTF-8"?>
<!DOCTYPE svg PUBLIC "-//W3C//DTD SVG 1.1//EN" "http://www.w3.org/Graphics/SVG/1.1/DTD/svg11.dtd">
<svg xmlns="http://www.w3.org/2000/svg" version="1.1" width="292px" height="293px" style="shape-rendering:geometricPrecision; text-rendering:geometricPrecision; image-rendering:optimizeQuality; fill-rule:evenodd; clip-rule:evenodd" xmlns:xlink="http://www.w3.org/1999/xlink">
<g><path style="opacity:0.949" fill="#313030" d="M 291.5,133.5 C 291.5,142.167 291.5,150.833 291.5,159.5C 289.692,162.436 287.859,165.436 286,168.5C 247.833,206.667 209.667,244.833 171.5,283C 156.755,293.907 141.755,294.24 126.5,284C 88,245.5 49.5,207 11,168.5C 0.061098,151.542 1.22776,135.542 14.5,120.5C 52.653,82.8471 90.653,45.0137 128.5,7C 142.403,-0.600411 156.07,-0.267078 169.5,8C 208.667,47.1667 247.833,86.3333 287,125.5C 288.795,128.099 290.295,130.766 291.5,133.5 Z"/></g>
<g><path style="opacity:1" fill="#f4e924" d="M 226.5,219.5 C 225.749,218.427 224.749,218.26 223.5,219C 222.929,220.205 222.262,221.372 221.5,222.5C 220.914,222.291 220.414,221.957 220,221.5C 219.047,223.455 217.713,225.122 216,226.5C 215.667,226.167 215.333,225.833 215,225.5C 213.077,227.119 212.577,228.952 213.5,231C 212.128,231.402 210.795,231.902 209.5,232.5C 208.702,230.922 208.202,229.256 208,227.5C 207.397,231.48 206.73,235.147 206,238.5C 205.586,238.957 205.086,239.291 204.5,239.5C 204.002,238.397 203.669,237.397 203.5,236.5C 202.683,241.843 199.849,243.51 195,241.5C 194.5,242 194,242.5 193.5,243C 194.576,244.726 194.743,246.559 194,248.5C 191.676,249.807 190.343,251.807 190,254.5C 188.284,255.552 187.284,254.886 187,252.5C 185.454,255.818 183.788,259.152 182,262.5C 180.284,263.552 179.284,262.886 179,260.5C 178.833,264.667 176.667,266.833 172.5,267C 174.158,267.725 174.658,268.892 174,270.5C 170.745,272.169 167.578,274.003 164.5,276C 162.85,280 159.85,282.333 155.5,283C 156.056,283.383 156.389,283.883 156.5,284.5C 148.027,286.533 140.027,285.366 132.5,281C 122.662,272.328 113.328,263.161 104.5,253.5C 104.918,252.778 105.584,252.278 106.5,252C 76.6667,223.5 47.5,194.333 19,164.5C 18.3292,165.252 17.4959,165.586 16.5,165.5C 7.45163,152.932 7.28496,140.265 16,127.5C 54.1667,89.3333 92.3333,51.1667 130.5,13C 142.422,5.70686 154.422,5.70686 166.5,13C 204.667,51.1667 242.833,89.3333 281,127.5C 288.797,138.737 289.464,150.404 283,162.5C 264.66,182.006 245.827,201.006 226.5,219.5 Z"/></g>
<g><path style="opacity:1" fill="#383536" d="M 158.5,39.5 C 170.498,55.5134 182.164,71.8467 193.5,88.5C 186.866,89.4967 180.2,89.83 173.5,89.5C 173.5,143.833 173.5,198.167 173.5,252.5C 165.167,252.5 156.833,252.5 148.5,252.5C 148.667,229.498 148.5,206.498 148,183.5C 135.333,199.5 122.667,215.5 110,231.5C 105.533,226.032 100.7,220.865 95.5,216C 112.787,194.591 129.954,173.091 147,151.5C 147.5,130.836 147.667,110.169 147.5,89.5C 139.826,89.6664 132.159,89.4997 124.5,89C 135.967,72.558 147.3,56.058 158.5,39.5 Z"/></g>
<g><path style="opacity:1" fill="#d9cd31" d="M 104.5,253.5 C 74.8333,224.5 45.5,195.167 16.5,165.5C 17.4959,165.586 18.3292,165.252 19,164.5C 47.5,194.333 76.6667,223.5 106.5,252C 105.584,252.278 104.918,252.778 104.5,253.5 Z"/></g>
<g><path style="opacity:1" fill="#e3d72e" d="M 226.5,219.5 C 207.368,239.132 188.035,258.632 168.5,278C 164.92,280.956 160.92,283.123 156.5,284.5C 156.389,283.883 156.056,283.383 155.5,283C 159.85,282.333 162.85,280 164.5,276C 167.578,274.003 170.745,272.169 174,270.5C 174.658,268.892 174.158,267.725 172.5,267C 176.667,266.833 178.833,264.667 179,260.5C 179.284,262.886 180.284,263.552 182,262.5C 183.788,259.152 185.454,255.818 187,252.5C 187.284,254.886 188.284,255.552 190,254.5C 190.343,251.807 191.676,249.807 194,248.5C 194.743,246.559 194.576,244.726 193.5,243C 194,242.5 194.5,242 195,241.5C 199.849,243.51 202.683,241.843 203.5,236.5C 203.669,237.397 204.002,238.397 204.5,239.5C 205.086,239.291 205.586,238.957 206,238.5C 206.73,235.147 207.397,231.48 208,227.5C 208.202,229.256 208.702,230.922 209.5,232.5C 210.795,231.902 212.128,231.402 213.5,231C 212.577,228.952 213.077,227.119 215,225.5C 215.333,225.833 215.667,226.167 216,226.5C 217.713,225.122 219.047,223.455 220,221.5C 220.414,221.957 220.914,222.291 221.5,222.5C 222.262,221.372 222.929,220.205 223.5,219C 224.749,218.26 225.749,218.427 226.5,219.5 Z"/></g>
</svg>
