<?xml version="1.0" encoding="UTF-8"?>
<!DOCTYPE svg PUBLIC "-//W3C//DTD SVG 1.1//EN" "http://www.w3.org/Graphics/SVG/1.1/DTD/svg11.dtd">
<svg xmlns="http://www.w3.org/2000/svg" version="1.1" width="300px" height="283px" style="shape-rendering:geometricPrecision; text-rendering:geometricPrecision; image-rendering:optimizeQuality; fill-rule:evenodd; clip-rule:evenodd" xmlns:xlink="http://www.w3.org/1999/xlink">
<g><path style="opacity:1" fill="#ececec" d="M 285.5,10.5 C 284.167,10.8333 284.167,11.1667 285.5,11.5C 286.833,97.1667 286.833,182.833 285.5,268.5C 284.167,268.833 284.167,269.167 285.5,269.5C 285.672,270.492 285.338,271.158 284.5,271.5C 284.167,270.167 283.833,270.167 283.5,271.5C 282.833,271.5 282.5,271.833 282.5,272.5C 281.833,272.5 281.5,272.833 281.5,273.5C 280.167,273.833 280.167,274.167 281.5,274.5C 280.486,275.674 279.153,276.34 277.5,276.5C 192.167,277.833 106.833,277.833 21.5,276.5C 20.0783,276.291 18.745,275.791 17.5,275C 17.8333,274.667 18.1667,274.333 18.5,274C 17.3333,272.833 16.1667,271.667 15,270.5C 14.6667,270.833 14.3333,271.167 14,271.5C 13.3333,270.167 12.6667,268.833 12,267.5C 11.3333,182.5 11.3333,97.5 12,12.5C 13.1326,8.69144 15.2992,6.52478 18.5,6C 17.6548,4.44185 18.3215,3.44185 20.5,3C 106.5,2.33333 192.5,2.33333 278.5,3C 282.02,5.51966 284.353,8.01966 285.5,10.5 Z"/></g>
<g><path style="opacity:1" fill="#1b1a1a" d="M 22.5,6.5 C 106.834,6.33334 191.167,6.5 275.5,7C 279.77,8.27038 282.27,11.1037 283,15.5C 283.667,98.5 283.667,181.5 283,264.5C 281.555,268.277 279.055,271.111 275.5,273C 191.5,273.667 107.5,273.667 23.5,273C 19.2297,271.73 16.7297,268.896 16,264.5C 15.3333,181.167 15.3333,97.8333 16,14.5C 17.3046,11.0386 19.4713,8.37197 22.5,6.5 Z"/></g>
<g><path style="opacity:1" fill="#fdfcfc" d="M 275.5,267.5 C 192.208,268.494 108.874,268.828 25.5,268.5C 24.2058,267.71 23.0391,266.71 22,265.5C 21.3333,181.833 21.3333,98.1667 22,14.5C 22.8333,13.6667 23.6667,12.8333 24.5,12C 107.833,11.3333 191.167,11.3333 274.5,12C 275.333,12.8333 276.167,13.6667 277,14.5C 277.667,98.1667 277.667,181.833 277,265.5C 276.283,266.044 275.783,266.711 275.5,267.5 Z"/></g>
<g><path style="opacity:0.149" fill="#6b6b6b" d="M 285.5,10.5 C 286.222,10.9175 286.722,11.5842 287,12.5C 287.667,97.5 287.667,182.5 287,267.5C 286.722,268.416 286.222,269.082 285.5,269.5C 285.5,269.167 285.5,268.833 285.5,268.5C 286.833,182.833 286.833,97.1667 285.5,11.5C 285.5,11.1667 285.5,10.8333 285.5,10.5 Z"/></g>
<g><path style="opacity:1" fill="#ea4849" d="M 261.5,118.5 C 262.972,122.919 263.638,127.586 263.5,132.5C 262.028,128.081 261.362,123.414 261.5,118.5 Z"/></g>
<g><path style="opacity:1" fill="#fb060d" d="M 261.5,118.5 C 261.362,123.414 262.028,128.081 263.5,132.5C 263.987,178.781 244.654,213.948 205.5,238C 193.674,244.625 181.008,248.792 167.5,250.5C 155.5,250.5 143.5,250.5 131.5,250.5C 84.9035,241.416 54.4035,214.083 40,168.5C 28.6993,114.634 45.5326,72.134 90.5,41C 140.56,14.4157 186.894,19.749 229.5,57C 246.625,74.0809 257.291,94.5809 261.5,118.5 Z"/></g>
<g><path style="opacity:1" fill="#f9d1d5" d="M 63.5,111.5 C 62.9645,115.819 62.4645,120.152 62,124.5C 61.8784,126.437 61.045,127.77 59.5,128.5C 59.7583,122.472 61.0916,116.806 63.5,111.5 Z"/></g>
<g><path style="opacity:1" fill="#fdfcfc" d="M 59.5,128.5 C 61.045,127.77 61.8784,126.437 62,124.5C 62.4645,120.152 62.9645,115.819 63.5,111.5C 73.2652,81.2346 93.2652,61.068 123.5,51C 170.364,40.7164 206.197,55.8831 231,96.5C 246.692,132.035 243.025,165.368 220,196.5C 187.203,231.461 149.036,238.628 105.5,218C 72.4571,197.43 57.1238,167.597 59.5,128.5 Z"/></g>
<g><path style="opacity:1" fill="#423f3e" d="M 208.5,152.5 C 209.5,152.5 210.5,152.5 211.5,152.5C 211.5,158.5 211.5,164.5 211.5,170.5C 181.833,170.5 152.167,170.5 122.5,170.5C 151.662,169.502 180.995,169.169 210.5,169.5C 211.045,163.537 210.379,157.87 208.5,152.5 Z"/></g>
<g><path style="opacity:1" fill="#211b19" d="M 101.5,129.5 C 137.278,136.788 172.944,144.455 208.5,152.5C 210.379,157.87 211.045,163.537 210.5,169.5C 180.995,169.169 151.662,169.502 122.5,170.5C 118.51,175.304 113.51,178.804 107.5,181C 98.2338,182.386 88.9005,182.886 79.5,182.5C 79.238,181.022 79.5713,179.689 80.5,178.5C 88.1667,174.167 94.1667,168.167 98.5,160.5C 117.008,160.095 135.508,160.761 154,162.5C 159.416,163.755 161.25,161.921 159.5,157C 139.859,155.343 120.193,154.176 100.5,153.5C 100.174,145.316 100.508,137.316 101.5,129.5 Z"/></g>
<g><path style="opacity:1" fill="#7c7978" d="M 101.5,129.5 C 100.508,137.316 100.174,145.316 100.5,153.5C 99.1791,145.324 99.1791,136.991 100.5,128.5C 101.107,128.624 101.44,128.957 101.5,129.5 Z"/></g>
<g><path style="opacity:1" fill="#211c1a" d="M 97.5,97.5 C 137.846,109.893 178.179,122.393 218.5,135C 227.987,136.391 228.987,140.058 221.5,146C 218.991,147.336 216.324,148.17 213.5,148.5C 178.766,140.983 144.099,133.15 109.5,125C 107.051,124.275 104.717,123.275 102.5,122C 99,117.833 95.5,113.667 92,109.5C 91.3333,107.833 91.3333,106.167 92,104.5C 94.3245,102.499 96.1579,100.166 97.5,97.5 Z"/></g>
<g><path style="opacity:1" fill="#f23233" d="M 131.5,250.5 C 143.5,250.5 155.5,250.5 167.5,250.5C 161.405,252.014 155.072,252.68 148.5,252.5C 144.167,252.333 139.833,252.167 135.5,252C 133.942,251.79 132.609,251.29 131.5,250.5 Z"/></g>
<g><path style="opacity:1" fill="#1f1d1e" d="M 275.5,267.5 C 275.389,268.117 275.056,268.617 274.5,269C 191.332,269.832 108.332,269.666 25.5,268.5C 108.874,268.828 192.208,268.494 275.5,267.5 Z"/></g>
<g><path style="opacity:0.196" fill="#5b5c5b" d="M 283.5,271.5 C 283.833,271.5 284.167,271.5 284.5,271.5C 284.315,272.17 283.981,272.17 283.5,271.5 Z"/></g>
<g><path style="opacity:0.149" fill="#6a6b6a" d="M 282.5,272.5 C 282.833,272.5 283.167,272.5 283.5,272.5C 283.315,273.17 282.981,273.17 282.5,272.5 Z"/></g>
<g><path style="opacity:0.071" fill="#888988" d="M 281.5,273.5 C 281.833,273.5 282.167,273.5 282.5,273.5C 282.315,274.17 281.981,274.17 281.5,273.5 Z"/></g>
<g><path style="opacity:0.071" fill="#898989" d="M 21.5,276.5 C 106.833,277.833 192.167,277.833 277.5,276.5C 276.737,277.268 275.737,277.768 274.5,278C 191.167,278.667 107.833,278.667 24.5,278C 23.2625,277.768 22.2625,277.268 21.5,276.5 Z"/></g>
</svg>
