<?xml version="1.0" encoding="UTF-8"?>
<!DOCTYPE svg PUBLIC "-//W3C//DTD SVG 1.1//EN" "http://www.w3.org/Graphics/SVG/1.1/DTD/svg11.dtd">
<svg xmlns="http://www.w3.org/2000/svg" version="1.1" width="305px" height="308px" style="shape-rendering:geometricPrecision; text-rendering:geometricPrecision; image-rendering:optimizeQuality; fill-rule:evenodd; clip-rule:evenodd" xmlns:xlink="http://www.w3.org/1999/xlink">
<g><path style="opacity:1" fill="#f3e723" d="M 148.5,-0.5 C 151.833,-0.5 155.167,-0.5 158.5,-0.5C 207.916,47.9153 256.583,96.9153 304.5,146.5C 304.5,149.5 304.5,152.5 304.5,155.5C 255.551,203.948 206.551,252.782 157.5,302C 151.937,305.368 146.604,305.035 141.5,301C 93.5491,253.55 46.2158,205.717 -0.5,157.5C -0.5,154.167 -0.5,150.833 -0.5,147.5C 49.0588,98.2752 98.7255,48.9419 148.5,-0.5 Z"/></g>
<g><path style="opacity:1" fill="#1c1907" d="M 201.5,51.5 C 215.114,66.7819 229.448,81.4486 244.5,95.5C 260.465,110.965 276.299,126.632 292,142.5C 294.365,148.854 293.698,154.854 290,160.5C 266.551,184.116 243.051,207.45 219.5,230.5C 218.761,230.369 218.094,230.536 217.5,231C 210.572,237.423 204.238,244.256 198.5,251.5C 197.527,251.987 196.527,252.487 195.5,253C 182.887,266.946 169.554,280.279 155.5,293C 150.141,295.274 145.141,294.608 140.5,291C 136.963,287.631 133.629,284.131 130.5,280.5C 127.5,275.5 123.5,271.5 118.5,268.5C 116.833,267.5 115.5,266.167 114.5,264.5C 113.92,262.251 112.587,260.585 110.5,259.5C 77.868,227.368 45.368,195.035 13,162.5C 8.84646,156.725 8.51313,150.725 12,144.5C 35.0364,122.459 57.5364,100.126 79.5,77.5C 91.781,66.8869 103.448,55.5535 114.5,43.5C 124.561,32.5202 135.228,21.6868 146.5,11C 151.984,8.85184 157.317,9.18517 162.5,12C 175.702,25.0348 188.702,38.2015 201.5,51.5 Z"/></g>
<g><path style="opacity:1" fill="#f4e923" d="M 221.5,77.5 C 230.886,87.8878 240.886,97.5545 251.5,106.5C 255.439,112.108 260.106,117.108 265.5,121.5C 273.651,129.758 281.818,138.091 290,146.5C 290.818,149.227 290.652,151.894 289.5,154.5C 251.146,193.188 212.812,231.854 174.5,270.5C 167.556,275.775 161.223,281.775 155.5,288.5C 151.444,291.197 147.444,291.03 143.5,288C 128.965,273.298 114.299,258.798 99.5,244.5C 97.5,240.5 94.5,237.5 90.5,235.5C 81.888,225.22 72.5547,215.553 62.5,206.5C 47.0316,190.53 31.1983,174.53 15,158.5C 13.5432,155.634 13.2099,152.634 14,149.5C 58.527,103.64 103.694,58.473 149.5,14C 152.964,13.1834 156.298,13.5167 159.5,15C 180.368,35.7014 201.035,56.5347 221.5,77.5 Z"/></g>
<g><path style="opacity:1" fill="#564f0c" d="M 201.5,51.5 C 216.552,65.5514 230.886,80.2181 244.5,95.5C 229.448,81.4486 215.114,66.7819 201.5,51.5 Z"/></g>
<g><path style="opacity:1" fill="#46410b" d="M 114.5,43.5 C 103.448,55.5535 91.781,66.8869 79.5,77.5C 90.5523,65.4465 102.219,54.1131 114.5,43.5 Z"/></g>
<g><path style="opacity:1" fill="#5a530d" d="M 221.5,77.5 C 232.114,86.4455 242.114,96.1122 251.5,106.5C 240.886,97.5545 230.886,87.8878 221.5,77.5 Z"/></g>
<g><path style="opacity:1" fill="#010100" d="M 116.5,99.5 C 139.075,99.1728 161.575,99.5061 184,100.5C 184.676,128.853 184.176,157.186 182.5,185.5C 180.866,185.968 179.7,186.968 179,188.5C 178.667,195.167 178.333,201.833 178,208.5C 175.779,211.512 172.946,212.179 169.5,210.5C 167.975,207.722 166.975,204.722 166.5,201.5C 160.725,200.047 155.225,200.713 150,203.5C 145.196,200.568 140.03,199.901 134.5,201.5C 133.577,204.447 132.911,207.447 132.5,210.5C 129.167,211.833 125.833,211.833 122.5,210.5C 122.666,203.159 122.5,195.826 122,188.5C 120.556,186.845 118.722,186.178 116.5,186.5C 115.182,157.458 115.182,128.458 116.5,99.5 Z"/></g>
<g><path style="opacity:1" fill="#776f10" d="M 251.5,106.5 C 256.894,110.892 261.561,115.892 265.5,121.5C 260.106,117.108 255.439,112.108 251.5,106.5 Z"/></g>
<g><path style="opacity:1" fill="#000000" d="M 233.5,120.5 C 237.947,123.113 241.614,126.613 244.5,131C 243.056,133.449 241.222,135.615 239,137.5C 238.517,138.448 238.351,139.448 238.5,140.5C 244.5,140.5 250.5,140.5 256.5,140.5C 256.5,146.833 256.5,153.167 256.5,159.5C 250.5,159.5 244.5,159.5 238.5,159.5C 239.362,162.885 241.028,165.885 243.5,168.5C 240.182,172.318 236.682,175.985 233,179.5C 223.53,169.029 213.697,158.863 203.5,149C 213.698,139.633 223.698,130.133 233.5,120.5 Z"/></g>
<g><path style="opacity:1" fill="#060500" d="M 87.5,141.5 C 88.0798,143.749 89.4131,145.415 91.5,146.5C 94.3948,148.202 96.2281,150.536 97,153.5C 87.3039,163.53 77.3039,173.197 67,182.5C 62.7984,178.633 58.9651,174.467 55.5,170C 58.0168,167.651 60.3501,165.151 62.5,162.5C 56.5368,161.504 50.5368,161.171 44.5,161.5C 44.5,155.167 44.5,148.833 44.5,142.5C 50.5,142.5 56.5,142.5 62.5,142.5C 61.1885,138.996 59.1885,135.83 56.5,133C 60.0829,128.91 64.0829,125.41 68.5,122.5C 75.1049,128.438 81.4382,134.772 87.5,141.5 Z"/></g>
<g><path style="opacity:1" fill="#58520e" d="M 87.5,141.5 C 89.5869,142.585 90.9202,144.251 91.5,146.5C 89.4131,145.415 88.0798,143.749 87.5,141.5 Z"/></g>
<g><path style="opacity:1" fill="#ecdf21" d="M 135.5,186.5 C 145.506,186.334 155.506,186.5 165.5,187C 167.478,189.497 167.978,192.331 167,195.5C 165.178,197.045 163.011,197.712 160.5,197.5C 156.747,197.215 153.247,196.215 150,194.5C 147.456,194.384 145.289,195.217 143.5,197C 133.753,198.76 131.086,195.26 135.5,186.5 Z"/></g>
<g><path style="opacity:1" fill="#776f10" d="M 62.5,206.5 C 72.5547,215.553 81.888,225.22 90.5,235.5C 80.4453,226.447 71.112,216.78 62.5,206.5 Z"/></g>
<g><path style="opacity:1" fill="#817912" d="M 90.5,235.5 C 94.5,237.5 97.5,240.5 99.5,244.5C 96.1667,241.833 93.1667,238.833 90.5,235.5 Z"/></g>
<g><path style="opacity:1" fill="#847b12" d="M 219.5,230.5 C 212.833,237.833 205.833,244.833 198.5,251.5C 204.238,244.256 210.572,237.423 217.5,231C 218.094,230.536 218.761,230.369 219.5,230.5 Z"/></g>
<g><path style="opacity:1" fill="#7a7110" d="M 110.5,259.5 C 112.587,260.585 113.92,262.251 114.5,264.5C 112.413,263.415 111.08,261.749 110.5,259.5 Z"/></g>
<g><path style="opacity:1" fill="#4e470b" d="M 118.5,268.5 C 123.5,271.5 127.5,275.5 130.5,280.5C 126.167,276.833 122.167,272.833 118.5,268.5 Z"/></g>
<g><path style="opacity:1" fill="#46410b" d="M 174.5,270.5 C 168.777,277.225 162.444,283.225 155.5,288.5C 161.223,281.775 167.556,275.775 174.5,270.5 Z"/></g>
</svg>
