<?xml version="1.0" encoding="UTF-8"?>
<!DOCTYPE svg PUBLIC "-//W3C//DTD SVG 1.1//EN" "http://www.w3.org/Graphics/SVG/1.1/DTD/svg11.dtd">
<svg xmlns="http://www.w3.org/2000/svg" version="1.1" width="283px" height="283px" style="shape-rendering:geometricPrecision; text-rendering:geometricPrecision; image-rendering:optimizeQuality; fill-rule:evenodd; clip-rule:evenodd" xmlns:xlink="http://www.w3.org/1999/xlink">
<g><path style="opacity:0.322" fill="#787878" d="M 14.5,2.5 C 99.3323,1.33431 184.332,1.16765 269.5,2C 270.416,2.27842 271.082,2.77842 271.5,3.5C 271.167,3.5 270.833,3.5 270.5,3.5C 185.541,2.50543 100.541,2.1721 15.5,2.5C 15.1667,2.5 14.8333,2.5 14.5,2.5 Z"/></g>
<g><path style="opacity:1" fill="#f6f6f6" d="M 14.5,2.5 C 14.8333,3.83333 15.1667,3.83333 15.5,2.5C 100.541,2.1721 185.541,2.50543 270.5,3.5C 270.833,4.83333 271.167,4.83333 271.5,3.5C 273.454,6.2836 275.954,8.61693 279,10.5C 279.667,96.5 279.667,182.5 279,268.5C 278.004,270.66 276.504,272.327 274.5,273.5C 274.167,272.167 273.833,272.167 273.5,273.5C 272.833,273.5 272.5,273.833 272.5,274.5C 271.234,275.09 269.901,275.59 268.5,276C 183.46,276.828 98.4597,276.661 13.5,275.5C 13.1667,274.167 12.8333,274.167 12.5,275.5C 10.6214,275.607 10.2881,275.107 11.5,274C 10.3333,272.833 9.16667,271.667 8,270.5C 6.89318,271.712 6.39318,271.379 6.5,269.5C 5.50545,184.874 5.17212,100.208 5.5,15.5C 5.39387,12.9214 6.06054,10.588 7.5,8.5C 9.79141,7.45788 10.7914,5.95788 10.5,4C 11.745,3.20858 13.0783,2.70858 14.5,2.5 Z"/></g>
<g><path style="opacity:1" fill="#c1c1c1" d="M 18.5,6.5 C 60.1653,5.83334 101.999,5.50001 144,5.5C 186.172,5.50008 228.005,6.16674 269.5,7.5C 185.874,6.50552 102.208,6.17219 18.5,6.5 Z"/></g>
<g><path style="opacity:1" fill="#131313" d="M 18.5,6.5 C 102.208,6.17219 185.874,6.50552 269.5,7.5C 271.836,9.00383 273.669,11.0038 275,13.5C 275.667,97.1667 275.667,180.833 275,264.5C 273.807,268.36 271.307,270.86 267.5,272C 183.5,272.667 99.5,272.667 15.5,272C 12.2716,270.437 10.1049,267.937 9,264.5C 8.33333,181.167 8.33333,97.8333 9,14.5C 10.5284,9.799 13.6951,7.13234 18.5,6.5 Z"/></g>
<g><path style="opacity:1" fill="#fcfbfb" d="M 17.5,10.5 C 100.501,10.3333 183.501,10.5 266.5,11C 267.931,11.4652 269.097,12.2986 270,13.5C 270.667,97.5 270.667,181.5 270,265.5C 269.167,266.333 268.333,267.167 267.5,268C 184.167,268.667 100.833,268.667 17.5,268C 16.5838,267.626 15.7504,267.126 15,266.5C 13.339,182.581 13.0057,98.5813 14,14.5C 14.6897,12.6498 15.8564,11.3164 17.5,10.5 Z"/></g>
<g><path style="opacity:0.298" fill="#838280" d="M 7.5,8.5 C 6.06054,10.588 5.39387,12.9214 5.5,15.5C 4.50068,98.3317 4.16734,181.332 4.5,264.5C 3.33433,181.001 3.16766,97.3343 4,13.5C 4.47093,11.7536 5.13759,10.087 6,8.5C 6.68999,7.26166 7.18999,7.26166 7.5,8.5 Z"/></g>
<g><path style="opacity:1" fill="#d0cfcd" d="M 5.5,15.5 C 5.17212,100.208 5.50545,184.874 6.5,269.5C 4.78679,268.365 4.12012,266.698 4.5,264.5C 4.16734,181.332 4.50068,98.3317 5.5,15.5 Z"/></g>
<g><path style="opacity:1" fill="#fb060d" d="M 158.5,251.5 C 146.833,251.5 135.167,251.5 123.5,251.5C 89.1106,245.303 62.6106,227.303 44,197.5C 32.8665,177.632 27.6999,156.299 28.5,133.5C 29.9715,129.081 30.6382,124.414 30.5,119.5C 38.482,79.3483 61.1487,50.8483 98.5,34C 148.293,16.6082 191.46,26.7749 228,64.5C 254.499,97.5272 261.833,134.527 250,175.5C 236.537,212.3 211.37,236.8 174.5,249C 169.202,250.159 163.869,250.993 158.5,251.5 Z"/></g>
<g><path style="opacity:1" fill="#fdfcfb" d="M 150.5,47.5 C 153.311,48.475 156.311,49.1417 159.5,49.5C 173.431,51.9112 185.764,57.5778 196.5,66.5C 178.497,85.503 159.83,103.836 140.5,121.5C 122,103.833 104,85.6667 86.5,67C 98.461,57.1889 112.128,50.8555 127.5,48C 135.159,47.5003 142.826,47.3336 150.5,47.5 Z"/></g>
<g><path style="opacity:1" fill="#d74d4a" d="M 150.5,47.5 C 154.012,46.9455 157.012,47.6122 159.5,49.5C 156.311,49.1417 153.311,48.475 150.5,47.5 Z"/></g>
<g><path style="opacity:1" fill="#fefcfb" d="M 68.5,83.5 C 87.1207,102.122 105.454,121.122 123.5,140.5C 105.833,158.833 87.8333,176.833 69.5,194.5C 60.5213,184.543 54.6879,172.876 52,159.5C 45.822,131.554 51.322,106.221 68.5,83.5 Z"/></g>
<g><path style="opacity:1" fill="#fdfcfb" d="M 231.5,121.5 C 232.299,130.142 232.632,138.809 232.5,147.5C 230.843,165.135 224.509,180.802 213.5,194.5C 194.835,176.835 176.502,158.835 158.5,140.5C 177.28,121.724 195.613,102.724 213.5,83.5C 222.379,94.8024 228.379,107.469 231.5,121.5 Z"/></g>
<g><path style="opacity:1" fill="#ea4245" d="M 30.5,119.5 C 30.6382,124.414 29.9715,129.081 28.5,133.5C 28.3618,128.586 29.0285,123.919 30.5,119.5 Z"/></g>
<g><path style="opacity:1" fill="#fa4d4c" d="M 231.5,121.5 C 232.222,121.918 232.722,122.584 233,123.5C 233.823,131.677 233.656,139.677 232.5,147.5C 232.632,138.809 232.299,130.142 231.5,121.5 Z"/></g>
<g><path style="opacity:1" fill="#fdfbfb" d="M 138.5,157.5 C 139.978,157.238 141.311,157.571 142.5,158.5C 160.806,176.14 178.806,194.14 196.5,212.5C 169.004,232.166 139.337,236.333 107.5,225C 100.582,221.635 93.915,217.802 87.5,213.5C 86.1667,212.167 86.1667,210.833 87.5,209.5C 104.85,192.484 121.85,175.15 138.5,157.5 Z"/></g>
<g><path style="opacity:1" fill="#ef2f2c" d="M 123.5,251.5 C 135.167,251.5 146.833,251.5 158.5,251.5C 157.391,252.29 156.058,252.79 154.5,253C 145.5,253.667 136.5,253.667 127.5,253C 125.942,252.79 124.609,252.29 123.5,251.5 Z"/></g>
<g><path style="opacity:0.388" fill="#676866" d="M 273.5,273.5 C 273.833,273.5 274.167,273.5 274.5,273.5C 274.315,274.17 273.981,274.17 273.5,273.5 Z"/></g>
<g><path style="opacity:0.329" fill="#777777" d="M 272.5,274.5 C 272.833,274.5 273.167,274.5 273.5,274.5C 272.653,275.966 271.32,276.8 269.5,277C 184.5,277.667 99.5,277.667 14.5,277C 13.5842,276.722 12.9175,276.222 12.5,275.5C 12.8333,275.5 13.1667,275.5 13.5,275.5C 98.4597,276.661 183.46,276.828 268.5,276C 269.901,275.59 271.234,275.09 272.5,274.5 Z"/></g>
</svg>
