<?xml version="1.0" encoding="UTF-8"?>
<!DOCTYPE svg PUBLIC "-//W3C//DTD SVG 1.1//EN" "http://www.w3.org/Graphics/SVG/1.1/DTD/svg11.dtd">
<svg xmlns="http://www.w3.org/2000/svg" version="1.1" width="283px" height="283px" style="shape-rendering:geometricPrecision; text-rendering:geometricPrecision; image-rendering:optimizeQuality; fill-rule:evenodd; clip-rule:evenodd" xmlns:xlink="http://www.w3.org/1999/xlink">
<g><path style="opacity:0.322" fill="#797979" d="M 13.5,4.5 C 98.3323,3.33431 183.332,3.16765 268.5,4C 269.833,4.66667 271.167,5.33333 272.5,6C 273.738,6.68999 273.738,7.18999 272.5,7.5C 270.86,6.67994 269.193,5.84661 267.5,5C 183.167,4.5 98.834,4.33334 14.5,4.5C 14.1667,4.5 13.8333,4.5 13.5,4.5 Z"/></g>
<g><path style="opacity:1" fill="#ededed" d="M 13.5,4.5 C 13.8333,5.83333 14.1667,5.83333 14.5,4.5C 98.834,4.33334 183.167,4.5 267.5,5C 269.193,5.84661 270.86,6.67994 272.5,7.5C 273.281,9.32226 274.448,9.98892 276,9.5C 276.791,10.745 277.291,12.0783 277.5,13.5C 276.167,13.8333 276.167,14.1667 277.5,14.5C 277.828,99.8743 277.495,185.208 276.5,270.5C 275.167,270.833 275.167,271.167 276.5,271.5C 276.573,273.027 275.906,274.027 274.5,274.5C 274.167,273.167 273.833,273.167 273.5,274.5C 272.167,274.833 272.167,275.167 273.5,275.5C 273.027,276.906 272.027,277.573 270.5,277.5C 270.167,276.167 269.833,276.167 269.5,277.5C 184.541,278.495 99.541,278.828 14.5,278.5C 14.1667,277.167 13.8333,277.167 13.5,278.5C 12.448,278.649 11.448,278.483 10.5,278C 9.27851,274.638 7.27851,272.138 4.5,270.5C 3.34143,185.528 3.17477,100.528 4,15.5C 4.4101,14.0993 4.9101,12.766 5.5,11.5C 6.83333,11.1667 6.83333,10.8333 5.5,10.5C 7.18742,9.92168 8.85409,8.75501 10.5,7C 10.1667,6.66667 9.83333,6.33333 9.5,6C 10.745,5.20858 12.0783,4.70858 13.5,4.5 Z"/></g>
<g><path style="opacity:1" fill="#030302" d="M 13.5,8.5 C 97.834,8.33334 182.167,8.5 266.5,9C 268.848,9.34588 270.681,10.5125 272,12.5C 273.661,97.7521 273.994,183.085 273,268.5C 271.749,271.381 269.583,273.214 266.5,274C 182.5,274.667 98.5,274.667 14.5,274C 12.3762,272.878 10.5429,271.378 9,269.5C 7.34153,184.89 7.0082,100.223 8,15.5C 9.66647,13.0043 11.4998,10.671 13.5,8.5 Z"/></g>
<g><path style="opacity:1" fill="#fbfafa" d="M 15.5,12.5 C 98.5007,12.3333 181.501,12.5 264.5,13C 266.002,13.5831 267.335,14.4164 268.5,15.5C 269.664,99.1263 269.83,182.793 269,266.5C 267.833,267.667 266.667,268.833 265.5,270C 182.167,270.667 98.8333,270.667 15.5,270C 14.6667,269.167 13.8333,268.333 13,267.5C 11.339,184.248 11.0057,100.915 12,17.5C 12.9973,15.6769 14.1639,14.0103 15.5,12.5 Z"/></g>
<g><path style="opacity:0.439" fill="#5c5c5c" d="M 5.5,10.5 C 5.5,10.8333 5.5,11.1667 5.5,11.5C 4.9101,12.766 4.4101,14.0993 4,15.5C 3.17477,100.528 3.34143,185.528 4.5,270.5C 3.77842,270.082 3.27842,269.416 3,268.5C 2.33333,183.833 2.33333,99.1667 3,14.5C 3.20041,12.6803 4.03374,11.347 5.5,10.5 Z"/></g>
<g><path style="opacity:1" fill="#a9a7a8" d="M 277.5,13.5 C 278.29,14.6085 278.79,15.9419 279,17.5C 279.667,100.5 279.667,183.5 279,266.5C 278.626,268.491 277.793,270.158 276.5,271.5C 276.5,271.167 276.5,270.833 276.5,270.5C 277.495,185.208 277.828,99.8743 277.5,14.5C 277.5,14.1667 277.5,13.8333 277.5,13.5 Z"/></g>
<g><path style="opacity:1" fill="#de3f3d" d="M 134.5,27.5 C 134.082,28.2216 133.416,28.7216 132.5,29C 128.514,29.4988 124.514,29.6655 120.5,29.5C 124.919,28.0285 129.586,27.3618 134.5,27.5 Z"/></g>
<g><path style="opacity:1" fill="#fb070d" d="M 134.5,27.5 C 179.587,27.2363 214.421,45.903 239,83.5C 262.229,128.974 258.895,172.307 229,213.5C 190.828,255.082 145.328,265.582 92.5,245C 55.9401,226.095 34.4401,196.261 28,155.5C 24.4865,97.3208 49.3198,56.8208 102.5,34C 108.356,31.8692 114.356,30.3692 120.5,29.5C 124.514,29.6655 128.514,29.4988 132.5,29C 133.416,28.7216 134.082,28.2216 134.5,27.5 Z"/></g>
<g><path style="opacity:1" fill="#fdfcfc" d="M 180.5,162.5 C 191.167,162.5 201.833,162.5 212.5,162.5C 212.5,165.5 212.5,168.5 212.5,171.5C 215.167,171.5 217.833,171.5 220.5,171.5C 220.5,168.5 220.5,165.5 220.5,162.5C 221.833,162.5 223.167,162.5 224.5,162.5C 225.147,161.726 225.48,160.726 225.5,159.5C 224.993,154.332 224.327,149.332 223.5,144.5C 219.793,135.216 215.793,126.05 211.5,117C 195.5,116.333 179.5,116.333 163.5,117C 162.748,117.671 162.414,118.504 162.5,119.5C 159.594,124.981 156.928,130.648 154.5,136.5C 131.701,114.202 109.035,91.7016 86.5,69C 107.968,53.301 131.968,47.6343 158.5,52C 210.217,67.0757 234.05,101.576 230,155.5C 227.819,170.248 222.319,183.582 213.5,195.5C 202.146,184.812 191.146,173.812 180.5,162.5 Z"/></g>
<g><path style="opacity:1" fill="#fcfbfb" d="M 106.5,123.5 C 113.11,128.441 119.11,134.108 124.5,140.5C 106.488,140.833 88.4877,140.5 70.5,139.5C 72.5,134.5 74.5,129.5 76.5,124.5C 86.4778,123.501 96.4778,123.168 106.5,123.5 Z"/></g>
<g><path style="opacity:1" fill="#2e2a28" d="M 162.5,119.5 C 162.414,120.496 162.748,121.329 163.5,122C 161.405,122.556 161.238,123.056 163,123.5C 178.307,122.183 193.473,122.183 208.5,123.5C 194.829,123.333 181.163,123.5 167.5,124C 165.074,129.107 162.74,134.274 160.5,139.5C 178.662,140.827 196.662,140.827 214.5,139.5C 215.043,139.56 215.376,139.893 215.5,140.5C 197.179,141.5 178.845,141.833 160.5,141.5C 158.202,140.203 156.202,138.537 154.5,136.5C 156.928,130.648 159.594,124.981 162.5,119.5 Z"/></g>
<g><path style="opacity:1" fill="#fcfcfb" d="M 208.5,123.5 C 210.503,128.838 212.503,134.171 214.5,139.5C 196.662,140.827 178.662,140.827 160.5,139.5C 162.74,134.274 165.074,129.107 167.5,124C 181.163,123.5 194.829,123.333 208.5,123.5 Z"/></g>
<g><path style="opacity:1" fill="#25201d" d="M 100.5,116.5 C 102.868,118.533 104.868,120.867 106.5,123.5C 96.4778,123.168 86.4778,123.501 76.5,124.5C 74.5,129.5 72.5,134.5 70.5,139.5C 88.4877,140.5 106.488,140.833 124.5,140.5C 127.5,143.5 130.5,146.5 133.5,149.5C 133.5,151.833 133.5,154.167 133.5,156.5C 122.846,155.85 112.179,155.516 101.5,155.5C 88.1667,155.5 74.8333,155.5 61.5,155.5C 61.3343,151.154 61.501,146.821 62,142.5C 65.5,134.167 69,125.833 72.5,117.5C 81.8096,116.502 91.1429,116.168 100.5,116.5 Z"/></g>
<g><path style="opacity:1" fill="#231d1a" d="M 223.5,144.5 C 223.5,148.167 223.5,151.833 223.5,155.5C 206.833,155.5 190.167,155.5 173.5,155.5C 168.806,151.14 164.472,146.473 160.5,141.5C 178.845,141.833 197.179,141.5 215.5,140.5C 215.376,139.893 215.043,139.56 214.5,139.5C 212.503,134.171 210.503,128.838 208.5,123.5C 193.473,122.183 178.307,122.183 163,123.5C 161.238,123.056 161.405,122.556 163.5,122C 162.748,121.329 162.414,120.496 162.5,119.5C 162.414,118.504 162.748,117.671 163.5,117C 179.5,116.333 195.5,116.333 211.5,117C 215.793,126.05 219.793,135.216 223.5,144.5 Z"/></g>
<g><path style="opacity:1" fill="#4e4a49" d="M 196.5,149.5 C 197.434,150.568 197.768,151.901 197.5,153.5C 191.5,153.5 185.5,153.5 179.5,153.5C 179.5,151.833 179.5,150.167 179.5,148.5C 185.358,148.178 191.025,148.511 196.5,149.5 Z"/></g>
<g><path style="opacity:1" fill="#faf7f5" d="M 196.5,149.5 C 196.5,150.5 196.5,151.5 196.5,152.5C 191.167,152.5 185.833,152.5 180.5,152.5C 180.5,151.5 180.5,150.5 180.5,149.5C 185.833,149.5 191.167,149.5 196.5,149.5 Z"/></g>
<g><path style="opacity:1" fill="#fdfcfb" d="M 100.5,116.5 C 91.1429,116.168 81.8096,116.502 72.5,117.5C 69,125.833 65.5,134.167 62,142.5C 61.501,146.821 61.3343,151.154 61.5,155.5C 74.8333,155.5 88.1667,155.5 101.5,155.5C 88.1667,156.167 74.8333,156.833 61.5,157.5C 61.5,159.167 61.5,160.833 61.5,162.5C 62.8333,162.5 64.1667,162.5 65.5,162.5C 65.5,165.5 65.5,168.5 65.5,171.5C 68.1667,171.5 70.8333,171.5 73.5,171.5C 73.5,168.5 73.5,165.5 73.5,162.5C 89.5,162.5 105.5,162.5 121.5,162.5C 121.5,165.5 121.5,168.5 121.5,171.5C 124.5,171.5 127.5,171.5 130.5,171.5C 130.5,168.5 130.5,165.5 130.5,162.5C 131.833,162.5 133.167,162.5 134.5,162.5C 134.5,160.833 134.5,159.167 134.5,157.5C 134.5,156.833 134.167,156.5 133.5,156.5C 133.5,154.167 133.5,151.833 133.5,149.5C 154.812,170.146 175.812,191.146 196.5,212.5C 164.974,235.605 131.641,238.438 96.5,221C 62.1756,198.511 47.009,166.678 51,125.5C 54.1983,110.713 60.365,97.38 69.5,85.5C 80.1877,95.521 90.521,105.854 100.5,116.5 Z"/></g>
<g><path style="opacity:1" fill="#f8f6f4" d="M 89.5,149.5 C 95.1667,149.5 100.833,149.5 106.5,149.5C 106.5,150.5 106.5,151.5 106.5,152.5C 100.833,152.5 95.1667,152.5 89.5,152.5C 89.5,151.5 89.5,150.5 89.5,149.5 Z"/></g>
<g><path style="opacity:1" fill="#656160" d="M 223.5,144.5 C 224.327,149.332 224.993,154.332 225.5,159.5C 225.48,160.726 225.147,161.726 224.5,162.5C 224.5,160.833 224.5,159.167 224.5,157.5C 208.5,157.5 192.5,157.5 176.5,157.5C 174.973,157.573 173.973,156.906 173.5,155.5C 190.167,155.5 206.833,155.5 223.5,155.5C 223.5,151.833 223.5,148.167 223.5,144.5 Z"/></g>
<g><path style="opacity:1" fill="#534f4d" d="M 101.5,155.5 C 112.179,155.516 122.846,155.85 133.5,156.5C 134.167,156.5 134.5,156.833 134.5,157.5C 110.167,157.5 85.8333,157.5 61.5,157.5C 74.8333,156.833 88.1667,156.167 101.5,155.5 Z"/></g>
<g><path style="opacity:1" fill="#25201e" d="M 61.5,157.5 C 85.8333,157.5 110.167,157.5 134.5,157.5C 134.5,159.167 134.5,160.833 134.5,162.5C 133.167,162.5 131.833,162.5 130.5,162.5C 129.527,164.948 129.194,167.615 129.5,170.5C 127.167,170.5 124.833,170.5 122.5,170.5C 122.806,167.615 122.473,164.948 121.5,162.5C 105.5,162.5 89.5,162.5 73.5,162.5C 73.5,165.5 73.5,168.5 73.5,171.5C 70.8333,171.5 68.1667,171.5 65.5,171.5C 65.5,168.5 65.5,165.5 65.5,162.5C 64.1667,162.5 62.8333,162.5 61.5,162.5C 61.5,160.833 61.5,159.167 61.5,157.5 Z"/></g>
<g><path style="opacity:1" fill="#25201d" d="M 176.5,157.5 C 192.5,157.5 208.5,157.5 224.5,157.5C 224.5,159.167 224.5,160.833 224.5,162.5C 223.167,162.5 221.833,162.5 220.5,162.5C 220.5,165.5 220.5,168.5 220.5,171.5C 217.833,171.5 215.167,171.5 212.5,171.5C 212.5,168.5 212.5,165.5 212.5,162.5C 201.833,162.5 191.167,162.5 180.5,162.5C 178.793,161.127 177.46,159.461 176.5,157.5 Z"/></g>
<g><path style="opacity:1" fill="#716e6c" d="M 121.5,162.5 C 122.473,164.948 122.806,167.615 122.5,170.5C 124.833,170.5 127.167,170.5 129.5,170.5C 129.194,167.615 129.527,164.948 130.5,162.5C 130.5,165.5 130.5,168.5 130.5,171.5C 127.5,171.5 124.5,171.5 121.5,171.5C 121.5,168.5 121.5,165.5 121.5,162.5 Z"/></g>
<g><path style="opacity:0.322" fill="#787978" d="M 273.5,274.5 C 273.833,274.5 274.167,274.5 274.5,274.5C 274.315,275.17 273.981,275.17 273.5,274.5 Z"/></g>
<g><path style="opacity:0.329" fill="#777777" d="M 269.5,277.5 C 269.833,277.5 270.167,277.5 270.5,277.5C 270.082,278.222 269.416,278.722 268.5,279C 183.332,279.832 98.3323,279.666 13.5,278.5C 13.8333,278.5 14.1667,278.5 14.5,278.5C 99.541,278.828 184.541,278.495 269.5,277.5 Z"/></g>
</svg>
