<?xml version="1.0" encoding="UTF-8"?>
<!DOCTYPE svg PUBLIC "-//W3C//DTD SVG 1.1//EN" "http://www.w3.org/Graphics/SVG/1.1/DTD/svg11.dtd">
<svg xmlns="http://www.w3.org/2000/svg" version="1.1" width="292px" height="293px" style="shape-rendering:geometricPrecision; text-rendering:geometricPrecision; image-rendering:optimizeQuality; fill-rule:evenodd; clip-rule:evenodd" xmlns:xlink="http://www.w3.org/1999/xlink">
<g><path style="opacity:1" fill="#f4e925" d="M 280.5,130.5 C 287.492,142.436 286.992,154.103 279,165.5C 240.833,203.667 202.667,241.833 164.5,280C 152.706,288.089 140.706,288.422 128.5,281C 89.2715,241.938 50.2715,202.772 11.5,163.5C 4.75625,152.427 4.92292,141.427 12,130.5C 51.1667,91.3333 90.3333,52.1667 129.5,13C 143.082,6.01663 155.748,7.34997 167.5,17C 205.422,54.7553 243.089,92.5886 280.5,130.5 Z"/></g>
<g><path style="opacity:0.929" fill="#363634" d="M 285.5,128.5 C 284.312,129.684 283.145,129.684 282,128.5C 281.283,129.044 280.783,129.711 280.5,130.5C 243.089,92.5886 205.422,54.7553 167.5,17C 155.748,7.34997 143.082,6.01663 129.5,13C 90.3333,52.1667 51.1667,91.3333 12,130.5C 4.92292,141.427 4.75625,152.427 11.5,163.5C 8.22663,164.062 7.22663,165.729 8.5,168.5C -2.0346,153.86 -1.86793,139.193 9,124.5C 47.1667,86.3333 85.3333,48.1667 123.5,10C 138.538,0.0046169 153.538,0.0046169 168.5,10C 208.064,49.0628 247.064,88.5628 285.5,128.5 Z"/></g>
<g><path style="opacity:1" fill="#3a3838" d="M 136.5,66.5 C 150.131,65.2947 155.298,71.2947 152,84.5C 146.874,90.9964 140.708,92.163 133.5,88C 129.695,83.9089 128.528,79.0755 130,73.5C 131.694,70.6424 133.861,68.309 136.5,66.5 Z"/></g>
<g><path style="opacity:1" fill="#3a3737" d="M 150.5,91.5 C 152.527,91.3379 154.527,91.5045 156.5,92C 168,103.5 179.5,115 191,126.5C 191.667,133.5 191.667,140.5 191,147.5C 186.739,151.423 182.406,151.423 178,147.5C 177.667,142.833 177.333,138.167 177,133.5C 174.167,131.333 171.333,129.167 168.5,127C 167.668,126.312 167.002,126.479 166.5,127.5C 165.73,130.413 164.73,133.247 163.5,136C 172.53,160.09 181.363,184.257 190,208.5C 192.161,220.008 187.661,224.175 176.5,221C 175.333,219.833 174.167,218.667 173,217.5C 165.709,196.925 157.876,176.592 149.5,156.5C 138.916,176.004 129.082,196.004 120,216.5C 114.943,223.514 109.276,224.181 103,218.5C 101.682,215.594 101.348,212.594 102,209.5C 113.964,185.41 125.464,161.244 136.5,137C 136.197,134.276 135.364,131.776 134,129.5C 127.579,137.758 120.079,144.758 111.5,150.5C 105.017,149.531 102.517,145.865 104,139.5C 115.647,125.686 127.48,112.019 139.5,98.5C 143.062,95.8924 146.729,93.5591 150.5,91.5 Z"/></g>
<g><path style="opacity:0.961" fill="#31312f" d="M 285.5,128.5 C 288.715,133.815 290.715,139.482 291.5,145.5C 291.5,146.833 291.5,148.167 291.5,149.5C 290.664,155.831 288.497,161.831 285,167.5C 246.292,206.041 207.792,244.707 169.5,283.5C 163.91,288.243 157.576,291.243 150.5,292.5C 147.5,292.5 144.5,292.5 141.5,292.5C 135.9,291.238 130.566,289.072 125.5,286C 86.2986,246.965 47.2986,207.799 8.5,168.5C 7.22663,165.729 8.22663,164.062 11.5,163.5C 50.2715,202.772 89.2715,241.938 128.5,281C 140.706,288.422 152.706,288.089 164.5,280C 202.667,241.833 240.833,203.667 279,165.5C 286.992,154.103 287.492,142.436 280.5,130.5C 280.783,129.711 281.283,129.044 282,128.5C 283.145,129.684 284.312,129.684 285.5,128.5 Z"/></g>
</svg>
