<?xml version="1.0" encoding="UTF-8"?>
<!DOCTYPE svg PUBLIC "-//W3C//DTD SVG 1.1//EN" "http://www.w3.org/Graphics/SVG/1.1/DTD/svg11.dtd">
<svg xmlns="http://www.w3.org/2000/svg" version="1.1" width="292px" height="293px" style="shape-rendering:geometricPrecision; text-rendering:geometricPrecision; image-rendering:optimizeQuality; fill-rule:evenodd; clip-rule:evenodd" xmlns:xlink="http://www.w3.org/1999/xlink">
<g><path style="opacity:1" fill="#f4e825" d="M 272.5,169.5 C 235.833,205.5 199.5,241.833 163.5,278.5C 151.025,286.625 138.692,286.459 126.5,278C 89,240.5 51.5,203 14,165.5C 6.9823,157.428 4.64897,148.095 7,137.5C 8.13945,133.888 9.80612,130.554 12,127.5C 50.5,89 89,50.5 127.5,12C 139.986,4.48484 152.319,4.81818 164.5,13C 202.333,50.8333 240.167,88.6667 278,126.5C 288.092,142.414 286.259,156.747 272.5,169.5 Z"/></g>
<g><path style="opacity:1" fill="#333331" d="M 277.5,172.5 C 276.101,171.11 274.434,170.11 272.5,169.5C 286.259,156.747 288.092,142.414 278,126.5C 240.167,88.6667 202.333,50.8333 164.5,13C 152.319,4.81818 139.986,4.48484 127.5,12C 89,50.5 50.5,89 12,127.5C 9.80612,130.554 8.13945,133.888 7,137.5C 4.64897,148.095 6.9823,157.428 14,165.5C 51.5,203 89,240.5 126.5,278C 138.692,286.459 151.025,286.625 163.5,278.5C 164.537,279.93 165.204,281.597 165.5,283.5C 151.549,292.883 137.549,292.717 123.5,283C 84.6667,244.167 45.8333,205.333 7,166.5C -2.75757,149.856 -1.42423,134.189 11,119.5C 47.473,83.027 83.973,46.527 120.5,10C 135.701,-1.88033 151.368,-2.547 167.5,8C 206,46.5 244.5,85 283,123.5C 294.216,141.393 292.382,157.726 277.5,172.5 Z"/></g>
<g><path style="opacity:1" fill="#292929" d="M 220.5,86.5 C 222.484,101.798 223.151,117.464 222.5,133.5C 222.5,158.167 222.5,182.833 222.5,207.5C 171.262,207.831 120.095,207.497 69,206.5C 68.3828,205.551 68.5494,204.718 69.5,204C 100.378,180.4 131.044,156.566 161.5,132.5C 165.39,129.729 169.057,126.729 172.5,123.5C 174.404,123.262 175.738,122.262 176.5,120.5C 191.167,109.167 205.833,97.8333 220.5,86.5 Z"/></g>
<g><path style="opacity:1" fill="#3c3b3a" d="M 182.5,84.5 C 146.197,112.325 109.863,140.158 73.5,168C 72.255,168.791 70.9217,169.291 69.5,169.5C 68.801,166.427 67.801,163.427 66.5,160.5C 75.6599,152.176 84.9932,144.009 94.5,136C 111.416,123.389 128.082,110.555 144.5,97.5C 154.441,90.1852 164.441,82.8518 174.5,75.5C 178.235,78.1921 180.902,81.1921 182.5,84.5 Z"/></g>
<g><path style="opacity:1" fill="#3d3b3a" d="M 182.5,86.5 C 183.496,86.4142 184.329,86.7476 185,87.5C 186.442,90.0496 187.608,92.7163 188.5,95.5C 184.996,99.5036 181.163,103.17 177,106.5C 173.901,103.188 170.067,101.521 165.5,101.5C 164.262,101.19 164.262,100.69 165.5,100C 171.354,95.6361 177.021,91.1361 182.5,86.5 Z"/></g>
<g><path style="opacity:1" fill="#e6dc35" d="M 182.5,84.5 C 182.5,85.1667 182.5,85.8333 182.5,86.5C 177.021,91.1361 171.354,95.6361 165.5,100C 164.262,100.69 164.262,101.19 165.5,101.5C 163.781,102.022 162.448,103.022 161.5,104.5C 153.541,110.917 153.541,117.417 161.5,124C 165.221,124.678 168.888,124.511 172.5,123.5C 169.057,126.729 165.39,129.729 161.5,132.5C 161.261,130.533 161.594,128.699 162.5,127C 162,126.5 161.5,126 161,125.5C 159.189,130.742 158.189,130.408 158,124.5C 156.684,125.974 155.684,127.641 155,129.5C 154.8,127.68 153.966,126.347 152.5,125.5C 153.574,124.115 154.907,122.949 156.5,122C 153.56,117.856 152.727,113.356 154,108.5C 136.167,122.333 118.333,136.167 100.5,150C 102.833,150.333 105.167,150.667 107.5,151C 108.942,151.377 109.942,152.21 110.5,153.5C 110.5,153.833 110.5,154.167 110.5,154.5C 97.6787,149.491 91.8454,153.825 93,167.5C 94.0946,168.693 94.928,170.027 95.5,171.5C 94.5,171.5 93.5,171.5 92.5,171.5C 90.7192,166.745 90.0525,162.078 90.5,157.5C 84.2139,161.785 78.2139,166.451 72.5,171.5C 73.2427,172.182 73.9094,172.849 74.5,173.5C 74.1034,174.525 73.4368,174.692 72.5,174C 71.7775,172.249 70.7775,170.749 69.5,169.5C 70.9217,169.291 72.255,168.791 73.5,168C 109.863,140.158 146.197,112.325 182.5,84.5 Z"/></g>
<g><path style="opacity:1" fill="#43423e" d="M 144.5,97.5 C 142.693,98.6148 140.693,99.2814 138.5,99.5C 133.917,98.4725 129.417,97.1392 125,95.5C 120.877,97.9587 117.043,100.792 113.5,104C 115.653,106.822 117.819,109.656 120,112.5C 120.483,113.448 120.649,114.448 120.5,115.5C 119.022,115.762 117.689,115.429 116.5,114.5C 114.62,111.909 112.62,109.409 110.5,107C 109.833,106.333 109.167,106.333 108.5,107C 105.424,109.62 102.258,112.12 99,114.5C 96.9532,121.066 95.2865,127.733 94,134.5C 92.9805,135.687 91.8139,136.687 90.5,137.5C 90.1667,136.833 89.8333,136.167 89.5,135.5C 91.651,127.912 93.4843,120.246 95,112.5C 106.167,104 117.333,95.5 128.5,87C 136.609,86.7109 144.609,87.5442 152.5,89.5C 149.8,92.1733 147.133,94.84 144.5,97.5 Z"/></g>
<g><path style="opacity:1" fill="#42403c" d="M 176.5,120.5 C 175.738,122.262 174.404,123.262 172.5,123.5C 168.888,124.511 165.221,124.678 161.5,124C 153.541,117.417 153.541,110.917 161.5,104.5C 170.328,101.828 175.661,104.995 177.5,114C 177.227,116.151 176.561,118.151 175.5,120C 175.728,120.399 176.062,120.565 176.5,120.5 Z"/></g>
<g><path style="opacity:1" fill="#e9df31" d="M 164.5,109.5 C 170.75,109.882 172.417,112.715 169.5,118C 162.237,118.821 160.571,115.988 164.5,109.5 Z"/></g>
<g><path style="opacity:1" fill="#817c40" d="M 220.5,86.5 C 221.209,85.596 222.209,85.2627 223.5,85.5C 223.83,101.675 223.496,117.675 222.5,133.5C 223.151,117.464 222.484,101.798 220.5,86.5 Z"/></g>
<g><path style="opacity:1" fill="#3e3c3a" d="M 152.5,125.5 C 138.926,134.9 125.759,144.9 113,155.5C 112.292,154.619 111.458,153.953 110.5,153.5C 109.942,152.21 108.942,151.377 107.5,151C 105.167,150.667 102.833,150.333 100.5,150C 118.333,136.167 136.167,122.333 154,108.5C 152.727,113.356 153.56,117.856 156.5,122C 154.907,122.949 153.574,124.115 152.5,125.5 Z"/></g>
<g><path style="opacity:1" fill="#41403d" d="M 92.5,171.5 C 88.9099,172.628 85.5766,174.295 82.5,176.5C 79.9646,175.1 77.298,174.1 74.5,173.5C 73.9094,172.849 73.2427,172.182 72.5,171.5C 78.2139,166.451 84.2139,161.785 90.5,157.5C 90.0525,162.078 90.7192,166.745 92.5,171.5 Z"/></g>
<g><path style="opacity:1" fill="#403e3c" d="M 110.5,154.5 C 115.489,162.097 114.156,168.264 106.5,173C 102.643,173.758 98.9767,173.258 95.5,171.5C 94.928,170.027 94.0946,168.693 93,167.5C 91.8454,153.825 97.6787,149.491 110.5,154.5 Z"/></g>
<g><path style="opacity:1" fill="#eee32c" d="M 100.5,158.5 C 107.225,158.204 108.891,160.871 105.5,166.5C 98.4089,167.531 96.7422,164.864 100.5,158.5 Z"/></g>
<g><path style="opacity:0.973" fill="#3d3c38" d="M 272.5,169.5 C 274.434,170.11 276.101,171.11 277.5,172.5C 240.805,210.195 203.472,247.195 165.5,283.5C 165.204,281.597 164.537,279.93 163.5,278.5C 199.5,241.833 235.833,205.5 272.5,169.5 Z"/></g>
<g><path style="opacity:0.027" fill="#c7c7c6" d="M 166.5,284.5 C 167.833,285.167 167.833,285.167 166.5,284.5 Z"/></g>
</svg>
