<?xml version="1.0" encoding="UTF-8"?>
<!DOCTYPE svg PUBLIC "-//W3C//DTD SVG 1.1//EN" "http://www.w3.org/Graphics/SVG/1.1/DTD/svg11.dtd">
<svg xmlns="http://www.w3.org/2000/svg" version="1.1" width="283px" height="283px" style="shape-rendering:geometricPrecision; text-rendering:geometricPrecision; image-rendering:optimizeQuality; fill-rule:evenodd; clip-rule:evenodd" xmlns:xlink="http://www.w3.org/1999/xlink">
<g><path style="opacity:0.329" fill="#797979" d="M 270.5,5.5 C 270.167,5.5 269.833,5.5 269.5,5.5C 183.875,4.1716 98.2087,4.1716 12.5,5.5C 12.1667,5.5 11.8333,5.5 11.5,5.5C 11.9175,4.77842 12.5842,4.27842 13.5,4C 98.8333,3.33333 184.167,3.33333 269.5,4C 270.056,4.38258 270.389,4.88258 270.5,5.5 Z"/></g>
<g><path style="opacity:0.463" fill="#5b595a" d="M 277.5,12.5 C 278.222,12.9175 278.722,13.5842 279,14.5C 279.667,99.1667 279.667,183.833 279,268.5C 278.722,269.416 278.222,270.082 277.5,270.5C 277.5,270.167 277.5,269.833 277.5,269.5C 278.833,184.167 278.833,98.8333 277.5,13.5C 277.5,13.1667 277.5,12.8333 277.5,12.5 Z"/></g>
<g><path style="opacity:1" fill="#969694" d="M 5.5,11.5 C 4.85048,13.4352 4.51715,15.4352 4.5,17.5C 3.83333,100.167 3.16667,182.833 2.5,265.5C 2.33334,182.499 2.5,99.4993 3,16.5C 3.09946,14.3474 3.9328,12.6808 5.5,11.5 Z"/></g>
<g><path style="opacity:1" fill="#b6b6b4" d="M 4.5,17.5 C 4.16959,101.904 4.50293,186.237 5.5,270.5C 5.5,270.833 5.5,271.167 5.5,271.5C 3.9121,269.887 2.9121,267.887 2.5,265.5C 3.16667,182.833 3.83333,100.167 4.5,17.5 Z"/></g>
<g><path style="opacity:1" fill="#f6f4f5" d="M 269.5,5.5 C 269.833,6.83333 270.167,6.83333 270.5,5.5C 272.379,5.39318 272.712,5.89318 271.5,7C 272.667,8.16667 273.833,9.33333 275,10.5C 276.625,9.58807 277.459,10.2547 277.5,12.5C 276.167,12.8333 276.167,13.1667 277.5,13.5C 278.833,98.8333 278.833,184.167 277.5,269.5C 276.167,269.833 276.167,270.167 277.5,270.5C 277.672,271.492 277.338,272.158 276.5,272.5C 276.167,271.167 275.833,271.167 275.5,272.5C 274.167,272.833 274.167,273.167 275.5,273.5C 275.5,274.833 274.833,275.5 273.5,275.5C 273.167,274.167 272.833,274.167 272.5,275.5C 271.167,275.833 271.167,276.167 272.5,276.5C 272.158,277.338 271.492,277.672 270.5,277.5C 184.488,278.831 98.4877,278.831 12.5,277.5C 12.1667,276.167 11.8333,276.167 11.5,277.5C 9.62143,277.607 9.2881,277.107 10.5,276C 9.53054,274.242 8.36387,273.742 7,274.5C 5.96141,273.756 5.46141,272.756 5.5,271.5C 6.83333,271.167 6.83333,270.833 5.5,270.5C 4.50293,186.237 4.16959,101.904 4.5,17.5C 4.51715,15.4352 4.85048,13.4352 5.5,11.5C 5.39318,9.62143 5.89318,9.2881 7,10.5C 8.75827,9.53054 9.25827,8.36387 8.5,7C 9.24382,5.96141 10.2438,5.46141 11.5,5.5C 11.8333,6.83333 12.1667,6.83333 12.5,5.5C 98.2087,4.1716 183.875,4.1716 269.5,5.5 Z"/></g>
<g><path style="opacity:1" fill="#1a1919" d="M 15.5,7.5 C 98.834,7.33334 182.167,7.5 265.5,8C 268.242,9.07037 270.742,10.5704 273,12.5C 274.661,97.7521 274.994,183.085 274,268.5C 272.332,272.165 269.499,274.332 265.5,275C 182.5,275.667 99.5,275.667 16.5,275C 12.1926,273.604 9.35931,270.771 8,266.5C 7.33333,182.833 7.33333,99.1667 8,15.5C 10.0282,12.3078 12.5282,9.64111 15.5,7.5 Z"/></g>
<g><path style="opacity:1" fill="#fdfcfc" d="M 15.5,13.5 C 99.1673,13.3333 182.834,13.5 266.5,14C 267.333,14.8333 268.167,15.6667 269,16.5C 269.667,99.8333 269.667,183.167 269,266.5C 268.692,267.308 268.192,267.975 267.5,268.5C 183.54,269.664 99.5403,269.83 15.5,269C 15,268.5 14.5,268 14,267.5C 12.339,183.915 12.0057,100.248 13,16.5C 14.045,15.6266 14.8783,14.6266 15.5,13.5 Z"/></g>
<g><path style="opacity:1" fill="#cf4d50" d="M 162.5,251.5 C 160.786,252.738 158.786,253.405 156.5,253.5C 157.918,251.692 159.918,251.025 162.5,251.5 Z"/></g>
<g><path style="opacity:1" fill="#fc060d" d="M 127.5,27.5 C 135.833,27.5 144.167,27.5 152.5,27.5C 195.971,32.4452 227.137,54.7785 246,94.5C 262.676,137.445 257.009,177.112 229,213.5C 211.08,233.787 188.913,246.454 162.5,251.5C 159.918,251.025 157.918,251.692 156.5,253.5C 97.5877,256.975 56.7543,231.642 34,177.5C 32.5132,172.221 31.3465,166.888 30.5,161.5C 30.8893,158.447 30.2227,155.78 28.5,153.5C 25.7916,92.0951 53.125,50.9284 110.5,30C 116.09,28.5815 121.757,27.7482 127.5,27.5 Z"/></g>
<g><path style="opacity:1" fill="#e65557" d="M 28.5,153.5 C 30.2227,155.78 30.8893,158.447 30.5,161.5C 29.2318,159.095 28.5651,156.428 28.5,153.5 Z"/></g>
<g><path style="opacity:1" fill="#fdfcfc" d="M 127.5,49.5 C 167.668,46.0864 198.668,61.0864 220.5,94.5C 238.235,129.464 236.069,163.131 214,195.5C 184.891,228.454 149.391,238.288 107.5,225C 68.2765,205.42 49.4431,173.587 51,129.5C 59.1373,85.8691 84.6373,59.2025 127.5,49.5 Z"/></g>
<g><path style="opacity:1" fill="#211c19" d="M 144.5,167.5 C 147.962,168.482 151.629,168.815 155.5,168.5C 155.5,171.833 155.5,175.167 155.5,178.5C 151.5,178.5 147.5,178.5 143.5,178.5C 143.179,184.026 143.512,189.36 144.5,194.5C 144.725,197.419 146.225,199.086 149,199.5C 151.568,199.049 153.902,198.049 156,196.5C 158.216,208.021 153.382,212.855 141.5,211C 137.333,209.5 134.5,206.667 133,202.5C 132.5,194.507 132.334,186.507 132.5,178.5C 130.167,178.5 127.833,178.5 125.5,178.5C 125.5,174.833 125.5,171.167 125.5,167.5C 127.833,167.5 130.167,167.5 132.5,167.5C 132.5,163.167 132.5,158.833 132.5,154.5C 136.5,153.5 140.5,152.5 144.5,151.5C 144.5,156.833 144.5,162.167 144.5,167.5 Z"/></g>
<g><path style="opacity:1" fill="#474443" d="M 144.5,167.5 C 148.5,167.5 152.5,167.5 156.5,167.5C 156.5,171.5 156.5,175.5 156.5,179.5C 152.5,179.5 148.5,179.5 144.5,179.5C 144.5,184.5 144.5,189.5 144.5,194.5C 143.512,189.36 143.179,184.026 143.5,178.5C 147.5,178.5 151.5,178.5 155.5,178.5C 155.5,175.167 155.5,171.833 155.5,168.5C 151.629,168.815 147.962,168.482 144.5,167.5 Z"/></g>
<g><path style="opacity:1" fill="#221e1b" d="M 157.5,73.5 C 176.804,72.952 188.304,82.2854 192,101.5C 194.662,117.521 189.829,130.688 177.5,141C 163.325,147.882 151.492,145.049 142,132.5C 133.373,116.819 133.373,101.152 142,85.5C 146.233,80.0772 151.4,76.0772 157.5,73.5 Z"/></g>
<g><path style="opacity:1" fill="#444140" d="M 96.5,85.5 C 96.5,89.1667 96.5,92.8333 96.5,96.5C 99.8333,96.5 103.167,96.5 106.5,96.5C 106.5,111.833 106.5,127.167 106.5,142.5C 110.5,142.5 114.5,142.5 118.5,142.5C 114.366,143.485 110.032,143.818 105.5,143.5C 105.5,128.167 105.5,112.833 105.5,97.5C 102.167,97.5 98.8333,97.5 95.5,97.5C 95.1832,93.2984 95.5166,89.2984 96.5,85.5 Z"/></g>
<g><path style="opacity:1" fill="#fcfcfb" d="M 160.5,85.5 C 169.792,85.2805 175.959,89.6139 179,98.5C 182.585,110.599 180.085,121.099 171.5,130C 163.658,134.373 157.158,132.873 152,125.5C 146.509,115.298 146.176,104.965 151,94.5C 153.406,90.5915 156.572,87.5915 160.5,85.5 Z"/></g>
<g><path style="opacity:1" fill="#201b18" d="M 118.5,142.5 C 114.5,142.5 110.5,142.5 106.5,142.5C 106.5,127.167 106.5,111.833 106.5,96.5C 103.167,96.5 99.8333,96.5 96.5,96.5C 96.5,92.8333 96.5,89.1667 96.5,85.5C 102.071,84.2624 105.738,80.929 107.5,75.5C 111.107,74.5108 114.774,74.1774 118.5,74.5C 118.5,97.1667 118.5,119.833 118.5,142.5 Z"/></g>
<g><path style="opacity:1" fill="#d44545" d="M 152.5,27.5 C 144.167,27.5 135.833,27.5 127.5,27.5C 131.574,26.0456 135.907,25.3789 140.5,25.5C 144.777,25.3367 148.777,26.0033 152.5,27.5 Z"/></g>
<g><path style="opacity:0.463" fill="#595858" d="M 275.5,272.5 C 275.833,272.5 276.167,272.5 276.5,272.5C 276.315,273.17 275.981,273.17 275.5,272.5 Z"/></g>
<g><path style="opacity:0.463" fill="#595858" d="M 272.5,275.5 C 272.833,275.5 273.167,275.5 273.5,275.5C 273.315,276.17 272.981,276.17 272.5,275.5 Z"/></g>
<g><path style="opacity:0.345" fill="#787677" d="M 11.5,277.5 C 11.8333,277.5 12.1667,277.5 12.5,277.5C 98.4877,278.831 184.488,278.831 270.5,277.5C 270.082,278.222 269.416,278.722 268.5,279C 183.5,279.667 98.5,279.667 13.5,279C 12.5842,278.722 11.9175,278.222 11.5,277.5 Z"/></g>
</svg>
