<?xml version="1.0" encoding="UTF-8"?>
<!DOCTYPE svg PUBLIC "-//W3C//DTD SVG 1.1//EN" "http://www.w3.org/Graphics/SVG/1.1/DTD/svg11.dtd">
<svg xmlns="http://www.w3.org/2000/svg" version="1.1" width="283px" height="283px" style="shape-rendering:geometricPrecision; text-rendering:geometricPrecision; image-rendering:optimizeQuality; fill-rule:evenodd; clip-rule:evenodd" xmlns:xlink="http://www.w3.org/1999/xlink">
<g><path style="opacity:0.259" fill="#8b8a89" d="M 271.5,4.5 C 271.167,4.5 270.833,4.5 270.5,4.5C 268.641,3.40585 266.641,2.57251 264.5,2C 180.145,1.1775 95.8118,1.34417 11.5,2.5C 12.2625,1.73209 13.2625,1.23209 14.5,1C 98.1667,0.333333 181.833,0.333333 265.5,1C 268.025,1.42381 270.025,2.59047 271.5,4.5 Z"/></g>
<g><path style="opacity:1" fill="#eeedec" d="M 270.5,4.5 C 270.833,5.83333 271.167,5.83333 271.5,4.5C 272.136,6.79463 273.469,8.4613 275.5,9.5C 276.661,95.1264 276.828,180.793 276,266.5C 275.487,267.527 274.987,268.527 274.5,269.5C 273.167,269.833 273.167,270.167 274.5,270.5C 274.5,272.5 273.5,273.5 271.5,273.5C 271.167,272.167 270.833,272.167 270.5,273.5C 269.167,273.833 269.167,274.167 270.5,274.5C 270.158,275.338 269.492,275.672 268.5,275.5C 268.167,274.167 267.833,274.167 267.5,275.5C 182.167,276.833 96.8333,276.833 11.5,275.5C 11.1667,274.167 10.8333,274.167 10.5,275.5C 8.5154,275.141 7.84873,274.308 8.5,273C 7.33333,271.833 6.16667,270.667 5,269.5C 3.89318,270.712 3.39318,270.379 3.5,268.5C 4.83333,268.167 4.83333,267.833 3.5,267.5C 2.50805,182.529 2.17472,97.5287 2.5,12.5C 2.49136,10.6916 2.99136,9.02494 4,7.5C 4.66667,6.16667 5.33333,6.16667 6,7.5C 7.11919,6.44786 7.61919,5.2812 7.5,4C 8.74499,3.20858 10.0783,2.70858 11.5,2.5C 95.8118,1.34417 180.145,1.1775 264.5,2C 266.641,2.57251 268.641,3.40585 270.5,4.5 Z"/></g>
<g><path style="opacity:1" fill="#131212" d="M 13.5,5.5 C 97.5007,5.33334 181.501,5.5 265.5,6C 269.333,7.16667 271.833,9.66667 273,13.5C 273.667,97.1667 273.667,180.833 273,264.5C 271.895,267.937 269.728,270.437 266.5,272C 182.167,272.667 97.8333,272.667 13.5,272C 11.6667,270.833 9.83333,269.667 8,268.5C 6.3389,183.248 6.00557,97.9146 7,12.5C 8.69406,9.64238 10.8607,7.30904 13.5,5.5 Z"/></g>
<g><path style="opacity:1" fill="#fcfbfb" d="M 15.5,10.5 C 98.1673,10.3333 180.834,10.5 263.5,11C 265.286,11.7845 266.786,12.9512 268,14.5C 268.667,97.1667 268.667,179.833 268,262.5C 267.487,264.521 266.32,266.021 264.5,267C 181.167,267.667 97.8333,267.667 14.5,267C 13.6667,266.167 12.8333,265.333 12,264.5C 11.3333,180.833 11.3333,97.1667 12,13.5C 13.1451,12.3636 14.3117,11.3636 15.5,10.5 Z"/></g>
<g><path style="opacity:0.455" fill="#5b5a58" d="M 2.5,12.5 C 2.17472,97.5287 2.50805,182.529 3.5,267.5C 3.5,267.833 3.5,268.167 3.5,268.5C 2.77842,268.082 2.27842,267.416 2,266.5C 1.16765,181.666 1.33432,96.999 2.5,12.5 Z"/></g>
<g><path style="opacity:1" fill="#a8a6a7" d="M 275.5,9.5 C 277.067,10.6808 277.901,12.3474 278,14.5C 278.667,97.5 278.667,180.5 278,263.5C 277.861,266.445 276.694,268.779 274.5,270.5C 274.5,270.167 274.5,269.833 274.5,269.5C 274.987,268.527 275.487,267.527 276,266.5C 276.828,180.793 276.661,95.1264 275.5,9.5 Z"/></g>
<g><path style="opacity:1" fill="#d34b4d" d="M 151.5,26.5 C 143.167,26.5 134.833,26.5 126.5,26.5C 130.921,25.0877 135.588,24.421 140.5,24.5C 144.469,24.2942 148.135,24.9608 151.5,26.5 Z"/></g>
<g><path style="opacity:1" fill="#d16968" d="M 175.5,30.5 C 177.027,30.427 178.027,31.0937 178.5,32.5C 176.973,32.573 175.973,31.9063 175.5,30.5 Z"/></g>
<g><path style="opacity:1" fill="#fc060d" d="M 126.5,26.5 C 134.833,26.5 143.167,26.5 151.5,26.5C 159.738,26.8124 167.738,28.1457 175.5,30.5C 175.973,31.9063 176.973,32.573 178.5,32.5C 213.73,45.8988 237.23,70.5655 249,106.5C 250.475,111.063 251.308,115.73 251.5,120.5C 252.257,130.482 252.59,140.482 252.5,150.5C 246.875,195.753 223.208,227.086 181.5,244.5C 179.973,244.427 178.973,245.094 178.5,246.5C 172.932,248.309 167.265,249.642 161.5,250.5C 158.848,250.41 156.515,251.076 154.5,252.5C 103.433,256.229 64.9327,236.229 39,192.5C 17.5499,145.763 22.8833,102.43 55,62.5C 74.4587,41.8449 98.2921,29.8449 126.5,26.5 Z"/></g>
<g><path style="opacity:1" fill="#fcfbfb" d="M 151.5,229.5 C 142.46,229.748 133.46,229.415 124.5,228.5C 120.5,227.833 116.5,227.167 112.5,226.5C 112.027,225.094 111.027,224.427 109.5,224.5C 84.814,215.319 66.9806,198.652 56,174.5C 52.579,166.149 50.4124,157.483 49.5,148.5C 49.5,142.5 49.5,136.5 49.5,130.5C 54.9452,90.7949 76.6118,64.2949 114.5,51C 157.902,42.2347 192.235,55.7347 217.5,91.5C 235.554,124.983 234.72,157.983 215,190.5C 199.073,212.365 177.906,225.365 151.5,229.5 Z"/></g>
<g><path style="opacity:1" fill="#edebea" d="M 174.5,83.5 C 176.861,85.1939 178.861,87.1939 180.5,89.5C 181.999,92.0075 181.332,93.1741 178.5,93C 176.126,90.961 174.126,88.6277 172.5,86C 173.381,85.2917 174.047,84.4584 174.5,83.5 Z"/></g>
<g><path style="opacity:1" fill="#221e1c" d="M 183.5,92.5 C 182.9,91.0998 181.9,90.0998 180.5,89.5C 178.861,87.1939 176.861,85.1939 174.5,83.5C 175.11,82.609 175.443,81.609 175.5,80.5C 179.883,80.3056 183.717,78.639 187,75.5C 189.295,77.08 190.628,79.08 191,81.5C 187.435,83.8682 185.602,87.2016 185.5,91.5C 184.817,91.8627 184.15,92.1961 183.5,92.5 Z"/></g>
<g><path style="opacity:1" fill="#201b19" d="M 136.5,59.5 C 154.17,57.6662 161.67,65.3329 159,82.5C 154.191,90.8846 147.024,94.0513 137.5,92C 125.848,85.8866 123.015,77.0533 129,65.5C 131.478,63.3606 133.978,61.3606 136.5,59.5 Z"/></g>
<g><path style="opacity:1" fill="#3f3c3a" d="M 164.5,93.5 C 166.332,94.1405 166.665,95.1405 165.5,96.5C 163.481,95.8671 163.147,94.8671 164.5,93.5 Z"/></g>
<g><path style="opacity:1" fill="#353231" d="M 175.5,80.5 C 175.443,81.609 175.11,82.609 174.5,83.5C 174.047,84.4584 173.381,85.2917 172.5,86C 174.126,88.6277 176.126,90.961 178.5,93C 181.332,93.1741 181.999,92.0075 180.5,89.5C 181.9,90.0998 182.9,91.0998 183.5,92.5C 181.543,96.5143 178.876,97.5143 175.5,95.5C 173.831,96.8897 172.164,97.2231 170.5,96.5C 169.833,97.8333 169.167,99.1667 168.5,100.5C 167.833,100.167 167.167,99.8333 166.5,99.5C 165.833,100.833 165.167,102.167 164.5,103.5C 163.313,102.347 162.313,102.347 161.5,103.5C 160.711,103.217 160.044,102.717 159.5,102C 161.108,101.531 162.775,100.865 164.5,100C 163.748,99.3292 163.414,98.4959 163.5,97.5C 165.372,98.7946 167.038,98.6279 168.5,97C 168.043,96.586 167.709,96.086 167.5,95.5C 168.651,94.269 169.817,94.269 171,95.5C 174.588,94.3867 175.088,92.72 172.5,90.5C 171.186,91.3128 170.019,92.3128 169,93.5C 167.563,91.7788 168.063,90.2788 170.5,89C 169.643,88.3109 168.977,87.4776 168.5,86.5C 170.853,84.4773 173.186,82.4773 175.5,80.5 Z"/></g>
<g><path style="opacity:1" fill="#211d1a" d="M 157.5,97.5 C 145.481,107.19 133.481,116.857 121.5,126.5C 121.719,125.325 121.386,124.325 120.5,123.5C 116.744,127.913 113.411,132.58 110.5,137.5C 113.691,143.377 117.024,149.211 120.5,155C 116.459,155.827 112.459,155.66 108.5,154.5C 105.875,152.361 104.208,150.027 103.5,147.5C 103.467,148.989 102.967,150.322 102,151.5C 101.5,151 101,150.5 100.5,150C 101.24,148.215 101.907,146.382 102.5,144.5C 102.376,143.893 102.043,143.56 101.5,143.5C 99.7668,141.054 98.9335,138.387 99,135.5C 105.786,122.093 112.952,108.927 120.5,96C 133.5,95.3333 146.5,95.3333 159.5,96C 158.956,96.7172 158.289,97.2172 157.5,97.5 Z"/></g>
<g><path style="opacity:1" fill="#d6d4d3" d="M 157.5,97.5 C 157.557,98.609 157.89,99.609 158.5,100.5C 159.338,100.158 159.672,99.4916 159.5,98.5C 161.196,100.129 162.196,99.7957 162.5,97.5C 162.833,97.5 163.167,97.5 163.5,97.5C 163.414,98.4959 163.748,99.3292 164.5,100C 162.775,100.865 161.108,101.531 159.5,102C 160.044,102.717 160.711,103.217 161.5,103.5C 161.5,103.833 161.5,104.167 161.5,104.5C 162.167,105.167 162.833,105.833 163.5,106.5C 157.525,111.47 151.525,116.47 145.5,121.5C 145.5,120.833 145.5,120.167 145.5,119.5C 146.895,118.352 146.728,117.352 145,116.5C 144.283,117.044 143.783,117.711 143.5,118.5C 143.167,118.5 142.833,118.5 142.5,118.5C 142.5,119.167 142.5,119.833 142.5,120.5C 140.932,120.359 139.265,120.026 137.5,119.5C 137.167,119.833 136.833,120.167 136.5,120.5C 137.949,121.172 139.282,121.839 140.5,122.5C 139.833,123.167 139.167,123.833 138.5,124.5C 137.432,123.566 136.099,123.232 134.5,123.5C 134.33,122.178 134.663,121.011 135.5,120C 135,119.5 134.5,119 134,118.5C 133.781,121.067 132.948,123.733 131.5,126.5C 130.41,125.609 130.41,124.609 131.5,123.5C 130.641,122.226 129.974,122.392 129.5,124C 128.453,125.578 128.453,127.078 129.5,128.5C 130.687,127.347 131.687,127.347 132.5,128.5C 131.833,128.833 131.167,129.167 130.5,129.5C 127.833,130.167 127.833,130.833 130.5,131.5C 129.074,132.341 127.74,133.341 126.5,134.5C 124.648,135.518 122.981,136.851 121.5,138.5C 121.167,138 120.833,137.5 120.5,137C 121.056,135.989 121.722,135.156 122.5,134.5C 122.357,132.738 122.691,131.071 123.5,129.5C 123.043,128.702 122.376,128.369 121.5,128.5C 121.5,127.833 121.5,127.167 121.5,126.5C 133.481,116.857 145.481,107.19 157.5,97.5 Z"/></g>
<g><path style="opacity:1" fill="#2b2928" d="M 152.5,103.5 C 154.337,103.639 154.67,104.306 153.5,105.5C 152.702,105.043 152.369,104.376 152.5,103.5 Z"/></g>
<g><path style="opacity:1" fill="#2a2827" d="M 158.5,100.5 C 158.361,102.337 157.694,102.67 156.5,101.5C 156.957,100.702 157.624,100.369 158.5,100.5 Z"/></g>
<g><path style="opacity:1" fill="#383634" d="M 159.5,98.5 C 160.209,97.596 161.209,97.2627 162.5,97.5C 162.196,99.7957 161.196,100.129 159.5,98.5 Z"/></g>
<g><path style="opacity:1" fill="#2b2a29" d="M 156.5,103.5 C 158.76,104.238 158.927,105.238 157,106.5C 155.272,105.648 155.105,104.648 156.5,103.5 Z"/></g>
<g><path style="opacity:1" fill="#2e2c2a" d="M 161.5,104.5 C 161.361,106.337 160.694,106.67 159.5,105.5C 159.957,104.702 160.624,104.369 161.5,104.5 Z"/></g>
<g><path style="opacity:1" fill="#32302f" d="M 148.5,106.5 C 150.086,107.413 151.586,107.413 153,106.5C 155,107.5 155,108.5 153,109.5C 150.974,109.085 149.474,108.085 148.5,106.5 Z"/></g>
<g><path style="opacity:1" fill="#2c2a29" d="M 155.5,107.5 C 157.337,107.639 157.67,108.306 156.5,109.5C 155.702,109.043 155.369,108.376 155.5,107.5 Z"/></g>
<g><path style="opacity:1" fill="#393735" d="M 144.5,109.5 C 146.589,109.857 148.589,110.523 150.5,111.5C 150.167,111.833 149.833,112.167 149.5,112.5C 147.241,112.216 145.574,111.216 144.5,109.5 Z"/></g>
<g><path style="opacity:1" fill="#3c3a38" d="M 147.5,113.5 C 150.293,113.74 150.793,114.74 149,116.5C 147.961,115.756 147.461,114.756 147.5,113.5 Z"/></g>
<g><path style="opacity:1" fill="#656362" d="M 141.5,112.5 C 148.012,114.227 148.012,115.061 141.5,115C 140.402,114.23 140.402,113.397 141.5,112.5 Z"/></g>
<g><path style="opacity:1" fill="#343231" d="M 137.5,115.5 C 139.76,116.238 139.927,117.238 138,118.5C 136.272,117.648 136.105,116.648 137.5,115.5 Z"/></g>
<g><path style="opacity:1" fill="#201b19" d="M 177.5,155.5 C 173.774,155.823 170.107,155.489 166.5,154.5C 169.707,148.585 173.04,142.752 176.5,137C 173.121,132.41 169.621,127.91 166,123.5C 162.67,133.986 160.17,144.653 158.5,155.5C 148.167,155.5 137.833,155.5 127.5,155.5C 126.97,149.706 126.137,144.04 125,138.5C 131.956,132.944 138.79,127.278 145.5,121.5C 151.525,116.47 157.525,111.47 163.5,106.5C 165.175,104.998 167.008,103.665 169,102.5C 175,113.167 181,123.833 187,134.5C 187.667,135.833 187.667,137.167 187,138.5C 183.809,144.221 180.642,149.888 177.5,155.5 Z"/></g>
<g><path style="opacity:1" fill="#2a2726" d="M 142.5,118.5 C 140.663,118.361 140.33,117.694 141.5,116.5C 142.298,116.957 142.631,117.624 142.5,118.5 Z"/></g>
<g><path style="opacity:1" fill="#2d2b2a" d="M 145.5,119.5 C 144.833,119.167 144.167,118.833 143.5,118.5C 143.783,117.711 144.283,117.044 145,116.5C 146.728,117.352 146.895,118.352 145.5,119.5 Z"/></g>
<g><path style="opacity:1" fill="#353231" d="M 142.5,120.5 C 142.167,121.5 141.5,122.167 140.5,122.5C 139.282,121.839 137.949,121.172 136.5,120.5C 136.833,120.167 137.167,119.833 137.5,119.5C 139.265,120.026 140.932,120.359 142.5,120.5 Z"/></g>
<g><path style="opacity:1" fill="#474544" d="M 138.5,124.5 C 137.352,125.164 136.019,125.331 134.5,125C 133.359,125.741 133.359,126.575 134.5,127.5C 134.043,128.298 133.376,128.631 132.5,128.5C 131.687,127.347 130.687,127.347 129.5,128.5C 128.453,127.078 128.453,125.578 129.5,124C 129.974,122.392 130.641,122.226 131.5,123.5C 130.41,124.609 130.41,125.609 131.5,126.5C 132.948,123.733 133.781,121.067 134,118.5C 134.5,119 135,119.5 135.5,120C 134.663,121.011 134.33,122.178 134.5,123.5C 136.099,123.232 137.432,123.566 138.5,124.5 Z"/></g>
<g><path style="opacity:1" fill="#f33a37" d="M 49.5,130.5 C 49.5,136.5 49.5,142.5 49.5,148.5C 48.0296,145.114 47.3629,141.447 47.5,137.5C 47.5286,134.731 48.1952,132.397 49.5,130.5 Z"/></g>
<g><path style="opacity:1" fill="#f64646" d="M 251.5,120.5 C 253,126.26 253.667,132.26 253.5,138.5C 253.499,142.681 253.166,146.681 252.5,150.5C 252.59,140.482 252.257,130.482 251.5,120.5 Z"/></g>
<g><path style="opacity:1" fill="#efeeed" d="M 142.5,118.5 C 142.833,118.5 143.167,118.5 143.5,118.5C 144.167,118.833 144.833,119.167 145.5,119.5C 145.5,120.167 145.5,120.833 145.5,121.5C 138.79,127.278 131.956,132.944 125,138.5C 126.137,144.04 126.97,149.706 127.5,155.5C 137.833,155.5 148.167,155.5 158.5,155.5C 160.17,144.653 162.67,133.986 166,123.5C 169.621,127.91 173.121,132.41 176.5,137C 173.04,142.752 169.707,148.585 166.5,154.5C 170.107,155.489 173.774,155.823 177.5,155.5C 177.5,156.167 177.5,156.833 177.5,157.5C 175.857,157.48 174.524,158.147 173.5,159.5C 171.833,156.833 170.167,156.833 168.5,159.5C 166.833,156.833 165.167,156.833 163.5,159.5C 161.833,156.833 160.167,156.833 158.5,159.5C 156.833,156.833 155.167,156.833 153.5,159.5C 151.833,156.833 150.167,156.833 148.5,159.5C 146.833,156.833 145.167,156.833 143.5,159.5C 141.833,156.833 140.167,156.833 138.5,159.5C 136.833,156.833 135.167,156.833 133.5,159.5C 131.833,156.833 130.167,156.833 128.5,159.5C 126.833,156.833 125.167,156.833 123.5,159.5C 121.833,156.833 120.167,156.833 118.5,159.5C 116.833,156.833 115.167,156.833 113.5,159.5C 111.833,156.833 110.167,156.833 108.5,159.5C 106.833,156.833 105.167,156.833 103.5,159.5C 102.476,158.147 101.143,157.48 99.5,157.5C 99.189,156.522 98.5223,155.855 97.5,155.5C 96.2241,156.614 96.2241,157.614 97.5,158.5C 96.5946,159.964 96.5946,161.298 97.5,162.5C 95.8908,162.906 94.5575,162.906 93.5,162.5C 93.9767,161.522 94.6433,160.689 95.5,160C 95.1667,158.333 94.8333,156.667 94.5,155C 96.1083,154.531 97.7749,153.865 99.5,153C 98.2889,151.887 98.2889,150.72 99.5,149.5C 99.0431,148.702 98.3764,148.369 97.5,148.5C 98.8333,146.833 100.167,145.167 101.5,143.5C 102.043,143.56 102.376,143.893 102.5,144.5C 101.907,146.382 101.24,148.215 100.5,150C 101,150.5 101.5,151 102,151.5C 102.967,150.322 103.467,148.989 103.5,147.5C 104.208,150.027 105.875,152.361 108.5,154.5C 112.459,155.66 116.459,155.827 120.5,155C 117.024,149.211 113.691,143.377 110.5,137.5C 113.411,132.58 116.744,127.913 120.5,123.5C 121.386,124.325 121.719,125.325 121.5,126.5C 121.5,127.167 121.5,127.833 121.5,128.5C 121.359,130.068 121.026,131.735 120.5,133.5C 120.957,134.298 121.624,134.631 122.5,134.5C 121.722,135.156 121.056,135.989 120.5,137C 120.833,137.5 121.167,138 121.5,138.5C 122.981,136.851 124.648,135.518 126.5,134.5C 127.74,133.341 129.074,132.341 130.5,131.5C 130.5,130.833 130.5,130.167 130.5,129.5C 131.167,129.167 131.833,128.833 132.5,128.5C 133.376,128.631 134.043,128.298 134.5,127.5C 133.359,126.575 133.359,125.741 134.5,125C 136.019,125.331 137.352,125.164 138.5,124.5C 139.167,123.833 139.833,123.167 140.5,122.5C 141.5,122.167 142.167,121.5 142.5,120.5C 142.5,119.833 142.5,119.167 142.5,118.5 Z"/></g>
<g><path style="opacity:1" fill="#464342" d="M 117.5,131.5 C 118.497,131.47 119.164,131.97 119.5,133C 119.484,135.318 119.484,137.651 119.5,140C 118.975,140.692 118.308,141.192 117.5,141.5C 116.264,140.754 114.93,140.421 113.5,140.5C 113.201,138.396 113.534,136.396 114.5,134.5C 116.895,135.523 117.895,134.523 117.5,131.5 Z"/></g>
<g><path style="opacity:1" fill="#f0efee" d="M 115.5,136.5 C 117.76,137.238 117.927,138.238 116,139.5C 114.272,138.648 114.105,137.648 115.5,136.5 Z"/></g>
<g><path style="opacity:1" fill="#2b2928" d="M 126.5,134.5 C 124.663,134.361 124.33,133.694 125.5,132.5C 126.298,132.957 126.631,133.624 126.5,134.5 Z"/></g>
<g><path style="opacity:1" fill="#3c3a38" d="M 121.5,128.5 C 122.376,128.369 123.043,128.702 123.5,129.5C 122.691,131.071 122.357,132.738 122.5,134.5C 121.624,134.631 120.957,134.298 120.5,133.5C 121.026,131.735 121.359,130.068 121.5,128.5 Z"/></g>
<g><path style="opacity:1" fill="#2a2726" d="M 130.5,129.5 C 130.5,130.167 130.5,130.833 130.5,131.5C 127.833,130.833 127.833,130.167 130.5,129.5 Z"/></g>
<g><path style="opacity:1" fill="#3d3b3a" d="M 125.5,125.5 C 126.376,125.369 127.043,125.702 127.5,126.5C 126.289,127.72 126.289,128.887 127.5,130C 126.975,130.692 126.308,131.192 125.5,131.5C 125.08,129.674 125.08,127.674 125.5,125.5 Z"/></g>
<g><path style="opacity:1" fill="#2b2a29" d="M 100.5,152.5 C 102.337,152.639 102.67,153.306 101.5,154.5C 100.702,154.043 100.369,153.376 100.5,152.5 Z"/></g>
<g><path style="opacity:1" fill="#484644" d="M 99.5,157.5 C 98.8333,157.833 98.1667,158.167 97.5,158.5C 96.2241,157.614 96.2241,156.614 97.5,155.5C 98.5223,155.855 99.189,156.522 99.5,157.5 Z"/></g>
<g><path style="opacity:1" fill="#f0efed" d="M 195.5,163.5 C 195.5,162.167 195.5,160.833 195.5,159.5C 194.5,159.5 193.5,159.5 192.5,159.5C 193.209,158.596 194.209,158.263 195.5,158.5C 195.5,157.5 195.5,156.5 195.5,155.5C 196.833,155.5 198.167,155.5 199.5,155.5C 199.5,159.167 199.5,162.833 199.5,166.5C 198.167,166.5 196.833,166.5 195.5,166.5C 195.5,165.5 195.5,164.5 195.5,163.5 Z"/></g>
<g><path style="opacity:1" fill="#2d2a29" d="M 190.5,164.5 C 190.369,163.624 190.702,162.957 191.5,162.5C 192.736,163.246 194.07,163.579 195.5,163.5C 195.5,164.5 195.5,165.5 195.5,166.5C 196.833,166.5 198.167,166.5 199.5,166.5C 199.5,162.833 199.5,159.167 199.5,155.5C 198.167,155.5 196.833,155.5 195.5,155.5C 195.5,156.5 195.5,157.5 195.5,158.5C 194.209,158.263 193.209,158.596 192.5,159.5C 191.167,159.5 190.5,158.833 190.5,157.5C 192.176,156.817 192.843,155.483 192.5,153.5C 196.167,153.5 199.833,153.5 203.5,153.5C 203.5,158.5 203.5,163.5 203.5,168.5C 199.833,168.5 196.167,168.5 192.5,168.5C 192.843,166.517 192.176,165.183 190.5,164.5 Z"/></g>
<g><path style="opacity:1" fill="#767473" d="M 99.5,157.5 C 101.143,157.48 102.476,158.147 103.5,159.5C 105.167,156.833 106.833,156.833 108.5,159.5C 110.167,156.833 111.833,156.833 113.5,159.5C 115.167,156.833 116.833,156.833 118.5,159.5C 120.167,156.833 121.833,156.833 123.5,159.5C 125.167,156.833 126.833,156.833 128.5,159.5C 130.167,156.833 131.833,156.833 133.5,159.5C 135.167,156.833 136.833,156.833 138.5,159.5C 140.167,156.833 141.833,156.833 143.5,159.5C 145.167,156.833 146.833,156.833 148.5,159.5C 150.167,156.833 151.833,156.833 153.5,159.5C 155.167,156.833 156.833,156.833 158.5,159.5C 160.167,156.833 161.833,156.833 163.5,159.5C 165.167,156.833 166.833,156.833 168.5,159.5C 170.167,156.833 171.833,156.833 173.5,159.5C 174.524,158.147 175.857,157.48 177.5,157.5C 177.369,158.376 177.702,159.043 178.5,159.5C 180.167,156.833 181.833,156.833 183.5,159.5C 185.167,156.833 186.833,156.833 188.5,159.5C 189.182,158.757 189.849,158.091 190.5,157.5C 190.5,158.833 191.167,159.5 192.5,159.5C 193.5,159.5 194.5,159.5 195.5,159.5C 195.5,160.833 195.5,162.167 195.5,163.5C 194.07,163.579 192.736,163.246 191.5,162.5C 190.702,162.957 190.369,163.624 190.5,164.5C 188.694,161.662 187.694,161.995 187.5,165.5C 186.5,165.5 185.5,165.5 184.5,165.5C 183.833,161.5 183.167,161.5 182.5,165.5C 181.5,165.5 180.5,165.5 179.5,165.5C 178.833,161.5 178.167,161.5 177.5,165.5C 176.5,165.5 175.5,165.5 174.5,165.5C 173.833,161.5 173.167,161.5 172.5,165.5C 171.5,165.5 170.5,165.5 169.5,165.5C 169.351,161.877 168.184,161.543 166,164.5C 163.816,161.543 162.649,161.877 162.5,165.5C 161.5,165.5 160.5,165.5 159.5,165.5C 158.833,161.5 158.167,161.5 157.5,165.5C 156.5,165.5 155.5,165.5 154.5,165.5C 153.833,161.5 153.167,161.5 152.5,165.5C 151.5,165.5 150.5,165.5 149.5,165.5C 149.351,161.877 148.184,161.543 146,164.5C 143.816,161.543 142.649,161.877 142.5,165.5C 141.5,165.5 140.5,165.5 139.5,165.5C 139.351,161.877 138.184,161.543 136,164.5C 135.05,163.978 134.216,163.311 133.5,162.5C 131.833,165.167 130.167,165.167 128.5,162.5C 126.833,165.167 125.167,165.167 123.5,162.5C 121.833,165.167 120.167,165.167 118.5,162.5C 117.614,163.325 117.281,164.325 117.5,165.5C 116.5,165.5 115.5,165.5 114.5,165.5C 114.351,161.877 113.184,161.543 111,164.5C 108.816,161.543 107.649,161.877 107.5,165.5C 106.5,165.5 105.5,165.5 104.5,165.5C 103.833,161.5 103.167,161.5 102.5,165.5C 101.5,165.5 100.5,165.5 99.5,165.5C 99.4802,163.857 100.147,162.524 101.5,161.5C 100.147,160.476 99.4802,159.143 99.5,157.5 Z"/></g>
<g><path style="opacity:1" fill="#383534" d="M 97.5,148.5 C 98.3764,148.369 99.0431,148.702 99.5,149.5C 98.2889,150.72 98.2889,151.887 99.5,153C 97.7749,153.865 96.1083,154.531 94.5,155C 94.8333,156.667 95.1667,158.333 95.5,160C 94.6433,160.689 93.9767,161.522 93.5,162.5C 94.5575,162.906 95.8908,162.906 97.5,162.5C 97.5,163.5 97.5,164.5 97.5,165.5C 96.1266,165.343 94.7932,165.51 93.5,166C 91.8789,169.15 89.5455,169.984 86.5,168.5C 84.8333,169.833 83.1667,171.167 81.5,172.5C 80.018,170.517 78.3513,168.684 76.5,167C 78,165.5 79.5,164 81,162.5C 80.3456,158.91 81.8456,156.244 85.5,154.5C 86.4776,154.977 87.3109,155.643 88,156.5C 88.6891,155.643 89.5224,154.977 90.5,154.5C 90.5398,156.621 91.0398,158.621 92,160.5C 93.0761,157.64 93.9095,154.64 94.5,151.5C 96.8948,152.523 97.8948,151.523 97.5,148.5 Z"/></g>
<g><path style="opacity:1" fill="#f2f0ef" d="M 83.5,157.5 C 88.6291,158.868 90.9625,162.035 90.5,167C 86.8406,165.85 84.1739,163.35 82.5,159.5C 82.8627,158.817 83.1961,158.15 83.5,157.5 Z"/></g>
<g><path style="opacity:1" fill="#201b18" d="M 112.5,166.5 C 132.844,166.167 153.178,166.5 173.5,167.5C 175.835,171.34 176.835,175.507 176.5,180C 175.135,192.811 174.135,205.644 173.5,218.5C 169.833,218.5 166.167,218.5 162.5,218.5C 162.919,207.483 163.586,196.483 164.5,185.5C 150.167,185.5 135.833,185.5 121.5,185.5C 121.973,196.896 122.973,208.229 124.5,219.5C 120.563,219.793 116.73,219.46 113,218.5C 111.954,205.656 110.787,192.822 109.5,180C 109.785,175.318 110.785,170.818 112.5,166.5 Z"/></g>
<g><path style="opacity:1" fill="#d47877" d="M 109.5,224.5 C 111.027,224.427 112.027,225.094 112.5,226.5C 110.973,226.573 109.973,225.906 109.5,224.5 Z"/></g>
<g><path style="opacity:1" fill="#d48883" d="M 124.5,228.5 C 133.46,229.415 142.46,229.748 151.5,229.5C 143.344,230.657 135.01,230.823 126.5,230C 125.584,229.722 124.918,229.222 124.5,228.5 Z"/></g>
<g><path style="opacity:1" fill="#e8807b" d="M 181.5,244.5 C 181.027,245.906 180.027,246.573 178.5,246.5C 178.973,245.094 179.973,244.427 181.5,244.5 Z"/></g>
<g><path style="opacity:1" fill="#eb8b88" d="M 161.5,250.5 C 159.485,251.924 157.152,252.59 154.5,252.5C 156.515,251.076 158.848,250.41 161.5,250.5 Z"/></g>
<g><path style="opacity:0.424" fill="#5e5f5e" d="M 270.5,273.5 C 270.833,273.5 271.167,273.5 271.5,273.5C 271.315,274.17 270.981,274.17 270.5,273.5 Z"/></g>
<g><path style="opacity:0.4" fill="#666666" d="M 10.5,275.5 C 10.8333,275.5 11.1667,275.5 11.5,275.5C 96.8333,276.833 182.167,276.833 267.5,275.5C 267.833,275.5 268.167,275.5 268.5,275.5C 268.082,276.222 267.416,276.722 266.5,277C 182.167,277.667 97.8333,277.667 13.5,277C 12.2625,276.768 11.2625,276.268 10.5,275.5 Z"/></g>
</svg>
