<?xml version="1.0" encoding="UTF-8"?>
<!DOCTYPE svg PUBLIC "-//W3C//DTD SVG 1.1//EN" "http://www.w3.org/Graphics/SVG/1.1/DTD/svg11.dtd">
<svg xmlns="http://www.w3.org/2000/svg" version="1.1" width="283px" height="283px" style="shape-rendering:geometricPrecision; text-rendering:geometricPrecision; image-rendering:optimizeQuality; fill-rule:evenodd; clip-rule:evenodd" xmlns:xlink="http://www.w3.org/1999/xlink">
<g><path style="opacity:1" fill="#eaeae9" d="M 277.5,10.5 C 278.831,96.5123 278.831,182.512 277.5,268.5C 276.167,268.833 276.167,269.167 277.5,269.5C 277.573,271.027 276.906,272.027 275.5,272.5C 275.167,271.167 274.833,271.167 274.5,272.5C 273.833,272.5 273.5,272.833 273.5,273.5C 272.167,273.833 272.167,274.167 273.5,274.5C 273.158,275.338 272.492,275.672 271.5,275.5C 269.5,275.833 267.5,276.167 265.5,276.5C 181.499,276.667 97.4993,276.5 13.5,276C 12.4734,275.487 11.4734,274.987 10.5,274.5C 9.74597,272.495 8.57931,271.828 7,272.5C 5.96141,271.756 5.46141,270.756 5.5,269.5C 6.83333,269.167 6.83333,268.833 5.5,268.5C 4.16667,182.833 4.16667,97.1667 5.5,11.5C 6.83333,11.1667 6.83333,10.8333 5.5,10.5C 5.52679,7.60972 6.69346,6.60972 9,7.5C 10.1192,6.44786 10.6192,5.2812 10.5,4C 12.087,3.13759 13.7536,2.47093 15.5,2C 99.5,1.33333 183.5,1.33333 267.5,2C 269.246,2.47093 270.913,3.13759 272.5,4C 273.833,4.66667 273.833,5.33333 272.5,6C 273.469,7.75827 274.636,8.25827 276,7.5C 277.039,8.24382 277.539,9.24382 277.5,10.5 Z"/></g>
<g><path style="opacity:1" fill="#131313" d="M 15.5,6.5 C 99.1673,6.33334 182.834,6.5 266.5,7C 269.196,7.68979 271.363,9.18979 273,11.5C 274.661,96.0854 274.994,180.752 274,265.5C 272.86,269.307 270.36,271.807 266.5,273C 183.167,273.667 99.8333,273.667 16.5,273C 13.8976,272.117 11.7309,270.617 10,268.5C 8.3415,183.557 8.00816,98.5567 9,13.5C 10.6941,10.6424 12.8607,8.30904 15.5,6.5 Z"/></g>
<g><path style="opacity:1" fill="#fcfcfb" d="M 15.5,11.5 C 99.5007,11.3333 183.501,11.5 267.5,12C 268,12.5 268.5,13 269,13.5C 270.661,97.0853 270.994,180.752 270,264.5C 268.833,265.667 267.667,266.833 266.5,268C 183.167,268.667 99.8333,268.667 16.5,268C 15.5838,267.626 14.7504,267.126 14,266.5C 12.3416,182.89 12.0083,99.2234 13,15.5C 13.6622,14.0161 14.4955,12.6828 15.5,11.5 Z"/></g>
<g><path style="opacity:0.29" fill="#838383" d="M 5.5,10.5 C 5.5,10.8333 5.5,11.1667 5.5,11.5C 4.16667,97.1667 4.16667,182.833 5.5,268.5C 5.5,268.833 5.5,269.167 5.5,269.5C 4.77842,269.082 4.27842,268.416 4,267.5C 3.33333,182.5 3.33333,97.5 4,12.5C 4.27842,11.5842 4.77842,10.9175 5.5,10.5 Z"/></g>
<g><path style="opacity:0.361" fill="#747472" d="M 277.5,10.5 C 278.222,10.9175 278.722,11.5842 279,12.5C 279.667,97.5 279.667,182.5 279,267.5C 278.722,268.416 278.222,269.082 277.5,269.5C 277.5,269.167 277.5,268.833 277.5,268.5C 278.831,182.512 278.831,96.5123 277.5,10.5 Z"/></g>
<g><path style="opacity:1" fill="#e54f52" d="M 155.5,27.5 C 145.5,26.1667 135.5,26.1667 125.5,27.5C 135.505,24.872 145.505,24.872 155.5,27.5 Z"/></g>
<g><path style="opacity:1" fill="#fb070d" d="M 155.5,27.5 C 207.088,35.9089 239.588,65.5756 253,116.5C 261.151,176.549 238.151,219.549 184,245.5C 128.151,264.262 82.4848,250.262 47,203.5C 24.1298,166.581 21.6298,128.248 39.5,88.5C 58.3239,53.9701 86.9906,33.6368 125.5,27.5C 135.5,26.1667 145.5,26.1667 155.5,27.5 Z"/></g>
<g><path style="opacity:1" fill="#fdfcfb" d="M 159.5,139.5 C 159.171,133.794 159.505,128.128 160.5,122.5C 166.167,127.833 171.833,133.167 177.5,138.5C 185.319,131.181 192.986,123.681 200.5,116C 181,97.1667 161.5,78.3333 142,59.5C 132.328,70.3387 122.161,80.672 111.5,90.5C 103.368,82.8691 95.3684,75.0358 87.5,67C 113.11,48.5854 141.11,44.2521 171.5,54C 219.421,74.9953 238.587,111.495 229,163.5C 226.119,173.929 221.619,183.596 215.5,192.5C 214.167,193.833 212.833,193.833 211.5,192.5C 194.173,174.839 176.839,157.173 159.5,139.5 Z"/></g>
<g><path style="opacity:1" fill="#211b18" d="M 159.5,139.5 C 147.591,128.445 135.925,117.112 124.5,105.5C 123.571,104.311 123.238,102.978 123.5,101.5C 118.988,100.272 115.655,97.6053 113.5,93.5C 113.5,92.1667 112.833,91.5 111.5,91.5C 111.5,91.1667 111.5,90.8333 111.5,90.5C 122.161,80.672 132.328,70.3387 142,59.5C 161.5,78.3333 181,97.1667 200.5,116C 192.986,123.681 185.319,131.181 177.5,138.5C 171.833,133.167 166.167,127.833 160.5,122.5C 159.505,128.128 159.171,133.794 159.5,139.5 Z"/></g>
<g><path style="opacity:1" fill="#fdfcfc" d="M 95.5,108.5 C 91.6269,111.186 88.7936,114.519 87,118.5C 94.0304,125.865 101.364,132.865 109,139.5C 111.705,136.964 114.205,134.297 116.5,131.5C 120.145,133.671 123.478,136.338 126.5,139.5C 126.5,166.5 126.5,193.5 126.5,220.5C 137.5,220.5 148.5,220.5 159.5,220.5C 160.167,205.167 160.833,189.833 161.5,174.5C 173.452,186.452 185.452,198.452 197.5,210.5C 184.902,221.482 170.236,227.815 153.5,229.5C 146.543,230.386 139.543,230.72 132.5,230.5C 95.4412,224.862 69.9412,204.529 56,169.5C 48.2654,143.916 50.2654,119.249 62,95.5C 64.3608,91.4333 67.1941,87.7667 70.5,84.5C 79.1838,92.1848 87.5171,100.185 95.5,108.5 Z"/></g>
<g><path style="opacity:1" fill="#7f1611" d="M 111.5,91.5 C 112.833,91.5 113.5,92.1667 113.5,93.5C 112.167,93.5 111.5,92.8333 111.5,91.5 Z"/></g>
<g><path style="opacity:1" fill="#241d1b" d="M 95.5,108.5 C 102.075,115.075 108.742,121.742 115.5,128.5C 116.127,129.417 116.461,130.417 116.5,131.5C 114.205,134.297 111.705,136.964 109,139.5C 101.364,132.865 94.0304,125.865 87,118.5C 88.7936,114.519 91.6269,111.186 95.5,108.5 Z"/></g>
<g><path style="opacity:1" fill="#777472" d="M 126.5,139.5 C 127.338,139.842 127.672,140.508 127.5,141.5C 127.5,167.5 127.5,193.5 127.5,219.5C 138.167,219.5 148.833,219.5 159.5,219.5C 159.5,219.833 159.5,220.167 159.5,220.5C 148.5,220.5 137.5,220.5 126.5,220.5C 126.5,193.5 126.5,166.5 126.5,139.5 Z"/></g>
<g><path style="opacity:1" fill="#1f1a17" d="M 127.5,141.5 C 138.833,151.5 149.5,162.167 159.5,173.5C 159.5,188.833 159.5,204.167 159.5,219.5C 148.833,219.5 138.167,219.5 127.5,219.5C 127.5,193.5 127.5,167.5 127.5,141.5 Z"/></g>
<g><path style="opacity:1" fill="#b6b2b1" d="M 159.5,173.5 C 160.492,173.328 161.158,173.662 161.5,174.5C 160.833,189.833 160.167,205.167 159.5,220.5C 159.5,220.167 159.5,219.833 159.5,219.5C 159.5,204.167 159.5,188.833 159.5,173.5 Z"/></g>
<g><path style="opacity:1" fill="#c83639" d="M 153.5,229.5 C 150.402,230.821 146.902,231.488 143,231.5C 139.317,231.499 135.817,231.165 132.5,230.5C 139.543,230.72 146.543,230.386 153.5,229.5 Z"/></g>
<g><path style="opacity:0.424" fill="#616261" d="M 274.5,272.5 C 274.833,272.5 275.167,272.5 275.5,272.5C 275.315,273.17 274.981,273.17 274.5,272.5 Z"/></g>
<g><path style="opacity:0.424" fill="#616261" d="M 273.5,273.5 C 273.833,273.5 274.167,273.5 274.5,273.5C 274.315,274.17 273.981,274.17 273.5,273.5 Z"/></g>
<g><path style="opacity:1" fill="#c0bebf" d="M 10.5,274.5 C 11.4734,274.987 12.4734,275.487 13.5,276C 97.4993,276.5 181.499,276.667 265.5,276.5C 182.833,277.167 100.167,277.833 17.5,278.5C 15.0763,277.97 12.743,277.136 10.5,276C 9.26166,275.31 9.26166,274.81 10.5,274.5 Z"/></g>
<g><path style="opacity:0.243" fill="#918f90" d="M 271.5,275.5 C 270.319,277.067 268.653,277.901 266.5,278C 183.501,278.5 100.501,278.667 17.5,278.5C 100.167,277.833 182.833,277.167 265.5,276.5C 267.5,276.167 269.5,275.833 271.5,275.5 Z"/></g>
</svg>
