<?xml version="1.0" encoding="UTF-8"?>
<!DOCTYPE svg PUBLIC "-//W3C//DTD SVG 1.1//EN" "http://www.w3.org/Graphics/SVG/1.1/DTD/svg11.dtd">
<svg xmlns="http://www.w3.org/2000/svg" version="1.1" width="120px" height="120px" style="shape-rendering:geometricPrecision; text-rendering:geometricPrecision; image-rendering:optimizeQuality; fill-rule:evenodd; clip-rule:evenodd" xmlns:xlink="http://www.w3.org/1999/xlink">
<g><path style="opacity:0.684" fill="#fcfc00" d="M 55.5,-0.5 C 57.8333,-0.5 60.1667,-0.5 62.5,-0.5C 81.5273,18.8601 100.527,38.1935 119.5,57.5C 119.5,58.5 119.5,59.5 119.5,60.5C 106.2,73.9677 93.0337,87.6344 80,101.5C 73.9043,108.102 67.4043,114.102 60.5,119.5C 59.8333,119.5 59.1667,119.5 58.5,119.5C 57.7375,118.732 56.7375,118.232 55.5,118C 36.9653,99.2983 18.2986,80.7983 -0.5,62.5C -0.5,60.1667 -0.5,57.8333 -0.5,55.5C 18.5,37.1667 37.1667,18.5 55.5,-0.5 Z"/></g>
<g><path style="opacity:1" fill="#262409" d="M 57.5,0.5 C 59.7834,0.60791 61.7834,1.44124 63.5,3C 81,20.5 98.5,38 116,55.5C 118,57.8333 118,60.1667 116,62.5C 98.1667,80.3333 80.3333,98.1667 62.5,116C 60.1667,118 57.8333,118 55.5,116C 38,98.5 20.5,81 3,63.5C 1,60.5 1,57.5 3,54.5C 21.0617,36.2711 39.2283,18.2711 57.5,0.5 Z"/></g>
<g><path style="opacity:1" fill="#fbfb00" d="M 58.5,3.5 C 77.9637,21.1301 96.6304,39.6301 114.5,59C 96.0541,77.4459 77.5541,95.9459 59,114.5C 40.5,96 22,77.5 3.5,59C 22.0351,40.6319 40.3684,22.1319 58.5,3.5 Z"/></g>
<g><path style="opacity:1" fill="#0e0d01" d="M 74.5,32.5 C 79.9251,34.9239 79.5918,37.0906 73.5,39C 63.7263,43.6369 53.893,48.1369 44,52.5C 42.2856,51.9238 41.1189,50.7571 40.5,49C 52.047,43.7253 63.3804,38.2253 74.5,32.5 Z"/></g>
<g><path style="opacity:1" fill="#020200" d="M 29.5,49.5 C 32.1667,49.5 34.8333,49.5 37.5,49.5C 37.5,56.5 37.5,63.5 37.5,70.5C 31.4908,70.6662 25.4908,70.4995 19.5,70C 22.7362,63.0294 26.0695,56.1961 29.5,49.5 Z"/></g>
<g><path style="opacity:1" fill="#262600" d="M 29.5,49.5 C 32.2869,48.5233 35.2869,48.19 38.5,48.5C 38.825,56.0191 38.4916,63.3524 37.5,70.5C 37.5,63.5 37.5,56.5 37.5,49.5C 34.8333,49.5 32.1667,49.5 29.5,49.5 Z"/></g>
<g><path style="opacity:1" fill="#0c0a01" d="M 79.5,48.5 C 82.7766,48.2161 85.9433,48.5495 89,49.5C 91.8938,56.2879 95.0604,62.9546 98.5,69.5C 92.2015,70.4963 85.8682,70.8297 79.5,70.5C 79.5,63.1667 79.5,55.8333 79.5,48.5 Z"/></g>
<g><path style="opacity:1" fill="#1c1a05" d="M 46.5,56.5 C 48.5273,56.3379 50.5273,56.5045 52.5,57C 56.8333,61.6667 61.1667,61.6667 65.5,57C 71.7592,55.7629 75.4259,57.9296 76.5,63.5C 74.557,61.043 72.057,59.7097 69,59.5C 65.4716,60.3658 62.1383,61.6991 59,63.5C 56.1637,61.5261 52.997,60.1928 49.5,59.5C 46.2967,59.7683 43.63,61.1016 41.5,63.5C 40.1667,62.5 40.1667,61.5 41.5,60.5C 43.4992,59.4924 45.1658,58.159 46.5,56.5 Z"/></g>
<g><path style="opacity:1" fill="#181603" d="M 46.5,63.5 C 50.1638,62.9999 53.1638,64.1666 55.5,67C 56.6667,67.1667 57.8333,67.3333 59,67.5C 62.2038,66.6306 65.2038,65.2973 68,63.5C 71.3042,64.6717 74.4709,66.005 77.5,67.5C 77.719,68.675 77.3857,69.675 76.5,70.5C 74.0253,68.6696 71.3586,67.3363 68.5,66.5C 65.4327,68.0667 62.2661,69.4 59,70.5C 55.7339,69.4 52.5673,68.0667 49.5,66.5C 46.6414,67.3363 43.9747,68.6696 41.5,70.5C 40.6143,69.675 40.281,68.675 40.5,67.5C 43.2921,67.3775 45.2921,66.0442 46.5,63.5 Z"/></g>
</svg>
