<?xml version="1.0" encoding="UTF-8"?>
<!DOCTYPE svg PUBLIC "-//W3C//DTD SVG 1.1//EN" "http://www.w3.org/Graphics/SVG/1.1/DTD/svg11.dtd">
<svg xmlns="http://www.w3.org/2000/svg" version="1.1" width="292px" height="293px" style="shape-rendering:geometricPrecision; text-rendering:geometricPrecision; image-rendering:optimizeQuality; fill-rule:evenodd; clip-rule:evenodd" xmlns:xlink="http://www.w3.org/1999/xlink">
<g><path style="opacity:0.016" fill="#c8d9d4" d="M 170.5,11.5 C 171.833,12.1667 171.833,12.1667 170.5,11.5 Z"/></g>
<g><path style="opacity:0.016" fill="#c8d9d4" d="M 194.5,35.5 C 195.833,36.1667 195.833,36.1667 194.5,35.5 Z"/></g>
<g><path style="opacity:0.957" fill="#353432" d="M 170.5,12.5 C 178.167,20.8333 186.167,28.8333 194.5,36.5C 196.833,39.5 199.5,42.1667 202.5,44.5C 204.833,47.5 207.5,50.1667 210.5,52.5C 212.833,55.5 215.5,58.1667 218.5,60.5C 220.833,63.5 223.5,66.1667 226.5,68.5C 228.833,71.5 231.5,74.1667 234.5,76.5C 236.833,79.5 239.5,82.1667 242.5,84.5C 244.833,87.5 247.5,90.1667 250.5,92.5C 252.833,95.5 255.5,98.1667 258.5,100.5C 260.833,103.5 263.5,106.167 266.5,108.5C 271.464,113.965 276.63,119.298 282,124.5C 290.755,137.578 291.755,151.245 285,165.5C 245.528,205.972 205.695,246.139 165.5,286C 160.434,289.072 155.1,291.238 149.5,292.5C 146.167,292.5 142.833,292.5 139.5,292.5C 132.444,290.972 126.111,287.805 120.5,283C 83.3333,245.833 46.1667,208.667 9,171.5C 3.99408,165.62 0.827413,158.953 -0.5,151.5C -0.5,148.833 -0.5,146.167 -0.5,143.5C 0.646784,136.53 3.48012,130.196 8,124.5C 46.1667,86.3333 84.3333,48.1667 122.5,10C 139.134,-0.657366 155.134,0.175967 170.5,12.5 Z"/></g>
<g><path style="opacity:1" fill="#f4e925" d="M 137.5,8.5 C 145.997,7.50849 153.997,9.00849 161.5,13C 200.333,51.8333 239.167,90.6667 278,129.5C 285.292,141.473 285.292,153.473 278,165.5C 239.833,203.667 201.667,241.833 163.5,280C 151.709,288.237 139.709,288.57 127.5,281C 88.6667,242.167 49.8333,203.333 11,164.5C 2.8316,151.033 3.8316,138.366 14,126.5C 50.8333,89.6667 87.6667,52.8333 124.5,16C 128.602,12.9539 132.935,10.4539 137.5,8.5 Z"/></g>
<g><path style="opacity:0.016" fill="#c8d9d4" d="M 202.5,43.5 C 203.833,44.1667 203.833,44.1667 202.5,43.5 Z"/></g>
<g><path style="opacity:0.016" fill="#c8d9d4" d="M 210.5,51.5 C 211.833,52.1667 211.833,52.1667 210.5,51.5 Z"/></g>
<g><path style="opacity:0.016" fill="#c8d9d4" d="M 218.5,59.5 C 219.833,60.1667 219.833,60.1667 218.5,59.5 Z"/></g>
<g><path style="opacity:1" fill="#383536" d="M 109.5,64.5 C 118.167,64.5 126.833,64.5 135.5,64.5C 135.667,85.8359 135.5,107.169 135,128.5C 128.079,140.674 121.412,153.007 115,165.5C 114.5,183.83 114.333,202.164 114.5,220.5C 106.5,220.5 98.5,220.5 90.5,220.5C 90.3334,202.164 90.5001,183.83 91,165.5C 96.7119,153.075 102.712,140.742 109,128.5C 109.5,107.169 109.667,85.8359 109.5,64.5 Z"/></g>
<g><path style="opacity:1" fill="#393737" d="M 177.5,64.5 C 177.333,85.8359 177.5,107.169 178,128.5C 184,141.167 190,153.833 196,166.5C 196.5,184.497 196.667,202.497 196.5,220.5C 188.5,220.5 180.5,220.5 172.5,220.5C 172.83,202.326 172.497,184.326 171.5,166.5C 164.382,153.385 157.716,140.052 151.5,126.5C 151.5,105.833 151.5,85.1667 151.5,64.5C 160.167,64.5 168.833,64.5 177.5,64.5 Z"/></g>
<g><path style="opacity:0.016" fill="#c8d9d4" d="M 226.5,67.5 C 227.833,68.1667 227.833,68.1667 226.5,67.5 Z"/></g>
<g><path style="opacity:1" fill="#6b6955" d="M 142.5,66.5 C 143.748,67.3339 144.415,68.6672 144.5,70.5C 144.167,71.8333 143.833,73.1667 143.5,74.5C 142.52,71.9135 142.187,69.2469 142.5,66.5 Z"/></g>
<g><path style="opacity:1" fill="#d3c949" d="M 177.5,64.5 C 168.833,64.5 160.167,64.5 151.5,64.5C 151.5,85.1667 151.5,105.833 151.5,126.5C 150.503,105.673 150.169,84.6733 150.5,63.5C 159.682,63.1734 168.682,63.5067 177.5,64.5 Z"/></g>
<g><path style="opacity:0.016" fill="#c8d9d4" d="M 234.5,75.5 C 235.833,76.1667 235.833,76.1667 234.5,75.5 Z"/></g>
<g><path style="opacity:0.016" fill="#c8d9d4" d="M 242.5,83.5 C 243.833,84.1667 243.833,84.1667 242.5,83.5 Z"/></g>
<g><path style="opacity:1" fill="#5d5c50" d="M 142.5,82.5 C 143.748,83.3339 144.415,84.6672 144.5,86.5C 144.333,87.8333 144.167,89.1667 144,90.5C 142.625,88.0632 142.125,85.3965 142.5,82.5 Z"/></g>
<g><path style="opacity:0.016" fill="#c8d9d4" d="M 250.5,91.5 C 251.833,92.1667 251.833,92.1667 250.5,91.5 Z"/></g>
<g><path style="opacity:1" fill="#6c6a58" d="M 142.5,97.5 C 143.748,98.3339 144.415,99.6672 144.5,101.5C 144.167,102.833 143.833,104.167 143.5,105.5C 142.52,102.914 142.187,100.247 142.5,97.5 Z"/></g>
<g><path style="opacity:0.016" fill="#c8d9d4" d="M 258.5,99.5 C 259.833,100.167 259.833,100.167 258.5,99.5 Z"/></g>
<g><path style="opacity:0.016" fill="#c8d9d4" d="M 266.5,107.5 C 267.833,108.167 267.833,108.167 266.5,107.5 Z"/></g>
<g><path style="opacity:1" fill="#5d5b4f" d="M 142.5,113.5 C 143.748,114.334 144.415,115.667 144.5,117.5C 144.167,118.833 143.833,120.167 143.5,121.5C 142.52,118.914 142.187,116.247 142.5,113.5 Z"/></g>
<g><path style="opacity:1" fill="#6c6b59" d="M 142.5,128.5 C 143.748,129.334 144.415,130.667 144.5,132.5C 144.167,133.833 143.833,135.167 143.5,136.5C 142.52,133.914 142.187,131.247 142.5,128.5 Z"/></g>
<g><path style="opacity:1" fill="#6c6a56" d="M 142.5,144.5 C 143.748,145.334 144.415,146.667 144.5,148.5C 144.167,149.833 143.833,151.167 143.5,152.5C 142.52,149.914 142.187,147.247 142.5,144.5 Z"/></g>
<g><path style="opacity:1" fill="#6d6b5a" d="M 142.5,159.5 C 143.748,160.334 144.415,161.667 144.5,163.5C 144.167,164.833 143.833,166.167 143.5,167.5C 142.52,164.914 142.187,162.247 142.5,159.5 Z"/></g>
<g><path style="opacity:1" fill="#6a695a" d="M 142.5,175.5 C 143.748,176.334 144.415,177.667 144.5,179.5C 144.167,180.833 143.833,182.167 143.5,183.5C 142.52,180.914 142.187,178.247 142.5,175.5 Z"/></g>
<g><path style="opacity:1" fill="#646350" d="M 142.5,190.5 C 143.765,191.514 144.431,193.014 144.5,195C 144.167,196.5 143.833,198 143.5,199.5C 142.516,196.572 142.183,193.572 142.5,190.5 Z"/></g>
<g><path style="opacity:1" fill="#b2ad5a" d="M 171.5,166.5 C 172.497,184.326 172.83,202.326 172.5,220.5C 180.5,220.5 188.5,220.5 196.5,220.5C 188.35,221.493 180.017,221.826 171.5,221.5C 171.5,203.167 171.5,184.833 171.5,166.5 Z"/></g>
<g><path style="opacity:1" fill="#605e54" d="M 142.5,206.5 C 143.748,207.334 144.415,208.667 144.5,210.5C 144.167,211.833 143.833,213.167 143.5,214.5C 142.52,211.914 142.187,209.247 142.5,206.5 Z"/></g>
</svg>
