<?xml version="1.0" encoding="UTF-8"?>
<!DOCTYPE svg PUBLIC "-//W3C//DTD SVG 1.1//EN" "http://www.w3.org/Graphics/SVG/1.1/DTD/svg11.dtd">
<svg xmlns="http://www.w3.org/2000/svg" version="1.1" width="292px" height="293px" style="shape-rendering:geometricPrecision; text-rendering:geometricPrecision; image-rendering:optimizeQuality; fill-rule:evenodd; clip-rule:evenodd" xmlns:xlink="http://www.w3.org/1999/xlink">
<g><path style="opacity:0.016" fill="#c8d9d4" d="M 170.5,10.5 C 171.833,11.1667 171.833,11.1667 170.5,10.5 Z"/></g>
<g><path style="opacity:0.016" fill="#c8d9d4" d="M 178.5,18.5 C 179.833,19.1667 179.833,19.1667 178.5,18.5 Z"/></g>
<g><path style="opacity:0.016" fill="#c8d9d4" d="M 186.5,26.5 C 187.833,27.1667 187.833,27.1667 186.5,26.5 Z"/></g>
<g><path style="opacity:0.016" fill="#c8d9d4" d="M 194.5,34.5 C 195.833,35.1667 195.833,35.1667 194.5,34.5 Z"/></g>
<g><path style="opacity:0.016" fill="#c8d9d4" d="M 202.5,42.5 C 203.833,43.1667 203.833,43.1667 202.5,42.5 Z"/></g>
<g><path style="opacity:0.016" fill="#c8d9d4" d="M 210.5,50.5 C 211.833,51.1667 211.833,51.1667 210.5,50.5 Z"/></g>
<g><path style="opacity:0.969" fill="#353432" d="M 170.5,11.5 C 172.833,14.5 175.5,17.1667 178.5,19.5C 180.833,22.5 183.5,25.1667 186.5,27.5C 188.833,30.5 191.5,33.1667 194.5,35.5C 196.833,38.5 199.5,41.1667 202.5,43.5C 204.833,46.5 207.5,49.1667 210.5,51.5C 212.833,54.5 215.5,57.1667 218.5,59.5C 220.833,62.5 223.5,65.1667 226.5,67.5C 228.833,70.5 231.5,73.1667 234.5,75.5C 236.833,78.5 239.5,81.1667 242.5,83.5C 244.833,86.5 247.5,89.1667 250.5,91.5C 252.833,94.5 255.5,97.1667 258.5,99.5C 260.833,102.5 263.5,105.167 266.5,107.5C 268.833,110.5 271.5,113.167 274.5,115.5C 291.109,130.592 293.942,147.925 283,167.5C 243.833,206.667 204.667,245.833 165.5,285C 149.784,294.394 134.784,293.394 120.5,282C 83.3333,244.833 46.1667,207.667 9,170.5C 3.99408,164.62 0.827413,157.953 -0.5,150.5C -0.5,147.833 -0.5,145.167 -0.5,142.5C 0.646784,135.53 3.48012,129.196 8,123.5C 46.1667,85.3333 84.3333,47.1667 122.5,9C 139.134,-1.65737 155.134,-0.824033 170.5,11.5 Z"/></g>
<g><path style="opacity:1" fill="#f4e925" d="M 16.5,123.5 C 17.4959,123.414 18.3292,123.748 19,124.5C 21.6415,122.337 23.9748,120.004 26,117.5C 28.0406,119.308 30.2072,119.974 32.5,119.5C 32.8333,118.667 33.1667,117.833 33.5,117C 32.3884,114.924 31.8884,112.757 32,110.5C 33.3333,109.167 34.6667,109.167 36,110.5C 35.3829,108.905 35.7163,107.572 37,106.5C 37.3333,107.167 37.6667,107.833 38,108.5C 38.5,107.333 39.3333,106.5 40.5,106C 39.1667,104.667 39.1667,103.333 40.5,102C 43.1908,102.874 45.8575,103.374 48.5,103.5C 48.8333,102.667 49.1667,101.833 49.5,101C 48.3884,98.924 47.8884,96.7573 48,94.5C 49.3333,93.1667 50.6667,93.1667 52,94.5C 51.3829,92.9052 51.7163,91.5719 53,90.5C 53.3333,91.1667 53.6667,91.8333 54,92.5C 54.5,91.3333 55.3333,90.5 56.5,90C 55.1667,88.6667 55.1667,87.3333 56.5,86C 59.1908,86.8737 61.8575,87.3737 64.5,87.5C 64.8333,86.6667 65.1667,85.8333 65.5,85C 64.3884,82.924 63.8884,80.7573 64,78.5C 65.3333,77.1667 66.6667,77.1667 68,78.5C 67.3829,76.9052 67.7163,75.5719 69,74.5C 69.3333,75.1667 69.6667,75.8333 70,76.5C 70.5,75.3333 71.3333,74.5 72.5,74C 71.6669,71.9189 71.6669,69.7522 72.5,67.5C 90.6065,48.5607 109.273,30.0607 128.5,12C 140.055,5.77875 151.388,6.11208 162.5,13C 201,51.5 239.5,90 278,128.5C 283.648,137.153 284.981,146.487 282,156.5C 281.108,159.952 279.442,162.952 277,165.5C 239.167,203.333 201.333,241.167 163.5,279C 151.721,287.131 139.721,287.465 127.5,280C 88.6667,241.167 49.8333,202.333 11,163.5C 2.23176,148.551 4.06509,135.218 16.5,123.5 Z"/></g>
<g><path style="opacity:0.016" fill="#c8d9d4" d="M 218.5,58.5 C 219.833,59.1667 219.833,59.1667 218.5,58.5 Z"/></g>
<g><path style="opacity:1" fill="#393636" d="M 98.5,65.5 C 106.167,65.5 113.833,65.5 121.5,65.5C 121.5,118.167 121.5,170.833 121.5,223.5C 113.833,223.5 106.167,223.5 98.5,223.5C 98.5,170.833 98.5,118.167 98.5,65.5 Z"/></g>
<g><path style="opacity:1" fill="#3a3737" d="M 153.5,65.5 C 162.167,65.5 170.833,65.5 179.5,65.5C 179.333,87.1692 179.5,108.836 180,130.5C 185.744,142.987 191.744,155.32 198,167.5C 198.5,185.83 198.667,204.164 198.5,222.5C 190.5,222.5 182.5,222.5 174.5,222.5C 174.667,204.164 174.5,185.83 174,167.5C 167.094,155.358 160.427,143.025 154,130.5C 153.5,108.836 153.333,87.1692 153.5,65.5 Z"/></g>
<g><path style="opacity:0.016" fill="#c8d9d4" d="M 226.5,66.5 C 227.833,67.1667 227.833,67.1667 226.5,66.5 Z"/></g>
<g><path style="opacity:1" fill="#60615b" d="M 136.5,67.5 C 137.748,68.3339 138.415,69.6672 138.5,71.5C 138.167,72.8333 137.833,74.1667 137.5,75.5C 136.52,72.9135 136.187,70.2469 136.5,67.5 Z"/></g>
<g><path style="opacity:0.016" fill="#c8d9d4" d="M 234.5,74.5 C 235.833,75.1667 235.833,75.1667 234.5,74.5 Z"/></g>
<g><path style="opacity:0.016" fill="#c8d9d4" d="M 242.5,82.5 C 243.833,83.1667 243.833,83.1667 242.5,82.5 Z"/></g>
<g><path style="opacity:1" fill="#e7db2a" d="M 72.5,67.5 C 71.6669,69.7522 71.6669,71.9189 72.5,74C 71.3333,74.5 70.5,75.3333 70,76.5C 69.6667,75.8333 69.3333,75.1667 69,74.5C 67.7163,75.5719 67.3829,76.9052 68,78.5C 66.6667,77.1667 65.3333,77.1667 64,78.5C 63.8884,80.7573 64.3884,82.924 65.5,85C 65.1667,85.8333 64.8333,86.6667 64.5,87.5C 61.8575,87.3737 59.1908,86.8737 56.5,86C 55.1667,87.3333 55.1667,88.6667 56.5,90C 55.3333,90.5 54.5,91.3333 54,92.5C 53.6667,91.8333 53.3333,91.1667 53,90.5C 51.7163,91.5719 51.3829,92.9052 52,94.5C 50.6667,93.1667 49.3333,93.1667 48,94.5C 47.8884,96.7573 48.3884,98.924 49.5,101C 49.1667,101.833 48.8333,102.667 48.5,103.5C 45.8575,103.374 43.1908,102.874 40.5,102C 39.1667,103.333 39.1667,104.667 40.5,106C 39.3333,106.5 38.5,107.333 38,108.5C 37.6667,107.833 37.3333,107.167 37,106.5C 35.7163,107.572 35.3829,108.905 36,110.5C 34.6667,109.167 33.3333,109.167 32,110.5C 31.8884,112.757 32.3884,114.924 33.5,117C 33.1667,117.833 32.8333,118.667 32.5,119.5C 30.2072,119.974 28.0406,119.308 26,117.5C 23.9748,120.004 21.6415,122.337 19,124.5C 18.3292,123.748 17.4959,123.414 16.5,123.5C 34.8333,104.5 53.5,85.8333 72.5,67.5 Z"/></g>
<g><path style="opacity:1" fill="#696957" d="M 136.5,83.5 C 137.748,84.3339 138.415,85.6672 138.5,87.5C 138.167,88.8333 137.833,90.1667 137.5,91.5C 136.52,88.9135 136.187,86.2469 136.5,83.5 Z"/></g>
<g><path style="opacity:0.016" fill="#c8d9d4" d="M 250.5,90.5 C 251.833,91.1667 251.833,91.1667 250.5,90.5 Z"/></g>
<g><path style="opacity:0.016" fill="#c8d9d4" d="M 258.5,98.5 C 259.833,99.1667 259.833,99.1667 258.5,98.5 Z"/></g>
<g><path style="opacity:1" fill="#616259" d="M 136.5,98.5 C 137.748,99.3339 138.415,100.667 138.5,102.5C 138.167,103.833 137.833,105.167 137.5,106.5C 136.52,103.914 136.187,101.247 136.5,98.5 Z"/></g>
<g><path style="opacity:0.016" fill="#c8d9d4" d="M 266.5,106.5 C 267.833,107.167 267.833,107.167 266.5,106.5 Z"/></g>
<g><path style="opacity:0.016" fill="#c8d9d4" d="M 274.5,114.5 C 275.833,115.167 275.833,115.167 274.5,114.5 Z"/></g>
<g><path style="opacity:1" fill="#686857" d="M 136.5,114.5 C 137.748,115.334 138.415,116.667 138.5,118.5C 138.167,119.833 137.833,121.167 137.5,122.5C 136.52,119.914 136.187,117.247 136.5,114.5 Z"/></g>
<g><path style="opacity:1" fill="#686953" d="M 137.5,129.5 C 140.006,131.688 140.673,134.355 139.5,137.5C 138.205,134.988 137.539,132.321 137.5,129.5 Z"/></g>
<g><path style="opacity:1" fill="#57574b" d="M 141.5,144.5 C 144.135,146.429 144.968,149.095 144,152.5C 142.856,149.92 142.022,147.253 141.5,144.5 Z"/></g>
<g><path style="opacity:1" fill="#64634f" d="M 145.5,159.5 C 146.75,159.577 147.583,160.244 148,161.5C 148.346,163.218 148.846,164.885 149.5,166.5C 149.167,166.833 148.833,167.167 148.5,167.5C 147.103,164.974 146.103,162.308 145.5,159.5 Z"/></g>
<g><path style="opacity:1" fill="#656557" d="M 147.5,174.5 C 148.748,175.334 149.415,176.667 149.5,178.5C 149.167,179.833 148.833,181.167 148.5,182.5C 147.52,179.914 147.187,177.247 147.5,174.5 Z"/></g>
<g><path style="opacity:1" fill="#716f55" d="M 147.5,190.5 C 148.748,191.334 149.415,192.667 149.5,194.5C 149.167,195.833 148.833,197.167 148.5,198.5C 147.52,195.914 147.187,193.247 147.5,190.5 Z"/></g>
<g><path style="opacity:1" fill="#5a5847" d="M 148.5,205.5 C 149.8,208.024 149.8,210.691 148.5,213.5C 147.271,210.801 147.271,208.135 148.5,205.5 Z"/></g>
<g><path style="opacity:1" fill="#a5a15c" d="M 133.5,211.5 C 134.586,211.62 135.253,212.287 135.5,213.5C 135.167,214.167 134.833,214.833 134.5,215.5C 133.571,214.311 133.238,212.978 133.5,211.5 Z"/></g>
<g><path style="opacity:1" fill="#a5a05e" d="M 133.5,219.5 C 134.586,219.62 135.253,220.287 135.5,221.5C 135.167,222.167 134.833,222.833 134.5,223.5C 133.571,222.311 133.238,220.978 133.5,219.5 Z"/></g>
</svg>
