<?xml version="1.0" encoding="UTF-8"?>
<!DOCTYPE svg PUBLIC "-//W3C//DTD SVG 1.1//EN" "http://www.w3.org/Graphics/SVG/1.1/DTD/svg11.dtd">
<svg xmlns="http://www.w3.org/2000/svg" version="1.1" width="283px" height="283px" style="shape-rendering:geometricPrecision; text-rendering:geometricPrecision; image-rendering:optimizeQuality; fill-rule:evenodd; clip-rule:evenodd" xmlns:xlink="http://www.w3.org/1999/xlink">
<g><path style="opacity:0.424" fill="#626262" d="M 267.5,1.5 C 184.001,2.333 100.334,2.833 16.5,3C 15.0993,3.4101 13.766,3.9101 12.5,4.5C 12.1667,4.5 11.8333,4.5 11.5,4.5C 12.347,3.03374 13.6803,2.20041 15.5,2C 99.4993,1.5 183.499,1.33334 267.5,1.5 Z"/></g>
<g><path style="opacity:1" fill="#f8f8f8" d="M 267.5,1.5 C 273.072,2.77864 276.738,6.11198 278.5,11.5C 279.656,95.8118 279.822,180.145 279,264.5C 278.392,266.154 277.892,267.821 277.5,269.5C 276.167,269.833 276.167,270.167 277.5,270.5C 277.5,272.5 276.5,273.5 274.5,273.5C 274.167,272.167 273.833,272.167 273.5,273.5C 272.833,273.5 272.5,273.833 272.5,274.5C 270.412,275.939 268.079,276.606 265.5,276.5C 181.833,276.667 98.166,276.5 14.5,276C 11.8936,275.208 9.89361,273.708 8.5,271.5C 7.99236,269.767 7.15902,269.434 6,270.5C 5.53566,269.906 5.36899,269.239 5.5,268.5C 5.5,267.167 5.5,265.833 5.5,264.5C 5.5,180.167 5.5,95.8333 5.5,11.5C 6.09221,7.91111 8.09221,5.57777 11.5,4.5C 11.8333,5.83333 12.1667,5.83333 12.5,4.5C 13.766,3.9101 15.0993,3.4101 16.5,3C 100.334,2.833 184.001,2.333 267.5,1.5 Z"/></g>
<g><path style="opacity:1" fill="#1c1c1c" d="M 16.5,6.5 C 100.167,6.33334 183.834,6.5 267.5,7C 271.333,8.16667 273.833,10.6667 275,14.5C 275.667,97.8333 275.667,181.167 275,264.5C 273.969,267.539 272.135,270.039 269.5,272C 185.223,273.658 100.89,273.992 16.5,273C 12.7811,271.737 10.2811,269.237 9,265.5C 8.33333,181.833 8.33333,98.1667 9,14.5C 10.3532,10.6499 12.8532,7.9832 16.5,6.5 Z"/></g>
<g><path style="opacity:1" fill="#fefdfd" d="M 16.5,11.5 C 100.167,11.3333 183.834,11.5 267.5,12C 268.333,12.8333 269.167,13.6667 270,14.5C 270.667,98.1667 270.667,181.833 270,265.5C 269.167,266.333 268.333,267.167 267.5,268C 183.833,268.667 100.167,268.667 16.5,268C 15.6667,267.167 14.8333,266.333 14,265.5C 13.3333,181.833 13.3333,98.1667 14,14.5C 15.045,13.6266 15.8783,12.6266 16.5,11.5 Z"/></g>
<g><path style="opacity:1" fill="#646464" d="M 3.5,17.5 C 4.16667,99.8333 4.83333,182.167 5.5,264.5C 5.5,265.833 5.5,267.167 5.5,268.5C 4.77842,268.082 4.27842,267.416 4,266.5C 3.5,183.501 3.33334,100.501 3.5,17.5 Z"/></g>
<g><path style="opacity:1" fill="#e9e8e8" d="M 5.5,11.5 C 5.5,95.8333 5.5,180.167 5.5,264.5C 4.83333,182.167 4.16667,99.8333 3.5,17.5C 3.25939,15.1016 3.92606,13.1016 5.5,11.5 Z"/></g>
<g><path style="opacity:0.306" fill="#838280" d="M 278.5,11.5 C 279.268,12.2625 279.768,13.2625 280,14.5C 280.667,98.1667 280.667,181.833 280,265.5C 279.626,267.491 278.793,269.158 277.5,270.5C 277.5,270.167 277.5,269.833 277.5,269.5C 277.892,267.821 278.392,266.154 279,264.5C 279.822,180.145 279.656,95.8118 278.5,11.5 Z"/></g>
<g><path style="opacity:1" fill="#dc3e3d" d="M 157.5,27.5 C 147.167,27.5 136.833,27.5 126.5,27.5C 131.077,26.0103 135.91,25.3437 141,25.5C 146.734,25.4149 152.234,26.0816 157.5,27.5 Z"/></g>
<g><path style="opacity:1" fill="#fb070d" d="M 126.5,27.5 C 136.833,27.5 147.167,27.5 157.5,27.5C 194.079,33.0453 221.912,51.712 241,83.5C 247.646,94.6028 251.812,106.603 253.5,119.5C 253.362,124.414 254.028,129.081 255.5,133.5C 255.98,181.396 235.647,217.229 194.5,241C 149.614,261.709 107.614,257.043 68.5,227C 34.0019,194.857 21.8352,155.691 32,109.5C 44.4484,69.3853 70.6151,42.8853 110.5,30C 115.686,28.2154 121.02,27.3821 126.5,27.5 Z"/></g>
<g><path style="opacity:1" fill="#fdfbfb" d="M 128.5,49.5 C 174.78,46.3779 207.613,65.7112 227,107.5C 237.069,138.29 232.902,166.956 214.5,193.5C 204.729,184.733 195.729,175.399 187.5,165.5C 187.667,144.164 187.5,122.831 187,101.5C 178.743,76.6317 161.577,64.465 135.5,65C 122.603,67.2677 112.603,73.7677 105.5,84.5C 99.521,79.1877 93.8543,73.521 88.5,67.5C 89.8333,65.5 91.5,63.8333 93.5,62.5C 102.23,57.1287 111.564,53.462 121.5,51.5C 124.152,51.5905 126.485,50.9238 128.5,49.5 Z"/></g>
<g><path style="opacity:1" fill="#ef969a" d="M 128.5,49.5 C 126.485,50.9238 124.152,51.5905 121.5,51.5C 123.515,50.0762 125.848,49.4095 128.5,49.5 Z"/></g>
<g><path style="opacity:1" fill="#211c1a" d="M 187.5,165.5 C 180.858,159.859 174.525,153.859 168.5,147.5C 168.667,134.829 168.5,122.162 168,109.5C 164.522,89.3305 152.689,81.4972 132.5,86C 126.733,88.2703 122.399,92.1037 119.5,97.5C 114.527,93.5278 109.86,89.1944 105.5,84.5C 112.603,73.7677 122.603,67.2677 135.5,65C 161.577,64.465 178.743,76.6317 187,101.5C 187.5,122.831 187.667,144.164 187.5,165.5 Z"/></g>
<g><path style="opacity:1" fill="#fbfbfa" d="M 168.5,147.5 C 151.448,131.449 135.115,114.782 119.5,97.5C 122.399,92.1037 126.733,88.2703 132.5,86C 152.689,81.4972 164.522,89.3305 168,109.5C 168.5,122.162 168.667,134.829 168.5,147.5 Z"/></g>
<g><path style="opacity:1" fill="#fcfafa" d="M 96.5,109.5 C 96.6666,129.836 96.5,150.169 96,170.5C 91,165.5 86,160.5 81,155.5C 76.5,160 72,164.5 67.5,169C 80.3743,182.209 93.541,195.042 107,207.5C 119.812,194.688 132.645,181.855 145.5,169C 140.667,164.167 135.833,159.333 131,154.5C 126.297,159.035 121.797,163.702 117.5,168.5C 116.505,155.677 116.171,142.677 116.5,129.5C 134.885,146.884 152.552,164.884 169.5,183.5C 169.5,191.5 169.5,199.5 169.5,207.5C 175.5,207.5 181.5,207.5 187.5,207.5C 187.5,205.167 187.5,202.833 187.5,200.5C 190.797,203.296 193.964,206.296 197,209.5C 197.507,210.996 197.007,212.163 195.5,213C 164.033,233.991 131.366,235.991 97.5,219C 58.0361,192.367 44.2028,155.867 56,109.5C 60.0769,100.34 64.9102,91.6733 70.5,83.5C 79.5481,91.8814 88.2147,100.548 96.5,109.5 Z"/></g>
<g><path style="opacity:1" fill="#201b18" d="M 96.5,109.5 C 103.192,115.858 109.526,122.525 115.5,129.5C 115.167,142.85 115.501,156.183 116.5,169.5C 117.107,169.376 117.44,169.043 117.5,168.5C 121.797,163.702 126.297,159.035 131,154.5C 135.833,159.333 140.667,164.167 145.5,169C 132.645,181.855 119.812,194.688 107,207.5C 93.541,195.042 80.3743,182.209 67.5,169C 72,164.5 76.5,160 81,155.5C 86,160.5 91,165.5 96,170.5C 96.5,150.169 96.6666,129.836 96.5,109.5 Z"/></g>
<g><path style="opacity:1" fill="#e94747" d="M 253.5,119.5 C 254.972,123.919 255.638,128.586 255.5,133.5C 254.028,129.081 253.362,124.414 253.5,119.5 Z"/></g>
<g><path style="opacity:1" fill="#686666" d="M 115.5,129.5 C 115.833,129.5 116.167,129.5 116.5,129.5C 116.171,142.677 116.505,155.677 117.5,168.5C 117.44,169.043 117.107,169.376 116.5,169.5C 115.501,156.183 115.167,142.85 115.5,129.5 Z"/></g>
<g><path style="opacity:1" fill="#231b19" d="M 169.5,183.5 C 175.808,188.807 181.808,194.474 187.5,200.5C 187.5,202.833 187.5,205.167 187.5,207.5C 181.5,207.5 175.5,207.5 169.5,207.5C 169.5,199.5 169.5,191.5 169.5,183.5 Z"/></g>
<g><path style="opacity:0.369" fill="#6f706f" d="M 273.5,273.5 C 273.833,273.5 274.167,273.5 274.5,273.5C 274.315,274.17 273.981,274.17 273.5,273.5 Z"/></g>
<g><path style="opacity:1" fill="#c0bebf" d="M 8.5,271.5 C 9.89361,273.708 11.8936,275.208 14.5,276C 98.166,276.5 181.833,276.667 265.5,276.5C 183.167,277.167 100.833,277.833 18.5,278.5C 14.083,277.793 10.4163,275.793 7.5,272.5C 7.62358,271.893 7.95691,271.56 8.5,271.5 Z"/></g>
<g><path style="opacity:0.243" fill="#918f90" d="M 272.5,274.5 C 272.833,274.5 273.167,274.5 273.5,274.5C 272.025,276.41 270.025,277.576 267.5,278C 184.501,278.5 101.501,278.667 18.5,278.5C 100.833,277.833 183.167,277.167 265.5,276.5C 268.079,276.606 270.412,275.939 272.5,274.5 Z"/></g>
</svg>
