<?xml version="1.0" encoding="UTF-8"?>
<!DOCTYPE svg PUBLIC "-//W3C//DTD SVG 1.1//EN" "http://www.w3.org/Graphics/SVG/1.1/DTD/svg11.dtd">
<svg xmlns="http://www.w3.org/2000/svg" version="1.1" width="375px" height="376px" style="shape-rendering:geometricPrecision; text-rendering:geometricPrecision; image-rendering:optimizeQuality; fill-rule:evenodd; clip-rule:evenodd" xmlns:xlink="http://www.w3.org/1999/xlink">
<g><path style="opacity:1" fill="#f3e823" d="M 185.5,-0.5 C 187.833,-0.5 190.167,-0.5 192.5,-0.5C 194.674,1.08141 197.007,2.58141 199.5,4C 256.279,61.7789 313.445,119.279 371,176.5C 372.459,178.432 373.625,180.432 374.5,182.5C 374.5,185.167 374.5,187.833 374.5,190.5C 373.108,192.273 371.941,194.273 371,196.5C 312.508,255.291 253.675,313.791 194.5,372C 192.273,372.941 190.273,374.108 188.5,375.5C 186.167,375.5 183.833,375.5 181.5,375.5C 178.263,374.208 175.263,372.374 172.5,370C 116.694,313.194 60.5276,256.694 4,200.5C 2.47576,198.102 0.97576,195.769 -0.5,193.5C -0.5,190.167 -0.5,186.833 -0.5,183.5C 0.803551,182.013 1.97022,180.346 3,178.5C 62.1392,120.361 120.973,61.8609 179.5,3C 181.879,2.28382 183.879,1.11716 185.5,-0.5 Z"/></g>
<g><path style="opacity:1" fill="#131003" d="M 245.5,61.5 C 267.783,85.4499 290.783,108.783 314.5,131.5C 329.799,146.298 344.965,161.298 360,176.5C 362.835,182.019 363.169,187.686 361,193.5C 323.326,232.34 285.16,270.674 246.5,308.5C 228.884,324.448 211.884,341.115 195.5,358.5C 192.17,361.482 188.17,362.815 183.5,362.5C 179.223,363.227 175.889,361.893 173.5,358.5C 167.833,352.167 161.833,346.167 155.5,340.5C 108.535,294.035 61.7013,247.368 15,200.5C 10.8782,193.636 10.5449,186.636 14,179.5C 44.368,148.965 74.868,118.632 105.5,88.5C 123.449,72.2184 140.782,55.2184 157.5,37.5C 164.576,29.9219 171.909,22.4219 179.5,15C 186.139,11.7226 192.806,11.7226 199.5,15C 215.035,30.3681 230.368,45.8681 245.5,61.5 Z"/></g>
<g><path style="opacity:1" fill="#f5ea23" d="M 196.5,19.5 C 209.833,33.5 223.5,47.1667 237.5,60.5C 276.132,99.632 314.965,138.632 354,177.5C 358.565,183.134 358.565,188.801 354,194.5C 336.965,211.368 320.132,228.368 303.5,245.5C 285.884,261.448 268.884,278.115 252.5,295.5C 251.833,295.5 251.5,295.833 251.5,296.5C 249.167,298.167 247.167,300.167 245.5,302.5C 227.368,320.132 209.368,337.965 191.5,356C 188.119,358.245 184.452,358.912 180.5,358C 150.993,329.327 121.66,300.493 92.5,271.5C 70.5508,247.883 47.8842,224.883 24.5,202.5C 21.4474,199.61 18.9474,196.276 17,192.5C 16.2099,189.366 16.5432,186.366 18,183.5C 37.0608,163.273 56.5608,143.606 76.5,124.5C 84.8333,116.833 92.8333,108.833 100.5,100.5C 127.965,73.5349 155.299,46.3682 182.5,19C 187.275,16.9213 191.941,17.088 196.5,19.5 Z"/></g>
<g><path style="opacity:1" fill="#453f0a" d="M 196.5,19.5 C 210.414,31.9112 223.914,44.9112 237,58.5C 237.464,59.0944 237.631,59.7611 237.5,60.5C 223.5,47.1667 209.833,33.5 196.5,19.5 Z"/></g>
<g><path style="opacity:1" fill="#4f490b" d="M 245.5,61.5 C 269.217,84.2168 292.217,107.55 314.5,131.5C 290.783,108.783 267.783,85.4499 245.5,61.5 Z"/></g>
<g><path style="opacity:1" fill="#030300" d="M 206.5,170.5 C 210.1,168.57 213.1,165.903 215.5,162.5C 220.825,155.843 226.491,149.51 232.5,143.5C 233.404,142.791 233.737,141.791 233.5,140.5C 230.167,140.5 226.833,140.5 223.5,140.5C 222.883,140.389 222.383,140.056 222,139.5C 221.333,133.167 221.333,126.833 222,120.5C 222.5,120 223,119.5 223.5,119C 240.146,117.593 256.813,117.26 273.5,118C 274.191,119.067 274.691,120.234 275,121.5C 275.833,137.844 275.666,154.177 274.5,170.5C 267.833,171.833 261.167,171.833 254.5,170.5C 253.592,166.143 252.592,161.81 251.5,157.5C 235.554,172.779 219.887,188.446 204.5,204.5C 203.5,236.16 203.167,267.826 203.5,299.5C 202.711,299.783 202.044,300.283 201.5,301C 187.837,301.5 174.171,301.667 160.5,301.5C 159.313,300.466 158.48,299.133 158,297.5C 157.333,224.167 157.333,150.833 158,77.5C 173,76.1667 188,76.1667 203,77.5C 203.333,107.5 203.667,137.5 204,167.5C 204.236,169.119 205.069,170.119 206.5,170.5 Z"/></g>
<g><path style="opacity:1" fill="#3e3a09" d="M 157.5,37.5 C 140.782,55.2184 123.449,72.2184 105.5,88.5C 122.218,70.7816 139.551,53.7816 157.5,37.5 Z"/></g>
<g><path style="opacity:1" fill="#4c460a" d="M 100.5,100.5 C 92.8333,108.833 84.8333,116.833 76.5,124.5C 83.2399,116.255 90.5732,108.422 98.5,101C 99.0944,100.536 99.7611,100.369 100.5,100.5 Z"/></g>
<g><path style="opacity:1" fill="#4f470a" d="M 223.5,140.5 C 226.833,140.5 230.167,140.5 233.5,140.5C 233.737,141.791 233.404,142.791 232.5,143.5C 229.797,141.89 226.797,140.89 223.5,140.5 Z"/></g>
<g><path style="opacity:1" fill="#46410b" d="M 215.5,162.5 C 213.1,165.903 210.1,168.57 206.5,170.5C 208.9,167.097 211.9,164.43 215.5,162.5 Z"/></g>
<g><path style="opacity:1" fill="#514a0c" d="M 24.5,202.5 C 47.8842,224.883 70.5508,247.883 92.5,271.5C 69.1158,249.117 46.4492,226.117 24.5,202.5 Z"/></g>
<g><path style="opacity:1" fill="#5e580d" d="M 303.5,245.5 C 287.116,262.885 270.116,279.552 252.5,295.5C 268.884,278.115 285.884,261.448 303.5,245.5 Z"/></g>
<g><path style="opacity:1" fill="#625c0e" d="M 251.5,296.5 C 250.5,299.5 248.5,301.5 245.5,302.5C 247.167,300.167 249.167,298.167 251.5,296.5 Z"/></g>
<g><path style="opacity:1" fill="#bdb119" d="M 203.5,299.5 C 203.586,300.496 203.252,301.329 202.5,302C 188.327,302.827 174.327,302.661 160.5,301.5C 174.171,301.667 187.837,301.5 201.5,301C 202.044,300.283 202.711,299.783 203.5,299.5 Z"/></g>
<g><path style="opacity:1" fill="#797110" d="M 246.5,308.5 C 230.116,325.885 213.116,342.552 195.5,358.5C 211.884,341.115 228.884,324.448 246.5,308.5 Z"/></g>
<g><path style="opacity:1" fill="#7e7611" d="M 155.5,340.5 C 161.833,346.167 167.833,352.167 173.5,358.5C 166.5,353.5 160.5,347.5 155.5,340.5 Z"/></g>
</svg>
