<?xml version="1.0" encoding="UTF-8"?>
<!DOCTYPE svg PUBLIC "-//W3C//DTD SVG 1.1//EN" "http://www.w3.org/Graphics/SVG/1.1/DTD/svg11.dtd">
<svg xmlns="http://www.w3.org/2000/svg" version="1.1" width="361px" height="466px" style="shape-rendering:geometricPrecision; text-rendering:geometricPrecision; image-rendering:optimizeQuality; fill-rule:evenodd; clip-rule:evenodd" xmlns:xlink="http://www.w3.org/1999/xlink">
<g><path style="opacity:1" fill="#fefefe" d="M -0.5,-0.5 C 119.833,-0.5 240.167,-0.5 360.5,-0.5C 360.5,154.833 360.5,310.167 360.5,465.5C 240.167,465.5 119.833,465.5 -0.5,465.5C -0.5,310.167 -0.5,154.833 -0.5,-0.5 Z"/></g>
<g><path style="opacity:1" fill="#eeeeee" d="M 286.5,62.5 C 286.881,53.5022 287.214,44.5022 287.5,35.5C 287.854,31.3628 287.354,27.3628 286,23.5C 285.667,24.1667 285.333,24.8333 285,25.5C 284.106,23.2331 282.606,21.5664 280.5,20.5C 276.353,19.6753 272.019,19.1753 267.5,19C 252.837,18.5001 238.17,18.3334 223.5,18.5C 240.995,17.6684 258.662,17.1684 276.5,17C 240.17,15.9643 203.837,15.631 167.5,16C 182.5,16.3333 197.5,16.6667 212.5,17C 208.514,17.4988 204.514,17.6655 200.5,17.5C 164.167,17.5 127.833,17.5 91.5,17.5C 91.9175,16.7784 92.5842,16.2784 93.5,16C 117.364,15.1816 141.197,15.3482 165,16.5C 165.5,16.1667 166,15.8333 166.5,15.5C 148.004,14.8333 129.671,14.1667 111.5,13.5C 127.497,13.0001 143.497,12.5001 159.5,12C 158.5,11.6667 157.5,11.3333 156.5,11C 158,10.8333 159.5,10.6667 161,10.5C 171.192,10.1623 181.359,10.6623 191.5,12C 189.167,12.3333 186.833,12.6667 184.5,13C 189.691,14.0104 194.525,13.177 199,10.5C 199.483,11.448 199.649,12.448 199.5,13.5C 205.451,13.7179 211.118,12.7179 216.5,10.5C 218.776,11.2132 221.109,11.7132 223.5,12C 222.5,12.3333 221.5,12.6667 220.5,13C 234.809,14.6271 249.142,14.7937 263.5,13.5C 268.833,13.6667 274.167,13.8333 279.5,14C 280.025,14.6924 280.692,15.1924 281.5,15.5C 282.167,13.8333 282.833,12.1667 283.5,10.5C 283.594,12.2388 283.761,14.2388 284,16.5C 284.233,14.2199 285.066,12.2199 286.5,10.5C 287.192,11.0253 287.692,11.6919 288,12.5C 288.734,29.1615 289.234,45.8282 289.5,62.5C 288.5,62.5 287.5,62.5 286.5,62.5 Z"/></g>
<g><path style="opacity:1" fill="#393939" d="M 91.5,17.5 C 127.833,17.5 164.167,17.5 200.5,17.5C 200.5,17.8333 200.5,18.1667 200.5,18.5C 190.494,18.3335 180.494,18.5002 170.5,19C 173.695,19.1805 176.695,19.6805 179.5,20.5C 150.839,19.5355 122.172,19.3688 93.5,20C 93,20.5 92.5,21 92,21.5C 90.2202,37.5311 90.2202,53.5311 92,69.5C 94.0521,70.7234 96.2188,71.7234 98.5,72.5C 92.3323,75.1583 89.1657,73.1583 89,66.5C 88.8909,51.8367 89.0576,37.17 89.5,22.5C 90.1667,20.8333 90.8333,19.1667 91.5,17.5 Z"/></g>
<g><path style="opacity:1" fill="#9b9b9b" d="M 223.5,18.5 C 215.833,18.5 208.167,18.5 200.5,18.5C 200.5,18.1667 200.5,17.8333 200.5,17.5C 204.514,17.6655 208.514,17.4988 212.5,17C 197.5,16.6667 182.5,16.3333 167.5,16C 203.837,15.631 240.17,15.9643 276.5,17C 258.662,17.1684 240.995,17.6684 223.5,18.5 Z"/></g>
<g><path style="opacity:1" fill="#b0b0b0" d="M 99.5,13.5 C 103.5,13.5 107.5,13.5 111.5,13.5C 129.671,14.1667 148.004,14.8333 166.5,15.5C 166,15.8333 165.5,16.1667 165,16.5C 141.197,15.3482 117.364,15.1816 93.5,16C 92.5842,16.2784 91.9175,16.7784 91.5,17.5C 90.8333,19.1667 90.1667,20.8333 89.5,22.5C 88.3054,22.1344 87.6387,21.301 87.5,20C 89.9019,14.9646 93.9019,12.7979 99.5,13.5 Z"/></g>
<g><path style="opacity:1" fill="#2e2e2e" d="M 200.5,18.5 C 208.167,18.5 215.833,18.5 223.5,18.5C 238.17,18.3334 252.837,18.5001 267.5,19C 272.019,19.1753 276.353,19.6753 280.5,20.5C 280.5,21.1667 280.5,21.8333 280.5,22.5C 246.874,21.5632 213.207,20.8965 179.5,20.5C 176.695,19.6805 173.695,19.1805 170.5,19C 180.494,18.5002 190.494,18.3335 200.5,18.5 Z"/></g>
<g><path style="opacity:1" fill="#efefef" d="M 99.5,13.5 C 93.9019,12.7979 89.9019,14.9646 87.5,20C 87.6387,21.301 88.3054,22.1344 89.5,22.5C 89.0576,37.17 88.8909,51.8367 89,66.5C 89.1657,73.1583 92.3323,75.1583 98.5,72.5C 96.2188,71.7234 94.0521,70.7234 92,69.5C 90.2202,53.5311 90.2202,37.5311 92,21.5C 92.5,21 93,20.5 93.5,20C 122.172,19.3688 150.839,19.5355 179.5,20.5C 213.207,20.8965 246.874,21.5632 280.5,22.5C 280.987,23.4734 281.487,24.4734 282,25.5C 282.796,41.1924 282.462,56.859 281,72.5C 278.619,73.435 276.119,73.7683 273.5,73.5C 273.5,74.5 273.5,75.5 273.5,76.5C 275.292,77.3091 277.292,77.8091 279.5,78C 266.838,78.4999 254.171,78.6666 241.5,78.5C 240.859,77.5178 240.193,76.5178 239.5,75.5C 240.631,74.3961 241.465,74.7295 242,76.5C 243.965,74.3317 246.465,72.9984 249.5,72.5C 252.259,66.9046 250.426,64.9046 244,66.5C 243.147,64.8753 242.147,64.5419 241,65.5C 240.308,64.9747 239.808,64.3081 239.5,63.5C 240.695,62.0325 240.695,60.5325 239.5,59C 239.836,57.9701 240.503,57.4701 241.5,57.5C 243.615,60.3621 246.282,61.0288 249.5,59.5C 251.145,57.0748 252.311,54.4081 253,51.5C 253.667,45.8333 253.667,40.1667 253,34.5C 251.974,31.7613 250.474,29.428 248.5,27.5C 246.909,26.7811 245.409,25.7811 244,24.5C 242.32,27.8607 240.653,31.1941 239,34.5C 237.981,32.4982 237.148,30.4982 236.5,28.5C 235.458,27.2089 234.292,27.2089 233,28.5C 231.652,32.2257 230.152,35.8923 228.5,39.5C 227.061,35.629 225.394,31.9623 223.5,28.5C 222.791,27.596 221.791,27.2627 220.5,27.5C 220.5,35.5 220.5,43.5 220.5,51.5C 219.691,53.2922 219.191,55.2922 219,57.5C 218.517,56.552 218.351,55.552 218.5,54.5C 215.5,54.5 212.5,54.5 209.5,54.5C 209.338,52.4727 209.505,50.4727 210,48.5C 211.388,49.5536 212.888,49.7203 214.5,49C 213.058,48.6232 212.058,47.7899 211.5,46.5C 212.649,46.2089 213.316,45.3756 213.5,44C 213.472,42.9302 213.139,42.0968 212.5,41.5C 211.167,41.5 209.833,41.5 208.5,41.5C 208.5,38.8333 208.5,36.1667 208.5,33.5C 211.167,33.5 213.833,33.5 216.5,33.5C 216.5,31.8333 216.5,30.1667 216.5,28.5C 212.5,28.5 208.5,28.5 204.5,28.5C 204.5,38.8333 204.5,49.1667 204.5,59.5C 204.423,60.7498 203.756,61.5831 202.5,62C 205.352,62.2694 208.018,63.1028 210.5,64.5C 211.989,64.4669 213.322,63.9669 214.5,63C 210.814,61.8007 211.147,61.4674 215.5,62C 218.288,64.3738 217.954,65.7071 214.5,66C 216.932,67.0875 216.598,67.5875 213.5,67.5C 213.762,68.9778 213.429,70.3112 212.5,71.5C 212.036,69.0251 211.036,67.0251 209.5,65.5C 208.178,65.33 207.011,65.6634 206,66.5C 205.396,64.3143 204.23,64.1476 202.5,66C 205.167,68 205.167,70 202.5,72C 203.793,72.49 205.127,72.6567 206.5,72.5C 209.595,73.0153 212.928,74.0153 216.5,75.5C 216.333,75.8333 216.167,76.1667 216,76.5C 214.755,76.5385 213.422,76.2052 212,75.5C 210.278,75.6107 210.112,76.1107 211.5,77C 206.177,77.4994 200.844,77.666 195.5,77.5C 189.5,77.5 183.5,77.5 177.5,77.5C 177.5,75.5 177.5,73.5 177.5,71.5C 179.199,71.6602 180.866,71.4935 182.5,71C 180.527,70.5045 178.527,70.3379 176.5,70.5C 176.5,72.8333 176.5,75.1667 176.5,77.5C 174.167,77.5 171.833,77.5 169.5,77.5C 169.918,76.7784 170.584,76.2784 171.5,76C 171.167,75.6667 170.833,75.3333 170.5,75C 171.5,74.6667 172.5,74.3333 173.5,74C 171.314,72.691 169.147,72.5243 167,73.5C 166.5,72.3333 165.667,71.5 164.5,71C 166.25,69.6814 168.25,69.1814 170.5,69.5C 170.853,67.3652 170.02,66.0319 168,65.5C 165.953,66.6094 163.787,67.2761 161.5,67.5C 161.357,69.2624 161.691,70.9291 162.5,72.5C 160.534,73.372 158.534,73.2053 156.5,72C 156.957,71.586 157.291,71.086 157.5,70.5C 156.555,67.0664 155.555,64.0664 154.5,61.5C 153.808,62.0253 153.308,62.6919 153,63.5C 151.612,62.4464 150.112,62.2797 148.5,63C 151.045,65.5008 150.545,66.0008 147,64.5C 145.699,64.6387 144.866,65.3054 144.5,66.5C 141.788,65.9532 140.288,64.2865 140,61.5C 139.361,64.2277 138.194,64.7277 136.5,63C 138.376,62.0816 139.376,60.5816 139.5,58.5C 140.15,56.5648 140.483,54.5648 140.5,52.5C 143.167,52.5 145.833,52.5 148.5,52.5C 148.674,54.861 149.007,57.1944 149.5,59.5C 150.978,59.762 152.311,59.4287 153.5,58.5C 151.02,48.5801 148.854,38.5801 147,28.5C 145.644,27.6198 144.144,27.2865 142.5,27.5C 140.733,36.6495 138.733,45.6495 136.5,54.5C 135.761,54.369 135.094,54.5357 134.5,55C 135.696,55.6543 135.696,56.1543 134.5,56.5C 133.614,55.675 133.281,54.675 133.5,53.5C 133.5,44.5 133.5,35.5 133.5,26.5C 132.5,26.5 131.5,26.5 130.5,26.5C 130.666,35.1731 130.5,43.8397 130,52.5C 127.916,55.033 125.916,55.033 124,52.5C 123.5,43.8397 123.334,35.1731 123.5,26.5C 122.5,26.5 121.5,26.5 120.5,26.5C 119.952,35.5011 119.785,44.5011 120,53.5C 121.778,58.161 124.944,59.8276 129.5,58.5C 130.239,58.369 130.906,58.5357 131.5,59C 130.167,60.3333 130.167,61.6667 131.5,63C 130.262,62.9227 129.262,63.0894 128.5,63.5C 130.748,64.324 130.914,65.324 129,66.5C 128,65.5 127,64.5 126,63.5C 124.224,65.2106 123.058,67.2106 122.5,69.5C 122.657,68.1266 122.49,66.7932 122,65.5C 120.434,66.0606 119.101,65.3939 118,63.5C 115.236,64.0246 114.402,65.3579 115.5,67.5C 114.768,68.8083 113.934,70.1416 113,71.5C 112.5,70.3333 111.667,69.5 110.5,69C 111.337,67.9887 111.67,66.8221 111.5,65.5C 108.175,64.8229 105.008,64.8229 102,65.5C 101.252,69.4347 102.919,71.768 107,72.5C 108.52,70.1655 110.02,70.3321 111.5,73C 117.833,73.6667 124.167,73.6667 130.5,73C 129.5,72.6667 128.5,72.3333 127.5,72C 129.101,71.7266 130.601,71.2266 132,70.5C 133.862,73.2001 133.028,74.8668 129.5,75.5C 122.535,74.8876 115.535,74.8876 108.5,75.5C 106.11,76.6646 104.11,75.9979 102.5,73.5C 102.167,73.6667 101.833,73.8333 101.5,74C 102.305,75.1127 102.972,76.2794 103.5,77.5C 99.8703,77.8035 96.2036,77.3035 92.5,76C 90,74.8333 88.1667,73 87,70.5C 86.5261,50.4609 86.3595,30.6276 86.5,11C 90.6574,11.1777 94.9907,12.0111 99.5,13.5 Z"/></g>
<g><path style="opacity:1" fill="#323232" d="M 248.5,27.5 C 250.474,29.428 251.974,31.7613 253,34.5C 253.667,40.1667 253.667,45.8333 253,51.5C 252.311,54.4081 251.145,57.0748 249.5,59.5C 246.282,61.0288 243.615,60.3621 241.5,57.5C 238.117,47.3803 238.951,37.7136 244,28.5C 245.356,27.6198 246.856,27.2865 248.5,27.5 Z"/></g>
<g><path style="opacity:1" fill="#272727" d="M 189.5,27.5 C 193.833,27.5 198.167,27.5 202.5,27.5C 202.5,29.5 202.5,31.5 202.5,33.5C 200.833,33.5 199.167,33.5 197.5,33.5C 197.5,42.1667 197.5,50.8333 197.5,59.5C 196.167,59.5 194.833,59.5 193.5,59.5C 193.5,50.5 193.5,41.5 193.5,32.5C 192.167,32.5 190.833,32.5 189.5,32.5C 189.5,30.8333 189.5,29.1667 189.5,27.5 Z"/></g>
<g><path style="opacity:1" fill="#2c2c2c" d="M 133.5,53.5 C 132.168,55.1377 130.834,56.8044 129.5,58.5C 124.944,59.8276 121.778,58.161 120,53.5C 119.785,44.5011 119.952,35.5011 120.5,26.5C 121.5,26.5 122.5,26.5 123.5,26.5C 123.334,35.1731 123.5,43.8397 124,52.5C 125.916,55.033 127.916,55.033 130,52.5C 130.5,43.8397 130.666,35.1731 130.5,26.5C 131.5,26.5 132.5,26.5 133.5,26.5C 133.5,35.5 133.5,44.5 133.5,53.5 Z"/></g>
<g><path style="opacity:1" fill="#1d1d1d" d="M 236.5,28.5 C 236.5,39.1667 236.5,49.8333 236.5,60.5C 235.167,60.5 233.833,60.5 232.5,60.5C 232.666,55.1563 232.499,49.8229 232,44.5C 231.222,47.1838 229.889,49.5172 228,51.5C 226.656,48.5642 225.489,46.2309 224.5,44.5C 223.675,48.6472 223.175,52.9805 223,57.5C 222.667,56.8333 222.333,56.1667 222,55.5C 221.833,51 221.667,46.5 221.5,42C 221.507,37.1139 222.174,32.6139 223.5,28.5C 225.394,31.9623 227.061,35.629 228.5,39.5C 230.152,35.8923 231.652,32.2257 233,28.5C 234.292,27.2089 235.458,27.2089 236.5,28.5 Z"/></g>
<g><path style="opacity:1" fill="#5e5e5e" d="M 223.5,28.5 C 222.174,32.6139 221.507,37.1139 221.5,42C 221.667,46.5 221.833,51 222,55.5C 222.333,56.1667 222.667,56.8333 223,57.5C 223.175,52.9805 223.675,48.6472 224.5,44.5C 224.5,49.5 224.5,54.5 224.5,59.5C 223.167,59.5 221.833,59.5 220.5,59.5C 220.5,56.8333 220.5,54.1667 220.5,51.5C 220.5,43.5 220.5,35.5 220.5,27.5C 221.791,27.2627 222.791,27.596 223.5,28.5 Z"/></g>
<g><path style="opacity:1" fill="#efefef" d="M 244.5,33.5 C 246.144,33.2865 247.644,33.6198 249,34.5C 251.183,41.611 250.849,48.611 248,55.5C 246.989,56.3366 245.822,56.67 244.5,56.5C 243.167,48.8333 243.167,41.1667 244.5,33.5 Z"/></g>
<g><path style="opacity:1" fill="#4b4b4b" d="M 280.5,20.5 C 282.606,21.5664 284.106,23.2331 285,25.5C 285.333,24.8333 285.667,24.1667 286,23.5C 287.354,27.3628 287.854,31.3628 287.5,35.5C 286.681,32.6946 286.181,29.6946 286,26.5C 284.971,41.4976 284.138,56.4976 283.5,71.5C 281.727,76.0195 278.393,77.6862 273.5,76.5C 273.5,75.5 273.5,74.5 273.5,73.5C 276.119,73.7683 278.619,73.435 281,72.5C 282.462,56.859 282.796,41.1924 282,25.5C 281.487,24.4734 280.987,23.4734 280.5,22.5C 280.5,21.8333 280.5,21.1667 280.5,20.5 Z"/></g>
<g><path style="opacity:1" fill="#666666" d="M 159.5,49.5 C 158.833,42.6553 158.167,35.6553 157.5,28.5C 156.503,36.1378 156.169,43.8045 156.5,51.5C 155.507,43.3501 155.174,35.0168 155.5,26.5C 156.833,26.5 158.167,26.5 159.5,26.5C 159.5,34.1667 159.5,41.8333 159.5,49.5 Z"/></g>
<g><path style="opacity:1" fill="#222222" d="M 184.5,27.5 C 185.404,38.1351 185.737,48.8018 185.5,59.5C 184.5,59.5 183.5,59.5 182.5,59.5C 182.5,55.5 182.5,51.5 182.5,47.5C 180.5,47.5 178.5,47.5 176.5,47.5C 176.5,51.5 176.5,55.5 176.5,59.5C 175.167,59.5 173.833,59.5 172.5,59.5C 172.5,48.8333 172.5,38.1667 172.5,27.5C 173.833,27.5 175.167,27.5 176.5,27.5C 176.5,32.1667 176.5,36.8333 176.5,41.5C 178.5,41.5 180.5,41.5 182.5,41.5C 181.897,36.3814 182.564,31.7147 184.5,27.5 Z"/></g>
<g><path style="opacity:1" fill="#303030" d="M 107.5,25.5 C 111.826,24.8289 114.826,26.4955 116.5,30.5C 115.383,33.437 114.049,33.7703 112.5,31.5C 111.311,30.5713 109.978,30.238 108.5,30.5C 105.964,37.8493 105.964,45.1827 108.5,52.5C 109.689,53.4287 111.022,53.762 112.5,53.5C 113.021,49.8724 114.355,49.7057 116.5,53C 114.757,58.0384 111.423,59.5384 106.5,57.5C 105.573,55.8872 104.739,54.2205 104,52.5C 103.333,45.8333 103.333,39.1667 104,32.5C 104.891,29.9698 106.058,27.6365 107.5,25.5 Z"/></g>
<g><path style="opacity:1" fill="#737373" d="M 212.5,41.5 C 213.139,42.0968 213.472,42.9302 213.5,44C 213.316,45.3756 212.649,46.2089 211.5,46.5C 210.5,46.5 209.5,46.5 208.5,46.5C 209.568,45.5655 210.901,45.2322 212.5,45.5C 212.5,44.1667 212.5,42.8333 212.5,41.5 Z"/></g>
<g><path style="opacity:1" fill="#262626" d="M 156.5,51.5 C 156.169,43.8045 156.503,36.1378 157.5,28.5C 158.167,35.6553 158.833,42.6553 159.5,49.5C 159.305,53.9372 161.139,55.6038 165,54.5C 166.346,45.5586 166.846,36.5586 166.5,27.5C 167.5,27.5 168.5,27.5 169.5,27.5C 169.824,37.2173 169.324,46.884 168,56.5C 164.818,60.0575 161.318,60.3908 157.5,57.5C 156.534,55.604 156.201,53.604 156.5,51.5 Z"/></g>
<g><path style="opacity:1" fill="#222222" d="M 139.5,58.5 C 138.127,58.6567 136.793,58.49 135.5,58C 136.337,56.9887 136.67,55.8221 136.5,54.5C 138.733,45.6495 140.733,36.6495 142.5,27.5C 144.144,27.2865 145.644,27.6198 147,28.5C 148.854,38.5801 151.02,48.5801 153.5,58.5C 152.311,59.4287 150.978,59.762 149.5,59.5C 149.007,57.1944 148.674,54.861 148.5,52.5C 145.833,52.5 143.167,52.5 140.5,52.5C 140.483,54.5648 140.15,56.5648 139.5,58.5 Z"/></g>
<g><path style="opacity:1" fill="#dddddd" d="M 144.5,39.5 C 146.223,41.78 146.889,44.4467 146.5,47.5C 145.167,47.5 143.833,47.5 142.5,47.5C 142.283,44.5794 142.949,41.9128 144.5,39.5 Z"/></g>
<g><path style="opacity:1" fill="#272727" d="M 212.5,41.5 C 212.5,42.8333 212.5,44.1667 212.5,45.5C 210.901,45.2322 209.568,45.5655 208.5,46.5C 208.5,49.5 208.5,52.5 208.5,55.5C 211.5,55.5 214.5,55.5 217.5,55.5C 217.5,56.8333 217.5,58.1667 217.5,59.5C 213.167,59.5 208.833,59.5 204.5,59.5C 204.5,49.1667 204.5,38.8333 204.5,28.5C 208.5,28.5 212.5,28.5 216.5,28.5C 216.5,30.1667 216.5,31.8333 216.5,33.5C 213.833,33.5 211.167,33.5 208.5,33.5C 208.5,36.1667 208.5,38.8333 208.5,41.5C 209.833,41.5 211.167,41.5 212.5,41.5 Z"/></g>
<g><path style="opacity:1" fill="#e7e7e7" d="M 248.5,27.5 C 246.856,27.2865 245.356,27.6198 244,28.5C 238.951,37.7136 238.117,47.3803 241.5,57.5C 240.503,57.4701 239.836,57.9701 239.5,59C 240.695,60.5325 240.695,62.0325 239.5,63.5C 239.808,64.3081 240.308,64.9747 241,65.5C 242.147,64.5419 243.147,64.8753 244,66.5C 250.426,64.9046 252.259,66.9046 249.5,72.5C 246.465,72.9984 243.965,74.3317 242,76.5C 241.465,74.7295 240.631,74.3961 239.5,75.5C 240.193,76.5178 240.859,77.5178 241.5,78.5C 236.156,78.334 230.823,78.5006 225.5,79C 243.498,79.8667 261.498,80.2 279.5,80C 284.081,77.3674 286.414,72.8674 286.5,66.5C 287.5,66.5 288.5,66.5 289.5,66.5C 289.5,69.1667 289.5,71.8333 289.5,74.5C 285.764,74.6601 285.764,75.4934 289.5,77C 285.5,77.6667 285.5,78.3333 289.5,79C 290.833,79.6667 290.833,80.3333 289.5,81C 253.975,80.8954 218.975,81.0621 184.5,81.5C 179.833,81.1667 175.167,80.8333 170.5,80.5C 170.137,79.8165 169.804,79.1499 169.5,78.5C 178.349,78.8264 187.016,78.493 195.5,77.5C 200.844,77.666 206.177,77.4994 211.5,77C 210.112,76.1107 210.278,75.6107 212,75.5C 213.422,76.2052 214.755,76.5385 216,76.5C 216.167,76.1667 216.333,75.8333 216.5,75.5C 212.928,74.0153 209.595,73.0153 206.5,72.5C 207.552,72.6495 208.552,72.4828 209.5,72C 206.957,69.8483 206.957,67.6816 209.5,65.5C 211.036,67.0251 212.036,69.0251 212.5,71.5C 213.429,70.3112 213.762,68.9778 213.5,67.5C 216.598,67.5875 216.932,67.0875 214.5,66C 217.954,65.7071 218.288,64.3738 215.5,62C 211.147,61.4674 210.814,61.8007 214.5,63C 213.322,63.9669 211.989,64.4669 210.5,64.5C 208.018,63.1028 205.352,62.2694 202.5,62C 203.756,61.5831 204.423,60.7498 204.5,59.5C 208.833,59.5 213.167,59.5 217.5,59.5C 217.5,58.1667 217.5,56.8333 217.5,55.5C 214.5,55.5 211.5,55.5 208.5,55.5C 208.5,52.5 208.5,49.5 208.5,46.5C 209.5,46.5 210.5,46.5 211.5,46.5C 212.058,47.7899 213.058,48.6232 214.5,49C 212.888,49.7203 211.388,49.5536 210,48.5C 209.505,50.4727 209.338,52.4727 209.5,54.5C 212.5,54.5 215.5,54.5 218.5,54.5C 218.351,55.552 218.517,56.552 219,57.5C 219.191,55.2922 219.691,53.2922 220.5,51.5C 220.5,54.1667 220.5,56.8333 220.5,59.5C 221.833,59.5 223.167,59.5 224.5,59.5C 224.5,54.5 224.5,49.5 224.5,44.5C 225.489,46.2309 226.656,48.5642 228,51.5C 229.889,49.5172 231.222,47.1838 232,44.5C 232.499,49.8229 232.666,55.1563 232.5,60.5C 233.833,60.5 235.167,60.5 236.5,60.5C 236.5,49.8333 236.5,39.1667 236.5,28.5C 237.148,30.4982 237.981,32.4982 239,34.5C 240.653,31.1941 242.32,27.8607 244,24.5C 245.409,25.7811 246.909,26.7811 248.5,27.5 Z"/></g>
<g><path style="opacity:1" fill="#333333" d="M 262.5,27.5 C 267.002,27.4923 270.002,29.659 271.5,34C 270.5,34.5 269.5,35 268.5,35.5C 266.821,33.8955 264.821,33.2289 262.5,33.5C 261.513,39.805 261.347,46.1383 262,52.5C 262.997,56.8876 265.163,57.5543 268.5,54.5C 269.843,58.1922 268.51,60.5255 264.5,61.5C 261.35,60.2272 259.35,57.8939 258.5,54.5C 257.489,49.1907 257.322,43.8573 258,38.5C 258.429,34.3196 259.929,30.6529 262.5,27.5 Z"/></g>
<g><path style="opacity:1" fill="#535353" d="M 184.5,27.5 C 185.828,32.4558 186.495,37.7891 186.5,43.5C 186.499,49.0108 186.166,54.3441 185.5,59.5C 185.737,48.8018 185.404,38.1351 184.5,27.5 Z"/></g>
<g><path style="opacity:1" fill="#b0b0b0" d="M 122.5,69.5 C 120.956,69.7031 119.622,70.3698 118.5,71.5C 117.749,70.624 117.249,69.624 117,68.5C 115.913,70.9316 115.413,70.5983 115.5,67.5C 114.402,65.3579 115.236,64.0246 118,63.5C 119.101,65.3939 120.434,66.0606 122,65.5C 122.49,66.7932 122.657,68.1266 122.5,69.5 Z"/></g>
<g><path style="opacity:1" fill="#797979" d="M 94.5,65.5 C 96.4459,66.2544 97.2793,67.5878 97,69.5C 94.4229,68.8347 93.5896,67.5014 94.5,65.5 Z"/></g>
<g><path style="opacity:1" fill="#909090" d="M 209.5,65.5 C 206.957,67.6816 206.957,69.8483 209.5,72C 208.552,72.4828 207.552,72.6495 206.5,72.5C 205.127,72.6567 203.793,72.49 202.5,72C 205.167,70 205.167,68 202.5,66C 204.23,64.1476 205.396,64.3143 206,66.5C 207.011,65.6634 208.178,65.33 209.5,65.5 Z"/></g>
<g><path style="opacity:1" fill="#e3e3e3" d="M 133.5,53.5 C 133.281,54.675 133.614,55.675 134.5,56.5C 135.696,56.1543 135.696,55.6543 134.5,55C 135.094,54.5357 135.761,54.369 136.5,54.5C 136.67,55.8221 136.337,56.9887 135.5,58C 136.793,58.49 138.127,58.6567 139.5,58.5C 139.376,60.5816 138.376,62.0816 136.5,63C 138.194,64.7277 139.361,64.2277 140,61.5C 140.288,64.2865 141.788,65.9532 144.5,66.5C 144.67,67.8221 144.337,68.9887 143.5,70C 144.5,70.5 145.5,71 146.5,71.5C 146.594,69.7612 146.761,67.7612 147,65.5C 148.399,66.2266 149.899,66.7266 151.5,67C 151.018,68.0084 150.852,69.175 151,70.5C 150.282,69.5494 149.449,69.3828 148.5,70C 149.167,71.3333 150.167,72.3333 151.5,73C 150.376,73.2492 149.376,73.7492 148.5,74.5C 148.833,74.8333 149.167,75.1667 149.5,75.5C 153.055,75.7023 156.722,75.369 160.5,74.5C 161.429,75.6888 161.762,77.0222 161.5,78.5C 152.651,78.8264 143.984,78.493 135.5,77.5C 137.857,77.6633 140.19,77.4966 142.5,77C 130.993,76.8306 119.659,76.3306 108.5,75.5C 115.535,74.8876 122.535,74.8876 129.5,75.5C 133.028,74.8668 133.862,73.2001 132,70.5C 130.601,71.2266 129.101,71.7266 127.5,72C 128.5,72.3333 129.5,72.6667 130.5,73C 124.167,73.6667 117.833,73.6667 111.5,73C 110.02,70.3321 108.52,70.1655 107,72.5C 102.919,71.768 101.252,69.4347 102,65.5C 105.008,64.8229 108.175,64.8229 111.5,65.5C 111.67,66.8221 111.337,67.9887 110.5,69C 111.667,69.5 112.5,70.3333 113,71.5C 113.934,70.1416 114.768,68.8083 115.5,67.5C 115.413,70.5983 115.913,70.9316 117,68.5C 117.249,69.624 117.749,70.624 118.5,71.5C 119.622,70.3698 120.956,69.7031 122.5,69.5C 123.058,67.2106 124.224,65.2106 126,63.5C 127,64.5 128,65.5 129,66.5C 130.914,65.324 130.748,64.324 128.5,63.5C 129.262,63.0894 130.262,62.9227 131.5,63C 130.167,61.6667 130.167,60.3333 131.5,59C 130.906,58.5357 130.239,58.369 129.5,58.5C 130.834,56.8044 132.168,55.1377 133.5,53.5 Z"/></g>
<g><path style="opacity:1" fill="#b1b1b1" d="M 230.5,64.5 C 233.113,65.3919 233.779,67.0586 232.5,69.5C 233,70.5 233.5,71.5 234,72.5C 234.192,70.4233 234.692,68.4233 235.5,66.5C 236.803,67.7178 237.803,67.3845 238.5,65.5C 239.466,67.396 239.799,69.396 239.5,71.5C 237.876,71.6399 236.71,70.9733 236,69.5C 235.51,70.7932 235.343,72.1266 235.5,73.5C 234.07,73.5792 232.736,73.2458 231.5,72.5C 230.52,69.9135 230.187,67.2469 230.5,64.5 Z"/></g>
<g><path style="opacity:1" fill="#848484" d="M 108.5,75.5 C 119.659,76.3306 130.993,76.8306 142.5,77C 140.19,77.4966 137.857,77.6633 135.5,77.5C 125.828,77.3335 116.161,77.5002 106.5,78C 107.451,78.7175 107.617,79.5509 107,80.5C 105.961,79.2899 104.794,78.2899 103.5,77.5C 102.972,76.2794 102.305,75.1127 101.5,74C 101.833,73.8333 102.167,73.6667 102.5,73.5C 104.11,75.9979 106.11,76.6646 108.5,75.5 Z"/></g>
<g><path style="opacity:1" fill="#8c8c8c" d="M 195.5,77.5 C 187.016,78.493 178.349,78.8264 169.5,78.5C 169.5,78.1667 169.5,77.8333 169.5,77.5C 171.833,77.5 174.167,77.5 176.5,77.5C 176.5,75.1667 176.5,72.8333 176.5,70.5C 178.527,70.3379 180.527,70.5045 182.5,71C 180.866,71.4935 179.199,71.6602 177.5,71.5C 177.5,73.5 177.5,75.5 177.5,77.5C 183.5,77.5 189.5,77.5 195.5,77.5 Z"/></g>
<g><path style="opacity:1" fill="#bababa" d="M 287.5,35.5 C 287.214,44.5022 286.881,53.5022 286.5,62.5C 286.5,63.8333 286.5,65.1667 286.5,66.5C 286.414,72.8674 284.081,77.3674 279.5,80C 261.498,80.2 243.498,79.8667 225.5,79C 230.823,78.5006 236.156,78.334 241.5,78.5C 254.171,78.6666 266.838,78.4999 279.5,78C 277.292,77.8091 275.292,77.3091 273.5,76.5C 278.393,77.6862 281.727,76.0195 283.5,71.5C 284.138,56.4976 284.971,41.4976 286,26.5C 286.181,29.6946 286.681,32.6946 287.5,35.5 Z"/></g>
<g><path style="opacity:1" fill="#1b1b19" d="M 249.5,91.5 C 250.816,94.0866 251.483,97.0866 251.5,100.5C 251.167,103.5 250.833,106.5 250.5,109.5C 249.504,103.537 249.171,97.5368 249.5,91.5 Z"/></g>
<g><path style="opacity:1" fill="#21201f" d="M 214.5,91.5 C 215.816,94.0866 216.483,97.0866 216.5,100.5C 216.167,103.5 215.833,106.5 215.5,109.5C 214.5,108.167 213.5,108.167 212.5,109.5C 209.086,105.992 208.586,101.992 211,97.5C 212,96.1667 213,96.1667 214,97.5C 214.495,95.5273 214.662,93.5273 214.5,91.5 Z"/></g>
<g><path style="opacity:1" fill="#1b1b19" d="M 253.5,91.5 C 254.816,94.0866 255.483,97.0866 255.5,100.5C 255.167,103.5 254.833,106.5 254.5,109.5C 253.504,103.537 253.171,97.5368 253.5,91.5 Z"/></g>
<g><path style="opacity:1" fill="#282627" d="M 234.5,91.5 C 237.918,91.8839 239.252,93.5505 238.5,96.5C 236.506,94.0834 234.673,94.0834 233,96.5C 232.259,99.562 232.425,102.562 233.5,105.5C 236.318,106.881 237.818,105.881 238,102.5C 239.592,105.676 238.592,108.009 235,109.5C 233.739,109.241 232.739,108.574 232,107.5C 230.566,103.594 230.233,99.5935 231,95.5C 231.69,93.6498 232.856,92.3164 234.5,91.5 Z"/></g>
<g><path style="opacity:1" fill="#1f1e1d" d="M 178.5,92.5 C 179.207,94.2307 180.207,95.8974 181.5,97.5C 178.833,101.167 178.833,104.833 181.5,108.5C 180.349,109.731 179.183,109.731 178,108.5C 177.762,104.778 177.262,101.111 176.5,97.5C 177.174,95.8045 177.841,94.1379 178.5,92.5 Z"/></g>
<g><path style="opacity:1" fill="#2f2e2c" d="M 119.5,96.5 C 123.158,96.9345 124.825,99.1012 124.5,103C 124.74,106.026 123.573,108.192 121,109.5C 118.427,108.192 117.26,106.026 117.5,103C 117.482,100.59 118.149,98.423 119.5,96.5 Z"/></g>
<g><path style="opacity:1" fill="#262523" d="M 191.5,96.5 C 192.94,97.3629 194.274,97.3629 195.5,96.5C 196.627,98.2695 196.127,99.6028 194,100.5C 193.821,103.553 193.321,106.553 192.5,109.5C 191.508,105.217 191.174,100.884 191.5,96.5 Z"/></g>
<g><path style="opacity:1" fill="#252422" d="M 259.5,96.5 C 262.987,97.4446 264.32,99.7779 263.5,103.5C 262.167,103.5 260.833,103.5 259.5,103.5C 259.238,104.978 259.571,106.311 260.5,107.5C 261.324,105.252 262.324,105.086 263.5,107C 261.807,109.952 259.974,110.118 258,107.5C 257.013,103.525 257.513,99.8585 259.5,96.5 Z"/></g>
<g><path style="opacity:1" fill="#e0dfdd" d="M 259.5,98.5 C 261.465,98.9483 261.798,99.9483 260.5,101.5C 259.614,100.675 259.281,99.675 259.5,98.5 Z"/></g>
<g><path style="opacity:1" fill="#262523" d="M 158.5,96.5 C 162.051,97.1855 162.217,98.1855 159,99.5C 158.333,101.833 158.333,104.167 159,106.5C 160.43,106.306 161.93,106.306 163.5,106.5C 161.097,110.169 158.93,110.169 157,106.5C 156.037,102.851 156.537,99.518 158.5,96.5 Z"/></g>
<g><path style="opacity:1" fill="#1c1c1a" d="M 165.5,91.5 C 166.816,94.0866 167.483,97.0866 167.5,100.5C 167.167,103.5 166.833,106.5 166.5,109.5C 165.504,103.537 165.171,97.5368 165.5,91.5 Z"/></g>
<g><path style="opacity:1" fill="#262523" d="M 198.5,96.5 C 199.93,96.4208 201.264,96.7542 202.5,97.5C 203.833,101.5 203.833,105.5 202.5,109.5C 201.033,109.277 199.533,108.944 198,108.5C 197.359,104.945 198.526,102.112 201.5,100C 201.167,99.5 200.833,99 200.5,98.5C 197.494,100.004 196.828,99.3371 198.5,96.5 Z"/></g>
<g><path style="opacity:1" fill="#1e1d1b" d="M 220.5,96.5 C 223.59,97.665 224.924,99.9983 224.5,103.5C 223.167,103.5 221.833,103.5 220.5,103.5C 220.238,104.978 220.571,106.311 221.5,107.5C 224.187,106.939 224.187,107.606 221.5,109.5C 217.999,105.469 217.666,101.136 220.5,96.5 Z"/></g>
<g><path style="opacity:1" fill="#dededc" d="M 220.5,98.5 C 222.465,98.9483 222.798,99.9483 221.5,101.5C 220.614,100.675 220.281,99.675 220.5,98.5 Z"/></g>
<g><path style="opacity:1" fill="#f3f2f0" d="M 120.5,98.5 C 122.026,99.4919 122.693,100.992 122.5,103C 121.5,109 120.5,109 119.5,103C 119.605,101.408 119.939,99.9085 120.5,98.5 Z"/></g>
<g><path style="opacity:1" fill="#1f1e1d" d="M 141.5,96.5 C 144.59,97.665 145.924,99.9983 145.5,103.5C 144.167,103.5 142.833,103.5 141.5,103.5C 141.238,104.978 141.571,106.311 142.5,107.5C 145.187,106.939 145.187,107.606 142.5,109.5C 139.057,105.4 138.723,101.066 141.5,96.5 Z"/></g>
<g><path style="opacity:1" fill="#dddddb" d="M 141.5,98.5 C 143.465,98.9483 143.798,99.9483 142.5,101.5C 141.614,100.675 141.281,99.675 141.5,98.5 Z"/></g>
<g><path style="opacity:1" fill="#f2f2f0" d="M 211.5,98.5 C 212.496,98.4142 213.329,98.7476 214,99.5C 214.874,102.379 214.54,105.045 213,107.5C 211.608,104.722 211.108,101.722 211.5,98.5 Z"/></g>
<g><path style="opacity:1" fill="#1e1e1c" d="M 106.5,91.5 C 107.496,91.4142 108.329,91.7476 109,92.5C 110.333,95.8333 111.667,99.1667 113,102.5C 113.175,98.789 113.675,95.1224 114.5,91.5C 115.833,97.5 115.833,103.5 114.5,109.5C 112.172,106.178 110.339,102.511 109,98.5C 108.825,102.211 108.325,105.878 107.5,109.5C 106.504,103.537 106.171,97.5368 106.5,91.5 Z"/></g>
<g><path style="opacity:1" fill="#1e1d1b" d="M 147.5,96.5 C 149.045,97.5804 150.545,97.5804 152,96.5C 152.945,96.9054 153.612,97.572 154,98.5C 154.152,113.123 153.319,113.123 151.5,98.5C 150.914,98.7093 150.414,99.0426 150,99.5C 149.824,102.882 149.324,106.215 148.5,109.5C 147.508,105.217 147.174,100.884 147.5,96.5 Z"/></g>
<g><path style="opacity:1" fill="#1e1d1b" d="M 182.5,96.5 C 184.112,99.7443 185.112,103.411 185.5,107.5C 186.086,107.291 186.586,106.957 187,106.5C 187.176,103.118 187.676,99.7848 188.5,96.5C 189.833,100.833 189.833,105.167 188.5,109.5C 187.402,108.385 186.235,108.385 185,109.5C 184.055,109.095 183.388,108.428 183,107.5C 182.501,103.848 182.335,100.182 182.5,96.5 Z"/></g>
<g><path style="opacity:1" fill="#e7e7e5" d="M 200.5,103.5 C 201.782,104.708 201.782,106.042 200.5,107.5C 199.374,106.192 199.374,104.858 200.5,103.5 Z"/></g>
<g><path style="opacity:1" fill="#201f1e" d="M 171.5,96.5 C 172.822,96.33 173.989,96.6634 175,97.5C 175.827,101.541 175.66,105.541 174.5,109.5C 173.033,109.277 171.533,108.944 170,108.5C 169.333,106.833 169.333,105.167 170,103.5C 174.842,100.51 174.675,99.01 169.5,99C 170.381,98.2917 171.047,97.4584 171.5,96.5 Z"/></g>
<g><path style="opacity:1" fill="#e7e7e5" d="M 172.5,103.5 C 173.782,104.708 173.782,106.042 172.5,107.5C 171.374,106.192 171.374,104.858 172.5,103.5 Z"/></g>
<g><path style="opacity:1" fill="#201f1e" d="M 243.5,96.5 C 244.822,96.33 245.989,96.6634 247,97.5C 247.827,101.541 247.66,105.541 246.5,109.5C 245.033,109.277 243.533,108.944 242,108.5C 241.333,106.833 241.333,105.167 242,103.5C 246.842,100.51 246.675,99.01 241.5,99C 242.381,98.2917 243.047,97.4584 243.5,96.5 Z"/></g>
<g><path style="opacity:1" fill="#e7e7e5" d="M 244.5,103.5 C 245.782,104.708 245.782,106.042 244.5,107.5C 243.374,106.192 243.374,104.858 244.5,103.5 Z"/></g>
<g><path style="opacity:1" fill="#252422" d="M 268.5,96.5 C 269.995,96.4148 270.995,97.0815 271.5,98.5C 271.062,99.5063 270.396,99.5063 269.5,98.5C 269.167,99.1667 268.833,99.8333 268.5,100.5C 269.833,102.167 271.167,103.833 272.5,105.5C 271.415,109.642 269.415,110.308 266.5,107.5C 267.391,106.41 268.391,106.41 269.5,107.5C 269.833,107 270.167,106.5 270.5,106C 268.808,104.295 267.475,102.295 266.5,100C 266.978,98.6974 267.645,97.5307 268.5,96.5 Z"/></g>
<g><path style="opacity:1" fill="#1f1e1c" d="M 126.5,96.5 C 129.667,96.6596 132.833,96.9929 136,97.5C 136.827,101.541 136.66,105.541 135.5,109.5C 134.167,94.8333 132.833,94.8333 131.5,109.5C 130.167,94.8333 128.833,94.8333 127.5,109.5C 126.508,105.217 126.174,100.884 126.5,96.5 Z"/></g>
<g><path style="opacity:1" fill="#525b58" d="M 118.5,127.5 C 115.531,126.671 112.531,126.505 109.5,127C 101.479,132.225 92.8119,133.559 83.5,131C 79.7536,129.587 76.0869,128.087 72.5,126.5C 68.2261,130.436 63.8927,134.436 59.5,138.5C 58.0335,141.258 57.3668,140.925 57.5,137.5C 61.886,131.946 67.0526,127.28 73,123.5C 77.101,125.646 81.101,127.98 85,130.5C 89.4145,129.697 93.9145,129.197 98.5,129C 103.33,127.465 107.996,125.632 112.5,123.5C 115.217,123.852 117.217,125.185 118.5,127.5 Z"/></g>
<g><path style="opacity:1" fill="#969897" d="M 57.5,137.5 C 57.3668,140.925 58.0335,141.258 59.5,138.5C 59.8279,149.679 59.4946,160.679 58.5,171.5C 58.6664,162.494 58.4998,153.494 58,144.5C 57.5003,152.493 57.3336,160.493 57.5,168.5C 56.1667,158.167 56.1667,147.833 57.5,137.5 Z"/></g>
<g><path style="opacity:1" fill="#dee9e8" d="M 160.5,233.5 C 162.474,225.628 163.807,217.628 164.5,209.5C 164.391,206.332 163.225,203.665 161,201.5C 157.038,190.718 158.204,180.551 164.5,171C 164.59,161.329 164.423,151.496 164,141.5C 161.46,139.295 159.293,136.795 157.5,134C 155.473,132.121 153.14,130.954 150.5,130.5C 148.621,130.607 148.288,130.107 149.5,129C 151.167,128.333 152.833,128.333 154.5,129C 158.667,132.5 162.5,136.333 166,140.5C 166.667,151.5 166.667,162.5 166,173.5C 159.219,183.635 158.886,193.969 165,204.5C 166.598,214.784 165.098,224.451 160.5,233.5 Z"/></g>
<g><path style="opacity:1" fill="#575e5d" d="M 57.5,168.5 C 57.3336,160.493 57.5003,152.493 58,144.5C 58.4998,153.494 58.6664,162.494 58.5,171.5C 59.6909,174.889 61.1909,178.222 63,181.5C 64.291,189.498 63.291,197.164 60,204.5C 59.0513,235.616 71.8846,258.949 98.5,274.5C 104.366,278.14 110.699,279.307 117.5,278C 138.719,269.743 153.053,254.909 160.5,233.5C 165.098,224.451 166.598,214.784 165,204.5C 158.886,193.969 159.219,183.635 166,173.5C 166.667,162.5 166.667,151.5 166,140.5C 162.5,136.333 158.667,132.5 154.5,129C 152.833,128.333 151.167,128.333 149.5,129C 148.288,130.107 148.621,130.607 150.5,130.5C 149.791,131.404 148.791,131.737 147.5,131.5C 147.44,130.957 147.107,130.624 146.5,130.5C 139.907,133.044 133.24,133.878 126.5,133C 129.958,134.415 133.625,134.915 137.5,134.5C 134.642,135.166 131.642,135.833 128.5,136.5C 132.445,137.491 136.445,137.824 140.5,137.5C 138.527,138.163 136.361,138.496 134,138.5C 130.523,138.672 127.356,138.006 124.5,136.5C 125.552,136.649 126.552,136.483 127.5,136C 125.676,135.34 124.343,134.173 123.5,132.5C 124.239,132.631 124.906,132.464 125.5,132C 122.543,131.313 120.209,129.813 118.5,127.5C 130.314,131.834 141.814,131.168 153,125.5C 158.412,129.58 163.412,134.247 168,139.5C 168.667,151.5 168.667,163.5 168,175.5C 160.835,185.079 160.835,194.745 168,204.5C 167.486,240.72 150.653,265.887 117.5,280C 112.777,280.624 108.11,280.29 103.5,279C 71.2596,263.372 55.7596,237.539 57,201.5C 60.3001,197.899 61.8001,193.566 61.5,188.5C 61.7462,184.662 60.5795,181.328 58,178.5C 57.5017,175.183 57.335,171.85 57.5,168.5 Z"/></g>
<g><path style="opacity:1" fill="#2e3432" d="M 123.5,132.5 C 124.343,134.173 125.676,135.34 127.5,136C 126.552,136.483 125.552,136.649 124.5,136.5C 120.262,136.255 116.262,135.255 112.5,133.5C 105.324,136.498 97.8235,138.164 90,138.5C 84.1886,137.171 78.3553,136.004 72.5,135C 70.2911,136.873 68.4578,139.04 67,141.5C 65.7002,151.084 65.7002,160.751 67,170.5C 97.3514,170.522 127.851,170.522 158.5,170.5C 158.666,160.494 158.5,150.494 158,140.5C 153.13,134.824 147.296,133.824 140.5,137.5C 136.445,137.824 132.445,137.491 128.5,136.5C 131.642,135.833 134.642,135.166 137.5,134.5C 141.116,134.101 144.45,133.101 147.5,131.5C 148.791,131.737 149.791,131.404 150.5,130.5C 153.14,130.954 155.473,132.121 157.5,134C 159.293,136.795 161.46,139.295 164,141.5C 164.423,151.496 164.59,161.329 164.5,171C 158.204,180.551 157.038,190.718 161,201.5C 163.225,203.665 164.391,206.332 164.5,209.5C 163.807,217.628 162.474,225.628 160.5,233.5C 152.479,252.356 139.146,266.189 120.5,275C 116.572,276.325 112.572,276.658 108.5,276C 79.1187,264.457 63.452,242.957 61.5,211.5C 61.6667,208.833 61.8333,206.167 62,203.5C 63.6455,201.391 64.8122,199.057 65.5,196.5C 67.7264,194.82 69.3931,195.153 70.5,197.5C 70.082,200.765 68.9153,203.765 67,206.5C 65.8776,217.81 67.7109,228.644 72.5,239C 76.9317,245.932 81.9317,252.432 87.5,258.5C 93.9054,263.701 100.905,267.868 108.5,271C 112.261,271.738 115.928,271.405 119.5,270C 138.23,260.347 150.73,245.514 157,225.5C 157.915,220.676 158.748,215.843 159.5,211C 156.594,204.447 154.594,197.614 153.5,190.5C 153.803,184.922 155.136,179.589 157.5,174.5C 127.506,173.333 97.5056,173.167 67.5,174C 69.2226,176.943 70.2226,180.11 70.5,183.5C 69.9094,184.151 69.2427,184.818 68.5,185.5C 69.311,186.216 69.9777,187.05 70.5,188C 69.6138,190.112 69.6138,192.278 70.5,194.5C 69.5,194.5 68.5,194.5 67.5,194.5C 67.81,191.287 67.4767,188.287 66.5,185.5C 65.2944,180.751 63.7944,176.085 62,171.5C 61.3333,161.167 61.3333,150.833 62,140.5C 65.5364,137.299 68.7031,133.799 71.5,130C 78.3998,131.688 85.3998,133.188 92.5,134.5C 99.7882,134.29 106.455,132.29 112.5,128.5C 116.326,129.588 119.993,130.922 123.5,132.5 Z"/></g>
<g><path style="opacity:1" fill="#f4f7f6" d="M 124.5,136.5 C 127.356,138.006 130.523,138.672 134,138.5C 136.361,138.496 138.527,138.163 140.5,137.5C 147.296,133.824 153.13,134.824 158,140.5C 158.5,150.494 158.666,160.494 158.5,170.5C 127.851,170.522 97.3514,170.522 67,170.5C 65.7002,160.751 65.7002,151.084 67,141.5C 68.4578,139.04 70.2911,136.873 72.5,135C 78.3553,136.004 84.1886,137.171 90,138.5C 97.8235,138.164 105.324,136.498 112.5,133.5C 116.262,135.255 120.262,136.255 124.5,136.5 Z"/></g>
<g><path style="opacity:1" fill="#333535" d="M 120.5,143.5 C 121.833,143.5 123.167,143.5 124.5,143.5C 124.5,151.167 124.5,158.833 124.5,166.5C 123.167,166.5 121.833,166.5 120.5,166.5C 120.5,158.833 120.5,151.167 120.5,143.5 Z"/></g>
<g><path style="opacity:1" fill="#353939" d="M 72.5,143.5 C 73.8221,143.33 74.9887,143.663 76,144.5C 77.5792,148.714 78.7458,153.047 79.5,157.5C 81.33,153.379 82.6634,149.046 83.5,144.5C 84.7362,143.754 86.0695,143.421 87.5,143.5C 87.5,151.167 87.5,158.833 87.5,166.5C 86.5,166.5 85.5,166.5 84.5,166.5C 84.8204,163.102 84.487,159.768 83.5,156.5C 82.4512,159.08 81.7845,161.746 81.5,164.5C 80.1667,164.5 78.8333,164.5 77.5,164.5C 77.8186,162.25 77.3186,160.25 76,158.5C 75.5026,161.146 75.3359,163.813 75.5,166.5C 74.5,166.5 73.5,166.5 72.5,166.5C 72.5,158.833 72.5,151.167 72.5,143.5 Z"/></g>
<g><path style="opacity:1" fill="#373a36" d="M 89.5,143.5 C 93.1667,143.5 96.8333,143.5 100.5,143.5C 100.5,144.833 100.5,146.167 100.5,147.5C 97.8333,147.5 95.1667,147.5 92.5,147.5C 92.5,149.167 92.5,150.833 92.5,152.5C 94.1667,152.5 95.8333,152.5 97.5,152.5C 97.5,153.833 97.5,155.167 97.5,156.5C 95.8333,156.5 94.1667,156.5 92.5,156.5C 92.5,158.833 92.5,161.167 92.5,163.5C 95.1667,163.5 97.8333,163.5 100.5,163.5C 100.5,164.5 100.5,165.5 100.5,166.5C 96.8333,166.5 93.1667,166.5 89.5,166.5C 89.5,158.833 89.5,151.167 89.5,143.5 Z"/></g>
<g><path style="opacity:1" fill="#3b4240" d="M 131.5,143.5 C 134.966,143.285 137.633,144.618 139.5,147.5C 137.977,150.188 136.643,150.022 135.5,147C 134.5,146.333 133.5,146.333 132.5,147C 130.973,149.757 130.307,152.757 130.5,156C 130.667,158.167 130.833,160.333 131,162.5C 133.825,164.084 135.992,163.418 137.5,160.5C 138.452,162.045 138.785,163.712 138.5,165.5C 133.574,167.729 130.074,166.395 128,161.5C 127.172,157.129 127.339,152.795 128.5,148.5C 129.952,147.06 130.952,145.394 131.5,143.5 Z"/></g>
<g><path style="opacity:1" fill="#3f4342" d="M 146.5,142.5 C 151.092,141.916 153.925,143.916 155,148.5C 156.927,155.947 154.927,161.947 149,166.5C 147.237,166.025 145.57,165.358 144,164.5C 142.028,159.313 141.361,153.98 142,148.5C 142.804,145.854 144.304,143.854 146.5,142.5 Z"/></g>
<g><path style="opacity:1" fill="#363f3c" d="M 115.5,142.5 C 116.598,143.601 116.765,144.934 116,146.5C 111.286,152.817 111.786,158.817 117.5,164.5C 117.167,165.5 116.5,166.167 115.5,166.5C 113.844,163.81 111.844,161.477 109.5,159.5C 107.808,161.359 106.308,163.359 105,165.5C 105.487,161.51 106.32,157.51 107.5,153.5C 106.117,151.022 105.117,148.355 104.5,145.5C 104.833,144.833 105.167,144.167 105.5,143.5C 107.086,145.173 107.753,147.173 107.5,149.5C 108.93,149.579 110.264,149.246 111.5,148.5C 112.358,146.099 113.691,144.099 115.5,142.5 Z"/></g>
<g><path style="opacity:1" fill="#f1f0f4" d="M 146.5,145.5 C 149.238,144.965 151.072,145.965 152,148.5C 152.791,152.926 152.457,157.259 151,161.5C 147.348,162.995 145.348,161.661 145,157.5C 144.081,153.269 144.581,149.269 146.5,145.5 Z"/></g>
<g><path style="opacity:1" fill="#bac5c3" d="M 147.5,131.5 C 144.45,133.101 141.116,134.101 137.5,134.5C 133.625,134.915 129.958,134.415 126.5,133C 133.24,133.878 139.907,133.044 146.5,130.5C 147.107,130.624 147.44,130.957 147.5,131.5 Z"/></g>
<g><path style="opacity:1" fill="#fbfbfb" d="M 70.5,197.5 C 71.8333,192.833 71.8333,188.167 70.5,183.5C 70.2226,180.11 69.2226,176.943 67.5,174C 97.5056,173.167 127.506,173.333 157.5,174.5C 155.136,179.589 153.803,184.922 153.5,190.5C 154.594,197.614 156.594,204.447 159.5,211C 158.748,215.843 157.915,220.676 157,225.5C 150.73,245.514 138.23,260.347 119.5,270C 115.928,271.405 112.261,271.738 108.5,271C 100.905,267.868 93.9054,263.701 87.5,258.5C 81.9317,252.432 76.9317,245.932 72.5,239C 67.7109,228.644 65.8776,217.81 67,206.5C 68.9153,203.765 70.082,200.765 70.5,197.5 Z"/></g>
<g><path style="opacity:1" fill="#4c5955" d="M 70.5,183.5 C 71.8333,188.167 71.8333,192.833 70.5,197.5C 69.3931,195.153 67.7264,194.82 65.5,196.5C 66.3439,192.901 66.6773,189.234 66.5,185.5C 67.4767,188.287 67.81,191.287 67.5,194.5C 68.5,194.5 69.5,194.5 70.5,194.5C 69.6138,192.278 69.6138,190.112 70.5,188C 69.9777,187.05 69.311,186.216 68.5,185.5C 69.2427,184.818 69.9094,184.151 70.5,183.5 Z"/></g>
<g><path style="opacity:1" fill="#dbdfdf" d="M 118.5,127.5 C 120.209,129.813 122.543,131.313 125.5,132C 124.906,132.464 124.239,132.631 123.5,132.5C 119.993,130.922 116.326,129.588 112.5,128.5C 106.455,132.29 99.7882,134.29 92.5,134.5C 85.3998,133.188 78.3998,131.688 71.5,130C 68.7031,133.799 65.5364,137.299 62,140.5C 61.3333,150.833 61.3333,161.167 62,171.5C 63.7944,176.085 65.2944,180.751 66.5,185.5C 66.6773,189.234 66.3439,192.901 65.5,196.5C 64.8122,199.057 63.6455,201.391 62,203.5C 61.8333,206.167 61.6667,208.833 61.5,211.5C 63.452,242.957 79.1187,264.457 108.5,276C 112.572,276.658 116.572,276.325 120.5,275C 139.146,266.189 152.479,252.356 160.5,233.5C 153.053,254.909 138.719,269.743 117.5,278C 110.699,279.307 104.366,278.14 98.5,274.5C 71.8846,258.949 59.0513,235.616 60,204.5C 63.291,197.164 64.291,189.498 63,181.5C 61.1909,178.222 59.6909,174.889 58.5,171.5C 59.4946,160.679 59.8279,149.679 59.5,138.5C 63.8927,134.436 68.2261,130.436 72.5,126.5C 76.0869,128.087 79.7536,129.587 83.5,131C 92.8119,133.559 101.479,132.225 109.5,127C 112.531,126.505 115.531,126.671 118.5,127.5 Z"/></g>
<g><path style="opacity:1" fill="#2d3331" d="M 117.5,202.5 C 124.833,202.5 132.167,202.5 139.5,202.5C 139.664,205.187 139.497,207.854 139,210.5C 132.181,215.806 128.847,222.806 129,231.5C 126.007,236.925 123.84,236.591 122.5,230.5C 122.936,227.821 123.436,225.155 124,222.5C 125.48,217.599 127.98,213.266 131.5,209.5C 126.88,208.507 122.214,208.173 117.5,208.5C 117.5,206.5 117.5,204.5 117.5,202.5 Z"/></g>
<g><path style="opacity:1" fill="#2a3331" d="M 88.5,202.5 C 94.1667,202.5 99.8333,202.5 105.5,202.5C 105.739,204.467 105.406,206.301 104.5,208C 100.848,208.499 97.1817,208.665 93.5,208.5C 93.281,209.675 93.6143,210.675 94.5,211.5C 102.544,212.05 107.211,216.217 108.5,224C 105.77,234.192 99.437,237.858 89.5,235C 86.1558,233.106 84.8224,230.273 85.5,226.5C 87.8309,226.498 89.8309,227.331 91.5,229C 97.0782,230.825 101.078,229.158 103.5,224C 99.9765,216.329 95.1432,215.495 89,221.5C 88.3333,220.833 87.6667,220.167 87,219.5C 86.3114,213.72 86.8114,208.054 88.5,202.5 Z"/></g>
<g><path style="opacity:1" fill="#1b1a1b" d="M 100.5,295.5 C 101.5,295.5 102.5,295.5 103.5,295.5C 103.5,301.5 103.5,307.5 103.5,313.5C 102.5,313.5 101.5,313.5 100.5,313.5C 100.5,307.5 100.5,301.5 100.5,295.5 Z"/></g>
<g><path style="opacity:1" fill="#221d1e" d="M 192.5,295.5 C 195.518,295.335 198.518,295.502 201.5,296C 205.32,299.33 205.32,302.83 201.5,306.5C 202.457,308.918 203.791,311.084 205.5,313C 204.5,313.667 203.5,313.667 202.5,313C 201.167,311 199.833,309 198.5,307C 197.552,306.517 196.552,306.351 195.5,306.5C 195.5,308.833 195.5,311.167 195.5,313.5C 194.5,313.5 193.5,313.5 192.5,313.5C 192.5,307.5 192.5,301.5 192.5,295.5 Z"/></g>
<g><path style="opacity:1" fill="#faf7f9" d="M 195.5,298.5 C 197.199,298.34 198.866,298.506 200.5,299C 201.833,300.333 201.833,301.667 200.5,303C 198.866,303.494 197.199,303.66 195.5,303.5C 195.5,301.833 195.5,300.167 195.5,298.5 Z"/></g>
<g><path style="opacity:1" fill="#1f1c1c" d="M 219.5,296.5 C 221.035,297.844 222.368,299.511 223.5,301.5C 220.833,305.167 220.833,308.833 223.5,312.5C 221.653,313.83 220.153,313.497 219,311.5C 218.754,308.11 218.254,304.777 217.5,301.5C 218.174,299.805 218.841,298.138 219.5,296.5 Z"/></g>
<g><path style="opacity:1" fill="#1f1b1b" d="M 18.5,295.5 C 19.8221,295.33 20.9887,295.663 22,296.5C 23.6667,299.833 25.3333,303.167 27,306.5C 27.4986,302.848 27.6653,299.182 27.5,295.5C 28.5,295.5 29.5,295.5 30.5,295.5C 30.5,301.5 30.5,307.5 30.5,313.5C 28.6096,313.703 27.1096,313.037 26,311.5C 22.0129,299.625 20.5129,300.292 21.5,313.5C 20.5,313.5 19.5,313.5 18.5,313.5C 18.5,307.5 18.5,301.5 18.5,295.5 Z"/></g>
<g><path style="opacity:1" fill="#211e1e" d="M 109.5,300.5 C 111.722,300.178 113.556,300.845 115,302.5C 115.207,306.089 115.707,309.589 116.5,313C 113.833,312.333 111.167,312.333 108.5,313C 105.64,309.278 106.64,306.778 111.5,305.5C 112.386,304.675 112.719,303.675 112.5,302.5C 110.488,303.014 108.488,303.18 106.5,303C 107.571,302.148 108.571,301.315 109.5,300.5 Z"/></g>
<g><path style="opacity:1" fill="#1e1b1a" d="M 75.5,300.5 C 78.5076,301.138 81.5076,301.471 84.5,301.5C 85.4909,305.445 85.8242,309.445 85.5,313.5C 84.5,313.5 83.5,313.5 82.5,313.5C 82.665,310.15 82.4983,306.817 82,303.5C 81,302.167 80,302.167 79,303.5C 78.5017,306.817 78.335,310.15 78.5,313.5C 77.5,313.5 76.5,313.5 75.5,313.5C 75.5,309.167 75.5,304.833 75.5,300.5 Z"/></g>
<g><path style="opacity:1" fill="#211d1d" d="M 119.5,295.5 C 120.138,297.573 121.138,299.573 122.5,301.5C 119.833,305.167 119.833,308.833 122.5,312.5C 120.994,313.747 119.494,313.747 118,312.5C 117.762,308.778 117.262,305.111 116.5,301.5C 117.129,299.259 118.129,297.259 119.5,295.5 Z"/></g>
<g><path style="opacity:1" fill="#212020" d="M 146.5,300.5 C 149.547,299.855 151.713,300.855 153,303.5C 153.824,306.882 153.657,310.216 152.5,313.5C 150.657,313.245 148.657,313.078 146.5,313C 144.789,311.867 144.289,310.367 145,308.5C 146.957,307.111 148.79,305.611 150.5,304C 150.167,303.5 149.833,303 149.5,302.5C 145.218,304.275 144.218,303.608 146.5,300.5 Z"/></g>
<g><path style="opacity:1" fill="#232122" d="M 226.5,300.5 C 229.272,300.22 231.772,300.887 234,302.5C 234.207,306.089 234.707,309.589 235.5,313C 232.833,312.333 230.167,312.333 227.5,313C 224.64,309.278 225.64,306.778 230.5,305.5C 231.386,304.675 231.719,303.675 231.5,302.5C 229.488,303.014 227.488,303.18 225.5,303C 226.252,302.329 226.586,301.496 226.5,300.5 Z"/></g>
<g><path style="opacity:1" fill="#1e1d1c" d="M 136.5,300.5 C 138.124,300.36 139.29,301.027 140,302.5C 142.178,299.532 143.344,299.865 143.5,303.5C 142.178,303.33 141.011,303.663 140,304.5C 139.502,307.482 139.335,310.482 139.5,313.5C 138.5,313.5 137.5,313.5 136.5,313.5C 136.5,309.167 136.5,304.833 136.5,300.5 Z"/></g>
<g><path style="opacity:1" fill="#262524" d="M 89.5,300.5 C 93.1262,299.861 94.9595,301.194 95,304.5C 91.827,301.671 90.327,302.505 90.5,307C 90.327,311.495 91.827,312.329 95,309.5C 95.4828,310.448 95.6495,311.448 95.5,312.5C 90.3517,314.42 87.685,312.586 87.5,307C 87.4824,304.59 88.1491,302.423 89.5,300.5 Z"/></g>
<g><path style="opacity:1" fill="#1d1b1c" d="M 45.5,300.5 C 47.4771,301.149 49.3105,301.149 51,300.5C 52.2613,300.759 53.2613,301.426 54,302.5C 56.112,300.078 58.112,300.078 60,302.5C 60.4986,306.152 60.6653,309.818 60.5,313.5C 59.5,313.5 58.5,313.5 57.5,313.5C 57.8226,309.774 57.4892,306.107 56.5,302.5C 55.914,302.709 55.414,303.043 55,303.5C 54.5017,306.817 54.335,310.15 54.5,313.5C 53.5,313.5 52.5,313.5 51.5,313.5C 51.8226,309.774 51.4892,306.107 50.5,302.5C 49.914,302.709 49.414,303.043 49,303.5C 48.5017,306.817 48.335,310.15 48.5,313.5C 47.5,313.5 46.5,313.5 45.5,313.5C 45.5,309.167 45.5,304.833 45.5,300.5 Z"/></g>
<g><path style="opacity:1" fill="#252324" d="M 176.5,300.5 C 181.694,299.855 184.028,302.189 183.5,307.5C 181.5,307.5 179.5,307.5 177.5,307.5C 177.483,311.377 178.649,312.043 181,309.5C 181.75,310.126 182.584,310.626 183.5,311C 178.02,314.927 175.02,313.427 174.5,306.5C 174.719,304.307 175.385,302.307 176.5,300.5 Z"/></g>
<g><path style="opacity:1" fill="#f5f3f4" d="M 178.5,302.5 C 180.625,303.368 180.791,304.368 179,305.5C 177.317,304.824 177.15,303.824 178.5,302.5 Z"/></g>
<g><path style="opacity:1" fill="#292525" d="M 66.5,300.5 C 71.6943,299.855 74.0276,302.189 73.5,307.5C 71.5,307.5 69.5,307.5 67.5,307.5C 67.4825,311.377 68.6492,312.043 71,309.5C 73.0824,311.679 72.5824,313.013 69.5,313.5C 64.8178,311.766 63.3178,308.433 65,303.5C 65.5133,302.473 66.0133,301.473 66.5,300.5 Z"/></g>
<g><path style="opacity:1" fill="#f7f2f2" d="M 68.5,302.5 C 70.6246,303.368 70.7913,304.368 69,305.5C 67.3167,304.824 67.1501,303.824 68.5,302.5 Z"/></g>
<g><path style="opacity:1" fill="#ebe9ea" d="M 229.5,307.5 C 232.041,308.623 232.041,309.956 229.5,311.5C 228.374,310.192 228.374,308.858 229.5,307.5 Z"/></g>
<g><path style="opacity:1" fill="#e4e1e2" d="M 110.5,307.5 C 112.176,308.183 112.843,309.517 112.5,311.5C 111.5,311.5 110.5,311.5 109.5,311.5C 109.433,310.041 109.766,308.708 110.5,307.5 Z"/></g>
<g><path style="opacity:1" fill="#ebeaeb" d="M 148.5,307.5 C 151.041,308.623 151.041,309.956 148.5,311.5C 147.374,310.192 147.374,308.858 148.5,307.5 Z"/></g>
<g><path style="opacity:1" fill="#1e1d1b" d="M 124.5,300.5 C 125.5,300.5 126.5,300.5 127.5,300.5C 127.5,304.167 127.5,307.833 127.5,311.5C 128.822,311.67 129.989,311.337 131,310.5C 131.498,307.183 131.665,303.85 131.5,300.5C 132.5,300.5 133.5,300.5 134.5,300.5C 134.5,304.833 134.5,309.167 134.5,313.5C 132.278,312.614 130.112,312.614 128,313.5C 126.739,313.241 125.739,312.574 125,311.5C 124.501,307.848 124.335,304.182 124.5,300.5 Z"/></g>
<g><path style="opacity:1" fill="#242121" d="M 35.5,300.5 C 43.5762,301.009 45.5762,304.843 41.5,312C 37.971,314.379 35.471,313.546 34,309.5C 33.2119,306.228 33.7119,303.228 35.5,300.5 Z"/></g>
<g><path style="opacity:1" fill="#eeeaea" d="M 37.5,302.5 C 39.9497,302.874 40.9497,304.374 40.5,307C 40.6906,308.973 40.024,310.473 38.5,311.5C 36.215,308.822 35.8817,305.822 37.5,302.5 Z"/></g>
<g><path style="opacity:1" fill="#222220" d="M 168.5,295.5 C 169.5,295.5 170.5,295.5 171.5,295.5C 171.5,301.5 171.5,307.5 171.5,313.5C 168.938,312.82 166.271,312.653 163.5,313C 160.935,308.969 160.935,304.969 163.5,301C 165.112,300.28 166.612,300.446 168,301.5C 168.495,299.527 168.662,297.527 168.5,295.5 Z"/></g>
<g><path style="opacity:1" fill="#f2f1ef" d="M 165.5,302.5 C 167.95,302.874 168.95,304.374 168.5,307C 168.691,308.973 168.024,310.473 166.5,311.5C 164.215,308.822 163.882,305.822 165.5,302.5 Z"/></g>
<g><path style="opacity:1" fill="#221f1e" d="M 206.5,300.5 C 207.5,300.5 208.5,300.5 209.5,300.5C 209.335,303.85 209.502,307.183 210,310.5C 211,311.833 212,311.833 213,310.5C 213.498,307.183 213.665,303.85 213.5,300.5C 214.5,300.5 215.5,300.5 216.5,300.5C 216.5,304.833 216.5,309.167 216.5,313.5C 214.278,312.614 212.112,312.614 210,313.5C 208.739,313.241 207.739,312.574 207,311.5C 206.501,307.848 206.335,304.182 206.5,300.5 Z"/></g>
<g><path style="opacity:1" fill="#1d1a1a" d="M 221.5,323.5 C 222.5,323.5 223.5,323.5 224.5,323.5C 224.5,329.5 224.5,335.5 224.5,341.5C 223.5,341.5 222.5,341.5 221.5,341.5C 221.5,335.5 221.5,329.5 221.5,323.5 Z"/></g>
<g><path style="opacity:1" fill="#211d1d" d="M 112.5,324.5 C 114.035,325.844 115.368,327.511 116.5,329.5C 113.833,333.167 113.833,336.833 116.5,340.5C 114.994,341.747 113.494,341.747 112,340.5C 111.762,336.778 111.262,333.111 110.5,329.5C 111.174,327.805 111.841,326.138 112.5,324.5 Z"/></g>
<g><path style="opacity:1" fill="#1f1a1b" d="M 91.5,328.5 C 93.1238,328.36 94.2904,329.027 95,330.5C 97.1777,327.532 98.3444,327.865 98.5,331.5C 97.1779,331.33 96.0113,331.663 95,332.5C 94.502,335.482 94.3354,338.482 94.5,341.5C 93.5,341.5 92.5,341.5 91.5,341.5C 91.5,337.167 91.5,332.833 91.5,328.5 Z"/></g>
<g><path style="opacity:1" fill="#1d1b1b" d="M 154.5,323.5 C 158.167,323.5 161.833,323.5 165.5,323.5C 165.5,324.5 165.5,325.5 165.5,326.5C 162.833,326.5 160.167,326.5 157.5,326.5C 157.5,327.833 157.5,329.167 157.5,330.5C 159.833,330.5 162.167,330.5 164.5,330.5C 164.5,331.5 164.5,332.5 164.5,333.5C 162.167,333.5 159.833,333.5 157.5,333.5C 157.5,336.167 157.5,338.833 157.5,341.5C 156.5,341.5 155.5,341.5 154.5,341.5C 154.5,335.5 154.5,329.5 154.5,323.5 Z"/></g>
<g><path style="opacity:1" fill="#1d1b1c" d="M 129.5,328.5 C 131.124,328.36 132.29,329.027 133,330.5C 135.178,327.532 136.344,327.865 136.5,331.5C 135.178,331.33 134.011,331.663 133,332.5C 132.502,335.482 132.335,338.482 132.5,341.5C 131.5,341.5 130.5,341.5 129.5,341.5C 129.5,337.167 129.5,332.833 129.5,328.5 Z"/></g>
<g><path style="opacity:1" fill="#222121" d="M 140.5,328.5 C 142.722,328.178 144.556,328.845 146,330.5C 146.207,334.089 146.707,337.589 147.5,341C 144.495,340.839 141.495,340.672 138.5,340.5C 137.32,336.324 138.987,333.991 143.5,333.5C 143.5,332.5 143.5,331.5 143.5,330.5C 141.488,331.014 139.488,331.18 137.5,331C 138.571,330.148 139.571,329.315 140.5,328.5 Z"/></g>
<g><path style="opacity:1" fill="#231f20" d="M 101.5,328.5 C 106.649,327.854 108.982,330.187 108.5,335.5C 106.5,335.5 104.5,335.5 102.5,335.5C 102.483,339.377 103.649,340.043 106,337.5C 106.75,338.126 107.584,338.626 108.5,339C 102.732,342.946 99.732,341.279 99.5,334C 99.9543,332.061 100.621,330.228 101.5,328.5 Z"/></g>
<g><path style="opacity:1" fill="#e0dcdd" d="M 102.5,330.5 C 103.5,330.5 104.5,330.5 105.5,330.5C 105.5,331.5 105.5,332.5 105.5,333.5C 104.5,333.5 103.5,333.5 102.5,333.5C 102.5,332.5 102.5,331.5 102.5,330.5 Z"/></g>
<g><path style="opacity:1" fill="#1d1a1b" d="M 202.5,328.5 C 204.124,328.36 205.29,329.027 206,330.5C 208.178,327.532 209.344,327.865 209.5,331.5C 208.178,331.33 207.011,331.663 206,332.5C 205.502,335.482 205.335,338.482 205.5,341.5C 204.5,341.5 203.5,341.5 202.5,341.5C 202.5,337.167 202.5,332.833 202.5,328.5 Z"/></g>
<g><path style="opacity:1" fill="#222020" d="M 35.5,323.5 C 36.5,323.5 37.5,323.5 38.5,323.5C 38.5,329.5 38.5,335.5 38.5,341.5C 36.5229,340.851 34.6895,340.851 33,341.5C 28.7811,339.458 27.4478,336.125 29,331.5C 30.4164,328.805 32.4164,328.139 35,329.5C 35.4955,327.527 35.6621,325.527 35.5,323.5 Z"/></g>
<g><path style="opacity:1" fill="#f7f3f3" d="M 32.5,330.5 C 34.9497,330.874 35.9497,332.374 35.5,335C 35.6906,336.973 35.024,338.473 33.5,339.5C 31.215,336.822 30.8817,333.822 32.5,330.5 Z"/></g>
<g><path style="opacity:1" fill="#231f21" d="M 74.5,328.5 C 77.0444,328.104 79.2111,328.771 81,330.5C 81.8253,334.211 81.6586,337.878 80.5,341.5C 79.0325,340.305 77.5325,340.305 76,341.5C 73.2765,340.792 72.2765,339.125 73,336.5C 74.9571,335.111 76.7904,333.611 78.5,332C 78.1667,331.5 77.8333,331 77.5,330.5C 73.2176,332.275 72.2176,331.608 74.5,328.5 Z"/></g>
<g><path style="opacity:1" fill="#221e1f" d="M 43.5,328.5 C 47.6383,328.973 49.6383,331.307 49.5,335.5C 47.5,335.5 45.5,335.5 43.5,335.5C 43.5196,339.513 44.853,340.18 47.5,337.5C 48.9483,339.808 48.2817,341.141 45.5,341.5C 39.6908,338.104 39.0242,333.771 43.5,328.5 Z"/></g>
<g><path style="opacity:1" fill="#ece8e8" d="M 44.5,330.5 C 46.0481,330.821 46.7148,331.821 46.5,333.5C 43.7524,333.598 43.0857,332.598 44.5,330.5 Z"/></g>
<g><path style="opacity:1" fill="#1e1d1e" d="M 185.5,323.5 C 186.5,323.5 187.5,323.5 188.5,323.5C 188.5,329.5 188.5,335.5 188.5,341.5C 185.838,340.361 183.171,340.194 180.5,341C 177.935,336.969 177.935,332.969 180.5,329C 182.112,328.28 183.612,328.446 185,329.5C 185.495,327.527 185.662,325.527 185.5,323.5 Z"/></g>
<g><path style="opacity:1" fill="#232021" d="M 193.5,328.5 C 197.638,328.973 199.638,331.307 199.5,335.5C 197.5,335.5 195.5,335.5 193.5,335.5C 193.52,339.513 194.853,340.18 197.5,337.5C 198.308,337.808 198.975,338.308 199.5,339C 194.128,342.844 191.128,341.344 190.5,334.5C 190.628,332.045 191.628,330.045 193.5,328.5 Z"/></g>
<g><path style="opacity:1" fill="#ebe7e8" d="M 193.5,330.5 C 197.31,331.754 197.31,332.754 193.5,333.5C 193.5,332.5 193.5,331.5 193.5,330.5 Z"/></g>
<g><path style="opacity:1" fill="#ece6e8" d="M 76.5,335.5 C 79.0414,336.623 79.0414,337.956 76.5,339.5C 75.3744,338.192 75.3744,336.858 76.5,335.5 Z"/></g>
<g><path style="opacity:1" fill="#ebebeb" d="M 141.5,335.5 C 144.041,336.623 144.041,337.956 141.5,339.5C 140.374,338.192 140.374,336.858 141.5,335.5 Z"/></g>
<g><path style="opacity:1" fill="#232020" d="M 169.5,328.5 C 173.638,328.973 175.638,331.307 175.5,335.5C 173.5,335.5 171.5,335.5 169.5,335.5C 169.502,339.541 170.835,340.208 173.5,337.5C 174.308,337.808 174.975,338.308 175.5,339C 170.128,342.844 167.128,341.344 166.5,334.5C 166.628,332.045 167.628,330.045 169.5,328.5 Z"/></g>
<g><path style="opacity:1" fill="#ebe7e6" d="M 169.5,330.5 C 173.31,331.754 173.31,332.754 169.5,333.5C 169.5,332.5 169.5,331.5 169.5,330.5 Z"/></g>
<g><path style="opacity:1" fill="#f1f0f0" d="M 182.5,330.5 C 184.95,330.874 185.95,332.374 185.5,335C 185.691,336.973 185.024,338.473 183.5,339.5C 181.215,336.822 180.882,333.822 182.5,330.5 Z"/></g>
<g><path style="opacity:1" fill="#262121" d="M 121.5,328.5 C 125.638,328.973 127.638,331.307 127.5,335.5C 125.5,335.5 123.5,335.5 121.5,335.5C 121.502,339.541 122.835,340.208 125.5,337.5C 126.308,337.808 126.975,338.308 127.5,339C 124.422,342.477 121.589,342.31 119,338.5C 117.861,334.579 118.695,331.246 121.5,328.5 Z"/></g>
<g><path style="opacity:1" fill="#ebe7e6" d="M 121.5,330.5 C 125.31,331.754 125.31,332.754 121.5,333.5C 121.5,332.5 121.5,331.5 121.5,330.5 Z"/></g>
<g><path style="opacity:1" fill="#231e1f" d="M 212.5,328.5 C 214.936,328.317 217.103,328.984 219,330.5C 219.207,334.089 219.707,337.589 220.5,341C 218.138,340.496 215.805,340.663 213.5,341.5C 209.313,338.015 209.979,335.348 215.5,333.5C 216.386,332.675 216.719,331.675 216.5,330.5C 214.488,331.014 212.488,331.18 210.5,331C 211.381,330.292 212.047,329.458 212.5,328.5 Z"/></g>
<g><path style="opacity:1" fill="#e7e2e4" d="M 214.5,335.5 C 216.176,336.183 216.843,337.517 216.5,339.5C 215.5,339.5 214.5,339.5 213.5,339.5C 213.433,338.041 213.766,336.708 214.5,335.5 Z"/></g>
<g><path style="opacity:1" fill="#272526" d="M 62.5,323.5 C 65.99,323.245 68.6567,324.578 70.5,327.5C 70,327.833 69.5,328.167 69,328.5C 61.4133,325.413 58.7466,328.08 61,336.5C 64.1588,339.341 66.4922,338.674 68,334.5C 70.9304,335.905 71.0971,337.738 68.5,340C 61.5854,342.613 57.9187,340.113 57.5,332.5C 57.3769,328.405 59.0435,325.405 62.5,323.5 Z"/></g>
<g><path style="opacity:1" fill="#201b1d" d="M 83.5,328.5 C 85.1238,328.36 86.2904,329.027 87,330.5C 89.1777,327.532 90.3444,327.865 90.5,331.5C 89.1779,331.33 88.0113,331.663 87,332.5C 86.502,335.482 86.3354,338.482 86.5,341.5C 85.5,341.5 84.5,341.5 83.5,341.5C 83.5,337.167 83.5,332.833 83.5,328.5 Z"/></g>
<g><path style="opacity:1" fill="#f2f2f2" d="M 336.5,402.5 C 329.156,402.779 321.823,403.279 314.5,404C 315.167,404.333 315.833,404.667 316.5,405C 315.044,405.423 314.544,406.256 315,407.5C 316.333,406.833 317.333,405.833 318,404.5C 318.79,406.79 320.124,407.123 322,405.5C 323.722,405.611 323.888,406.111 322.5,407C 323.667,407.167 324.833,407.333 326,407.5C 328.672,407.746 330.172,407.079 330.5,405.5C 332.633,405.903 334.633,405.903 336.5,405.5C 336.36,407.124 337.027,408.29 338.5,409C 337.5,409.333 336.5,409.667 335.5,410C 335.833,410.333 336.167,410.667 336.5,411C 333.936,412.736 334.269,413.902 337.5,414.5C 333.5,418.833 333.5,423.167 337.5,427.5C 335.521,428.206 333.854,428.206 332.5,427.5C 332.5,421.5 332.5,415.5 332.5,409.5C 331.5,409.5 330.5,409.5 329.5,409.5C 329.662,411.527 329.495,413.527 329,415.5C 325.613,413.682 323.613,414.682 323,418.5C 322.207,421.741 322.707,424.741 324.5,427.5C 323.733,428.172 323.066,429.005 322.5,430C 321.551,430.617 320.718,430.451 320,429.5C 317.81,432.249 316.143,431.915 315,428.5C 314.333,429.833 313.667,431.167 313,432.5C 312.25,431.874 311.416,431.374 310.5,431C 311.956,430.577 312.456,429.744 312,428.5C 310.561,430.014 309.061,430.347 307.5,429.5C 306.466,432.125 305.466,432.125 304.5,429.5C 305.167,428.167 305.833,426.833 306.5,425.5C 308.282,427.687 310.448,428.02 313,426.5C 313.373,423.142 312.539,422.808 310.5,425.5C 308.889,424.68 308.222,423.346 308.5,421.5C 310.5,421.5 312.5,421.5 314.5,421.5C 314.416,416.393 312.083,414.393 307.5,415.5C 306.163,414.685 305.163,413.518 304.5,412C 303.552,411.517 302.552,411.351 301.5,411.5C 301.631,410.761 301.464,410.094 301,409.5C 299.185,411.1 298.018,413.1 297.5,415.5C 298.262,419.111 298.762,422.778 299,426.5C 299.852,427.571 300.685,428.571 301.5,429.5C 301.833,429.5 302.167,429.5 302.5,429.5C 301.719,431.322 300.552,431.989 299,431.5C 297.008,430.335 295.175,429.002 293.5,427.5C 295.248,425.84 295.748,423.84 295,421.5C 293.054,420.253 291.22,418.92 289.5,417.5C 291.259,416.246 292.759,416.579 294,418.5C 294.5,418 295,417.5 295.5,417C 292.725,414.084 289.892,413.918 287,416.5C 286.734,419.915 288.4,421.915 292,422.5C 292.483,423.448 292.649,424.448 292.5,425.5C 290.61,425.703 289.11,425.037 288,423.5C 286.413,424.846 286.58,426.179 288.5,427.5C 288.631,428.376 288.298,429.043 287.5,429.5C 287.704,428.471 287.204,427.471 286,426.5C 284.513,427.253 284.346,428.086 285.5,429C 284.216,429.684 283.049,429.517 282,428.5C 281.667,429.167 281.333,429.833 281,430.5C 279.327,428.083 277.494,428.083 275.5,430.5C 274.059,429.135 272.726,427.635 271.5,426C 273.426,425.578 274.426,424.411 274.5,422.5C 276.568,428.141 279.735,428.808 284,424.5C 285.971,418.172 283.805,415.006 277.5,415C 276.364,416.145 275.364,417.312 274.5,418.5C 274.565,418.062 274.399,417.728 274,417.5C 273.316,419.359 272.316,421.026 271,422.5C 270.005,421.934 269.172,421.267 268.5,420.5C 269.209,419.596 270.209,419.263 271.5,419.5C 272.263,416.859 272.43,414.192 272,411.5C 270.556,409.845 268.722,409.178 266.5,409.5C 266.389,408.883 266.056,408.383 265.5,408C 266.125,405.2 266.792,402.366 267.5,399.5C 269.563,411.246 270.563,411.246 270.5,399.5C 273.5,399.5 276.5,399.5 279.5,399.5C 281.244,393.062 278.91,389.228 272.5,388C 274.615,387.576 275.448,386.409 275,384.5C 274.311,385.357 273.478,386.023 272.5,386.5C 269.794,386.113 267.461,385.113 265.5,383.5C 267.059,381.869 269.059,381.036 271.5,381C 269.744,380.798 268.078,380.298 266.5,379.5C 266.833,379.167 267.167,378.833 267.5,378.5C 274.069,379.617 274.069,379.117 267.5,377C 266.941,376.275 266.608,375.442 266.5,374.5C 267.096,365.516 267.096,356.516 266.5,347.5C 266.68,344.927 267.68,342.76 269.5,341C 270.833,341 272.167,341 273.5,341C 270.751,338.81 271.085,337.143 274.5,336C 271.605,334.209 270.772,331.709 272,328.5C 271.395,330.481 270.395,330.815 269,329.5C 267.465,318.732 266.632,307.898 266.5,297C 267.129,236.582 267.129,175.916 266.5,115C 266.613,113.72 267.28,112.887 268.5,112.5C 271.635,111.863 274.635,112.529 277.5,114.5C 278.696,114.154 278.696,113.654 277.5,113C 280.5,112.833 283.5,112.667 286.5,112.5C 298.743,113.591 310.909,113.591 323,112.5C 324.473,112.903 325.806,113.57 327,114.5C 329.795,113.217 332.628,113.217 335.5,114.5C 322.232,115.823 322.232,116.49 335.5,116.5C 336.608,187.558 336.608,260.558 335.5,335.5C 333.84,335.486 332.174,335.486 330.5,335.5C 330.533,336.989 331.033,338.322 332,339.5C 333.099,336.956 334.265,336.956 335.5,339.5C 334.592,341.612 334.592,343.945 335.5,346.5C 335.396,350.286 334.729,350.286 333.5,346.5C 332.246,348.259 332.579,349.759 334.5,351C 333.773,352.399 333.273,353.899 333,355.5C 332.107,354.289 331.274,354.289 330.5,355.5C 331.025,356.192 331.692,356.692 332.5,357C 329.428,361.081 330.428,363.914 335.5,365.5C 334.418,365.749 333.085,365.915 331.5,366C 333.301,366.317 333.634,366.984 332.5,368C 333.784,368.684 334.951,368.517 336,367.5C 336.666,374.185 336.499,380.851 335.5,387.5C 335.572,392.017 336.572,396.183 338.5,400C 337.244,400.417 336.577,401.25 336.5,402.5 Z"/></g>
<g><path style="opacity:1" fill="#b7b7b7" d="M 302.5,367.5 C 300.843,376.986 299.843,386.653 299.5,396.5C 295.232,394.685 294.899,394.018 298.5,394.5C 299.498,385.525 299.832,376.525 299.5,367.5C 300.5,367.5 301.5,367.5 302.5,367.5 Z"/></g>
<g><path style="opacity:1" fill="#6b6b6b" d="M 302.5,367.5 C 304.048,367.821 304.715,368.821 304.5,370.5C 303.504,370.586 302.671,370.252 302,369.5C 301.187,382.575 301.354,395.575 302.5,408.5C 300.869,404.768 299.869,400.768 299.5,396.5C 299.843,386.653 300.843,376.986 302.5,367.5 Z"/></g>
<g><path style="opacity:1" fill="#717171" d="M 299.5,331.5 C 299.833,331.5 300.167,331.5 300.5,331.5C 300.95,337.643 300.95,343.643 300.5,349.5C 300.552,354.385 301.386,359.051 303,363.5C 303.17,352.992 303.67,342.659 304.5,332.5C 304.832,343.187 304.499,353.854 303.5,364.5C 302.28,365.711 301.113,365.711 300,364.5C 299.5,353.505 299.333,342.505 299.5,331.5 Z"/></g>
<g><path style="opacity:1" fill="#bebebe" d="M 300.5,331.5 C 301.833,331.5 303.167,331.5 304.5,331.5C 304.5,331.833 304.5,332.167 304.5,332.5C 303.67,342.659 303.17,352.992 303,363.5C 301.386,359.051 300.552,354.385 300.5,349.5C 300.95,343.643 300.95,337.643 300.5,331.5 Z"/></g>
<g><path style="opacity:1" fill="#212121" d="M 324.5,326.5 C 325.434,327.568 325.768,328.901 325.5,330.5C 318.588,331.462 311.588,331.795 304.5,331.5C 303.167,331.5 301.833,331.5 300.5,331.5C 300.167,331.5 299.833,331.5 299.5,331.5C 294.167,331.5 288.833,331.5 283.5,331.5C 282.4,330.442 281.066,329.608 279.5,329C 286.346,328.828 293.013,328.328 299.5,327.5C 306.833,327.5 314.167,327.5 321.5,327.5C 322.791,327.737 323.791,327.404 324.5,326.5 Z"/></g>
<g><path style="opacity:1" fill="#343434" d="M 312.5,315.5 C 305.616,324.603 298.783,324.603 292,315.5C 289.711,309.027 290.544,303.027 294.5,297.5C 303.839,292.672 310.006,295.339 313,305.5C 313.388,308.849 313.221,312.183 312.5,315.5 Z"/></g>
<g><path style="opacity:1" fill="#e5e5e5" d="M 299.5,298.5 C 305.998,298.833 309.331,302.333 309.5,309C 309.485,314.222 306.985,317.389 302,318.5C 296.719,317.138 294.219,313.638 294.5,308C 294.631,305.747 295.131,303.581 296,301.5C 297.518,300.837 298.685,299.837 299.5,298.5 Z"/></g>
<g><path style="opacity:1" fill="#f1f1f1" d="M 316.5,224.5 C 316.833,224.5 317.167,224.5 317.5,224.5C 318.008,226.233 318.841,226.566 320,225.5C 321.53,227.226 322.53,229.226 323,231.5C 323.333,229.833 323.667,228.167 324,226.5C 324.5,244.164 324.667,261.83 324.5,279.5C 322.435,278.555 320.601,277.888 319,277.5C 318.581,278.672 317.915,279.672 317,280.5C 315.736,278.393 313.903,277.393 311.5,277.5C 311.821,272.305 311.487,267.305 310.5,262.5C 303.35,266.795 296.85,272.128 291,278.5C 290.506,280.134 290.34,281.801 290.5,283.5C 294.652,284.552 298.985,285.386 303.5,286C 302.376,286.249 301.376,286.749 300.5,287.5C 301.641,288.425 301.641,289.259 300.5,290C 298.833,290.333 297.167,290.667 295.5,291C 298.099,291.769 300.599,291.602 303,290.5C 303.75,291.126 304.584,291.626 305.5,292C 303.109,293.035 300.776,293.202 298.5,292.5C 297.304,292.846 297.304,293.346 298.5,294C 296.754,294.471 295.087,295.138 293.5,296C 294.056,296.383 294.389,296.883 294.5,297.5C 290.544,303.027 289.711,309.027 292,315.5C 298.783,324.603 305.616,324.603 312.5,315.5C 314.713,313.042 315.879,310.042 316,306.5C 316.616,309.758 316.283,312.758 315,315.5C 315.667,314.833 316.333,314.167 317,313.5C 317.333,310.5 317.667,307.5 318,304.5C 322.913,308.745 324.913,314.078 324,320.5C 323.346,319.304 322.846,319.304 322.5,320.5C 323.722,322.909 323.055,324.742 320.5,326C 321.056,326.383 321.389,326.883 321.5,327.5C 314.167,327.5 306.833,327.5 299.5,327.5C 292.8,327.83 286.134,327.497 279.5,326.5C 278.538,319.892 278.205,313.226 278.5,306.5C 278.333,282.498 278.5,258.498 279,234.5C 279.333,235.5 279.667,236.5 280,237.5C 280.333,234.5 280.667,231.5 281,228.5C 282.674,231.75 284.841,231.75 287.5,228.5C 288.244,229.991 288.91,231.491 289.5,233C 288.366,234.016 288.699,234.683 290.5,235C 288.699,235.317 288.366,235.984 289.5,237C 288.362,238.734 287.862,240.568 288,242.5C 289.333,241.833 290.333,240.833 291,239.5C 292.067,240.191 293.234,240.691 294.5,241C 290.815,241.914 291.148,242.581 295.5,243C 293.998,243.583 292.665,244.416 291.5,245.5C 291.788,246.861 292.121,248.194 292.5,249.5C 291.366,252.37 290.7,255.37 290.5,258.5C 297.833,258.5 305.167,258.5 312.5,258.5C 312.5,256.833 312.5,255.167 312.5,253.5C 306.824,253.666 301.157,253.499 295.5,253C 296.453,251.045 297.787,249.378 299.5,248C 303.172,246.497 306.838,244.997 310.5,243.5C 312.709,240.365 313.043,237.032 311.5,233.5C 311.918,232.778 312.584,232.278 313.5,232C 311.416,230.229 309.082,228.896 306.5,228C 310.836,229.506 314.169,228.34 316.5,224.5 Z"/></g>
<g><path style="opacity:1" fill="#363636" d="M 273.5,143.5 C 275.243,144.641 276.243,146.308 276.5,148.5C 273.199,162.579 276.865,174.579 287.5,184.5C 283.818,185.275 281.318,183.941 280,180.5C 278.795,181.071 277.628,181.738 276.5,182.5C 277.025,183.192 277.692,183.692 278.5,184C 275.162,185.988 274.828,188.321 277.5,191C 276.651,194.107 276.317,197.107 276.5,200C 277.737,200.232 278.737,200.732 279.5,201.5C 278.193,219.183 277.527,237.017 277.5,255C 277.5,272.337 277.833,289.503 278.5,306.5C 278.205,313.226 278.538,319.892 279.5,326.5C 286.134,327.497 292.8,327.83 299.5,327.5C 293.013,328.328 286.346,328.828 279.5,329C 281.066,329.608 282.4,330.442 283.5,331.5C 280.072,331.453 277.072,330.287 274.5,328C 274.957,327.586 275.291,327.086 275.5,326.5C 274.174,265.544 273.508,204.544 273.5,143.5 Z"/></g>
<g><path style="opacity:1" fill="#e4e4e4" d="M 279.5,201.5 C 281.167,201.5 282.833,201.5 284.5,201.5C 297.833,201.5 311.167,201.5 324.5,201.5C 325.108,240.002 325.774,278.502 326.5,317C 326.578,320.364 325.911,323.53 324.5,326.5C 323.791,327.404 322.791,327.737 321.5,327.5C 321.389,326.883 321.056,326.383 320.5,326C 323.055,324.742 323.722,322.909 322.5,320.5C 322.846,319.304 323.346,319.304 324,320.5C 324.913,314.078 322.913,308.745 318,304.5C 317.667,307.5 317.333,310.5 317,313.5C 316.333,314.167 315.667,314.833 315,315.5C 316.283,312.758 316.616,309.758 316,306.5C 315.879,310.042 314.713,313.042 312.5,315.5C 313.221,312.183 313.388,308.849 313,305.5C 310.006,295.339 303.839,292.672 294.5,297.5C 294.389,296.883 294.056,296.383 293.5,296C 295.087,295.138 296.754,294.471 298.5,294C 297.304,293.346 297.304,292.846 298.5,292.5C 300.776,293.202 303.109,293.035 305.5,292C 304.584,291.626 303.75,291.126 303,290.5C 300.599,291.602 298.099,291.769 295.5,291C 297.167,290.667 298.833,290.333 300.5,290C 301.641,289.259 301.641,288.425 300.5,287.5C 301.376,286.749 302.376,286.249 303.5,286C 298.985,285.386 294.652,284.552 290.5,283.5C 295.833,283.5 301.167,283.5 306.5,283.5C 306.5,285.833 306.5,288.167 306.5,290.5C 307.833,290.5 309.167,290.5 310.5,290.5C 310.5,288.167 310.5,285.833 310.5,283.5C 311.5,283.5 312.5,283.5 313.5,283.5C 313.5,282.167 313.5,280.833 313.5,279.5C 312.5,279.5 311.5,279.5 310.5,279.5C 310.5,273.833 310.5,268.167 310.5,262.5C 311.487,267.305 311.821,272.305 311.5,277.5C 313.903,277.393 315.736,278.393 317,280.5C 317.915,279.672 318.581,278.672 319,277.5C 320.601,277.888 322.435,278.555 324.5,279.5C 324.667,261.83 324.5,244.164 324,226.5C 323.667,228.167 323.333,229.833 323,231.5C 322.53,229.226 321.53,227.226 320,225.5C 318.841,226.566 318.008,226.233 317.5,224.5C 318.808,220.981 318.808,217.315 317.5,213.5C 311.382,213.451 305.382,213.117 299.5,212.5C 299.5,216.5 299.5,220.5 299.5,224.5C 300.5,224.5 301.5,224.5 302.5,224.5C 302.5,221.5 302.5,218.5 302.5,215.5C 304.467,215.261 306.301,215.594 308,216.5C 308.182,219.226 308.682,221.893 309.5,224.5C 310.167,221.5 310.833,218.5 311.5,215.5C 312.833,214.167 314.167,214.167 315.5,215.5C 316.484,218.428 316.817,221.428 316.5,224.5C 314.169,228.34 310.836,229.506 306.5,228C 309.082,228.896 311.416,230.229 313.5,232C 312.584,232.278 311.918,232.778 311.5,233.5C 305.349,229.688 299.015,229.521 292.5,233C 291.184,234.978 291.684,236.478 294,237.5C 297.681,234.64 301.848,233.807 306.5,235C 308.515,236.555 308.848,238.389 307.5,240.5C 301.202,241.489 296.202,244.489 292.5,249.5C 292.121,248.194 291.788,246.861 291.5,245.5C 292.665,244.416 293.998,243.583 295.5,243C 291.148,242.581 290.815,241.914 294.5,241C 293.234,240.691 292.067,240.191 291,239.5C 290.333,240.833 289.333,241.833 288,242.5C 287.862,240.568 288.362,238.734 289.5,237C 288.366,235.984 288.699,235.317 290.5,235C 288.699,234.683 288.366,234.016 289.5,233C 288.91,231.491 288.244,229.991 287.5,228.5C 284.841,231.75 282.674,231.75 281,228.5C 280.667,231.5 280.333,234.5 280,237.5C 279.667,236.5 279.333,235.5 279,234.5C 278.5,258.498 278.333,282.498 278.5,306.5C 277.833,289.503 277.5,272.337 277.5,255C 277.527,237.017 278.193,219.183 279.5,201.5 Z"/></g>
<g><path style="opacity:1" fill="#353535" d="M 310.5,262.5 C 310.5,268.167 310.5,273.833 310.5,279.5C 311.5,279.5 312.5,279.5 313.5,279.5C 313.5,280.833 313.5,282.167 313.5,283.5C 312.5,283.5 311.5,283.5 310.5,283.5C 310.5,285.833 310.5,288.167 310.5,290.5C 309.167,290.5 307.833,290.5 306.5,290.5C 306.5,288.167 306.5,285.833 306.5,283.5C 301.167,283.5 295.833,283.5 290.5,283.5C 290.34,281.801 290.506,280.134 291,278.5C 296.85,272.128 303.35,266.795 310.5,262.5 Z"/></g>
<g><path style="opacity:1" fill="#dbdbdb" d="M 304.5,270.5 C 306.402,273.337 307.069,276.671 306.5,280.5C 302.774,280.823 299.107,280.489 295.5,279.5C 298.854,276.812 301.854,273.812 304.5,270.5 Z"/></g>
<g><path style="opacity:1" fill="#3b3b3b" d="M 311.5,233.5 C 313.043,237.032 312.709,240.365 310.5,243.5C 306.838,244.997 303.172,246.497 299.5,248C 297.787,249.378 296.453,251.045 295.5,253C 301.157,253.499 306.824,253.666 312.5,253.5C 312.5,255.167 312.5,256.833 312.5,258.5C 305.167,258.5 297.833,258.5 290.5,258.5C 290.7,255.37 291.366,252.37 292.5,249.5C 296.202,244.489 301.202,241.489 307.5,240.5C 308.848,238.389 308.515,236.555 306.5,235C 301.848,233.807 297.681,234.64 294,237.5C 291.684,236.478 291.184,234.978 292.5,233C 299.015,229.521 305.349,229.688 311.5,233.5 Z"/></g>
<g><path style="opacity:1" fill="#353535" d="M 284.5,207.5 C 285.5,207.5 286.5,207.5 287.5,207.5C 287.335,210.518 287.502,213.518 288,216.5C 289.583,213.291 292.083,212.124 295.5,213C 294.019,213.98 292.685,215.147 291.5,216.5C 292.76,219.055 294.094,221.555 295.5,224C 294.207,224.49 292.873,224.657 291.5,224.5C 289.738,218.037 288.405,218.037 287.5,224.5C 286.5,224.5 285.5,224.5 284.5,224.5C 284.5,218.833 284.5,213.167 284.5,207.5 Z"/></g>
<g><path style="opacity:1" fill="#383838" d="M 317.5,224.5 C 317.167,224.5 316.833,224.5 316.5,224.5C 316.817,221.428 316.484,218.428 315.5,215.5C 314.167,214.167 312.833,214.167 311.5,215.5C 310.833,218.5 310.167,221.5 309.5,224.5C 308.682,221.893 308.182,219.226 308,216.5C 306.301,215.594 304.467,215.261 302.5,215.5C 302.5,218.5 302.5,221.5 302.5,224.5C 301.5,224.5 300.5,224.5 299.5,224.5C 299.5,220.5 299.5,216.5 299.5,212.5C 305.382,213.117 311.382,213.451 317.5,213.5C 318.808,217.315 318.808,220.981 317.5,224.5 Z"/></g>
<g><path style="opacity:1" fill="#121212" d="M 287.5,184.5 C 292.127,189.312 297.794,191.646 304.5,191.5C 306.928,193.043 309.594,194.043 312.5,194.5C 312.36,192.876 313.027,191.71 314.5,191C 313.692,190.692 313.025,190.192 312.5,189.5C 314.857,188.597 316.357,186.93 317,184.5C 317.645,185.646 318.478,186.646 319.5,187.5C 318.833,187.833 318.167,188.167 317.5,188.5C 319.056,190.701 320.223,190.701 321,188.5C 321.513,190.521 322.68,192.021 324.5,193C 321.724,194.779 322.057,195.779 325.5,196C 324.464,197.617 323.297,197.784 322,196.5C 319.631,197.268 317.465,198.435 315.5,200C 304.992,200.17 294.659,200.67 284.5,201.5C 282.833,201.5 281.167,201.5 279.5,201.5C 278.737,200.732 277.737,200.232 276.5,200C 276.317,197.107 276.651,194.107 277.5,191C 274.828,188.321 275.162,185.988 278.5,184C 277.692,183.692 277.025,183.192 276.5,182.5C 277.628,181.738 278.795,181.071 280,180.5C 281.318,183.941 283.818,185.275 287.5,184.5 Z"/></g>
<g><path style="opacity:1" fill="#222222" d="M 324.5,171.5 C 327.826,171.967 328.159,173.134 325.5,175C 326.894,175.956 327.561,177.289 327.5,179C 327.477,186.076 327.31,193.243 327,200.5C 326.329,201.252 325.496,201.586 324.5,201.5C 311.167,201.5 297.833,201.5 284.5,201.5C 294.659,200.67 304.992,200.17 315.5,200C 317.465,198.435 319.631,197.268 322,196.5C 323.297,197.784 324.464,197.617 325.5,196C 322.057,195.779 321.724,194.779 324.5,193C 322.68,192.021 321.513,190.521 321,188.5C 320.223,190.701 319.056,190.701 317.5,188.5C 318.167,188.167 318.833,187.833 319.5,187.5C 318.478,186.646 317.645,185.646 317,184.5C 316.357,186.93 314.857,188.597 312.5,189.5C 313.025,190.192 313.692,190.692 314.5,191C 313.027,191.71 312.36,192.876 312.5,194.5C 309.594,194.043 306.928,193.043 304.5,191.5C 312.799,186.535 319.465,179.868 324.5,171.5 Z"/></g>
<g><path style="opacity:1" fill="#414141" d="M 327.5,125.5 C 327.833,125.5 328.167,125.5 328.5,125.5C 328.683,191.512 329.183,257.512 330,323.5C 329.313,326.457 327.813,328.791 325.5,330.5C 325.768,328.901 325.434,327.568 324.5,326.5C 325.911,323.53 326.578,320.364 326.5,317C 325.774,278.502 325.108,240.002 324.5,201.5C 325.496,201.586 326.329,201.252 327,200.5C 327.31,193.243 327.477,186.076 327.5,179C 327.561,177.289 326.894,175.956 325.5,175C 328.159,173.134 327.826,171.967 324.5,171.5C 327.737,163.947 328.07,156.28 325.5,148.5C 327.309,140.96 327.975,133.293 327.5,125.5 Z"/></g>
<g><path style="opacity:1" fill="#d6d6d6" d="M 327.5,125.5 C 327.975,133.293 327.309,140.96 325.5,148.5C 328.07,156.28 327.737,163.947 324.5,171.5C 319.465,179.868 312.799,186.535 304.5,191.5C 297.794,191.646 292.127,189.312 287.5,184.5C 276.865,174.579 273.199,162.579 276.5,148.5C 276.243,146.308 275.243,144.641 273.5,143.5C 273.92,138.345 272.92,133.511 270.5,129C 271.348,127.334 272.348,125.834 273.5,124.5C 273.351,125.552 273.517,126.552 274,127.5C 276.423,124.568 279.257,122.235 282.5,120.5C 288.067,122.572 293.734,123.072 299.5,122C 293.698,124.153 288.031,123.987 282.5,121.5C 280.479,122.855 278.812,124.521 277.5,126.5C 276.883,126.611 276.383,126.944 276,127.5C 275.833,130.167 275.667,132.833 275.5,135.5C 277.136,145.374 277.97,155.374 278,165.5C 282,177.164 289.667,185.164 301,189.5C 315.582,183.532 324.082,172.699 326.5,157C 325.084,154.355 324.417,151.521 324.5,148.5C 326.405,141.358 326.905,134.025 326,126.5C 324.961,125.29 323.794,124.29 322.5,123.5C 321.713,121.896 320.38,121.229 318.5,121.5C 318.811,120.522 319.478,119.855 320.5,119.5C 323.173,121.178 325.506,123.178 327.5,125.5 Z"/></g>
<g><path style="opacity:1" fill="#474747" d="M 322.5,123.5 C 323.794,124.29 324.961,125.29 326,126.5C 326.905,134.025 326.405,141.358 324.5,148.5C 324.417,151.521 325.084,154.355 326.5,157C 324.082,172.699 315.582,183.532 301,189.5C 289.667,185.164 282,177.164 278,165.5C 277.97,155.374 277.136,145.374 275.5,135.5C 275.667,132.833 275.833,130.167 276,127.5C 276.383,126.944 276.883,126.611 277.5,126.5C 277.5,126.833 277.5,127.167 277.5,127.5C 277.5,132.167 277.5,136.833 277.5,141.5C 293.165,141.087 308.831,140.753 324.5,140.5C 324.666,136.154 324.499,131.821 324,127.5C 322.955,126.627 322.122,125.627 321.5,124.5C 322.167,124.5 322.5,124.167 322.5,123.5 Z"/></g>
<g><path style="opacity:1" fill="#ebebeb" d="M 298.5,142.5 C 306.84,142.334 315.173,142.5 323.5,143C 326.06,157.94 322.06,170.774 311.5,181.5C 308.356,184.149 304.856,186.149 301,187.5C 287.788,181.587 280.288,171.42 278.5,157C 279.625,152.603 279.625,148.269 278.5,144C 285.346,143.828 292.013,143.328 298.5,142.5 Z"/></g>
<g><path style="opacity:1" fill="#3c3c3c" d="M 303.5,149.5 C 307.833,149.5 312.167,149.5 316.5,149.5C 314.427,155.343 312.593,161.343 311,167.5C 310.502,170.817 310.335,174.15 310.5,177.5C 309.167,177.5 307.833,177.5 306.5,177.5C 306.973,169.327 308.307,161.327 310.5,153.5C 308.167,153.5 305.833,153.5 303.5,153.5C 303.5,152.167 303.5,150.833 303.5,149.5 Z"/></g>
<g><path style="opacity:1" fill="#393939" d="M 291.5,149.5 C 299.867,149.739 302.2,153.572 298.5,161C 301.574,165.401 301.908,169.901 299.5,174.5C 295.706,178.446 291.872,178.446 288,174.5C 287.51,173.207 287.343,171.873 287.5,170.5C 289.991,170.84 292.158,171.84 294,173.5C 296.474,173.064 297.641,171.564 297.5,169C 297.069,165.969 295.736,163.469 293.5,161.5C 295.501,159.513 296.335,157.18 296,154.5C 293.159,154.341 290.325,154.341 287.5,154.5C 288.508,152.501 289.841,150.834 291.5,149.5 Z"/></g>
<g><path style="opacity:1" fill="#eaeaea" d="M 321.5,124.5 C 322.122,125.627 322.955,126.627 324,127.5C 324.499,131.821 324.666,136.154 324.5,140.5C 308.831,140.753 293.165,141.087 277.5,141.5C 277.5,136.833 277.5,132.167 277.5,127.5C 279.417,126.594 281.083,125.261 282.5,123.5C 288.542,126.16 294.542,126.16 300.5,123.5C 306.833,126.167 313.167,126.167 319.5,123.5C 320.416,123.543 321.083,123.876 321.5,124.5 Z"/></g>
<g><path style="opacity:1" fill="#585858" d="M 316.5,127.5 C 317.496,127.414 318.329,127.748 319,128.5C 319.667,130.833 319.667,133.167 319,135.5C 318,127.5 317,127.5 316,135.5C 313.992,132.705 314.158,130.038 316.5,127.5 Z"/></g>
<g><path style="opacity:1" fill="#909090" d="M 303.5,128.5 C 304.748,129.334 305.415,130.667 305.5,132.5C 305.167,133.833 304.833,135.167 304.5,136.5C 303.52,133.914 303.187,131.247 303.5,128.5 Z"/></g>
<g><path style="opacity:1" fill="#414141" d="M 281.5,128.5 C 282.859,129.007 283.859,130.007 284.5,131.5C 285.333,130.5 286.167,129.5 287,128.5C 287.667,131.5 287.667,134.5 287,137.5C 286.667,136.167 286.333,134.833 286,133.5C 285.333,134.833 284.667,134.833 284,133.5C 283.781,134.938 283.281,136.271 282.5,137.5C 281.516,134.572 281.183,131.572 281.5,128.5 Z"/></g>
<g><path style="opacity:1" fill="#767676" d="M 308.5,127.5 C 312.806,128.066 313.139,128.732 309.5,129.5C 309.338,131.527 309.505,133.527 310,135.5C 310.893,134.289 311.726,134.289 312.5,135.5C 310.653,136.83 309.153,136.497 308,134.5C 307.444,132.115 307.61,129.782 308.5,127.5 Z"/></g>
<g><path style="opacity:1" fill="#4f4f4f" d="M 296.5,129.5 C 298.052,129.419 299.719,129.252 301.5,129C 300.707,130.085 300.04,131.252 299.5,132.5C 301.124,133.869 301.624,135.536 301,137.5C 300.085,136.672 299.419,135.672 299,134.5C 298.581,135.672 297.915,136.672 297,137.5C 296.86,135.744 297.36,134.078 298.5,132.5C 298.058,131.261 297.391,130.261 296.5,129.5 Z"/></g>
<g><path style="opacity:1" fill="#4f4f4f" d="M 289.5,128.5 C 294.041,128.331 294.374,128.998 290.5,130.5C 293.167,131.833 293.167,133.167 290.5,134.5C 295.706,136.402 295.373,137.402 289.5,137.5C 289.5,134.5 289.5,131.5 289.5,128.5 Z"/></g>
<g><path style="opacity:1" fill="#343434" d="M 328.5,125.5 C 328.167,125.5 327.833,125.5 327.5,125.5C 325.506,123.178 323.173,121.178 320.5,119.5C 319.478,119.855 318.811,120.522 318.5,121.5C 320.38,121.229 321.713,121.896 322.5,123.5C 322.5,124.167 322.167,124.5 321.5,124.5C 321.083,123.876 320.416,123.543 319.5,123.5C 313.167,126.167 306.833,126.167 300.5,123.5C 294.542,126.16 288.542,126.16 282.5,123.5C 281.083,125.261 279.417,126.594 277.5,127.5C 277.5,127.167 277.5,126.833 277.5,126.5C 278.812,124.521 280.479,122.855 282.5,121.5C 288.031,123.987 293.698,124.153 299.5,122C 293.734,123.072 288.067,122.572 282.5,120.5C 279.257,122.235 276.423,124.568 274,127.5C 273.517,126.552 273.351,125.552 273.5,124.5C 273.452,121.708 274.785,119.875 277.5,119C 292.826,118 308.159,117.667 323.5,118C 327.007,119.33 328.673,121.83 328.5,125.5 Z"/></g>
<g><path style="opacity:1" fill="#d5d5d5" d="M 318.5,121.5 C 316.193,123.047 313.527,123.713 310.5,123.5C 307.705,123.547 305.039,123.047 302.5,122C 307.828,122.827 313.162,122.66 318.5,121.5 Z"/></g>
<g><path style="opacity:1" fill="#b6b6b6" d="M 304.5,370.5 C 304.077,380.58 304.577,390.58 306,400.5C 307.297,399.216 308.464,399.383 309.5,401C 307.479,401.513 305.979,402.68 305,404.5C 305.608,406.684 304.941,408.684 303,410.5C 302.536,409.906 302.369,409.239 302.5,408.5C 301.354,395.575 301.187,382.575 302,369.5C 302.671,370.252 303.504,370.586 304.5,370.5 Z"/></g>
<g><path style="opacity:1" fill="#6f6f6f" d="M 336.5,402.5 C 336.5,403.5 336.5,404.5 336.5,405.5C 334.633,405.903 332.633,405.903 330.5,405.5C 330.172,407.079 328.672,407.746 326,407.5C 324.833,407.333 323.667,407.167 322.5,407C 323.888,406.111 323.722,405.611 322,405.5C 320.124,407.123 318.79,406.79 318,404.5C 317.333,405.833 316.333,406.833 315,407.5C 314.544,406.256 315.044,405.423 316.5,405C 315.833,404.667 315.167,404.333 314.5,404C 321.823,403.279 329.156,402.779 336.5,402.5 Z"/></g>
<g><path style="opacity:1" fill="#21211f" d="M 332.5,427.5 C 329.833,426.167 327.167,426.167 324.5,427.5C 322.707,424.741 322.207,421.741 323,418.5C 323.613,414.682 325.613,413.682 329,415.5C 329.495,413.527 329.662,411.527 329.5,409.5C 330.5,409.5 331.5,409.5 332.5,409.5C 332.5,415.5 332.5,421.5 332.5,427.5 Z"/></g>
<g><path style="opacity:1" fill="#1e1d1d" d="M 266.5,409.5 C 268.722,409.178 270.556,409.845 272,411.5C 272.43,414.192 272.263,416.859 271.5,419.5C 270.209,419.263 269.209,419.596 268.5,420.5C 267.167,420.5 265.833,420.5 264.5,420.5C 264.5,422.833 264.5,425.167 264.5,427.5C 263.5,427.5 262.5,427.5 261.5,427.5C 261.5,421.5 261.5,415.5 261.5,409.5C 263.167,409.5 264.833,409.5 266.5,409.5 Z"/></g>
<g><path style="opacity:1" fill="#f4f3f4" d="M 264.5,412.5 C 268.676,411.831 270.009,413.331 268.5,417C 267.207,417.49 265.873,417.657 264.5,417.5C 264.5,415.833 264.5,414.167 264.5,412.5 Z"/></g>
<g><path style="opacity:1" fill="#201f1e" d="M 301.5,411.5 C 301.48,413.143 302.147,414.476 303.5,415.5C 300.833,419.167 300.833,422.833 303.5,426.5C 302.388,427.265 301.721,428.265 301.5,429.5C 300.685,428.571 299.852,427.571 299,426.5C 298.762,422.778 298.262,419.111 297.5,415.5C 298.018,413.1 299.185,411.1 301,409.5C 301.464,410.094 301.631,410.761 301.5,411.5 Z"/></g>
<g><path style="opacity:1" fill="#252324" d="M 306.5,425.5 C 305.08,422.012 305.414,418.678 307.5,415.5C 312.083,414.393 314.416,416.393 314.5,421.5C 312.5,421.5 310.5,421.5 308.5,421.5C 308.222,423.346 308.889,424.68 310.5,425.5C 312.539,422.808 313.373,423.142 313,426.5C 310.448,428.02 308.282,427.687 306.5,425.5 Z"/></g>
<g><path style="opacity:1" fill="#bebdbd" d="M 301.5,411.5 C 302.552,411.351 303.552,411.517 304.5,412C 305.163,413.518 306.163,414.685 307.5,415.5C 305.414,418.678 305.08,422.012 306.5,425.5C 305.833,426.833 305.167,428.167 304.5,429.5C 303.833,429.5 303.167,429.5 302.5,429.5C 302.167,429.5 301.833,429.5 301.5,429.5C 301.721,428.265 302.388,427.265 303.5,426.5C 300.833,422.833 300.833,419.167 303.5,415.5C 302.147,414.476 301.48,413.143 301.5,411.5 Z"/></g>
<g><path style="opacity:1" fill="#eae9ea" d="M 308.5,416.5 C 312.31,417.754 312.31,418.754 308.5,419.5C 308.5,418.5 308.5,417.5 308.5,416.5 Z"/></g>
<g><path style="opacity:1" fill="#242321" d="M 293.5,427.5 C 291.833,427.5 290.167,427.5 288.5,427.5C 286.58,426.179 286.413,424.846 288,423.5C 289.11,425.037 290.61,425.703 292.5,425.5C 292.649,424.448 292.483,423.448 292,422.5C 288.4,421.915 286.734,419.915 287,416.5C 289.892,413.918 292.725,414.084 295.5,417C 295,417.5 294.5,418 294,418.5C 292.759,416.579 291.259,416.246 289.5,417.5C 291.22,418.92 293.054,420.253 295,421.5C 295.748,423.84 295.248,425.84 293.5,427.5 Z"/></g>
<g><path style="opacity:1" fill="#ecebe9" d="M 326.5,416.5 C 328.95,416.874 329.95,418.374 329.5,421C 329.691,422.973 329.024,424.473 327.5,425.5C 325.215,422.822 324.882,419.822 326.5,416.5 Z"/></g>
<g><path style="opacity:1" fill="#22211f" d="M 274.5,422.5 C 274.5,421.167 274.5,419.833 274.5,418.5C 275.364,417.312 276.364,416.145 277.5,415C 283.805,415.006 285.971,418.172 284,424.5C 279.735,428.808 276.568,428.141 274.5,422.5 Z"/></g>
<g><path style="opacity:1" fill="#f0efed" d="M 278.5,416.5 C 280.95,416.874 281.95,418.374 281.5,421C 281.691,422.973 281.024,424.473 279.5,425.5C 278.009,424.652 277.342,423.319 277.5,421.5C 277.728,419.793 278.062,418.126 278.5,416.5 Z"/></g>
<g><path style="opacity:1" fill="#292526" d="M 337.5,414.5 C 341.638,414.973 343.638,417.307 343.5,421.5C 341.5,421.5 339.5,421.5 337.5,421.5C 337.52,425.513 338.853,426.18 341.5,423.5C 344.028,424.517 344.028,425.684 341.5,427C 340.207,427.49 338.873,427.657 337.5,427.5C 333.5,423.167 333.5,418.833 337.5,414.5 Z"/></g>
<g><path style="opacity:1" fill="#f7f3f4" d="M 338.5,416.5 C 340.625,417.368 340.791,418.368 339,419.5C 337.317,418.824 337.15,417.824 338.5,416.5 Z"/></g>
<g><path style="opacity:1" fill="#1b1a19" d="M 262.5,437.5 C 263.5,437.5 264.5,437.5 265.5,437.5C 265.5,438.5 265.5,439.5 265.5,440.5C 264.5,440.5 263.5,440.5 262.5,440.5C 262.5,439.5 262.5,438.5 262.5,437.5 Z"/></g>
<g><path style="opacity:1" fill="#1d1b1c" d="M 342.5,437.5 C 343.5,437.5 344.5,437.5 345.5,437.5C 345.5,438.5 345.5,439.5 345.5,440.5C 344.5,440.5 343.5,440.5 342.5,440.5C 342.5,439.5 342.5,438.5 342.5,437.5 Z"/></g>
<g><path style="opacity:1" fill="#1e1e1d" d="M 248.5,437.5 C 249.5,437.5 250.5,437.5 251.5,437.5C 251.335,440.518 251.502,443.518 252,446.5C 254.167,443.667 256.333,440.833 258.5,438C 259.5,437.333 260.5,437.333 261.5,438C 259.337,439.998 257.67,442.332 256.5,445C 257.777,448.388 259.444,451.555 261.5,454.5C 260.5,455.833 259.5,455.833 258.5,454.5C 254.634,445.044 252.301,445.377 251.5,455.5C 250.5,455.5 249.5,455.5 248.5,455.5C 248.5,449.5 248.5,443.5 248.5,437.5 Z"/></g>
<g><path style="opacity:1" fill="#1d1c1d" d="M 322.5,442.5 C 324.124,442.36 325.29,443.027 326,444.5C 328.178,441.532 329.344,441.865 329.5,445.5C 328.178,445.33 327.011,445.663 326,446.5C 325.502,449.482 325.335,452.482 325.5,455.5C 324.5,455.5 323.5,455.5 322.5,455.5C 322.5,451.167 322.5,446.833 322.5,442.5 Z"/></g>
<g><path style="opacity:1" fill="#201c1c" d="M 342.5,442.5 C 343.5,442.5 344.5,442.5 345.5,442.5C 345.666,447.844 345.499,453.177 345,458.5C 343.89,460.037 342.39,460.703 340.5,460.5C 342.209,454.672 342.876,448.672 342.5,442.5 Z"/></g>
<g><path style="opacity:1" fill="#201c1c" d="M 316.5,438.5 C 318.035,439.844 319.368,441.511 320.5,443.5C 317.833,447.167 317.833,450.833 320.5,454.5C 318.653,455.83 317.153,455.497 316,453.5C 315.754,450.11 315.254,446.777 314.5,443.5C 315.174,441.805 315.841,440.138 316.5,438.5 Z"/></g>
<g><path style="opacity:1" fill="#262324" d="M 276.5,442.5 C 283.456,443.392 285.289,447.059 282,453.5C 276.976,456.509 274.142,455.009 273.5,449C 273.391,446.288 274.391,444.122 276.5,442.5 Z"/></g>
<g><path style="opacity:1" fill="#eeebed" d="M 277.5,444.5 C 279.95,444.874 280.95,446.374 280.5,449C 280.691,450.973 280.024,452.473 278.5,453.5C 276.215,450.822 275.882,447.822 277.5,444.5 Z"/></g>
<g><path style="opacity:1" fill="#1f1b1c" d="M 286.5,442.5 C 288.477,443.149 290.31,443.149 292,442.5C 293.261,442.759 294.261,443.426 295,444.5C 297.522,441.674 299.522,442.007 301,445.5C 301.498,448.817 301.665,452.15 301.5,455.5C 300.5,455.5 299.5,455.5 298.5,455.5C 298.823,451.774 298.489,448.107 297.5,444.5C 296.914,444.709 296.414,445.043 296,445.5C 295.502,448.817 295.335,452.15 295.5,455.5C 294.5,455.5 293.5,455.5 292.5,455.5C 292.823,451.774 292.489,448.107 291.5,444.5C 290.914,444.709 290.414,445.043 290,445.5C 289.502,448.817 289.335,452.15 289.5,455.5C 288.5,455.5 287.5,455.5 286.5,455.5C 286.5,451.167 286.5,446.833 286.5,442.5 Z"/></g>
<g><path style="opacity:1" fill="#1d1919" d="M 262.5,442.5 C 263.5,442.5 264.5,442.5 265.5,442.5C 265.5,446.833 265.5,451.167 265.5,455.5C 264.5,455.5 263.5,455.5 262.5,455.5C 262.5,451.167 262.5,446.833 262.5,442.5 Z"/></g>
<g><path style="opacity:1" fill="#1d1918" d="M 268.5,437.5 C 269.5,437.5 270.5,437.5 271.5,437.5C 271.5,443.5 271.5,449.5 271.5,455.5C 270.5,455.5 269.5,455.5 268.5,455.5C 268.5,449.5 268.5,443.5 268.5,437.5 Z"/></g>
<g><path style="opacity:1" fill="#232020" d="M 349.5,442.5 C 354.167,442.5 356.5,444.833 356.5,449.5C 354.5,449.5 352.5,449.5 350.5,449.5C 350.483,453.377 351.649,454.043 354,451.5C 355.78,453.95 354.947,455.284 351.5,455.5C 347.748,453.216 346.581,449.882 348,445.5C 349.039,444.756 349.539,443.756 349.5,442.5 Z"/></g>
<g><path style="opacity:1" fill="#edeced" d="M 351.5,444.5 C 353.048,444.821 353.715,445.821 353.5,447.5C 350.752,447.598 350.086,446.598 351.5,444.5 Z"/></g>
<g><path style="opacity:1" fill="#241f1f" d="M 306.5,442.5 C 311.167,442.5 313.5,444.833 313.5,449.5C 311.5,449.5 309.5,449.5 307.5,449.5C 307.483,453.377 308.649,454.043 311,451.5C 311.75,452.126 312.584,452.626 313.5,453C 310.343,456.352 307.509,456.185 305,452.5C 304.157,448.897 304.657,445.564 306.5,442.5 Z"/></g>
<g><path style="opacity:1" fill="#f9f5f7" d="M 308.5,444.5 C 310.625,445.368 310.791,446.368 309,447.5C 307.317,446.824 307.15,445.824 308.5,444.5 Z"/></g>
<g><path style="opacity:1" fill="#232021" d="M 332.5,442.5 C 335.044,442.104 337.211,442.771 339,444.5C 339.207,448.089 339.707,451.589 340.5,455C 338.138,454.496 335.805,454.663 333.5,455.5C 329.313,452.015 329.979,449.348 335.5,447.5C 336.386,446.675 336.719,445.675 336.5,444.5C 334.488,445.014 332.488,445.18 330.5,445C 331.381,444.292 332.047,443.458 332.5,442.5 Z"/></g>
<g><path style="opacity:1" fill="#e4e2e2" d="M 334.5,449.5 C 336.176,450.183 336.843,451.517 336.5,453.5C 335.5,453.5 334.5,453.5 333.5,453.5C 333.433,452.041 333.766,450.708 334.5,449.5 Z"/></g>
</svg>
