<?xml version="1.0" encoding="UTF-8"?>
<!DOCTYPE svg PUBLIC "-//W3C//DTD SVG 1.1//EN" "http://www.w3.org/Graphics/SVG/1.1/DTD/svg11.dtd">
<svg xmlns="http://www.w3.org/2000/svg" version="1.1" width="854px" height="326px" style="shape-rendering:geometricPrecision; text-rendering:geometricPrecision; image-rendering:optimizeQuality; fill-rule:evenodd; clip-rule:evenodd" xmlns:xlink="http://www.w3.org/1999/xlink">
<g><path style="opacity:0.027" fill="#dbdbdb" d="M 555.5,18.5 C 539.5,18.5 523.5,18.5 507.5,18.5C 507.167,18.5 506.833,18.5 506.5,18.5C 514.305,17.1688 522.472,16.5021 531,16.5C 539.528,16.5021 547.695,17.1688 555.5,18.5 Z"/></g>
<g><path style="opacity:0.037" fill="#e2e2e2" d="M 576.5,18.5 C 574.5,18.5 572.5,18.5 570.5,18.5C 570.97,17.3065 571.97,16.6399 573.5,16.5C 575.03,16.6399 576.03,17.3065 576.5,18.5 Z"/></g>
<g><path style="opacity:0.033" fill="#e2e2e2" d="M 612.5,18.5 C 608.833,18.5 605.167,18.5 601.5,18.5C 602.871,17.2132 604.705,16.5465 607,16.5C 609.295,16.5465 611.129,17.2132 612.5,18.5 Z"/></g>
<g><path style="opacity:0.024" fill="#e2e2e2" d="M 632.5,18.5 C 629.833,18.5 627.167,18.5 624.5,18.5C 625.334,17.2521 626.667,16.5854 628.5,16.5C 630.333,16.5854 631.666,17.2521 632.5,18.5 Z"/></g>
<g><path style="opacity:0.067" fill="#e1e1e1" d="M 641.5,18.5 C 639.5,18.5 637.5,18.5 635.5,18.5C 635.97,17.3065 636.97,16.6399 638.5,16.5C 640.03,16.6399 641.03,17.3065 641.5,18.5 Z"/></g>
<g><path style="opacity:0.028" fill="#e2e2e2" d="M 678.5,18.5 C 677.167,18.5 675.833,18.5 674.5,18.5C 674.62,17.4138 675.287,16.7472 676.5,16.5C 677.713,16.7472 678.38,17.4138 678.5,18.5 Z"/></g>
<g><path style="opacity:0.024" fill="#e2e3e2" d="M 691.5,18.5 C 690.5,18.5 689.5,18.5 688.5,18.5C 689.5,15.8333 690.5,15.8333 691.5,18.5 Z"/></g>
<g><path style="opacity:1" fill="#3a3a3a" d="M 507.5,18.5 C 523.5,18.5 539.5,18.5 555.5,18.5C 560.5,18.5 565.5,18.5 570.5,18.5C 572.5,18.5 574.5,18.5 576.5,18.5C 584.833,18.5 593.167,18.5 601.5,18.5C 605.167,18.5 608.833,18.5 612.5,18.5C 616.5,18.5 620.5,18.5 624.5,18.5C 627.167,18.5 629.833,18.5 632.5,18.5C 633.5,18.5 634.5,18.5 635.5,18.5C 637.5,18.5 639.5,18.5 641.5,18.5C 652.5,18.5 663.5,18.5 674.5,18.5C 675.833,18.5 677.167,18.5 678.5,18.5C 681.833,18.5 685.167,18.5 688.5,18.5C 689.5,18.5 690.5,18.5 691.5,18.5C 702.833,18.5 714.167,18.5 725.5,18.5C 766.998,19.3326 808.665,19.8326 850.5,20C 818.168,20.5 785.835,20.6666 753.5,20.5C 671.833,20.5 590.167,20.5 508.5,20.5C 507.662,20.1583 507.328,19.4916 507.5,18.5 Z"/></g>
<g><path style="opacity:1" fill="#f7f7f8" d="M 508.5,20.5 C 590.167,20.5 671.833,20.5 753.5,20.5C 785.662,21.4982 817.996,21.8316 850.5,21.5C 850.5,52.5 850.5,83.5 850.5,114.5C 737.5,114.5 624.5,114.5 511.5,114.5C 510.5,114.5 509.5,114.5 508.5,114.5C 507.558,101.87 507.225,89.2037 507.5,76.5C 507.18,57.757 507.514,39.0903 508.5,20.5 Z"/></g>
<g><path style="opacity:0.169" fill="#d3d3d3" d="M 505.5,20.5 C 505.5,30.5 505.5,40.5 505.5,50.5C 504.172,45.8806 503.506,40.8806 503.5,35.5C 503.506,30.1194 504.172,25.1194 505.5,20.5 Z"/></g>
<g><path style="opacity:1" fill="#434343" d="M 685.5,37.5 C 685.5,35.8333 685.5,34.1667 685.5,32.5C 681.5,32.5 677.5,32.5 673.5,32.5C 673.5,33.5 673.5,34.5 673.5,35.5C 672.566,34.4324 672.232,33.099 672.5,31.5C 677.5,31.5 682.5,31.5 687.5,31.5C 687.975,34.0821 687.308,36.0821 685.5,37.5 Z"/></g>
<g><path style="opacity:1" fill="#4e4e4e" d="M 742.5,32.5 C 746.298,31.5166 750.298,31.1832 754.5,31.5C 754.5,33.1667 754.5,34.8333 754.5,36.5C 751.833,36.5 749.167,36.5 746.5,36.5C 748.607,35.5318 750.941,35.1984 753.5,35.5C 753.5,34.5 753.5,33.5 753.5,32.5C 749.833,32.5 746.167,32.5 742.5,32.5 Z"/></g>
<g><path style="opacity:1" fill="#222222" d="M 605.5,31.5 C 609.548,31.3946 613.548,31.7279 617.5,32.5C 620.145,38.2594 620.145,44.0927 617.5,50C 618.167,53 618.833,56 619.5,59C 619.33,61.5269 618.33,62.0269 616.5,60.5C 615.366,57.4243 614.366,54.4243 613.5,51.5C 612.432,50.5655 611.099,50.2322 609.5,50.5C 609.5,53.8333 609.5,57.1667 609.5,60.5C 608.167,60.5 606.833,60.5 605.5,60.5C 605.5,50.8333 605.5,41.1667 605.5,31.5 Z"/></g>
<g><path style="opacity:1" fill="#7e7e7e" d="M 673.5,35.5 C 676.5,35.5 679.5,35.5 682.5,35.5C 682.843,37.4832 682.176,38.8166 680.5,39.5C 680.5,38.5 680.5,37.5 680.5,36.5C 677.941,36.8016 675.607,36.4682 673.5,35.5 Z"/></g>
<g><path style="opacity:1" fill="#2b2b2b" d="M 695.5,31.5 C 698.187,31.3359 700.854,31.5026 703.5,32C 704.329,33.8161 705.163,35.6494 706,37.5C 706.9,45.9672 706.4,54.3006 704.5,62.5C 701.513,62.0022 698.513,61.5022 695.5,61C 690.191,51.1132 690.191,41.2798 695.5,31.5 Z"/></g>
<g><path style="opacity:1" fill="#e9e9ea" d="M 610.5,35.5 C 611.822,35.33 612.989,35.6634 614,36.5C 615.564,39.4616 615.731,42.4616 614.5,45.5C 612.955,46.4519 611.288,46.7852 609.5,46.5C 609.244,42.7307 609.577,39.0641 610.5,35.5 Z"/></g>
<g><path style="opacity:1" fill="#efefef" d="M 698.5,35.5 C 699.5,35.5 700.5,35.5 701.5,35.5C 702.27,39.1161 702.936,42.7828 703.5,46.5C 703.167,48.5 702.833,50.5 702.5,52.5C 700.868,53.2974 699.368,54.2974 698,55.5C 697.055,55.0946 696.388,54.428 696,53.5C 695.333,48.8333 695.333,44.1667 696,39.5C 696.48,37.867 697.313,36.5336 698.5,35.5 Z"/></g>
<g><path style="opacity:1" fill="#666666" d="M 726.5,56.5 C 726.5,48.5 726.5,40.5 726.5,32.5C 725.5,32.5 724.5,32.5 723.5,32.5C 723.825,40.3516 723.492,48.0182 722.5,55.5C 722.5,47.5 722.5,39.5 722.5,31.5C 724.167,31.5 725.833,31.5 727.5,31.5C 727.826,40.0168 727.493,48.3501 726.5,56.5 Z"/></g>
<g><path style="opacity:1" fill="#f1f1f1" d="M 785.5,36.5 C 787.144,36.2865 788.644,36.6198 790,37.5C 791.829,43.4565 791.996,49.4565 790.5,55.5C 789.365,57.2132 787.698,57.8799 785.5,57.5C 785.5,50.5 785.5,43.5 785.5,36.5 Z"/></g>
<g><path style="opacity:1" fill="#292929" d="M 554.5,56.5 C 556.456,54.8249 557.789,55.1582 558.5,57.5C 556.263,61.0929 552.93,62.4263 548.5,61.5C 546.763,59.2063 545.596,56.5396 545,53.5C 544.127,46.7146 544.627,40.0479 546.5,33.5C 552.071,29.0404 556.405,30.0404 559.5,36.5C 556.278,36.0551 552.945,36.0551 549.5,36.5C 548.388,43.1629 548.388,49.8295 549.5,56.5C 551.167,56.5 552.833,56.5 554.5,56.5 Z"/></g>
<g><path style="opacity:1" fill="#8b8b8c" d="M 569.5,35.5 C 569.843,37.4832 569.176,38.8166 567.5,39.5C 567.157,37.5168 567.824,36.1834 569.5,35.5 Z"/></g>
<g><path style="opacity:1" fill="#1f1f1f" d="M 625.5,31.5 C 626.833,31.5 628.167,31.5 629.5,31.5C 629.5,41.5 629.5,51.5 629.5,61.5C 628.167,61.5 626.833,61.5 625.5,61.5C 625.5,51.5 625.5,41.5 625.5,31.5 Z"/></g>
<g><path style="opacity:1" fill="#1d1d1d" d="M 637.5,31.5 C 636.865,40.2337 637.532,48.5671 639.5,56.5C 642.287,57.4767 645.287,57.81 648.5,57.5C 648.5,58.8333 648.5,60.1667 648.5,61.5C 644.167,61.5 639.833,61.5 635.5,61.5C 634.859,51.1107 635.526,41.1107 637.5,31.5 Z"/></g>
<g><path style="opacity:1" fill="#646464" d="M 637.5,31.5 C 639.468,39.4329 640.135,47.7663 639.5,56.5C 637.532,48.5671 636.865,40.2337 637.5,31.5 Z"/></g>
<g><path style="opacity:1" fill="#1a1a1a" d="M 716.5,55.5 C 718.5,58.1667 720.5,58.1667 722.5,55.5C 723.492,48.0182 723.825,40.3516 723.5,32.5C 724.5,32.5 725.5,32.5 726.5,32.5C 726.5,40.5 726.5,48.5 726.5,56.5C 724.239,60.9469 720.572,62.6136 715.5,61.5C 715.539,58.911 714.539,56.911 712.5,55.5C 712.5,47.8333 712.5,40.1667 712.5,32.5C 713.5,32.5 714.5,32.5 715.5,32.5C 715.795,39.2257 715.462,45.8923 714.5,52.5C 714.942,53.7387 715.609,54.7387 716.5,55.5 Z"/></g>
<g><path style="opacity:1" fill="#1d1d1d" d="M 732.5,31.5 C 733.833,31.5 735.167,31.5 736.5,31.5C 736.5,41.5 736.5,51.5 736.5,61.5C 735.167,61.5 733.833,61.5 732.5,61.5C 732.5,51.5 732.5,41.5 732.5,31.5 Z"/></g>
<g><path style="opacity:1" fill="#9e9e9e" d="M 6.5,38.5 C 85.5007,38.3333 164.501,38.5 243.5,39C 245.747,40.995 246.747,43.495 246.5,46.5C 245.778,46.0825 245.278,45.4158 245,44.5C 244.502,47.8168 244.335,51.1501 244.5,54.5C 243.675,50.3528 243.175,46.0195 243,41.5C 242.329,40.7476 241.496,40.4142 240.5,40.5C 162.5,39.8333 84.5,39.1667 6.5,38.5 Z"/></g>
<g><path style="opacity:1" fill="#444444" d="M 3.5,38.5 C 4.5,38.5 5.5,38.5 6.5,38.5C 84.5,39.1667 162.5,39.8333 240.5,40.5C 178.664,40.1676 116.998,40.5009 55.5,41.5C 38.4967,41.3334 21.4967,41.5001 4.5,42C 4,42.5 3.5,43 3,43.5C 3.02214,72.8304 3.35547,102.164 4,131.5C 4.81595,132.823 5.98261,133.489 7.5,133.5C 63.3309,134.499 119.331,134.832 175.5,134.5C 175.5,134.833 175.5,135.167 175.5,135.5C 118.083,135.992 60.7498,135.492 3.5,134C 3,133.5 2.5,133 2,132.5C 1.81807,102.125 1.31807,71.7914 0.5,41.5C 3.19506,41.4373 4.19506,40.4373 3.5,38.5 Z"/></g>
<g><path style="opacity:1" fill="#272727" d="M 780.5,32.5 C 783.364,32.0642 785.697,32.8975 787.5,35C 786.584,35.2784 785.918,35.7784 785.5,36.5C 785.5,43.5 785.5,50.5 785.5,57.5C 787.698,57.8799 789.365,57.2132 790.5,55.5C 791.833,55.5 792.5,56.1667 792.5,57.5C 791.766,58.7079 791.433,60.0413 791.5,61.5C 787.833,61.5 784.167,61.5 780.5,61.5C 780.5,51.8333 780.5,42.1667 780.5,32.5 Z"/></g>
<g><path style="opacity:1" fill="#262626" d="M 814.5,41.5 C 814.5,45.1667 814.5,48.8333 814.5,52.5C 814.735,60.4345 811.068,63.2679 803.5,61C 801.071,57.9587 800.071,54.4587 800.5,50.5C 800.5,47.5 800.5,44.5 800.5,41.5C 801.77,30.4241 806.27,28.7574 814,36.5C 814.494,38.1341 814.66,39.8008 814.5,41.5 Z"/></g>
<g><path style="opacity:1" fill="#efeff0" d="M 806.5,35.5 C 808.662,35.8972 809.995,37.2305 810.5,39.5C 811.833,45.1667 811.833,50.8333 810.5,56.5C 808.591,57.3482 806.591,57.6816 804.5,57.5C 803.318,51.3299 803.318,45.1632 804.5,39C 804.862,37.5657 805.528,36.3991 806.5,35.5 Z"/></g>
<g><path style="opacity:1" fill="#ababab" d="M 3.5,38.5 C 4.19506,40.4373 3.19506,41.4373 0.5,41.5C 0.5,39.5 1.5,38.5 3.5,38.5 Z"/></g>
<g><path style="opacity:1" fill="#353535" d="M 663.5,31.5 C 665.167,31.5 666.833,31.5 668.5,31.5C 668.666,41.1724 668.5,50.8391 668,60.5C 666.667,61.8333 665.333,61.8333 664,60.5C 663.5,50.8391 663.334,41.1724 663.5,31.5 Z"/></g>
<g><path style="opacity:1" fill="#444444" d="M 716.5,55.5 C 715.609,54.7387 714.942,53.7387 714.5,52.5C 715.462,45.8923 715.795,39.2257 715.5,32.5C 714.5,32.5 713.5,32.5 712.5,32.5C 712.5,40.1667 712.5,47.8333 712.5,55.5C 711.508,47.6841 711.174,39.6841 711.5,31.5C 713.167,31.5 714.833,31.5 716.5,31.5C 716.5,39.5 716.5,47.5 716.5,55.5 Z"/></g>
<g><path style="opacity:1" fill="#f9f9fa" d="M 55.5,41.5 C 117.501,41.3333 179.501,41.5 241.5,42C 242.495,71.4263 242.829,100.926 242.5,130.5C 241.942,131.79 240.942,132.623 239.5,133C 162.167,133.5 84.8341,133.667 7.5,133.5C 5.98261,133.489 4.81595,132.823 4,131.5C 3.35547,102.164 3.02214,72.8304 3,43.5C 3.5,43 4,42.5 4.5,42C 21.4967,41.5001 38.4967,41.3334 55.5,41.5 Z"/></g>
<g><path style="opacity:1" fill="#5e5e5e" d="M 800.5,41.5 C 800.5,44.5 800.5,47.5 800.5,50.5C 799.235,49.4855 798.569,47.9855 798.5,46C 798.569,44.0145 799.235,42.5145 800.5,41.5 Z"/></g>
<g><path style="opacity:1" fill="#252525" d="M 589.5,51.5 C 588.523,54.2869 588.19,57.2869 588.5,60.5C 587.5,60.5 586.5,60.5 585.5,60.5C 585.5,50.8333 585.5,41.1667 585.5,31.5C 589.548,31.3946 593.548,31.7279 597.5,32.5C 600.107,38.0696 600.107,43.7363 597.5,49.5C 598.556,53.4444 599.223,57.4444 599.5,61.5C 598.5,61.5 597.5,61.5 596.5,61.5C 594.499,58.1568 593.499,54.4901 593.5,50.5C 591.901,50.2322 590.568,50.5655 589.5,51.5 Z"/></g>
<g><path style="opacity:1" fill="#e1e1e1" d="M 589.5,35.5 C 591.451,35.2267 592.951,35.8934 594,37.5C 594.777,40.4294 594.61,43.2628 593.5,46C 591.888,46.7203 590.388,46.5536 589,45.5C 588.253,42.0764 588.42,38.7431 589.5,35.5 Z"/></g>
<g><path style="opacity:1" fill="#272727" d="M 567.5,39.5 C 569.176,38.8166 569.843,37.4832 569.5,35.5C 569.384,32.0897 571.05,30.7564 574.5,31.5C 575.204,39.8188 577.204,47.6521 580.5,55C 581.077,57.137 581.41,59.3037 581.5,61.5C 579.833,61.5 578.167,61.5 576.5,61.5C 577.575,57.0775 575.908,55.0775 571.5,55.5C 567.823,55.1995 566.157,56.8661 566.5,60.5C 565.167,60.5 563.833,60.5 562.5,60.5C 564.697,53.6638 566.364,46.6638 567.5,39.5 Z"/></g>
<g><path style="opacity:1" fill="#c9c9c9" d="M 570.5,42.5 C 573.543,44.5907 574.876,47.5907 574.5,51.5C 572.833,51.5 571.167,51.5 569.5,51.5C 569.704,48.4824 570.037,45.4824 570.5,42.5 Z"/></g>
<g><path style="opacity:1" fill="#a7a7a7" d="M 605.5,31.5 C 605.5,41.1667 605.5,50.8333 605.5,60.5C 606.833,60.5 608.167,60.5 609.5,60.5C 609.5,57.1667 609.5,53.8333 609.5,50.5C 611.099,50.2322 612.432,50.5655 613.5,51.5C 612.5,51.5 611.5,51.5 610.5,51.5C 610.5,54.8333 610.5,58.1667 610.5,61.5C 608.5,61.5 606.5,61.5 604.5,61.5C 604.173,51.3194 604.506,41.3194 605.5,31.5 Z"/></g>
<g><path style="opacity:1" fill="#a2a2a2" d="M 814.5,41.5 C 815.787,42.8714 816.453,44.7047 816.5,47C 816.453,49.2953 815.787,51.1286 814.5,52.5C 814.5,48.8333 814.5,45.1667 814.5,41.5 Z"/></g>
<g><path style="opacity:1" fill="#1f1f1f" d="M 742.5,32.5 C 746.167,32.5 749.833,32.5 753.5,32.5C 753.5,33.5 753.5,34.5 753.5,35.5C 750.941,35.1984 748.607,35.5318 746.5,36.5C 746.5,39.1667 746.5,41.8333 746.5,44.5C 747.833,44.5 749.167,44.5 750.5,44.5C 750.5,45.5 750.5,46.5 750.5,47.5C 749.167,47.5 747.833,47.5 746.5,47.5C 746.5,50.8333 746.5,54.1667 746.5,57.5C 749.5,57.5 752.5,57.5 755.5,57.5C 755.5,58.8333 755.5,60.1667 755.5,61.5C 751.167,61.5 746.833,61.5 742.5,61.5C 742.5,51.8333 742.5,42.1667 742.5,32.5 Z"/></g>
<g><path style="opacity:1" fill="#323232" d="M 780.5,32.5 C 785.37,30.5055 789.536,31.5055 793,35.5C 796.456,43.0467 796.289,50.38 792.5,57.5C 792.5,56.1667 791.833,55.5 790.5,55.5C 791.996,49.4565 791.829,43.4565 790,37.5C 788.644,36.6198 787.144,36.2865 785.5,36.5C 785.918,35.7784 786.584,35.2784 787.5,35C 785.697,32.8975 783.364,32.0642 780.5,32.5 Z"/></g>
<g><path style="opacity:1" fill="#2f2f2f" d="M 212.5,52.5 C 217.691,51.2339 221.358,52.9006 223.5,57.5C 222.833,57.8333 222.167,58.1667 221.5,58.5C 219.833,57.5 218.167,56.5 216.5,55.5C 215.28,55.8869 214.613,56.7202 214.5,58C 217.635,63.1062 220.635,68.2729 223.5,73.5C 221.973,79.1902 218.306,81.0236 212.5,79C 210.393,77.7365 209.393,75.9032 209.5,73.5C 211.991,73.8395 214.158,74.8395 216,76.5C 218.259,76.7394 219.426,75.7394 219.5,73.5C 216.89,69.0498 214.057,64.7165 211,60.5C 210.282,57.5929 210.782,54.9262 212.5,52.5 Z"/></g>
<g><path style="opacity:1" fill="#949495" d="M 558.5,57.5 C 557.789,55.1582 556.456,54.8249 554.5,56.5C 554.5,55.5 554.5,54.5 554.5,53.5C 556.167,53.5 557.833,53.5 559.5,53.5C 559.768,55.099 559.434,56.4324 558.5,57.5 Z"/></g>
<g><path style="opacity:1" fill="#a0a0a0" d="M 725.5,18.5 C 768.239,18.1725 810.906,18.5058 853.5,19.5C 853.5,21.1667 853.5,22.8333 853.5,24.5C 852.167,25.8333 852.167,27.1667 853.5,28.5C 853.5,32.8333 853.5,37.1667 853.5,41.5C 852.167,43.1667 852.167,44.8333 853.5,46.5C 853.5,69.8333 853.5,93.1667 853.5,116.5C 832.546,117.477 811.546,117.811 790.5,117.5C 810.329,116.668 830.329,116.168 850.5,116C 737.333,115.833 624.333,115.333 511.5,114.5C 624.5,114.5 737.5,114.5 850.5,114.5C 850.5,83.5 850.5,52.5 850.5,21.5C 817.996,21.8316 785.662,21.4982 753.5,20.5C 785.835,20.6666 818.168,20.5 850.5,20C 808.665,19.8326 766.998,19.3326 725.5,18.5 Z"/></g>
<g><path style="opacity:1" fill="#2f2f2f" d="M 75.5,52.5 C 78.5184,52.3354 81.5184,52.502 84.5,53C 88.2266,58.2429 89.3933,64.0762 88,70.5C 87.6779,73.6663 86.5113,76.333 84.5,78.5C 83.9035,77.0646 83.9035,75.398 84.5,73.5C 84.687,67.7876 84.3537,62.1209 83.5,56.5C 81.8333,56.5 80.1667,56.5 78.5,56.5C 78.5,63.1667 78.5,69.8333 78.5,76.5C 79.8083,77.2323 81.1416,78.0656 82.5,79C 80.1902,79.4966 77.8568,79.6633 75.5,79.5C 75.5,70.5 75.5,61.5 75.5,52.5 Z"/></g>
<g><path style="opacity:1" fill="#f4f4f4" d="M 84.5,73.5 C 83.3579,75.9717 81.3579,76.9717 78.5,76.5C 78.5,69.8333 78.5,63.1667 78.5,56.5C 80.1667,56.5 81.8333,56.5 83.5,56.5C 84.3537,62.1209 84.687,67.7876 84.5,73.5 Z"/></g>
<g><path style="opacity:1" fill="#9d9d9d" d="M 678.5,53.5 C 678.5,54.5 678.5,55.5 678.5,56.5C 681.713,56.19 684.713,56.5233 687.5,57.5C 684.167,57.5 680.833,57.5 677.5,57.5C 677.232,55.901 677.566,54.5676 678.5,53.5 Z"/></g>
<g><path style="opacity:1" fill="#262626" d="M 760.5,31.5 C 763.518,31.3354 766.518,31.502 769.5,32C 770.652,34.1487 772.152,35.982 774,37.5C 773.349,45.5084 773.515,53.5084 774.5,61.5C 773.167,61.5 771.833,61.5 770.5,61.5C 770.11,58.1606 769.61,54.8273 769,51.5C 767.644,50.6198 766.144,50.2865 764.5,50.5C 764.5,54.1667 764.5,57.8333 764.5,61.5C 763.167,61.5 761.833,61.5 760.5,61.5C 760.5,51.5 760.5,41.5 760.5,31.5 Z"/></g>
<g><path style="opacity:1" fill="#f6f6f6" d="M 764.5,36.5 C 766.167,36.5 767.833,36.5 769.5,36.5C 769.5,39.8333 769.5,43.1667 769.5,46.5C 767.833,46.5 766.167,46.5 764.5,46.5C 764.5,43.1667 764.5,39.8333 764.5,36.5 Z"/></g>
<g><path style="opacity:1" fill="#737373" d="M 589.5,51.5 C 589.5,54.8333 589.5,58.1667 589.5,61.5C 587.901,61.7678 586.568,61.4345 585.5,60.5C 586.5,60.5 587.5,60.5 588.5,60.5C 588.19,57.2869 588.523,54.2869 589.5,51.5 Z"/></g>
<g><path style="opacity:1" fill="#1c1c1c" d="M 685.5,37.5 C 683.612,43.0462 681.279,48.3796 678.5,53.5C 677.566,54.5676 677.232,55.901 677.5,57.5C 680.833,57.5 684.167,57.5 687.5,57.5C 687.5,58.5 687.5,59.5 687.5,60.5C 682.833,60.5 678.167,60.5 673.5,60.5C 673.5,58.8333 673.5,57.1667 673.5,55.5C 675.42,49.9366 677.753,44.6033 680.5,39.5C 682.176,38.8166 682.843,37.4832 682.5,35.5C 679.5,35.5 676.5,35.5 673.5,35.5C 673.5,34.5 673.5,33.5 673.5,32.5C 677.5,32.5 681.5,32.5 685.5,32.5C 685.5,34.1667 685.5,35.8333 685.5,37.5 Z"/></g>
<g><path style="opacity:1" fill="#2e2e2e" d="M 26.5,51.5 C 28.9363,51.317 31.103,51.9837 33,53.5C 36.2893,61.807 36.2893,70.1403 33,78.5C 28.8003,81.6604 25.467,80.9937 23,76.5C 20.817,68.7273 21.1503,61.0606 24,53.5C 24.9947,52.9341 25.828,52.2674 26.5,51.5 Z"/></g>
<g><path style="opacity:1" fill="#ececec" d="M 26.5,55.5 C 28.9806,55.3234 30.8139,56.3234 32,58.5C 32.95,64.3204 32.45,69.987 30.5,75.5C 27.2512,77.222 25.4179,76.222 25,72.5C 24.1247,66.6679 24.6247,61.0013 26.5,55.5 Z"/></g>
<g><path style="opacity:0.024" fill="#e2e3e2" d="M 505.5,58.5 C 505.5,59.1667 505.5,59.8333 505.5,60.5C 502.833,59.8333 502.833,59.1667 505.5,58.5 Z"/></g>
<g><path style="opacity:1" fill="#696969" d="M 506.5,18.5 C 506.833,18.5 507.167,18.5 507.5,18.5C 507.328,19.4916 507.662,20.1583 508.5,20.5C 507.514,39.0903 507.18,57.757 507.5,76.5C 506.504,89.6562 506.171,102.99 506.5,116.5C 505.503,98.0075 505.17,79.3408 505.5,60.5C 505.5,59.8333 505.5,59.1667 505.5,58.5C 505.5,55.8333 505.5,53.1667 505.5,50.5C 505.5,40.5 505.5,30.5 505.5,20.5C 505.328,19.5084 505.662,18.8417 506.5,18.5 Z"/></g>
<g><path style="opacity:1" fill="#575757" d="M 673.5,55.5 C 673.5,57.1667 673.5,58.8333 673.5,60.5C 678.167,60.5 682.833,60.5 687.5,60.5C 682.695,61.4872 677.695,61.8205 672.5,61.5C 672.205,59.2646 672.539,57.2646 673.5,55.5 Z"/></g>
<g><path style="opacity:1" fill="#2f2f2f" d="M 130.5,51.5 C 135.494,50.8129 138.494,52.8129 139.5,57.5C 136.999,56.1736 134.332,55.6736 131.5,56C 128.887,62.6814 128.887,69.348 131.5,76C 134.332,76.3264 136.999,75.8264 139.5,74.5C 138.707,79.7759 135.707,81.6092 130.5,80C 129.333,79.5 128.5,78.6667 128,77.5C 125.715,72.04 125.049,66.3733 126,60.5C 126.472,56.8895 127.972,53.8895 130.5,51.5 Z"/></g>
<g><path style="opacity:1" fill="#262626" d="M 173.5,52.5 C 174.5,52.5 175.5,52.5 176.5,52.5C 176.5,60.5 176.5,68.5 176.5,76.5C 179.5,76.5 182.5,76.5 185.5,76.5C 185.5,77.8333 185.5,79.1667 185.5,80.5C 181.5,80.5 177.5,80.5 173.5,80.5C 173.5,71.1667 173.5,61.8333 173.5,52.5 Z"/></g>
<g><path style="opacity:1" fill="#2d2d2d" d="M 194.5,52.5 C 196.167,52.5 197.833,52.5 199.5,52.5C 201.293,61.8788 203.293,71.2122 205.5,80.5C 204.178,80.67 203.011,80.3366 202,79.5C 202.298,75.7976 200.631,74.131 197,74.5C 193.008,74.4301 191.508,76.4301 192.5,80.5C 191.5,80.5 190.5,80.5 189.5,80.5C 191.157,71.1855 192.824,61.8521 194.5,52.5 Z"/></g>
<g><path style="opacity:1" fill="#343434" d="M 62.5,76.5 C 65.0277,77.1657 67.6944,77.8324 70.5,78.5C 66.8927,79.4892 63.226,79.8226 59.5,79.5C 58.5067,70.6822 58.1734,61.6822 58.5,52.5C 62.8333,52.5 67.1667,52.5 71.5,52.5C 71.5,53.8333 71.5,55.1667 71.5,56.5C 68.5,56.5 65.5,56.5 62.5,56.5C 62.5,59.1667 62.5,61.8333 62.5,64.5C 64.1667,64.5 65.8333,64.5 67.5,64.5C 67.5,65.5 67.5,66.5 67.5,67.5C 65.8333,67.5 64.1667,67.5 62.5,67.5C 62.5,70.5 62.5,73.5 62.5,76.5 Z"/></g>
<g><path style="opacity:1" fill="#5e5e5e" d="M 75.5,52.5 C 75.5,61.5 75.5,70.5 75.5,79.5C 77.8568,79.6633 80.1902,79.4966 82.5,79C 81.1416,78.0656 79.8083,77.2323 78.5,76.5C 81.3579,76.9717 83.3579,75.9717 84.5,73.5C 83.9035,75.398 83.9035,77.0646 84.5,78.5C 84.3893,79.1174 84.056,79.6174 83.5,80C 80.5184,80.498 77.5184,80.6646 74.5,80.5C 74.1731,70.985 74.5064,61.6517 75.5,52.5 Z"/></g>
<g><path style="opacity:1" fill="#d3d3d3" d="M 196.5,63.5 C 198.086,65.0808 199.086,67.0808 199.5,69.5C 198.332,71.2174 196.665,71.8841 194.5,71.5C 194.858,68.7334 195.525,66.0667 196.5,63.5 Z"/></g>
<g><path style="opacity:1" fill="#2b2b2b" d="M 148.5,52.5 C 150.451,52.2267 151.951,52.8934 153,54.5C 155.567,63.0279 157.4,71.6946 158.5,80.5C 157.5,80.5 156.5,80.5 155.5,80.5C 155.854,74.7962 153.187,72.9629 147.5,75C 146.833,76.6667 146.167,78.3333 145.5,80C 144.365,80.7494 143.365,80.5827 142.5,79.5C 144.975,70.6008 146.975,61.6008 148.5,52.5 Z"/></g>
<g><path style="opacity:1" fill="#d4d4d4" d="M 150.5,62.5 C 151.67,64.6502 152.67,66.9836 153.5,69.5C 152.332,71.2174 150.665,71.8841 148.5,71.5C 148.405,68.3033 149.072,65.3033 150.5,62.5 Z"/></g>
<g><path style="opacity:1" fill="#292929" d="M 40.5,52.5 C 51.8537,49.7305 55.8537,53.8972 52.5,65C 56.5497,76.4009 52.5497,81.5676 40.5,80.5C 40.5,71.1667 40.5,61.8333 40.5,52.5 Z"/></g>
<g><path style="opacity:1" fill="#efefef" d="M 43.5,66.5 C 50.6275,66.7063 52.2942,69.873 48.5,76C 46.8659,76.4935 45.1992,76.6602 43.5,76.5C 43.5,73.1667 43.5,69.8333 43.5,66.5 Z"/></g>
<g><path style="opacity:1" fill="#eaeaea" d="M 43.5,56.5 C 45.8333,56.5 48.1667,56.5 50.5,56.5C 51.2647,61.9064 48.9313,63.9064 43.5,62.5C 43.5,60.5 43.5,58.5 43.5,56.5 Z"/></g>
<g><path style="opacity:1" fill="#343434" d="M 93.5,52.5 C 97.5,52.5 101.5,52.5 105.5,52.5C 105.5,53.8333 105.5,55.1667 105.5,56.5C 102.833,56.5 100.167,56.5 97.5,56.5C 97.5,58.8333 97.5,61.1667 97.5,63.5C 98.8333,63.5 100.167,63.5 101.5,63.5C 101.5,64.8333 101.5,66.1667 101.5,67.5C 100.167,67.5 98.8333,67.5 97.5,67.5C 97.5,70.5 97.5,73.5 97.5,76.5C 100.167,76.5 102.833,76.5 105.5,76.5C 105.5,77.8333 105.5,79.1667 105.5,80.5C 101.5,80.5 97.5,80.5 93.5,80.5C 93.5,71.1667 93.5,61.8333 93.5,52.5 Z"/></g>
<g><path style="opacity:1" fill="#292929" d="M 531.5,103.5 C 530.167,103.5 528.833,103.5 527.5,103.5C 527.5,102.5 527.5,101.5 527.5,100.5C 526.167,100.5 524.833,100.5 523.5,100.5C 522.766,99.2921 522.433,97.9587 522.5,96.5C 525.455,98.3863 528.789,99.3863 532.5,99.5C 532.62,97.2655 532.287,95.0989 531.5,93C 527.631,89.486 524.964,85.3193 523.5,80.5C 523.74,74.7251 526.74,72.5585 532.5,74C 536.868,80.2118 536.035,81.3785 530,77.5C 528.167,78 527,79.1667 526.5,81C 530.766,85.6823 534.433,90.849 537.5,96.5C 535.673,98.4872 534.673,100.821 534.5,103.5C 533.5,103.5 532.5,103.5 531.5,103.5 Z"/></g>
<g><path style="opacity:1" fill="#313131" d="M 109.5,52.5 C 113.833,52.5 118.167,52.5 122.5,52.5C 122.66,54.1992 122.494,55.8659 122,57.5C 119.07,63.4572 116.237,69.4572 113.5,75.5C 116.428,76.4841 119.428,76.8174 122.5,76.5C 122.5,77.8333 122.5,79.1667 122.5,80.5C 117.833,80.5 113.167,80.5 108.5,80.5C 110.206,73.0824 113.039,66.0824 117,59.5C 117.49,58.2068 117.657,56.8734 117.5,55.5C 114.833,55.5 112.167,55.5 109.5,55.5C 109.5,54.5 109.5,53.5 109.5,52.5 Z"/></g>
<g><path style="opacity:1" fill="#1d1d1d" d="M 561.5,74.5 C 562.833,74.5 564.167,74.5 565.5,74.5C 565.5,82.8333 565.5,91.1667 565.5,99.5C 568.833,99.5 572.167,99.5 575.5,99.5C 575.5,100.833 575.5,102.167 575.5,103.5C 570.833,103.5 566.167,103.5 561.5,103.5C 561.5,93.8333 561.5,84.1667 561.5,74.5 Z"/></g>
<g><path style="opacity:1" fill="#262626" d="M 610.5,74.5 C 622.086,73.4255 626.419,78.4255 623.5,89.5C 621.851,90.1476 620.518,91.1476 619.5,92.5C 617.955,93.4519 616.288,93.7852 614.5,93.5C 614.5,96.8333 614.5,100.167 614.5,103.5C 613.167,103.5 611.833,103.5 610.5,103.5C 610.5,93.8333 610.5,84.1667 610.5,74.5 Z"/></g>
<g><path style="opacity:1" fill="#535353" d="M 62.5,76.5 C 65.5,76.5 68.5,76.5 71.5,76.5C 71.5,77.8333 71.5,79.1667 71.5,80.5C 67.2984,80.8168 63.2984,80.4834 59.5,79.5C 63.226,79.8226 66.8927,79.4892 70.5,78.5C 67.6944,77.8324 65.0277,77.1657 62.5,76.5 Z"/></g>
<g><path style="opacity:1" fill="#f2f2f2" d="M 614.5,78.5 C 616.288,78.2148 617.955,78.5481 619.5,79.5C 620.577,82.4742 620.577,85.4742 619.5,88.5C 617.833,88.5 616.167,88.5 614.5,88.5C 614.5,85.1667 614.5,81.8333 614.5,78.5 Z"/></g>
<g><path style="opacity:1" fill="#252525" d="M 640.5,98.5 C 639.666,97.2521 638.333,96.5854 636.5,96.5C 634.667,96.5854 633.334,97.2521 632.5,98.5C 632.5,100.167 632.5,101.833 632.5,103.5C 631.5,103.5 630.5,103.5 629.5,103.5C 629.958,96.4182 630.958,89.4182 632.5,82.5C 634.176,81.8166 634.843,80.4832 634.5,78.5C 635.234,77.2921 635.567,75.9587 635.5,74.5C 637.451,74.2267 638.951,74.8934 640,76.5C 641.954,85.5829 644.12,94.5829 646.5,103.5C 645.167,103.5 643.833,103.5 642.5,103.5C 642.88,101.302 642.213,99.6354 640.5,98.5 Z"/></g>
<g><path style="opacity:1" fill="#232323" d="M 703.5,74.5 C 716.829,74.4836 720.496,80.4836 714.5,92.5C 716.115,96.0086 717.115,99.6753 717.5,103.5C 716.5,103.5 715.5,103.5 714.5,103.5C 712.816,100.784 711.65,97.7836 711,94.5C 709.644,93.6198 708.144,93.2865 706.5,93.5C 706.5,96.8333 706.5,100.167 706.5,103.5C 705.5,103.5 704.5,103.5 703.5,103.5C 703.5,93.8333 703.5,84.1667 703.5,74.5 Z"/></g>
<g><path style="opacity:1" fill="#e7e7e7" d="M 706.5,78.5 C 708.722,78.178 710.556,78.8446 712,80.5C 712.43,83.1922 712.263,85.8589 711.5,88.5C 709.833,88.5 708.167,88.5 706.5,88.5C 706.5,85.1667 706.5,81.8333 706.5,78.5 Z"/></g>
<g><path style="opacity:1" fill="#7b7b7b" d="M 634.5,78.5 C 634.843,80.4832 634.176,81.8166 632.5,82.5C 632.157,80.5168 632.824,79.1834 634.5,78.5 Z"/></g>
<g><path style="opacity:1" fill="#252525" d="M 682.5,98.5 C 681.666,97.2521 680.333,96.5854 678.5,96.5C 676.667,96.5854 675.334,97.2521 674.5,98.5C 673.699,100.042 673.366,101.708 673.5,103.5C 672.167,103.5 670.833,103.5 669.5,103.5C 671.818,93.9302 673.818,84.2635 675.5,74.5C 677.167,74.5 678.833,74.5 680.5,74.5C 683.041,84.1214 685.374,93.7881 687.5,103.5C 686.167,103.5 684.833,103.5 683.5,103.5C 683.634,101.708 683.301,100.042 682.5,98.5 Z"/></g>
<g><path style="opacity:1" fill="#282828" d="M 785.5,74.5 C 790.294,73.9055 793.961,75.5722 796.5,79.5C 795.833,79.8333 795.167,80.1667 794.5,80.5C 792.41,78.8942 790.076,78.3942 787.5,79C 786.62,80.3561 786.286,81.8561 786.5,83.5C 787.675,83.281 788.675,83.6143 789.5,84.5C 791.141,87.6268 793.141,90.4601 795.5,93C 797.725,98.041 796.392,101.708 791.5,104C 789.833,104.667 788.167,104.667 786.5,104C 784.161,102.011 782.827,99.5107 782.5,96.5C 783.833,96.5 785.167,96.5 786.5,96.5C 786.5,97.5 786.5,98.5 786.5,99.5C 793.027,99.4546 794.193,96.788 790,91.5C 788.989,90.6634 787.822,90.33 786.5,90.5C 785.79,86.994 784.457,83.8273 782.5,81C 782.977,78.4904 783.977,76.3237 785.5,74.5 Z"/></g>
<g><path style="opacity:1" fill="#232323" d="M 585.5,73.5 C 588.885,73.0248 591.218,74.3582 592.5,77.5C 594.036,86.3563 593.703,95.023 591.5,103.5C 588.428,103.817 585.428,103.484 582.5,102.5C 578.977,95.5085 577.977,88.1752 579.5,80.5C 580.832,77.4432 582.832,75.1099 585.5,73.5 Z"/></g>
<g><path style="opacity:1" fill="#e9e9e9" d="M 586.5,77.5 C 587.79,78.0577 588.623,79.0577 589,80.5C 589.667,85.8333 589.667,91.1667 589,96.5C 588.309,99.266 586.809,99.9327 584.5,98.5C 582.179,91.9472 581.845,85.2806 583.5,78.5C 584.791,78.7373 585.791,78.404 586.5,77.5 Z"/></g>
<g><path style="opacity:1" fill="#747474" d="M 806.5,83.5 C 806.843,85.4832 806.176,86.8166 804.5,87.5C 804.157,85.5168 804.824,84.1834 806.5,83.5 Z"/></g>
<g><path style="opacity:1" fill="#dedede" d="M 635.5,84.5 C 638.543,86.5907 639.876,89.5907 639.5,93.5C 638.167,93.5 636.833,93.5 635.5,93.5C 635.5,90.5 635.5,87.5 635.5,84.5 Z"/></g>
<g><path style="opacity:1" fill="#ddddde" d="M 677.5,84.5 C 679.851,86.8413 680.851,89.8413 680.5,93.5C 678.833,93.5 677.167,93.5 675.5,93.5C 675.928,90.4359 676.594,87.4359 677.5,84.5 Z"/></g>
<g><path style="opacity:1" fill="#252525" d="M 722.5,74.5 C 727.167,74.5 731.833,74.5 736.5,74.5C 736.5,75.8333 736.5,77.1667 736.5,78.5C 733.167,78.5 729.833,78.5 726.5,78.5C 726.5,80.8333 726.5,83.1667 726.5,85.5C 728.167,85.5 729.833,85.5 731.5,85.5C 731.5,87.1667 731.5,88.8333 731.5,90.5C 729.833,90.5 728.167,90.5 726.5,90.5C 726.223,93.4475 726.556,96.2809 727.5,99C 730.482,99.498 733.482,99.6646 736.5,99.5C 736.5,100.833 736.5,102.167 736.5,103.5C 731.833,103.5 727.167,103.5 722.5,103.5C 722.5,93.8333 722.5,84.1667 722.5,74.5 Z"/></g>
<g><path style="opacity:1" fill="#595959" d="M 542.5,82.5 C 542.5,86.8333 542.5,91.1667 542.5,95.5C 541.2,93.777 540.533,91.6103 540.5,89C 540.533,86.3897 541.2,84.223 542.5,82.5 Z"/></g>
<g><path style="opacity:1" fill="#a9a9a9" d="M 663.5,80.5 C 664.158,81.7933 664.492,83.2933 664.5,85C 664.519,88.0732 663.853,90.9065 662.5,93.5C 661.876,93.0831 661.543,92.4164 661.5,91.5C 663.221,88.0915 663.888,84.4249 663.5,80.5 Z"/></g>
<g><path style="opacity:1" fill="#202020" d="M 824.5,74.5 C 835.86,74.2247 839.527,79.5581 835.5,90.5C 834.71,91.6085 834.21,92.9419 834,94.5C 833.517,93.552 833.351,92.552 833.5,91.5C 827.792,91.5076 827.459,91.0076 832.5,90C 833.252,89.3292 833.586,88.4959 833.5,87.5C 833.663,85.1432 833.497,82.8098 833,80.5C 831.301,79.5939 829.467,79.2606 827.5,79.5C 827.5,82.5 827.5,85.5 827.5,88.5C 826.761,88.369 826.094,88.5357 825.5,89C 827.107,90.049 827.773,91.549 827.5,93.5C 827.5,96.8333 827.5,100.167 827.5,103.5C 826.5,103.5 825.5,103.5 824.5,103.5C 824.5,93.8333 824.5,84.1667 824.5,74.5 Z"/></g>
<g><path style="opacity:1" fill="#ececec" d="M 833.5,87.5 C 831.598,89.1511 829.598,89.4845 827.5,88.5C 827.5,85.5 827.5,82.5 827.5,79.5C 829.467,79.2606 831.301,79.5939 833,80.5C 833.497,82.8098 833.663,85.1432 833.5,87.5 Z"/></g>
<g><path style="opacity:1" fill="#3b3b3b" d="M 100.5,89.5 C 103.5,89.5 106.5,89.5 109.5,89.5C 109.5,90.5 109.5,91.5 109.5,92.5C 106.5,92.5 103.5,92.5 100.5,92.5C 100.5,91.5 100.5,90.5 100.5,89.5 Z"/></g>
<g><path style="opacity:1" fill="#2a2a2a" d="M 663.5,80.5 C 663.888,84.4249 663.221,88.0915 661.5,91.5C 661.543,92.4164 661.876,93.0831 662.5,93.5C 663.294,96.802 663.96,100.135 664.5,103.5C 663.325,103.719 662.325,103.386 661.5,102.5C 660.94,100.146 660.273,97.813 659.5,95.5C 658.476,94.1468 657.143,93.4802 655.5,93.5C 655.5,96.8333 655.5,100.167 655.5,103.5C 653.833,103.5 652.167,103.5 650.5,103.5C 650.5,93.8333 650.5,84.1667 650.5,74.5C 653.898,74.1796 657.232,74.513 660.5,75.5C 662.278,76.7258 663.278,78.3925 663.5,80.5 Z"/></g>
<g><path style="opacity:1" fill="#efefef" d="M 655.5,78.5 C 659.134,78.1565 660.801,79.8232 660.5,83.5C 660.801,87.1768 659.134,88.8435 655.5,88.5C 655.5,85.1667 655.5,81.8333 655.5,78.5 Z"/></g>
<g><path style="opacity:1" fill="#383838" d="M 833.5,87.5 C 833.586,88.4959 833.252,89.3292 832.5,90C 827.459,91.0076 827.792,91.5076 833.5,91.5C 833.351,92.552 833.517,93.552 834,94.5C 834.21,92.9419 834.71,91.6085 835.5,90.5C 835.704,93.5176 836.037,96.5176 836.5,99.5C 836.843,101.483 836.176,102.817 834.5,103.5C 833.242,100.306 832.576,96.9728 832.5,93.5C 830.833,93.5 829.167,93.5 827.5,93.5C 827.773,91.549 827.107,90.049 825.5,89C 826.094,88.5357 826.761,88.369 827.5,88.5C 829.598,89.4845 831.598,89.1511 833.5,87.5 Z"/></g>
<g><path style="opacity:1" fill="#696969" d="M 741.5,74.5 C 741.5,84.1667 741.5,93.8333 741.5,103.5C 740.173,99.049 739.506,94.2157 739.5,89C 739.506,83.7843 740.173,78.951 741.5,74.5 Z"/></g>
<g><path style="opacity:1" fill="#242424" d="M 773.5,98.5 C 772.486,97.2353 770.986,96.5687 769,96.5C 767.014,96.5687 765.514,97.2353 764.5,98.5C 763.699,100.042 763.366,101.708 763.5,103.5C 762.5,103.5 761.5,103.5 760.5,103.5C 760.5,101.833 760.5,100.167 760.5,98.5C 762.746,91.2987 764.579,83.9654 766,76.5C 767.153,74.503 768.653,74.1696 770.5,75.5C 773.844,84.5471 776.178,93.8804 777.5,103.5C 776.167,103.5 774.833,103.5 773.5,103.5C 773.5,101.833 773.5,100.167 773.5,98.5 Z"/></g>
<g><path style="opacity:1" fill="#e7e7e7" d="M 768.5,84.5 C 769.657,87.2727 770.324,90.2727 770.5,93.5C 769.167,93.5 767.833,93.5 766.5,93.5C 766.091,90.1445 766.758,87.1445 768.5,84.5 Z"/></g>
<g><path style="opacity:1" fill="#242424" d="M 813.5,98.5 C 812.848,97.2749 811.681,96.6083 810,96.5C 808.319,96.6083 807.152,97.2749 806.5,98.5C 805.498,100.011 804.831,101.678 804.5,103.5C 803.5,103.5 802.5,103.5 801.5,103.5C 802.285,98.1241 803.285,92.7908 804.5,87.5C 806.176,86.8166 806.843,85.4832 806.5,83.5C 806.704,80.4824 807.037,77.4824 807.5,74.5C 808.978,74.238 810.311,74.5713 811.5,75.5C 814.851,83.8875 817.184,92.5542 818.5,101.5C 818.462,104.187 817.462,104.854 815.5,103.5C 814.83,101.709 814.163,100.042 813.5,98.5 Z"/></g>
<g><path style="opacity:1" fill="#d0d0d0" d="M 809.5,84.5 C 810.693,84.9704 811.36,85.9704 811.5,87.5C 811.997,89.8183 812.33,92.1516 812.5,94.5C 810.856,94.7135 809.356,94.3802 808,93.5C 807.697,90.3764 808.197,87.3764 809.5,84.5 Z"/></g>
<g><path style="opacity:1" fill="#545454" d="M 824.5,74.5 C 824.5,84.1667 824.5,93.8333 824.5,103.5C 825.5,103.5 826.5,103.5 827.5,103.5C 826.432,104.434 825.099,104.768 823.5,104.5C 823.173,94.3194 823.506,84.3194 824.5,74.5 Z"/></g>
<g><path style="opacity:0.511" fill="#b6b6b6" d="M 246.5,46.5 C 246.667,75.1686 246.5,103.835 246,132.5C 244.841,135.493 242.675,137.16 239.5,137.5C 239.5,137.167 239.5,136.833 239.5,136.5C 218.34,135.503 197.007,135.169 175.5,135.5C 175.5,135.167 175.5,134.833 175.5,134.5C 197.843,134.833 220.177,134.5 242.5,133.5C 243.127,132.583 243.461,131.583 243.5,130.5C 244.498,105.339 244.831,80.0055 244.5,54.5C 244.335,51.1501 244.502,47.8168 245,44.5C 245.278,45.4158 245.778,46.0825 246.5,46.5 Z"/></g>
<g><path style="opacity:1" fill="#202020" d="M 741.5,74.5 C 746.376,73.8371 750.543,75.1704 754,78.5C 754.167,79.5 754.333,80.5 754.5,81.5C 754.067,87.1325 753.9,92.7992 754,98.5C 750.978,102.742 746.811,104.409 741.5,103.5C 741.5,93.8333 741.5,84.1667 741.5,74.5 Z"/></g>
<g><path style="opacity:1" fill="#eeeeee" d="M 744.5,89.5 C 746.467,89.2606 748.301,89.5939 750,90.5C 750.495,93.5314 750.329,96.5314 749.5,99.5C 747.833,99.5 746.167,99.5 744.5,99.5C 744.5,96.1667 744.5,92.8333 744.5,89.5 Z"/></g>
<g><path style="opacity:1" fill="#f3f3f3" d="M 744.5,78.5 C 748.908,78.062 750.575,80.062 749.5,84.5C 747.833,84.5 746.167,84.5 744.5,84.5C 744.5,82.5 744.5,80.5 744.5,78.5 Z"/></g>
<g><path style="opacity:1" fill="#232323" d="M 542.5,95.5 C 542.5,91.1667 542.5,86.8333 542.5,82.5C 541.75,75.4232 544.75,72.5899 551.5,74C 553,74.8333 554.167,76 555,77.5C 555.667,84.8333 555.667,92.1667 555,99.5C 552.174,102.974 548.674,103.974 544.5,102.5C 543.054,100.382 542.387,98.0488 542.5,95.5 Z"/></g>
<g><path style="opacity:1" fill="#767676" d="M 551.5,83.5 C 552.794,85.0478 553.461,87.0478 553.5,89.5C 553.461,91.9522 552.794,93.9522 551.5,95.5C 551.5,91.5 551.5,87.5 551.5,83.5 Z"/></g>
<g><path style="opacity:1" fill="#eeeeee" d="M 551.5,83.5 C 551.5,87.5 551.5,91.5 551.5,95.5C 551.299,99.35 549.466,100.35 546,98.5C 543.841,91.5427 544.008,84.7093 546.5,78C 550.925,77.0442 552.592,78.8775 551.5,83.5 Z"/></g>
<g><path style="opacity:1" fill="#b5b5b5" d="M 640.5,98.5 C 637.833,98.5 635.167,98.5 632.5,98.5C 633.334,97.2521 634.667,96.5854 636.5,96.5C 638.333,96.5854 639.666,97.2521 640.5,98.5 Z"/></g>
<g><path style="opacity:1" fill="#a2a2a2" d="M 682.5,98.5 C 679.833,98.5 677.167,98.5 674.5,98.5C 675.334,97.2521 676.667,96.5854 678.5,96.5C 680.333,96.5854 681.666,97.2521 682.5,98.5 Z"/></g>
<g><path style="opacity:1" fill="#656565" d="M 773.5,98.5 C 770.5,98.5 767.5,98.5 764.5,98.5C 765.514,97.2353 767.014,96.5687 769,96.5C 770.986,96.5687 772.486,97.2353 773.5,98.5 Z"/></g>
<g><path style="opacity:1" fill="#7e7e7e" d="M 813.5,98.5 C 811.167,98.5 808.833,98.5 806.5,98.5C 807.152,97.2749 808.319,96.6083 810,96.5C 811.681,96.6083 812.848,97.2749 813.5,98.5 Z"/></g>
<g><path style="opacity:1" fill="#a6a6a6" d="M 93.5,97.5 C 91.0521,98.4731 88.3854,98.8064 85.5,98.5C 85.5,100.833 85.5,103.167 85.5,105.5C 84.5269,103.052 84.1936,100.385 84.5,97.5C 87.5,97.5 90.5,97.5 93.5,97.5 Z"/></g>
<g><path style="opacity:1" fill="#2a2a2a" d="M 93.5,97.5 C 90.5,97.5 87.5,97.5 84.5,97.5C 84.1936,100.385 84.5269,103.052 85.5,105.5C 86.8333,105.5 88.1667,105.5 89.5,105.5C 89.5,106.833 89.5,108.167 89.5,109.5C 87.8333,109.5 86.1667,109.5 84.5,109.5C 84.5,112.5 84.5,115.5 84.5,118.5C 87.7131,118.19 90.7131,118.523 93.5,119.5C 89.9707,121.423 85.9707,122.089 81.5,121.5C 81.5,112.5 81.5,103.5 81.5,94.5C 85.2984,93.5166 89.2984,93.1832 93.5,93.5C 93.5,94.8333 93.5,96.1667 93.5,97.5 Z"/></g>
<g><path style="opacity:1" fill="#5c5c5c" d="M 163.5,94.5 C 159.833,94.5 156.167,94.5 152.5,94.5C 152.5,103.5 152.5,112.5 152.5,121.5C 156.226,121.823 159.893,121.489 163.5,120.5C 160.694,119.832 158.028,119.166 155.5,118.5C 158.5,118.5 161.5,118.5 164.5,118.5C 164.5,119.833 164.5,121.167 164.5,122.5C 160.167,122.5 155.833,122.5 151.5,122.5C 151.5,112.833 151.5,103.167 151.5,93.5C 155.702,93.1832 159.702,93.5166 163.5,94.5 Z"/></g>
<g><path style="opacity:1" fill="#646464" d="M 523.5,100.5 C 524.833,100.5 526.167,100.5 527.5,100.5C 527.5,101.5 527.5,102.5 527.5,103.5C 528.833,103.5 530.167,103.5 531.5,103.5C 528.995,104.497 526.328,104.497 523.5,103.5C 523.5,102.5 523.5,101.5 523.5,100.5 Z"/></g>
<g><path style="opacity:1" fill="#959595" d="M 836.5,99.5 C 838.256,100.552 838.923,102.219 838.5,104.5C 836.901,104.768 835.568,104.434 834.5,103.5C 836.176,102.817 836.843,101.483 836.5,99.5 Z"/></g>
<g><path style="opacity:1" fill="#252525" d="M 163.5,94.5 C 163.5,95.5 163.5,96.5 163.5,97.5C 160.5,97.5 157.5,97.5 154.5,97.5C 154.337,99.8568 154.503,102.19 155,104.5C 156.356,105.38 157.856,105.714 159.5,105.5C 159.5,106.5 159.5,107.5 159.5,108.5C 158.167,108.5 156.833,108.5 155.5,108.5C 155.5,111.833 155.5,115.167 155.5,118.5C 158.028,119.166 160.694,119.832 163.5,120.5C 159.893,121.489 156.226,121.823 152.5,121.5C 152.5,112.5 152.5,103.5 152.5,94.5C 156.167,94.5 159.833,94.5 163.5,94.5 Z"/></g>
<g><path style="opacity:1" fill="#9e9e9e" d="M 760.5,98.5 C 760.5,100.167 760.5,101.833 760.5,103.5C 761.5,103.5 762.5,103.5 763.5,103.5C 762.432,104.434 761.099,104.768 759.5,104.5C 759.205,102.265 759.539,100.265 760.5,98.5 Z"/></g>
<g><path style="opacity:1" fill="#292929" d="M 171.5,94.5 C 175.741,93.7498 179.074,95.0831 181.5,98.5C 179.141,99.7053 176.974,99.372 175,97.5C 173.5,97.6667 172.667,98.5 172.5,100C 174.536,104.704 177.369,108.871 181,112.5C 182.267,118.066 180.101,121.399 174.5,122.5C 170.35,122.016 168.35,119.683 168.5,115.5C 169.552,115.351 170.552,115.517 171.5,116C 174.168,120.819 176.168,120.652 177.5,115.5C 175.785,111.084 173.285,107.084 170,103.5C 169.068,100.177 169.568,97.1769 171.5,94.5 Z"/></g>
<g><path style="opacity:1" fill="#535353" d="M 98.5,94.5 C 98.1685,103.525 98.5018,112.525 99.5,121.5C 100.167,116.683 100.834,112.017 101.5,107.5C 101.5,112.5 101.5,117.5 101.5,122.5C 100.167,122.5 98.8333,122.5 97.5,122.5C 97.1731,112.985 97.5064,103.652 98.5,94.5 Z"/></g>
<g><path style="opacity:1" fill="#292929" d="M 122.5,94.5 C 123.833,94.5 125.167,94.5 126.5,94.5C 128.182,103.896 130.182,113.23 132.5,122.5C 131.167,122.5 129.833,122.5 128.5,122.5C 128.167,120.5 127.833,118.5 127.5,116.5C 125.143,116.337 122.81,116.503 120.5,117C 119.594,118.699 119.261,120.533 119.5,122.5C 118.167,122.5 116.833,122.5 115.5,122.5C 116.665,112.849 118.998,103.516 122.5,94.5 Z"/></g>
<g><path style="opacity:1" fill="#d5d5d5" d="M 123.5,104.5 C 125.369,106.635 126.036,109.302 125.5,112.5C 124.022,112.762 122.689,112.429 121.5,111.5C 122.325,109.199 122.992,106.865 123.5,104.5 Z"/></g>
<g><path style="opacity:1" fill="#666666" d="M 55.5,41.5 C 116.998,40.5009 178.664,40.1676 240.5,40.5C 241.496,40.4142 242.329,40.7476 243,41.5C 243.175,46.0195 243.675,50.3528 244.5,54.5C 244.831,80.0055 244.498,105.339 243.5,130.5C 243.167,130.5 242.833,130.5 242.5,130.5C 242.829,100.926 242.495,71.4263 241.5,42C 179.501,41.5 117.501,41.3333 55.5,41.5 Z"/></g>
<g><path style="opacity:1" fill="#232323" d="M 98.5,94.5 C 99.8221,94.33 100.989,94.6634 102,95.5C 104.007,100.02 105.507,104.687 106.5,109.5C 106.56,110.043 106.893,110.376 107.5,110.5C 108.495,105.208 108.828,99.8746 108.5,94.5C 109.5,94.5 110.5,94.5 111.5,94.5C 111.5,103.833 111.5,113.167 111.5,122.5C 110.178,122.67 109.011,122.337 108,121.5C 106.481,116.399 104.314,111.732 101.5,107.5C 100.834,112.017 100.167,116.683 99.5,121.5C 98.5018,112.525 98.1685,103.525 98.5,94.5 Z"/></g>
<g><path style="opacity:1" fill="#5c5c5c" d="M 108.5,94.5 C 108.828,99.8746 108.495,105.208 107.5,110.5C 106.893,110.376 106.56,110.043 106.5,109.5C 107.167,104.5 107.833,99.5 108.5,94.5 Z"/></g>
<g><path style="opacity:1" fill="#606060" d="M 81.5,94.5 C 81.5,103.5 81.5,112.5 81.5,121.5C 85.9707,122.089 89.9707,121.423 93.5,119.5C 94.404,120.209 94.7373,121.209 94.5,122.5C 89.8333,122.5 85.1667,122.5 80.5,122.5C 80.1731,112.985 80.5064,103.652 81.5,94.5 Z"/></g>
<g><path style="opacity:1" fill="#383838" d="M 507.5,76.5 C 507.225,89.2037 507.558,101.87 508.5,114.5C 509.5,114.5 510.5,114.5 511.5,114.5C 624.333,115.333 737.333,115.833 850.5,116C 830.329,116.168 810.329,116.668 790.5,117.5C 790.167,117.5 789.833,117.5 789.5,117.5C 786.833,117.5 784.167,117.5 781.5,117.5C 781.167,117.5 780.833,117.5 780.5,117.5C 689.335,116.501 598.002,116.167 506.5,116.5C 506.171,102.99 506.504,89.6562 507.5,76.5 Z"/></g>
<g><path style="opacity:1" fill="#252525" d="M 135.5,94.5 C 136.5,94.5 137.5,94.5 138.5,94.5C 138.334,102.174 138.5,109.841 139,117.5C 142.057,118.451 145.223,118.784 148.5,118.5C 148.67,119.822 148.337,120.989 147.5,122C 143.514,122.499 139.514,122.666 135.5,122.5C 135.5,113.167 135.5,103.833 135.5,94.5 Z"/></g>
<g><path style="opacity:0.35" fill="#b8b8b8" d="M 506.5,116.5 C 598.002,116.167 689.335,116.501 780.5,117.5C 712.619,116.842 644.952,117.509 577.5,119.5C 576.221,118.032 574.554,117.365 572.5,117.5C 572.824,124.354 572.491,131.021 571.5,137.5C 571.793,131.107 571.46,124.773 570.5,118.5C 549.004,117.833 527.671,117.167 506.5,116.5 Z"/></g>
<g><path style="opacity:1" fill="#333333" d="M 67.5,94.5 C 71.5852,93.6588 74.5852,94.9922 76.5,98.5C 74.1409,99.7053 71.9743,99.372 70,97.5C 68.2676,97.7336 67.4342,98.7336 67.5,100.5C 70.7212,105.216 73.7212,110.049 76.5,115C 74.6121,122.974 70.4454,124.474 64,119.5C 63.51,118.207 63.3433,116.873 63.5,115.5C 65.952,115.624 67.952,116.624 69.5,118.5C 71.5,118.5 72.5,117.5 72.5,115.5C 69.7211,110.217 66.7211,105.051 63.5,100C 64.0074,97.4547 65.3407,95.6214 67.5,94.5 Z"/></g>
<g><path style="opacity:1" fill="#cfcfcf" d="M -0.5,41.5 C -0.166667,41.5 0.166667,41.5 0.5,41.5C 1.31807,71.7914 1.81807,102.125 2,132.5C 2.5,133 3,133.5 3.5,134C 60.7498,135.492 118.083,135.992 175.5,135.5C 197.007,135.169 218.34,135.503 239.5,136.5C 161.332,136.167 83.3316,136.501 5.5,137.5C 2.44517,136.445 0.445169,134.445 -0.5,131.5C -0.5,101.5 -0.5,71.5 -0.5,41.5 Z"/></g>
<g><path style="opacity:0.585" fill="#c8c8c8" d="M 781.5,117.5 C 784.167,117.5 786.833,117.5 789.5,117.5C 789.5,128.5 789.5,139.5 789.5,150.5C 786.833,150.5 784.167,150.5 781.5,150.5C 781.135,139.844 781.135,128.844 781.5,117.5 Z"/></g>
<g><path style="opacity:1" fill="#262626" d="M 242.5,130.5 C 242.833,130.5 243.167,130.5 243.5,130.5C 243.461,131.583 243.127,132.583 242.5,133.5C 220.177,134.5 197.843,134.833 175.5,134.5C 119.331,134.832 63.3309,134.499 7.5,133.5C 84.8341,133.667 162.167,133.5 239.5,133C 240.942,132.623 241.942,131.79 242.5,130.5 Z"/></g>
<g><path style="opacity:0.843" fill="#7e7e7e" d="M 5.5,137.5 C 83.3316,136.501 161.332,136.167 239.5,136.5C 239.5,136.833 239.5,137.167 239.5,137.5C 229.167,137.5 218.833,137.5 208.5,137.5C 206.167,137.5 203.833,137.5 201.5,137.5C 200.833,137.5 200.167,137.5 199.5,137.5C 149.5,137.5 99.5,137.5 49.5,137.5C 46.1667,137.5 42.8333,137.5 39.5,137.5C 28.3118,137.877 16.9785,137.877 5.5,137.5 Z"/></g>
<g><path style="opacity:1" fill="#d0d0d0" d="M 577.5,119.5 C 577.619,129.606 577.953,139.606 578.5,149.5C 575.682,150.88 573.015,150.713 570.5,149C 571.398,144.955 571.732,141.122 571.5,137.5C 572.491,131.021 572.824,124.354 572.5,117.5C 574.554,117.365 576.221,118.032 577.5,119.5 Z"/></g>
<g><path style="opacity:1" fill="#131313" d="M 532.5,141.5 C 534.308,142.918 534.975,144.918 534.5,147.5C 533.833,147.5 533.167,147.5 532.5,147.5C 532.737,146.209 532.404,145.209 531.5,144.5C 495.182,142.506 458.515,141.84 421.5,142.5C 400.5,142.5 379.5,142.5 358.5,142.5C 326.832,142.667 295.165,142.5 263.5,142C 353.166,141.5 442.833,141.333 532.5,141.5 Z"/></g>
<g><path style="opacity:1" fill="#c8c8c9" d="M 39.5,137.5 C 42.8333,137.5 46.1667,137.5 49.5,137.5C 48.6044,145.898 48.6044,154.231 49.5,162.5C 49.5526,165.785 48.8859,168.785 47.5,171.5C 47.7148,169.821 47.0481,168.821 45.5,168.5C 46.8062,158.56 46.8062,148.56 45.5,138.5C 44.6725,142.796 44.1725,147.129 44,151.5C 43.3913,146.979 42.8913,142.646 42.5,138.5C 41.503,145.468 41.1697,152.468 41.5,159.5C 41.1667,159.5 40.8333,159.5 40.5,159.5C 40.7973,152.08 40.464,144.746 39.5,137.5 Z"/></g>
<g><path style="opacity:1" fill="#7e7e7e" d="M 532.5,141.5 C 442.833,141.333 353.166,141.5 263.5,142C 295.165,142.5 326.832,142.667 358.5,142.5C 358.5,143.167 358.5,143.833 358.5,144.5C 326.5,144.5 294.5,144.5 262.5,144.5C 262.5,153.833 262.5,163.167 262.5,172.5C 262.167,172.5 261.833,172.5 261.5,172.5C 262.138,163.105 261.471,154.105 259.5,145.5C 259.5,144.167 259.5,142.833 259.5,141.5C 350.64,140.173 441.64,140.173 532.5,141.5 Z"/></g>
<g><path style="opacity:1" fill="#939393" d="M 358.5,142.5 C 379.5,142.5 400.5,142.5 421.5,142.5C 421.5,143.167 421.5,143.833 421.5,144.5C 400.5,144.5 379.5,144.5 358.5,144.5C 358.5,143.833 358.5,143.167 358.5,142.5 Z"/></g>
<g><path style="opacity:1" fill="#b1b1b1" d="M 421.5,142.5 C 458.515,141.84 495.182,142.506 531.5,144.5C 494.833,144.5 458.167,144.5 421.5,144.5C 421.5,143.833 421.5,143.167 421.5,142.5 Z"/></g>
<g><path style="opacity:1" fill="#f9f9f9" d="M 358.5,144.5 C 379.5,144.5 400.5,144.5 421.5,144.5C 458.167,144.5 494.833,144.5 531.5,144.5C 531.5,170.167 531.5,195.833 531.5,221.5C 505.995,221.169 480.661,221.502 455.5,222.5C 436.5,222.5 417.5,222.5 398.5,222.5C 355.5,222.5 312.5,222.5 269.5,222.5C 268.833,222.5 268.167,222.5 267.5,222.5C 265.856,222.714 264.356,222.38 263,221.5C 262.5,205.17 262.333,188.837 262.5,172.5C 262.5,163.167 262.5,153.833 262.5,144.5C 294.5,144.5 326.5,144.5 358.5,144.5 Z"/></g>
<g><path style="opacity:1" fill="#2a2a2a" d="M 281.5,169.5 C 281.5,166.5 281.5,163.5 281.5,160.5C 281.731,155.789 284.231,153.123 289,152.5C 291.134,153.085 292.634,154.418 293.5,156.5C 290.681,156.742 287.681,156.742 284.5,156.5C 283.349,161.345 283.349,166.178 284.5,171C 286.855,174.081 289.521,174.248 292.5,171.5C 293.83,173.347 293.497,174.847 291.5,176C 289.167,176.667 286.833,176.667 284.5,176C 283.588,173.749 282.588,171.583 281.5,169.5 Z"/></g>
<g><path style="opacity:1" fill="#292929" d="M 369.5,152.5 C 374.846,151.959 379.346,153.626 383,157.5C 383.667,161.833 383.667,166.167 383,170.5C 381.562,171.9 380.729,173.567 380.5,175.5C 376.881,176.244 373.215,176.577 369.5,176.5C 369.5,168.5 369.5,160.5 369.5,152.5 Z"/></g>
<g><path style="opacity:1" fill="#272727" d="M 438.5,152.5 C 439.5,152.5 440.5,152.5 441.5,152.5C 444.157,160.443 446.824,168.443 449.5,176.5C 445.5,177.167 443.833,175.5 444.5,171.5C 441.5,171.5 438.5,171.5 435.5,171.5C 435.5,173.167 435.5,174.833 435.5,176.5C 434.167,176.5 432.833,176.5 431.5,176.5C 433.332,168.334 435.665,160.334 438.5,152.5 Z"/></g>
<g><path style="opacity:1" fill="#242424" d="M 353.5,152.5 C 357.167,152.5 360.833,152.5 364.5,152.5C 364.5,153.833 364.5,155.167 364.5,156.5C 362.167,156.5 359.833,156.5 357.5,156.5C 357.5,158.5 357.5,160.5 357.5,162.5C 358.5,162.5 359.5,162.5 360.5,162.5C 360.5,163.833 360.5,165.167 360.5,166.5C 359.5,166.5 358.5,166.5 357.5,166.5C 357.5,168.5 357.5,170.5 357.5,172.5C 360.167,172.5 362.833,172.5 365.5,172.5C 365.5,173.833 365.5,175.167 365.5,176.5C 361.5,176.5 357.5,176.5 353.5,176.5C 353.5,168.5 353.5,160.5 353.5,152.5 Z"/></g>
<g><path style="opacity:1" fill="#f7f7f7" d="M 373.5,156.5 C 378.948,155.932 380.948,158.432 379.5,164C 380.921,169.512 378.921,172.345 373.5,172.5C 373.5,167.167 373.5,161.833 373.5,156.5 Z"/></g>
<g><path style="opacity:1" fill="#1f1f1f" d="M 419.5,152.5 C 423.034,152.032 426.034,153.032 428.5,155.5C 425.691,155.524 422.857,155.857 420,156.5C 418,161.5 418,166.5 420,171.5C 420.893,172.081 421.893,172.415 423,172.5C 424.8,171.622 426.633,170.955 428.5,170.5C 427.865,173.801 425.865,175.801 422.5,176.5C 420.668,175.179 418.668,174.179 416.5,173.5C 415.603,168.86 415.436,164.194 416,159.5C 416.681,156.804 417.848,154.471 419.5,152.5 Z"/></g>
<g><path style="opacity:1" fill="#212121" d="M 467.5,152.5 C 467.5,160.167 467.5,167.833 467.5,175.5C 467.44,176.043 467.107,176.376 466.5,176.5C 465.672,171.868 465.172,167.202 465,162.5C 464.145,165.115 462.812,167.448 461,169.5C 460.55,166.894 459.05,165.561 456.5,165.5C 456.5,169.167 456.5,172.833 456.5,176.5C 455.5,176.5 454.5,176.5 453.5,176.5C 453.5,168.5 453.5,160.5 453.5,152.5C 454.5,152.5 455.5,152.5 456.5,152.5C 457.979,155.458 459.479,158.458 461,161.5C 463.198,158.403 465.364,155.403 467.5,152.5 Z"/></g>
<g><path style="opacity:1" fill="#e3e3e3" d="M 476.5,156.5 C 478.5,156.5 480.5,156.5 482.5,156.5C 482.675,158.621 482.341,160.621 481.5,162.5C 479.833,162.5 478.167,162.5 476.5,162.5C 476.5,160.5 476.5,158.5 476.5,156.5 Z"/></g>
<g><path style="opacity:1" fill="#8e8e8e" d="M 397.5,152.5 C 399.04,154.838 399.706,157.505 399.5,160.5C 398.232,158.095 397.565,155.428 397.5,152.5 Z"/></g>
<g><path style="opacity:1" fill="#dfe0e2" d="M 201.5,137.5 C 203.833,137.5 206.167,137.5 208.5,137.5C 208.5,147.5 208.5,157.5 208.5,167.5C 206.139,167.674 203.806,168.007 201.5,168.5C 201.5,158.167 201.5,147.833 201.5,137.5 Z"/></g>
<g><path style="opacity:1" fill="#dfe0e1" d="M 45.5,168.5 C 44.4168,168.539 43.4168,168.873 42.5,169.5C 41.513,166.232 41.1796,162.898 41.5,159.5C 41.1697,152.468 41.503,145.468 42.5,138.5C 42.8913,142.646 43.3913,146.979 44,151.5C 44.1725,147.129 44.6725,142.796 45.5,138.5C 46.8062,148.56 46.8062,158.56 45.5,168.5 Z"/></g>
<g><path style="opacity:1" fill="#282828" d="M 326.5,165.5 C 326.56,166.043 326.893,166.376 327.5,166.5C 328.327,162.541 328.827,158.541 329,154.5C 329.173,160.348 329.673,166.015 330.5,171.5C 330.5,173.167 330.5,174.833 330.5,176.5C 329.5,176.5 328.5,176.5 327.5,176.5C 327.657,175.127 327.49,173.793 327,172.5C 325.044,170.064 323.378,167.397 322,164.5C 321.501,168.486 321.334,172.486 321.5,176.5C 320.167,176.5 318.833,176.5 317.5,176.5C 317.5,168.5 317.5,160.5 317.5,152.5C 318.833,152.5 320.167,152.5 321.5,152.5C 322.598,157.138 324.264,161.471 326.5,165.5 Z"/></g>
<g><path style="opacity:1" fill="#212121" d="M 339.5,152.5 C 342.247,152.187 344.914,152.52 347.5,153.5C 347.833,154.167 348.167,154.833 348.5,155.5C 345.296,156.204 342.129,156.87 339,157.5C 338.337,162.537 338.504,167.537 339.5,172.5C 342.588,171.932 345.588,171.932 348.5,172.5C 343.538,178.264 339.538,177.597 336.5,170.5C 334.763,163.95 335.763,157.95 339.5,152.5 Z"/></g>
<g><path style="opacity:1" fill="#505050" d="M 474.5,152.5 C 474.5,160.5 474.5,168.5 474.5,176.5C 473.176,172.893 472.509,168.893 472.5,164.5C 472.509,160.107 473.176,156.107 474.5,152.5 Z"/></g>
<g><path style="opacity:1" fill="#292929" d="M 303.5,152.5 C 306.482,153.392 309.316,154.725 312,156.5C 312.667,161.833 312.667,167.167 312,172.5C 307.211,178.052 302.878,177.719 299,171.5C 298.333,166.833 298.333,162.167 299,157.5C 300.713,155.924 302.213,154.257 303.5,152.5 Z"/></g>
<g><path style="opacity:1" fill="#eeeeee" d="M 302.5,156.5 C 304.5,156.5 306.5,156.5 308.5,156.5C 309.397,161.14 309.564,165.806 309,170.5C 306.667,173.167 304.333,173.167 302,170.5C 301.352,165.796 301.519,161.129 302.5,156.5 Z"/></g>
<g><path style="opacity:1" fill="#b7b7b7" d="M 281.5,160.5 C 281.5,163.5 281.5,166.5 281.5,169.5C 280.235,168.486 279.569,166.986 279.5,165C 279.569,163.014 280.235,161.514 281.5,160.5 Z"/></g>
<g><path style="opacity:1" fill="#4f4f4f" d="M 330.5,171.5 C 329.673,166.015 329.173,160.348 329,154.5C 328.827,158.541 328.327,162.541 327.5,166.5C 326.893,166.376 326.56,166.043 326.5,165.5C 327.485,161.366 327.818,157.032 327.5,152.5C 328.5,152.5 329.5,152.5 330.5,152.5C 330.5,158.833 330.5,165.167 330.5,171.5 Z"/></g>
<g><path style="opacity:0.348" fill="#bebebe" d="M 199.5,137.5 C 200.167,137.5 200.833,137.5 201.5,137.5C 201.5,147.833 201.5,158.167 201.5,168.5C 203.806,168.007 206.139,167.674 208.5,167.5C 208.126,169.95 206.626,170.95 204,170.5C 202.045,170.359 200.545,169.526 199.5,168C 200.215,157.974 200.215,147.807 199.5,137.5 Z"/></g>
<g><path style="opacity:1" fill="#e6e6e6" d="M 439.5,161.5 C 441.28,162.99 441.946,164.99 441.5,167.5C 440.325,167.719 439.325,167.386 438.5,166.5C 439.309,164.929 439.643,163.262 439.5,161.5 Z"/></g>
<g><path style="opacity:1" fill="#181818" d="M 474.5,152.5 C 476.833,152.5 479.167,152.5 481.5,152.5C 481.5,153.5 481.5,154.5 481.5,155.5C 479.585,155.216 477.919,155.549 476.5,156.5C 476.5,158.5 476.5,160.5 476.5,162.5C 478.167,162.5 479.833,162.5 481.5,162.5C 481.684,164.925 482.351,164.925 483.5,162.5C 483.833,163.333 484.167,164.167 484.5,165C 484.316,166.376 483.649,167.209 482.5,167.5C 481.01,165.72 479.01,165.054 476.5,165.5C 476.5,167.833 476.5,170.167 476.5,172.5C 478.531,172.972 480.198,173.972 481.5,175.5C 479.283,176.369 476.95,176.702 474.5,176.5C 474.5,168.5 474.5,160.5 474.5,152.5 Z"/></g>
<g><path style="opacity:1" fill="#292929" d="M 491.5,152.5 C 492.833,152.5 494.167,152.5 495.5,152.5C 495.5,160.5 495.5,168.5 495.5,176.5C 494.167,176.5 492.833,176.5 491.5,176.5C 491.5,168.5 491.5,160.5 491.5,152.5 Z"/></g>
<g><path style="opacity:1" fill="#636363" d="M 467.5,152.5 C 468.823,155.938 469.49,159.771 469.5,164C 469.49,168.229 468.823,172.062 467.5,175.5C 467.5,167.833 467.5,160.167 467.5,152.5 Z"/></g>
<g><path style="opacity:1" fill="#f0f0f0" d="M 482.5,167.5 C 482.5,169.167 482.5,170.833 482.5,172.5C 480.5,172.5 478.5,172.5 476.5,172.5C 476.5,170.167 476.5,167.833 476.5,165.5C 479.01,165.054 481.01,165.72 482.5,167.5 Z"/></g>
<g><path style="opacity:1" fill="#282828" d="M 532.5,147.5 C 533.167,147.5 533.833,147.5 534.5,147.5C 534.5,171.833 534.5,196.167 534.5,220.5C 532.51,196.523 531.843,172.19 532.5,147.5 Z"/></g>
<g><path style="opacity:1" fill="#949494" d="M 40.5,159.5 C 40.8333,159.5 41.1667,159.5 41.5,159.5C 41.1796,162.898 41.513,166.232 42.5,169.5C 43.4168,168.873 44.4168,168.539 45.5,168.5C 47.0481,168.821 47.7148,169.821 47.5,171.5C 45.3743,172.103 43.0409,172.103 40.5,171.5C 40.5,167.5 40.5,163.5 40.5,159.5 Z"/></g>
<g><path style="opacity:1" fill="#222222" d="M 397.5,152.5 C 397.565,155.428 398.232,158.095 399.5,160.5C 400.368,166.102 402.034,171.435 404.5,176.5C 403.167,176.5 401.833,176.5 400.5,176.5C 401.259,172.76 399.759,171.093 396,171.5C 392.113,171.014 390.28,172.681 390.5,176.5C 389.448,176.649 388.448,176.483 387.5,176C 389.62,168.047 391.953,160.214 394.5,152.5C 395.5,152.5 396.5,152.5 397.5,152.5 Z"/></g>
<g><path style="opacity:1" fill="#ddddde" d="M 395.5,160.5 C 397.536,162.206 398.536,164.539 398.5,167.5C 396.712,167.785 395.045,167.452 393.5,166.5C 394.172,164.47 394.838,162.47 395.5,160.5 Z"/></g>
<g><path style="opacity:1" fill="#343434" d="M 481.5,152.5 C 484.311,153.768 485.978,155.935 486.5,159C 485.904,163.134 485.737,167.301 486,171.5C 485.55,174.106 484.05,175.439 481.5,175.5C 480.198,173.972 478.531,172.972 476.5,172.5C 478.5,172.5 480.5,172.5 482.5,172.5C 482.5,170.833 482.5,169.167 482.5,167.5C 483.649,167.209 484.316,166.376 484.5,165C 484.167,164.167 483.833,163.333 483.5,162.5C 482.351,164.925 481.684,164.925 481.5,162.5C 482.341,160.621 482.675,158.621 482.5,156.5C 480.5,156.5 478.5,156.5 476.5,156.5C 477.919,155.549 479.585,155.216 481.5,155.5C 481.5,154.5 481.5,153.5 481.5,152.5 Z"/></g>
<g><path style="opacity:1" fill="#303030" d="M 505.5,152.5 C 513.933,155.489 516.6,161.489 513.5,170.5C 510.756,174.799 506.756,176.465 501.5,175.5C 499.794,170.647 499.294,165.647 500,160.5C 500.202,158.744 500.702,157.078 501.5,155.5C 503.483,155.185 504.816,154.185 505.5,152.5 Z"/></g>
<g><path style="opacity:1" fill="#f2f2f2" d="M 504.5,156.5 C 506.5,156.5 508.5,156.5 510.5,156.5C 511.899,161.555 511.732,166.555 510,171.5C 504.082,172.919 501.582,170.419 502.5,164C 502.631,161.223 503.298,158.723 504.5,156.5 Z"/></g>
<g><path style="opacity:1" fill="#2b2b2b" d="M 259.5,145.5 C 261.471,154.105 262.138,163.105 261.5,172.5C 262.108,177.944 261.442,182.944 259.5,187.5C 259.424,173.38 259.424,159.38 259.5,145.5 Z"/></g>
<g><path style="opacity:1" fill="#1e1e1e" d="M 343.5,188.5 C 344.467,189.806 345.801,190.473 347.5,190.5C 348.833,197.167 348.833,203.833 347.5,210.5C 345.002,211.627 342.336,212.294 339.5,212.5C 337.955,212.489 336.622,212.156 335.5,211.5C 335.5,203.833 335.5,196.167 335.5,188.5C 338.167,188.5 340.833,188.5 343.5,188.5 Z"/></g>
<g><path style="opacity:1" fill="#505050" d="M 261.5,172.5 C 261.833,172.5 262.167,172.5 262.5,172.5C 262.333,188.837 262.5,205.17 263,221.5C 264.356,222.38 265.856,222.714 267.5,222.5C 266.081,223.451 264.415,223.784 262.5,223.5C 262.167,223.5 261.833,223.5 261.5,223.5C 262.126,216.416 261.459,209.75 259.5,203.5C 259.5,198.167 259.5,192.833 259.5,187.5C 261.442,182.944 262.108,177.944 261.5,172.5 Z"/></g>
<g><path style="opacity:1" fill="#282828" d="M 394.5,187.5 C 395.833,187.5 397.167,187.5 398.5,187.5C 398.334,194.175 398.5,200.842 399,207.5C 400.667,208.833 402.333,208.833 404,207.5C 404.5,200.842 404.666,194.175 404.5,187.5C 405.833,187.5 407.167,187.5 408.5,187.5C 408.83,194.2 408.497,200.866 407.5,207.5C 402.959,213.053 398.792,212.72 395,206.5C 394.5,200.175 394.334,193.842 394.5,187.5 Z"/></g>
<g><path style="opacity:1" fill="#ededed" d="M 338.5,191.5 C 340.467,191.261 342.301,191.594 344,192.5C 344.829,197.533 344.662,202.533 343.5,207.5C 341.958,208.747 340.458,208.747 339,207.5C 338.501,202.177 338.334,196.844 338.5,191.5 Z"/></g>
<g><path style="opacity:1" fill="#6a6a6a" d="M 343.5,188.5 C 340.833,188.5 338.167,188.5 335.5,188.5C 335.5,196.167 335.5,203.833 335.5,211.5C 334.508,203.684 334.174,195.684 334.5,187.5C 337.713,187.19 340.713,187.523 343.5,188.5 Z"/></g>
<g><path style="opacity:1" fill="#171717" d="M 380.5,187.5 C 380.5,194.5 380.5,201.5 380.5,208.5C 383.833,208.5 387.167,208.5 390.5,208.5C 390.5,209.5 390.5,210.5 390.5,211.5C 386.5,211.5 382.5,211.5 378.5,211.5C 377.866,203.097 378.533,195.097 380.5,187.5 Z"/></g>
<g><path style="opacity:1" fill="#b7b7b7" d="M 380.5,187.5 C 378.533,195.097 377.866,203.097 378.5,211.5C 382.5,211.5 386.5,211.5 390.5,211.5C 390.5,210.5 390.5,209.5 390.5,208.5C 387.167,208.5 383.833,208.5 380.5,208.5C 380.5,201.5 380.5,194.5 380.5,187.5 Z"/></g>
<g><path style="opacity:1" fill="#888888" d="M 360.5,197.5 C 361.586,197.62 362.253,198.287 362.5,199.5C 362.253,200.713 361.586,201.38 360.5,201.5C 360.5,200.167 360.5,198.833 360.5,197.5 Z"/></g>
<g><path style="opacity:1" fill="#838384" d="M 413.5,196.5 C 413.5,198.833 413.5,201.167 413.5,203.5C 412.275,202.848 411.608,201.681 411.5,200C 411.608,198.319 412.275,197.152 413.5,196.5 Z"/></g>
<g><path style="opacity:1" fill="#2c2c2c" d="M 430.5,187.5 C 434.167,187.5 437.833,187.5 441.5,187.5C 441.5,188.833 441.5,190.167 441.5,191.5C 438.833,191.5 436.167,191.5 433.5,191.5C 432.425,195.938 434.092,197.938 438.5,197.5C 438.5,198.5 438.5,199.5 438.5,200.5C 436.833,200.5 435.167,200.5 433.5,200.5C 433.232,203.119 433.565,205.619 434.5,208C 437.482,208.498 440.482,208.665 443.5,208.5C 443.5,209.5 443.5,210.5 443.5,211.5C 438.833,211.5 434.167,211.5 429.5,211.5C 429.199,203.414 429.533,195.414 430.5,187.5 Z"/></g>
<g><path style="opacity:1" fill="#252525" d="M 360.5,197.5 C 360.5,198.833 360.5,200.167 360.5,201.5C 359.5,201.5 358.5,201.5 357.5,201.5C 357.5,203.833 357.5,206.167 357.5,208.5C 360.833,208.5 364.167,208.5 367.5,208.5C 367.5,209.5 367.5,210.5 367.5,211.5C 362.833,211.5 358.167,211.5 353.5,211.5C 353.5,203.5 353.5,195.5 353.5,187.5C 357.5,187.5 361.5,187.5 365.5,187.5C 365.5,188.833 365.5,190.167 365.5,191.5C 362.833,191.5 360.167,191.5 357.5,191.5C 357.5,193.5 357.5,195.5 357.5,197.5C 358.5,197.5 359.5,197.5 360.5,197.5 Z"/></g>
<g><path style="opacity:1" fill="#222222" d="M 413.5,203.5 C 413.5,201.167 413.5,198.833 413.5,196.5C 412.761,188.786 416.094,185.953 423.5,188C 425.631,189.888 425.631,191.388 423.5,192.5C 420.583,189.751 418.083,190.084 416,193.5C 415.333,197.833 415.333,202.167 416,206.5C 417.194,207.43 418.527,208.097 420,208.5C 421.789,207.591 423.623,207.424 425.5,208C 423.046,211.627 419.713,212.46 415.5,210.5C 414.056,208.392 413.39,206.059 413.5,203.5 Z"/></g>
<g><path style="opacity:0.69" fill="#959595" d="M 259.5,203.5 C 261.459,209.75 262.126,216.416 261.5,223.5C 259.541,217.25 258.874,210.584 259.5,203.5 Z"/></g>
<g><path style="opacity:1" fill="#252526" d="M 449.5,187.5 C 451.527,187.338 453.527,187.505 455.5,188C 456.337,189.011 456.67,190.178 456.5,191.5C 454.5,191.5 452.5,191.5 450.5,191.5C 449.451,195.831 451.118,197.997 455.5,198C 456.333,199.5 457.5,200.667 459,201.5C 459.495,204.531 459.329,207.531 458.5,210.5C 455.201,211.376 451.868,211.543 448.5,211C 446.808,209.599 446.141,207.766 446.5,205.5C 448.991,205.84 451.158,206.84 453,208.5C 456.996,206.823 457.496,204.323 454.5,201C 446.303,198.987 444.637,194.487 449.5,187.5 Z"/></g>
<g><path style="opacity:1" fill="#282828" d="M 398.5,223.5 C 398.5,223.167 398.5,222.833 398.5,222.5C 417.5,222.5 436.5,222.5 455.5,222.5C 480.836,222.333 506.169,222.5 531.5,223C 517.131,222.847 503.131,223.68 489.5,225.5C 488.833,225.5 488.167,225.5 487.5,225.5C 458.185,223.508 428.519,222.841 398.5,223.5 Z"/></g>
<g><path style="opacity:0.951" fill="#747575" d="M 267.5,222.5 C 268.167,222.5 268.833,222.5 269.5,222.5C 282.034,222.84 294.367,223.84 306.5,225.5C 291.462,226.15 276.795,225.483 262.5,223.5C 264.415,223.784 266.081,223.451 267.5,222.5 Z"/></g>
<g><path style="opacity:1" fill="#474747" d="M 269.5,222.5 C 312.5,222.5 355.5,222.5 398.5,222.5C 398.5,222.833 398.5,223.167 398.5,223.5C 378.804,222.846 359.471,223.512 340.5,225.5C 338.5,225.5 336.5,225.5 334.5,225.5C 332.429,224.191 329.929,223.525 327,223.5C 324.071,223.525 321.571,224.191 319.5,225.5C 317.5,225.5 315.5,225.5 313.5,225.5C 313.167,225.5 312.833,225.5 312.5,225.5C 310.5,225.5 308.5,225.5 306.5,225.5C 294.367,223.84 282.034,222.84 269.5,222.5 Z"/></g>
<g><path style="opacity:0.855" fill="#757676" d="M 334.5,225.5 C 329.5,225.5 324.5,225.5 319.5,225.5C 321.571,224.191 324.071,223.525 327,223.5C 329.929,223.525 332.429,224.191 334.5,225.5 Z"/></g>
<g><path style="opacity:1" fill="#707070" d="M 398.5,223.5 C 428.519,222.841 458.185,223.508 487.5,225.5C 485.5,225.5 483.5,225.5 481.5,225.5C 434.5,225.5 387.5,225.5 340.5,225.5C 359.471,223.512 378.804,222.846 398.5,223.5 Z"/></g>
<g><path style="opacity:0.793" fill="#a2a2a2" d="M 531.5,144.5 C 532.404,145.209 532.737,146.209 532.5,147.5C 531.843,172.19 532.51,196.523 534.5,220.5C 534.52,222.143 533.853,223.476 532.5,224.5C 518.182,225.499 503.849,225.833 489.5,225.5C 503.131,223.68 517.131,222.847 531.5,223C 506.169,222.5 480.836,222.333 455.5,222.5C 480.661,221.502 505.995,221.169 531.5,221.5C 531.5,195.833 531.5,170.167 531.5,144.5 Z"/></g>
<g><path style="opacity:0.094" fill="#d6d6d6" d="M 833.5,225.5 C 783.5,225.5 733.5,225.5 683.5,225.5C 671.322,225.828 659.322,225.495 647.5,224.5C 708.363,224.828 769.196,224.494 830,223.5C 831.459,223.808 832.626,224.475 833.5,225.5 Z"/></g>
<g><path style="opacity:1" fill="#b5b5b5" d="M 647.5,224.5 C 659.322,225.495 671.322,225.828 683.5,225.5C 683.5,225.833 683.5,226.167 683.5,226.5C 662.497,226.333 641.497,226.5 620.5,227C 619.944,227.383 619.611,227.883 619.5,228.5C 618.833,229.5 618.167,230.5 617.5,231.5C 616.032,230.221 615.365,228.554 615.5,226.5C 625.968,224.628 636.635,223.961 647.5,224.5 Z"/></g>
<g><path style="opacity:1" fill="#d2d2d2" d="M 838.5,230.5 C 837.833,230.5 837.167,230.5 836.5,230.5C 836.69,228.041 835.69,226.374 833.5,225.5C 834.15,225.196 834.817,224.863 835.5,224.5C 836.354,225.522 837.354,226.355 838.5,227C 839.171,227.986 839.171,229.153 838.5,230.5 Z"/></g>
<g><path style="opacity:1" fill="#1a1a1a" d="M 683.5,226.5 C 687.371,226.185 691.038,226.518 694.5,227.5C 669.759,227.177 645.092,227.51 620.5,228.5C 620.167,228.5 619.833,228.5 619.5,228.5C 619.611,227.883 619.944,227.383 620.5,227C 641.497,226.5 662.497,226.333 683.5,226.5 Z"/></g>
<g><path style="opacity:1" fill="#444444" d="M 683.5,226.5 C 683.5,226.167 683.5,225.833 683.5,225.5C 733.5,225.5 783.5,225.5 833.5,225.5C 835.69,226.374 836.69,228.041 836.5,230.5C 835.733,229.828 835.066,228.995 834.5,228C 787.835,227.5 741.168,227.333 694.5,227.5C 691.038,226.518 687.371,226.185 683.5,226.5 Z"/></g>
<g><path style="opacity:1" fill="#d7d7d7" d="M 306.5,225.5 C 308.5,225.5 310.5,225.5 312.5,225.5C 312.5,235.833 312.5,246.167 312.5,256.5C 310.585,256.216 308.919,256.549 307.5,257.5C 306.506,247.013 306.172,236.346 306.5,225.5 Z"/></g>
<g><path style="opacity:1" fill="#f8f8f8" d="M 694.5,227.5 C 741.168,227.333 787.835,227.5 834.5,228C 835.066,228.995 835.733,229.828 836.5,230.5C 836.667,254.836 836.5,279.169 836,303.5C 835.617,304.056 835.117,304.389 834.5,304.5C 805.814,303.842 777.48,304.508 749.5,306.5C 706.838,307.278 664.171,307.611 621.5,307.5C 619.169,281.35 618.836,255.016 620.5,228.5C 645.092,227.51 669.759,227.177 694.5,227.5 Z"/></g>
<g><path style="opacity:1" fill="#a7a7a7" d="M 312.5,225.5 C 312.833,225.5 313.167,225.5 313.5,225.5C 314.054,236.314 314.387,247.314 314.5,258.5C 311.941,258.802 309.607,258.468 307.5,257.5C 308.919,256.549 310.585,256.216 312.5,256.5C 312.5,246.167 312.5,235.833 312.5,225.5 Z"/></g>
<g><path style="opacity:1" fill="#272727" d="M 734.5,238.5 C 739.167,238.5 743.833,238.5 748.5,238.5C 748.5,239.5 748.5,240.5 748.5,241.5C 746.5,241.5 744.5,241.5 742.5,241.5C 742.5,248.167 742.5,254.833 742.5,261.5C 741.5,261.5 740.5,261.5 739.5,261.5C 739.5,254.833 739.5,248.167 739.5,241.5C 737.833,241.5 736.167,241.5 734.5,241.5C 734.5,240.5 734.5,239.5 734.5,238.5 Z"/></g>
<g><path style="opacity:1" fill="#a4a4a4" d="M 780.5,238.5 C 778.854,243.927 777.854,249.594 777.5,255.5C 777.5,249.5 777.5,243.5 777.5,237.5C 778.791,237.263 779.791,237.596 780.5,238.5 Z"/></g>
<g><path style="opacity:1" fill="#a4a4a4" d="M 274.5,245.5 C 191.668,246.499 108.668,246.833 25.5,246.5C 25.5,246.167 25.5,245.833 25.5,245.5C 108.199,244.241 191.199,244.241 274.5,245.5 Z"/></g>
<g><path style="opacity:1" fill="#656565" d="M 654.5,239.5 C 652.577,243.029 651.911,247.029 652.5,251.5C 651.209,251.737 650.209,251.404 649.5,250.5C 651.423,246.971 652.089,242.971 651.5,238.5C 652.791,238.263 653.791,238.596 654.5,239.5 Z"/></g>
<g><path style="opacity:1" fill="#2a2a2a" d="M 751.5,238.5 C 763.913,236.464 767.58,241.297 762.5,253C 762.934,255.568 763.6,258.068 764.5,260.5C 763.311,261.429 761.978,261.762 760.5,261.5C 760.149,258.762 759.482,256.096 758.5,253.5C 757.675,252.614 756.675,252.281 755.5,252.5C 753.631,254.635 752.964,257.302 753.5,260.5C 751.537,253.576 750.87,246.243 751.5,238.5 Z"/></g>
<g><path style="opacity:1" fill="#f0f0f0" d="M 755.5,241.5 C 759.841,241.519 761.175,243.519 759.5,247.5C 758.311,248.429 756.978,248.762 755.5,248.5C 755.5,246.167 755.5,243.833 755.5,241.5 Z"/></g>
<g><path style="opacity:1" fill="#414141" d="M 274.5,245.5 C 276.5,245.5 278.5,245.5 280.5,245.5C 281.172,246.267 282.005,246.934 283,247.5C 283.667,260.5 283.667,273.5 283,286.5C 281.989,287.337 280.822,287.67 279.5,287.5C 264.657,287.829 249.99,287.496 235.5,286.5C 250.837,286.667 266.17,286.5 281.5,286C 282.826,273.53 282.826,261.03 281.5,248.5C 195.503,247.5 109.503,247.167 23.5,247.5C 23.8417,246.662 24.5084,246.328 25.5,246.5C 108.668,246.833 191.668,246.499 274.5,245.5 Z"/></g>
<g><path style="opacity:1" fill="#2b2b2b" d="M 791.5,260.5 C 790.5,260.5 789.5,260.5 788.5,260.5C 788.817,256.298 788.483,252.298 787.5,248.5C 785.5,245.487 784.5,242.154 784.5,238.5C 785.5,238.5 786.5,238.5 787.5,238.5C 787.435,241.486 788.602,243.82 791,245.5C 791.328,241.17 793.494,239.003 797.5,239C 796.368,242.1 794.868,244.934 793,247.5C 792.825,252.019 792.325,256.353 791.5,260.5 Z"/></g>
<g><path style="opacity:1" fill="#aaaaaa" d="M 751.5,238.5 C 750.87,246.243 751.537,253.576 753.5,260.5C 754.167,260.5 754.833,260.5 755.5,260.5C 754.081,261.451 752.415,261.784 750.5,261.5C 750.175,253.648 750.508,245.982 751.5,238.5 Z"/></g>
<g><path style="opacity:1" fill="#2c2c2c" d="M 777.5,255.5 C 777.854,249.594 778.854,243.927 780.5,238.5C 781.652,243.985 781.818,249.651 781,255.5C 778.275,262.207 774.108,263.207 768.5,258.5C 767.503,251.866 767.17,245.2 767.5,238.5C 768.833,238.5 770.167,238.5 771.5,238.5C 771.334,244.842 771.5,251.175 772,257.5C 774.811,259.18 776.644,258.513 777.5,255.5 Z"/></g>
<g><path style="opacity:1" fill="#f5f5f5" d="M 23.5,247.5 C 109.503,247.167 195.503,247.5 281.5,248.5C 282.826,261.03 282.826,273.53 281.5,286C 266.17,286.5 250.837,286.667 235.5,286.5C 165.5,286.5 95.5,286.5 25.5,286.5C 24.8826,286.389 24.3826,286.056 24,285.5C 23.5001,272.838 23.3334,260.171 23.5,247.5 Z"/></g>
<g><path style="opacity:0.208" fill="#cecece" d="M 481.5,225.5 C 483.5,225.5 485.5,225.5 487.5,225.5C 488.167,225.5 488.833,225.5 489.5,225.5C 489.832,236.187 489.499,246.854 488.5,257.5C 486.298,258.78 484.132,258.78 482,257.5C 481.5,246.839 481.333,236.172 481.5,225.5 Z"/></g>
<g><path style="opacity:1" fill="#2a2a2a" d="M 688.5,238.5 C 694.059,237.138 697.725,239.138 699.5,244.5C 701.15,250.758 699.816,256.258 695.5,261C 692.331,261.978 689.497,261.478 687,259.5C 683.528,252.211 684.028,245.211 688.5,238.5 Z"/></g>
<g><path style="opacity:1" fill="#f3f3f3" d="M 690.5,241.5 C 692.167,241.5 693.833,241.5 695.5,241.5C 696.768,247.158 696.768,252.825 695.5,258.5C 693.533,258.739 691.699,258.406 690,257.5C 687.851,252.052 688.018,246.719 690.5,241.5 Z"/></g>
<g><path style="opacity:1" fill="#2c2c2c" d="M 703.5,238.5 C 707.226,238.177 710.893,238.511 714.5,239.5C 716.776,242.234 717.11,245.234 715.5,248.5C 718.747,253.417 718.08,257.584 713.5,261C 710.183,261.498 706.85,261.665 703.5,261.5C 703.5,253.833 703.5,246.167 703.5,238.5 Z"/></g>
<g><path style="opacity:1" fill="#efefef" d="M 707.5,241.5 C 710.237,241.37 712.237,242.536 713.5,245C 712.056,247.034 710.056,247.868 707.5,247.5C 707.5,245.5 707.5,243.5 707.5,241.5 Z"/></g>
<g><path style="opacity:1" fill="#262626" d="M 649.5,250.5 C 650.209,251.404 651.209,251.737 652.5,251.5C 651.911,247.029 652.577,243.029 654.5,239.5C 654.5,246.833 654.5,254.167 654.5,261.5C 652.339,261.174 650.506,260.174 649,258.5C 648.751,255.823 647.751,253.49 646,251.5C 645.502,254.817 645.335,258.15 645.5,261.5C 644.167,261.5 642.833,261.5 641.5,261.5C 641.5,253.833 641.5,246.167 641.5,238.5C 642.822,238.33 643.989,238.663 645,239.5C 646.513,243.188 648.013,246.855 649.5,250.5 Z"/></g>
<g><path style="opacity:1" fill="#f4f4f5" d="M 707.5,251.5 C 712.51,250.91 714.176,252.91 712.5,257.5C 710.929,258.309 709.262,258.643 707.5,258.5C 707.5,256.167 707.5,253.833 707.5,251.5 Z"/></g>
<g><path style="opacity:1" fill="#292929" d="M 800.5,238.5 C 802.167,238.5 803.833,238.5 805.5,238.5C 806.488,242.789 807.321,247.122 808,251.5C 810.951,254.172 812.117,257.505 811.5,261.5C 808.344,261.471 806.678,259.804 806.5,256.5C 804.257,255.526 801.924,255.192 799.5,255.5C 799.167,257.5 798.833,259.5 798.5,261.5C 797.167,261.5 795.833,261.5 794.5,261.5C 797.272,254.081 799.272,246.415 800.5,238.5 Z"/></g>
<g><path style="opacity:1" fill="#e5e5e5" d="M 803.5,245.5 C 804.924,247.515 805.59,249.848 805.5,252.5C 803.833,252.5 802.167,252.5 800.5,252.5C 800.166,249.509 801.166,247.176 803.5,245.5 Z"/></g>
<g><path style="opacity:1" fill="#6d6d6d" d="M 755.5,252.5 C 755.5,255.167 755.5,257.833 755.5,260.5C 754.833,260.5 754.167,260.5 753.5,260.5C 752.964,257.302 753.631,254.635 755.5,252.5 Z"/></g>
<g><path style="opacity:1" fill="#a0a0a0" d="M 787.5,248.5 C 788.483,252.298 788.817,256.298 788.5,260.5C 789.5,260.5 790.5,260.5 791.5,260.5C 790.432,261.434 789.099,261.768 787.5,261.5C 787.5,257.167 787.5,252.833 787.5,248.5 Z"/></g>
<g><path style="opacity:1" fill="#b1b1b1" d="M 25.5,245.5 C 25.5,245.833 25.5,246.167 25.5,246.5C 24.5084,246.328 23.8417,246.662 23.5,247.5C 22.5043,260.99 22.171,274.656 22.5,288.5C 21.7326,287.828 21.0659,286.995 20.5,286C 20.6681,273.135 20.8348,259.968 21,246.5C 22.3561,245.62 23.8561,245.286 25.5,245.5 Z"/></g>
<g><path style="opacity:1" fill="#232323" d="M 129.5,261.5 C 128.849,262.091 128.182,262.757 127.5,263.5C 126.702,263.043 126.369,262.376 126.5,261.5C 127.764,256.921 130.764,255.421 135.5,257C 136.357,257.689 137.023,258.522 137.5,259.5C 135.716,260.606 133.882,260.606 132,259.5C 130.699,259.639 129.866,260.305 129.5,261.5 Z"/></g>
<g><path style="opacity:1" fill="#343434" d="M 222.5,256.5 C 226.833,256.5 231.167,256.5 235.5,256.5C 235.5,257.5 235.5,258.5 235.5,259.5C 234.167,259.5 232.833,259.5 231.5,259.5C 231.5,265.5 231.5,271.5 231.5,277.5C 230.167,277.5 228.833,277.5 227.5,277.5C 227.5,271.5 227.5,265.5 227.5,259.5C 225.833,259.5 224.167,259.5 222.5,259.5C 222.5,258.5 222.5,257.5 222.5,256.5 Z"/></g>
<g><path style="opacity:1" fill="#2e2e2e" d="M 68.5,256.5 C 72.1667,256.5 75.8333,256.5 79.5,256.5C 79.5,257.5 79.5,258.5 79.5,259.5C 77.1667,259.5 74.8333,259.5 72.5,259.5C 72.5,261.5 72.5,263.5 72.5,265.5C 73.8333,265.5 75.1667,265.5 76.5,265.5C 76.5,266.5 76.5,267.5 76.5,268.5C 75.1667,268.5 73.8333,268.5 72.5,268.5C 72.5,270.5 72.5,272.5 72.5,274.5C 75.1667,274.5 77.8333,274.5 80.5,274.5C 80.5,275.833 80.5,277.167 80.5,278.5C 76.5,278.5 72.5,278.5 68.5,278.5C 68.5,271.167 68.5,263.833 68.5,256.5 Z"/></g>
<g><path style="opacity:1" fill="#292929" d="M 663.5,238.5 C 668.927,237.451 672.427,239.451 674,244.5C 674.667,248.167 674.667,251.833 674,255.5C 672.593,261.061 669.093,262.895 663.5,261C 658.223,253.501 658.223,246.001 663.5,238.5 Z"/></g>
<g><path style="opacity:1" fill="#eaeaea" d="M 665.5,241.5 C 666.833,241.5 668.167,241.5 669.5,241.5C 670.768,247.158 670.768,252.825 669.5,258.5C 666.383,259.073 664.383,257.906 663.5,255C 661.847,250.089 662.514,245.589 665.5,241.5 Z"/></g>
<g><path style="opacity:0.511" fill="#b2b2b2" d="M 617.5,231.5 C 617.333,255.836 617.5,280.169 618,304.5C 618.608,306.154 619.108,307.821 619.5,309.5C 618.518,308.859 617.518,308.193 616.5,307.5C 616.167,294.833 615.833,282.167 615.5,269.5C 615.501,256.482 616.168,243.815 617.5,231.5 Z"/></g>
<g><path style="opacity:1" fill="#2f2f2f" d="M 722.5,238.5 C 725.983,237.916 728.983,238.749 731.5,241C 730.953,241.925 730.287,242.758 729.5,243.5C 727.821,241.896 725.821,241.229 723.5,241.5C 722.819,246.155 724.819,248.822 729.5,249.5C 733.649,254.056 733.316,258.223 728.5,262C 723.437,262.429 720.103,260.262 718.5,255.5C 721.455,257.386 724.789,258.386 728.5,258.5C 728.66,256.801 728.494,255.134 728,253.5C 722.953,252.26 719.787,249.094 718.5,244C 719.55,241.971 720.884,240.137 722.5,238.5 Z"/></g>
<g><path style="opacity:1" fill="#9f9f9f" d="M 266.5,256.5 C 263.833,256.5 261.167,256.5 258.5,256.5C 258.5,263.5 258.5,270.5 258.5,277.5C 257.508,270.352 257.175,263.019 257.5,255.5C 260.713,255.19 263.713,255.523 266.5,256.5 Z"/></g>
<g><path style="opacity:1" fill="#5e5e5e" d="M 126.5,261.5 C 126.369,262.376 126.702,263.043 127.5,263.5C 128.182,262.757 128.849,262.091 129.5,261.5C 129.5,264.833 129.5,268.167 129.5,271.5C 128.835,269.302 128.168,266.969 127.5,264.5C 126.817,264.863 126.15,265.196 125.5,265.5C 125.232,263.901 125.566,262.568 126.5,261.5 Z"/></g>
<g><path style="opacity:1" fill="#282828" d="M 165.5,266.5 C 165.44,265.957 165.107,265.624 164.5,265.5C 164.118,269.916 163.118,273.916 161.5,277.5C 161.5,270.5 161.5,263.5 161.5,256.5C 162.822,256.33 163.989,256.663 165,257.5C 169.651,270.996 171.484,270.663 170.5,256.5C 171.833,256.5 173.167,256.5 174.5,256.5C 174.666,263.508 174.5,270.508 174,277.5C 172.817,278.731 171.651,278.731 170.5,277.5C 168.545,273.926 166.878,270.26 165.5,266.5 Z"/></g>
<g><path style="opacity:1" fill="#242424" d="M 185.5,256.5 C 186.978,256.238 188.311,256.571 189.5,257.5C 190.194,260.088 191.36,262.421 193,264.5C 194.586,262.33 195.92,259.996 197,257.5C 198.011,256.663 199.178,256.33 200.5,256.5C 200.5,263.5 200.5,270.5 200.5,277.5C 199.5,277.5 198.5,277.5 197.5,277.5C 197.665,273.818 197.499,270.152 197,266.5C 196.031,268.734 194.698,270.734 193,272.5C 191.833,270.833 190.667,269.167 189.5,267.5C 188.511,271.107 188.177,274.774 188.5,278.5C 187.5,278.5 186.5,278.5 185.5,278.5C 185.5,271.167 185.5,263.833 185.5,256.5 Z"/></g>
<g><path style="opacity:1" fill="#292929" d="M 266.5,256.5 C 268.815,257.783 270.148,259.783 270.5,262.5C 268.027,267.075 268.027,271.741 270.5,276.5C 269.5,277.833 268.5,277.833 267.5,276.5C 266.695,274.085 265.695,271.751 264.5,269.5C 263.675,268.614 262.675,268.281 261.5,268.5C 261.5,271.5 261.5,274.5 261.5,277.5C 260.5,277.5 259.5,277.5 258.5,277.5C 258.5,270.5 258.5,263.5 258.5,256.5C 261.167,256.5 263.833,256.5 266.5,256.5 Z"/></g>
<g><path style="opacity:1" fill="#eeeeef" d="M 261.5,259.5 C 266.159,259.015 267.492,260.848 265.5,265C 264.207,265.49 262.873,265.657 261.5,265.5C 261.5,263.5 261.5,261.5 261.5,259.5 Z"/></g>
<g><path style="opacity:1" fill="#2b2b2b" d="M 34.5,256.5 C 38.8333,256.5 43.1667,256.5 47.5,256.5C 47.5,257.5 47.5,258.5 47.5,259.5C 44.1667,259.5 40.8333,259.5 37.5,259.5C 36.4251,263.938 38.0917,265.938 42.5,265.5C 42.5,266.5 42.5,267.5 42.5,268.5C 40.8333,268.5 39.1667,268.5 37.5,268.5C 37.5,271.833 37.5,275.167 37.5,278.5C 36.5,278.5 35.5,278.5 34.5,278.5C 34.5,271.167 34.5,263.833 34.5,256.5 Z"/></g>
<g><path style="opacity:1" fill="#232323" d="M 102.5,256.5 C 106.167,256.5 109.833,256.5 113.5,256.5C 113.5,257.5 113.5,258.5 113.5,259.5C 110.881,259.232 108.381,259.565 106,260.5C 105.044,264.925 106.877,266.592 111.5,265.5C 111.5,266.5 111.5,267.5 111.5,268.5C 109.833,268.5 108.167,268.5 106.5,268.5C 106.5,270.833 106.5,273.167 106.5,275.5C 109.167,275.5 111.833,275.5 114.5,275.5C 114.5,276.5 114.5,277.5 114.5,278.5C 110.5,278.5 106.5,278.5 102.5,278.5C 102.5,271.167 102.5,263.833 102.5,256.5 Z"/></g>
<g><path style="opacity:1" fill="#2e2e2e" d="M 50.5,256.5 C 53.8499,256.335 57.1832,256.502 60.5,257C 64.4971,260.991 64.4971,264.991 60.5,269C 62.0073,272.021 63.0073,275.188 63.5,278.5C 62.1779,278.67 61.0113,278.337 60,277.5C 59.1506,274.479 58.3173,271.479 57.5,268.5C 56.5,268.5 55.5,268.5 54.5,268.5C 54.6646,271.518 54.498,274.518 54,277.5C 52.9887,278.337 51.8221,278.67 50.5,278.5C 50.5,271.167 50.5,263.833 50.5,256.5 Z"/></g>
<g><path style="opacity:1" fill="#eeeeef" d="M 54.5,259.5 C 58.7014,259.426 60.0347,261.259 58.5,265C 57.2068,265.49 55.8734,265.657 54.5,265.5C 54.5,263.5 54.5,261.5 54.5,259.5 Z"/></g>
<g><path style="opacity:1" fill="#626262" d="M 165.5,266.5 C 164.517,270.298 164.183,274.298 164.5,278.5C 163.209,278.737 162.209,278.404 161.5,277.5C 163.118,273.916 164.118,269.916 164.5,265.5C 165.107,265.624 165.44,265.957 165.5,266.5 Z"/></g>
<g><path style="opacity:1" fill="#242424" d="M 145.5,256.5 C 149.287,255.814 152.454,256.814 155,259.5C 155.667,264.833 155.667,270.167 155,275.5C 148.074,280.697 143.741,279.03 142,270.5C 141.293,265.326 142.46,260.66 145.5,256.5 Z"/></g>
<g><path style="opacity:1" fill="#efefef" d="M 146.5,259.5 C 148.766,259.141 150.599,259.808 152,261.5C 152.564,266.194 152.397,270.86 151.5,275.5C 148.762,276.035 146.928,275.035 146,272.5C 145.294,268.113 145.46,263.78 146.5,259.5 Z"/></g>
<g><path style="opacity:1" fill="#2b2b2b" d="M 243.5,255.5 C 248.624,254.464 251.79,256.464 253,261.5C 253.726,266.239 253.393,270.905 252,275.5C 245.461,280.235 241.461,278.568 240,270.5C 238.676,264.817 239.843,259.817 243.5,255.5 Z"/></g>
<g><path style="opacity:1" fill="#eaeaea" d="M 245.5,258.5 C 249.153,259.786 250.82,262.453 250.5,266.5C 250.406,268.923 249.906,271.256 249,273.5C 246.978,274.991 245.312,274.658 244,272.5C 241.653,267.448 242.153,262.781 245.5,258.5 Z"/></g>
<g><path style="opacity:1" fill="#232323" d="M 89.5,267.5 C 89.44,266.957 89.1067,266.624 88.5,266.5C 87.5108,270.107 87.1774,273.774 87.5,277.5C 86.8106,278.774 85.9772,278.774 85,277.5C 84.5004,270.508 84.3337,263.508 84.5,256.5C 85.9778,256.238 87.3112,256.571 88.5,257.5C 93.6337,272.324 95.6337,271.99 94.5,256.5C 95.5,256.5 96.5,256.5 97.5,256.5C 97.5,263.833 97.5,271.167 97.5,278.5C 96.1779,278.67 95.0113,278.337 94,277.5C 92.6782,274.035 91.1782,270.702 89.5,267.5 Z"/></g>
<g><path style="opacity:1" fill="#262626" d="M 129.5,271.5 C 130.765,275.81 133.098,276.477 136.5,273.5C 137.086,273.709 137.586,274.043 138,274.5C 136.603,278.21 133.77,279.377 129.5,278C 128.667,277.167 127.833,276.333 127,275.5C 126.545,272.146 126.045,268.813 125.5,265.5C 126.15,265.196 126.817,264.863 127.5,264.5C 128.168,266.969 128.835,269.302 129.5,271.5 Z"/></g>
<g><path style="opacity:1" fill="#7d7d7d" d="M 89.5,267.5 C 88.8333,270.833 88.1667,274.167 87.5,277.5C 87.1774,273.774 87.5108,270.107 88.5,266.5C 89.1067,266.624 89.44,266.957 89.5,267.5 Z"/></g>
<g><path style="opacity:1" fill="#2a2a2a" d="M 209.5,255.5 C 214.385,254.856 217.552,256.856 219,261.5C 219.667,265.5 219.667,269.5 219,273.5C 217.287,278.038 214.12,279.538 209.5,278C 204.242,270.405 204.242,262.905 209.5,255.5 Z"/></g>
<g><path style="opacity:1" fill="#eaeaea" d="M 211.5,258.5 C 215.003,259.649 216.669,262.149 216.5,266C 214.073,278.401 211.407,278.567 208.5,266.5C 208.4,263.376 209.4,260.71 211.5,258.5 Z"/></g>
<g><path style="opacity:1" fill="#494949" d="M 781.5,274.5 C 784.64,273.359 787.973,273.192 791.5,274C 792.056,274.383 792.389,274.883 792.5,275.5C 791.983,277.19 791.65,278.857 791.5,280.5C 790.766,279.292 790.433,277.959 790.5,276.5C 788.833,276.5 787.167,276.5 785.5,276.5C 785.5,278.833 785.5,281.167 785.5,283.5C 784.79,281.107 784.123,278.607 783.5,276C 785.833,275.667 788.167,275.333 790.5,275C 787.518,274.502 784.518,274.335 781.5,274.5 Z"/></g>
<g><path style="opacity:1" fill="#2e2e2e" d="M 647.5,293.5 C 649.698,294.165 652.031,294.832 654.5,295.5C 650.555,296.491 646.555,296.824 642.5,296.5C 642.5,288.833 642.5,281.167 642.5,273.5C 646.5,273.5 650.5,273.5 654.5,273.5C 654.5,274.5 654.5,275.5 654.5,276.5C 651.833,276.5 649.167,276.5 646.5,276.5C 646.5,278.5 646.5,280.5 646.5,282.5C 648.167,282.5 649.833,282.5 651.5,282.5C 651.5,283.833 651.5,285.167 651.5,286.5C 649.833,286.5 648.167,286.5 646.5,286.5C 646.198,289.059 646.532,291.393 647.5,293.5 Z"/></g>
<g><path style="opacity:1" fill="#adadad" d="M 730.5,274.5 C 731.568,273.566 732.901,273.232 734.5,273.5C 734.5,279.167 734.5,284.833 734.5,290.5C 733.167,285.167 731.833,279.833 730.5,274.5 Z"/></g>
<g><path style="opacity:1" fill="#636363" d="M 781.5,274.5 C 781.5,281.833 781.5,289.167 781.5,296.5C 782.5,296.5 783.5,296.5 784.5,296.5C 783.432,297.434 782.099,297.768 780.5,297.5C 780.175,289.648 780.508,281.982 781.5,274.5 Z"/></g>
<g><path style="opacity:1" fill="#282828" d="M 711.5,274.5 C 723.942,272.099 727.609,276.599 722.5,288C 723.687,290.724 724.353,293.557 724.5,296.5C 723.325,296.719 722.325,296.386 721.5,295.5C 721.099,291.65 719.099,289.317 715.5,288.5C 715.5,291.167 715.5,293.833 715.5,296.5C 714.167,296.5 712.833,296.5 711.5,296.5C 711.5,289.167 711.5,281.833 711.5,274.5 Z"/></g>
<g><path style="opacity:1" fill="#f3f3f3" d="M 715.5,278.5 C 717.5,278.5 719.5,278.5 721.5,278.5C 721.5,280.167 721.5,281.833 721.5,283.5C 719.5,283.5 717.5,283.5 715.5,283.5C 715.5,281.833 715.5,280.167 715.5,278.5 Z"/></g>
<g><path style="opacity:1" fill="#8d8d8d" d="M 721.5,278.5 C 719.5,278.5 717.5,278.5 715.5,278.5C 715.97,277.307 716.97,276.64 718.5,276.5C 720.03,276.64 721.03,277.307 721.5,278.5 Z"/></g>
<g><path style="opacity:1" fill="#1f1f1f" d="M 781.5,274.5 C 784.518,274.335 787.518,274.502 790.5,275C 788.167,275.333 785.833,275.667 783.5,276C 784.123,278.607 784.79,281.107 785.5,283.5C 788.32,283.913 790.32,282.913 791.5,280.5C 791.65,278.857 791.983,277.19 792.5,275.5C 793.633,277.055 794.299,278.889 794.5,281C 791.893,285.814 791.893,290.648 794.5,295.5C 793.675,296.386 792.675,296.719 791.5,296.5C 791.285,292.679 789.618,289.679 786.5,287.5C 785.914,287.709 785.414,288.043 785,288.5C 784.503,291.146 784.336,293.813 784.5,296.5C 783.5,296.5 782.5,296.5 781.5,296.5C 781.5,289.167 781.5,281.833 781.5,274.5 Z"/></g>
<g><path style="opacity:1" fill="#e5e5e6" d="M 791.5,280.5 C 790.32,282.913 788.32,283.913 785.5,283.5C 785.5,281.167 785.5,278.833 785.5,276.5C 787.167,276.5 788.833,276.5 790.5,276.5C 790.433,277.959 790.766,279.292 791.5,280.5 Z"/></g>
<g><path style="opacity:1" fill="#313131" d="M 769.5,287.5 C 767.656,289.279 766.99,291.612 767.5,294.5C 770.572,294.183 773.572,294.516 776.5,295.5C 772.893,296.489 769.226,296.823 765.5,296.5C 764.508,289.352 764.175,282.019 764.5,274.5C 768.884,274.174 773.217,274.508 777.5,275.5C 774.914,276.48 772.247,276.813 769.5,276.5C 769.5,278.5 769.5,280.5 769.5,282.5C 770.5,282.5 771.5,282.5 772.5,282.5C 772.5,283.833 772.5,285.167 772.5,286.5C 771.209,286.263 770.209,286.596 769.5,287.5 Z"/></g>
<g><path style="opacity:1" fill="#646464" d="M 25.5,286.5 C 95.5,286.5 165.5,286.5 235.5,286.5C 249.99,287.496 264.657,287.829 279.5,287.5C 242.004,288.498 204.337,288.832 166.5,288.5C 119.5,287.833 72.5,287.167 25.5,286.5 Z"/></g>
<g><path style="opacity:1" fill="#3a3a3a" d="M 23.5,247.5 C 23.3334,260.171 23.5001,272.838 24,285.5C 24.3826,286.056 24.8826,286.389 25.5,286.5C 72.5,287.167 119.5,287.833 166.5,288.5C 157.833,288.5 149.167,288.5 140.5,288.5C 101.167,288.5 61.8333,288.5 22.5,288.5C 22.171,274.656 22.5043,260.99 23.5,247.5 Z"/></g>
<g><path style="opacity:1" fill="#2f2f2f" d="M 752.5,272.5 C 757.29,271.908 759.957,273.908 760.5,278.5C 758.633,278.045 756.8,277.378 755,276.5C 754.167,276.833 753.333,277.167 752.5,277.5C 751.275,282.819 751.275,288.152 752.5,293.5C 754.167,293.5 755.833,293.5 757.5,293.5C 757.281,292.325 757.614,291.325 758.5,290.5C 760.955,294.466 759.622,296.799 754.5,297.5C 751.896,296.731 750.062,295.064 749,292.5C 748.261,286.442 748.594,280.442 750,274.5C 750.995,273.934 751.828,273.267 752.5,272.5 Z"/></g>
<g><path style="opacity:1" fill="#262626" d="M 659.5,273.5 C 660.5,273.5 661.5,273.5 662.5,273.5C 662.5,280.167 662.5,286.833 662.5,293.5C 665.833,293.5 669.167,293.5 672.5,293.5C 672.5,294.5 672.5,295.5 672.5,296.5C 668.167,296.5 663.833,296.5 659.5,296.5C 659.5,288.833 659.5,281.167 659.5,273.5 Z"/></g>
<g><path style="opacity:1" fill="#262626" d="M 800.5,273.5 C 802.857,273.337 805.19,273.503 807.5,274C 809.061,274.318 810.228,275.151 811,276.5C 811.667,282.167 811.667,287.833 811,293.5C 806.981,297.394 802.981,297.394 799,293.5C 797.962,286.628 798.462,279.962 800.5,273.5 Z"/></g>
<g><path style="opacity:1" fill="#e5e5e5" d="M 803.5,276.5 C 804.833,276.5 806.167,276.5 807.5,276.5C 808.688,282.152 808.688,287.819 807.5,293.5C 803.542,294.109 801.376,292.442 801,288.5C 800.035,284.062 800.868,280.062 803.5,276.5 Z"/></g>
<g><path style="opacity:1" fill="#6b6b6c" d="M 769.5,287.5 C 769.5,289.5 769.5,291.5 769.5,293.5C 772.167,293.5 774.833,293.5 777.5,293.5C 777.5,294.833 777.5,296.167 777.5,297.5C 773.298,297.817 769.298,297.483 765.5,296.5C 769.226,296.823 772.893,296.489 776.5,295.5C 773.572,294.516 770.572,294.183 767.5,294.5C 766.99,291.612 767.656,289.279 769.5,287.5 Z"/></g>
<g><path style="opacity:1" fill="#b7b7b7" d="M 237.5,325.5 C 235.833,325.5 234.167,325.5 232.5,325.5C 230.969,323.324 230.303,320.824 230.5,318C 230.989,308.823 230.989,299.323 230.5,289.5C 200.5,289.5 170.5,289.5 140.5,289.5C 140.5,289.167 140.5,288.833 140.5,288.5C 149.167,288.5 157.833,288.5 166.5,288.5C 204.337,288.832 242.004,288.498 279.5,287.5C 280.822,287.67 281.989,287.337 283,286.5C 283.667,273.5 283.667,260.5 283,247.5C 282.005,246.934 281.172,246.267 280.5,245.5C 281.473,244.209 282.473,244.209 283.5,245.5C 284.833,259.833 284.833,274.167 283.5,288.5C 268.215,289.484 252.882,289.817 237.5,289.5C 237.5,301.5 237.5,313.5 237.5,325.5 Z"/></g>
<g><path style="opacity:1" fill="#2d2d2d" d="M 697.5,273.5 C 700.518,273.335 703.518,273.502 706.5,274C 707.406,275.699 707.739,277.533 707.5,279.5C 705.005,278.801 702.672,277.801 700.5,276.5C 697.508,280.927 696.841,285.761 698.5,291C 699.319,292.319 700.319,293.485 701.5,294.5C 703.133,292.497 705.133,291.164 707.5,290.5C 709.188,293.701 708.188,295.867 704.5,297C 701.044,298.123 698.21,297.29 696,294.5C 693.596,287.227 694.096,280.227 697.5,273.5 Z"/></g>
<g><path style="opacity:1" fill="#303030" d="M 730.5,274.5 C 731.833,279.833 733.167,285.167 734.5,290.5C 734.999,293.389 736.499,294.056 739,292.5C 739.5,286.175 739.666,279.842 739.5,273.5C 740.833,273.5 742.167,273.5 743.5,273.5C 743.666,280.175 743.5,286.842 743,293.5C 740.369,297.629 736.869,298.462 732.5,296C 731.299,295.097 730.465,293.931 730,292.5C 729.181,286.319 729.347,280.319 730.5,274.5 Z"/></g>
<g><path style="opacity:1" fill="#979797" d="M 647.5,293.5 C 650.167,293.5 652.833,293.5 655.5,293.5C 655.5,294.833 655.5,296.167 655.5,297.5C 650.968,297.818 646.634,297.485 642.5,296.5C 646.634,297.485 650.968,297.818 655.5,297.5C 655.5,296.167 655.5,294.833 655.5,293.5C 652.833,293.5 650.167,293.5 647.5,293.5 Z"/></g>
<g><path style="opacity:0.6" fill="#9c9c9c" d="M 75.5,290.5 C 76.4232,302.401 76.0898,314.068 74.5,325.5C 74.1667,325.5 73.8333,325.5 73.5,325.5C 72.1667,324.833 70.8333,324.167 69.5,323.5C 70.9187,322.549 72.5853,322.216 74.5,322.5C 74.1677,311.084 74.501,300.417 75.5,290.5 Z"/></g>
<g><path style="opacity:1" fill="#e1e1e2" d="M 834.5,304.5 C 806.52,306.492 778.186,307.158 749.5,306.5C 777.48,304.508 805.814,303.842 834.5,304.5 Z"/></g>
<g><path style="opacity:0.557" fill="#abacac" d="M 838.5,304.5 C 838.5,305.167 838.5,305.833 838.5,306.5C 837.833,306.5 837.167,306.5 836.5,306.5C 836.5,305.167 837.167,304.5 838.5,304.5 Z"/></g>
<g><path style="opacity:1" fill="#d7d7d8" d="M 22.5,288.5 C 61.8333,288.5 101.167,288.5 140.5,288.5C 140.5,288.833 140.5,289.167 140.5,289.5C 118.758,289.178 97.0913,289.512 75.5,290.5C 74.501,300.417 74.1677,311.084 74.5,322.5C 72.5853,322.216 70.9187,322.549 69.5,323.5C 69.2552,312.467 68.5885,301.3 67.5,290C 52.3277,289.831 37.3277,289.331 22.5,288.5 Z"/></g>
<g><path style="opacity:0.357" fill="#c3c4c3" d="M 838.5,306.5 C 839.833,307.167 839.833,307.167 838.5,306.5 Z"/></g>
<g><path style="opacity:1" fill="#373737" d="M 836.5,230.5 C 837.167,230.5 837.833,230.5 838.5,230.5C 839.825,255.196 839.825,279.863 838.5,304.5C 837.167,304.5 836.5,305.167 836.5,306.5C 835.527,306.987 834.527,307.487 833.5,308C 817.837,308.5 802.17,308.667 786.5,308.5C 730.762,308.833 675.762,308.5 621.5,307.5C 664.171,307.611 706.838,307.278 749.5,306.5C 778.186,307.158 806.52,306.492 834.5,304.5C 835.117,304.389 835.617,304.056 836,303.5C 836.5,279.169 836.667,254.836 836.5,230.5 Z"/></g>
<g><path style="opacity:1" fill="#5a5a5a" d="M 619.5,228.5 C 619.833,228.5 620.167,228.5 620.5,228.5C 618.836,255.016 619.169,281.35 621.5,307.5C 675.762,308.5 730.762,308.833 786.5,308.5C 786.5,308.833 786.5,309.167 786.5,309.5C 731.167,309.5 675.833,309.5 620.5,309.5C 620.167,309.5 619.833,309.5 619.5,309.5C 619.108,307.821 618.608,306.154 618,304.5C 617.5,280.169 617.333,255.836 617.5,231.5C 618.167,230.5 618.833,229.5 619.5,228.5 Z"/></g>
<g><path style="opacity:0.896" fill="#8b8b8b" d="M 836.5,306.5 C 836.423,307.75 835.756,308.583 834.5,309C 827.174,309.5 819.841,309.666 812.5,309.5C 809.5,309.5 806.5,309.5 803.5,309.5C 798.319,309.931 792.986,309.931 787.5,309.5C 787.167,309.5 786.833,309.5 786.5,309.5C 786.5,309.167 786.5,308.833 786.5,308.5C 802.17,308.667 817.837,308.5 833.5,308C 834.527,307.487 835.527,306.987 836.5,306.5 Z"/></g>
<g><path style="opacity:1" fill="#dbdbdb" d="M 232.5,289.5 C 233.5,289.5 234.5,289.5 235.5,289.5C 235.5,300.5 235.5,311.5 235.5,322.5C 234.5,322.5 233.5,322.5 232.5,322.5C 232.5,311.5 232.5,300.5 232.5,289.5 Z"/></g>
<g><path style="opacity:0.459" fill="#bfbfbf" d="M 620.5,309.5 C 675.833,309.5 731.167,309.5 786.5,309.5C 786.833,309.5 787.167,309.5 787.5,309.5C 742.67,310.499 697.67,310.832 652.5,310.5C 652.5,315.5 652.5,320.5 652.5,325.5C 652.167,325.5 651.833,325.5 651.5,325.5C 651.5,320.5 651.5,315.5 651.5,310.5C 649.833,310.5 648.167,310.5 646.5,310.5C 646.5,315.5 646.5,320.5 646.5,325.5C 646.167,325.5 645.833,325.5 645.5,325.5C 645.387,320.482 645.053,315.482 644.5,310.5C 636.316,310.826 628.316,310.492 620.5,309.5 Z"/></g>
<g><path style="opacity:1" fill="#e0e0e0" d="M 651.5,325.5 C 649.833,325.5 648.167,325.5 646.5,325.5C 646.5,320.5 646.5,315.5 646.5,310.5C 648.167,310.5 649.833,310.5 651.5,310.5C 651.5,315.5 651.5,320.5 651.5,325.5 Z"/></g>
<g><path style="opacity:1" fill="#dcdddd" d="M 803.5,309.5 C 806.5,309.5 809.5,309.5 812.5,309.5C 811.551,314.74 811.218,320.073 811.5,325.5C 809.167,325.5 806.833,325.5 804.5,325.5C 804.782,320.073 804.449,314.74 803.5,309.5 Z"/></g>
</svg>
