<?xml version="1.0" encoding="UTF-8"?>
<!DOCTYPE svg PUBLIC "-//W3C//DTD SVG 1.1//EN" "http://www.w3.org/Graphics/SVG/1.1/DTD/svg11.dtd">
<svg xmlns="http://www.w3.org/2000/svg" version="1.1" width="292px" height="293px" style="shape-rendering:geometricPrecision; text-rendering:geometricPrecision; image-rendering:optimizeQuality; fill-rule:evenodd; clip-rule:evenodd" xmlns:xlink="http://www.w3.org/1999/xlink">
<g><path style="opacity:0.953" fill="#323130" d="M 291.5,139.5 C 291.5,143.833 291.5,148.167 291.5,152.5C 289.773,158.621 286.939,164.288 283,169.5C 245.167,207.333 207.333,245.167 169.5,283C 154.755,293.907 139.755,294.24 124.5,284C 86,245.5 47.5,207 9,168.5C -0.551696,154.347 -0.88503,140.014 8,125.5C 47.5,86 87,46.5 126.5,7C 140.404,-0.608777 154.07,-0.275443 167.5,8C 206.667,47.1667 245.833,86.3333 285,125.5C 288.025,129.877 290.192,134.544 291.5,139.5 Z"/></g>
<g><path style="opacity:1" fill="#f4e924" d="M 242.5,201.5 C 240.171,200.251 238.338,200.918 237,203.5C 231.173,200.695 228.673,202.695 229.5,209.5C 227.033,210.036 224.7,210.536 222.5,211C 221.577,213.041 221.244,215.208 221.5,217.5C 219.033,218.036 216.7,218.536 214.5,219C 213.718,221.74 213.218,224.574 213,227.5C 207.173,224.695 204.673,226.695 205.5,233.5C 203.033,234.036 200.7,234.536 198.5,235C 197.577,237.041 197.244,239.208 197.5,241.5C 195.033,242.036 192.7,242.536 190.5,243C 189.577,245.041 189.244,247.208 189.5,249.5C 187.033,250.036 184.7,250.536 182.5,251C 181.577,253.041 181.244,255.208 181.5,257.5C 178.781,257.552 176.281,258.218 174,259.5C 173.667,262.167 173.333,264.833 173,267.5C 169.793,270.15 169.293,269.984 171.5,267C 169.597,265.172 167.764,265.339 166,267.5C 165.195,270.696 165.362,273.696 166.5,276.5C 159.812,283.765 151.478,286.599 141.5,285C 135.847,284.006 130.847,281.673 126.5,278C 107.659,259.326 88.9921,240.492 70.5,221.5C 71.4612,219.562 70.7946,218.062 68.5,217C 69.8741,214.145 68.8741,211.645 65.5,209.5C 63.9361,210.186 62.2694,210.019 60.5,209C 61.374,207.273 61.2074,205.44 60,203.5C 59.6924,204.308 59.1924,204.975 58.5,205.5C 57.209,203.041 55.209,201.541 52.5,201C 53.374,199.273 53.2074,197.44 52,195.5C 51.6924,196.308 51.1924,196.975 50.5,197.5C 49.209,195.041 47.209,193.541 44.5,193C 45.374,191.273 45.2074,189.44 44,187.5C 43.6924,188.308 43.1924,188.975 42.5,189.5C 41.209,187.041 39.209,185.541 36.5,185C 37.374,183.273 37.2074,181.44 36,179.5C 35.6924,180.308 35.1924,180.975 34.5,181.5C 33.209,179.041 31.209,177.541 28.5,177C 29.374,175.273 29.2074,173.44 28,171.5C 27.6924,172.308 27.1924,172.975 26.5,173.5C 23.4425,170.253 19.7759,167.919 15.5,166.5C 5.94096,154.451 5.10763,141.784 13,128.5C 51.5,90 90,51.5 128.5,13C 140.473,5.70773 152.473,5.70773 164.5,13C 203,51.5 241.5,90 280,128.5C 286.524,138.791 287.191,149.458 282,160.5C 269.242,174.794 256.076,188.461 242.5,201.5 Z"/></g>
<g><path style="opacity:1" fill="#2b2b2a" d="M 138.5,57.5 C 159.602,62.59 180.436,68.59 201,75.5C 200.494,88.2219 199.16,100.889 197,113.5C 195.758,114.872 194.258,115.872 192.5,116.5C 186.217,114.512 179.884,112.679 173.5,111C 171.996,109.663 170.996,107.996 170.5,106C 162.33,103.108 153.997,100.942 145.5,99.5C 145.5,100.5 145.5,101.5 145.5,102.5C 138.852,100.671 132.186,98.8376 125.5,97C 123.264,96.2661 121.931,94.7661 121.5,92.5C 126.937,80.6278 132.604,68.9611 138.5,57.5 Z"/></g>
<g><path style="opacity:1" fill="#f2e625" d="M 145.5,69.5 C 159.656,72.8846 173.656,76.8846 187.5,81.5C 188.172,88.8033 188.172,96.1367 187.5,103.5C 169.698,100.05 152.365,95.0504 135.5,88.5C 138.591,81.9818 141.925,75.6485 145.5,69.5 Z"/></g>
<g><path style="opacity:1" fill="#2b2a29" d="M 121.5,97.5 C 145.015,105.456 168.682,112.289 192.5,118C 193.022,118.561 193.355,119.228 193.5,120C 192.464,122.774 191.631,125.607 191,128.5C 189.184,130.441 187.184,131.108 185,130.5C 183.665,135.183 182.331,139.85 181,144.5C 177.995,148.087 174.162,150.254 169.5,151C 164.661,154.214 163.494,158.38 166,163.5C 170.027,167.527 174.027,171.527 178,175.5C 183.279,181.284 184.279,187.617 181,194.5C 171.333,208.167 161.667,221.833 152,235.5C 146.379,228.423 140.879,221.257 135.5,214C 142.538,207.293 149.872,200.96 157.5,195C 161.128,191.169 162.295,186.669 161,181.5C 157.333,176.5 153.667,171.5 150,166.5C 146.438,152.706 151.938,145.873 166.5,146C 167.931,145.535 169.097,144.701 170,143.5C 170.173,137.432 171.339,131.432 173.5,125.5C 160.439,122.142 147.439,118.475 134.5,114.5C 133.03,117.707 131.863,121.041 131,124.5C 128.059,126.261 126.392,128.928 126,132.5C 122.021,134.497 117.855,135.997 113.5,137C 111.654,139.024 110.321,141.357 109.5,144C 113.865,151.225 118.365,158.392 123,165.5C 125.21,170.357 124.877,175.024 122,179.5C 110,192.167 98,204.833 86,217.5C 82.0884,209.343 77.9217,201.343 73.5,193.5C 83.1151,187.06 92.6151,180.394 102,173.5C 103.318,170.594 103.652,167.594 103,164.5C 100.333,159.833 97.6667,155.167 95,150.5C 92.0125,143.214 93.5125,137.047 99.5,132C 104.721,130.768 110.054,130.101 115.5,130C 116.333,129.167 117.167,128.333 118,127.5C 119.248,121.859 120.414,116.192 121.5,110.5C 119.052,110.915 117.719,109.915 117.5,107.5C 118.262,103.87 119.595,100.537 121.5,97.5 Z"/></g>
<g><path style="opacity:1" fill="#e0d42e" d="M 15.5,166.5 C 19.7759,167.919 23.4425,170.253 26.5,173.5C 27.1924,172.975 27.6924,172.308 28,171.5C 29.2074,173.44 29.374,175.273 28.5,177C 31.209,177.541 33.209,179.041 34.5,181.5C 35.1924,180.975 35.6924,180.308 36,179.5C 37.2074,181.44 37.374,183.273 36.5,185C 39.209,185.541 41.209,187.041 42.5,189.5C 43.1924,188.975 43.6924,188.308 44,187.5C 45.2074,189.44 45.374,191.273 44.5,193C 47.209,193.541 49.209,195.041 50.5,197.5C 51.1924,196.975 51.6924,196.308 52,195.5C 53.2074,197.44 53.374,199.273 52.5,201C 55.209,201.541 57.209,203.041 58.5,205.5C 59.1924,204.975 59.6924,204.308 60,203.5C 61.2074,205.44 61.374,207.273 60.5,209C 62.2694,210.019 63.9361,210.186 65.5,209.5C 68.8741,211.645 69.8741,214.145 68.5,217C 70.7946,218.062 71.4612,219.562 70.5,221.5C 51.8333,203.5 33.5,185.167 15.5,166.5 Z"/></g>
<g><path style="opacity:1" fill="#ecdf28" d="M 242.5,201.5 C 217.63,226.108 192.963,250.941 168.5,276C 167.906,276.464 167.239,276.631 166.5,276.5C 165.362,273.696 165.195,270.696 166,267.5C 167.764,265.339 169.597,265.172 171.5,267C 169.293,269.984 169.793,270.15 173,267.5C 173.333,264.833 173.667,262.167 174,259.5C 176.281,258.218 178.781,257.552 181.5,257.5C 181.244,255.208 181.577,253.041 182.5,251C 184.7,250.536 187.033,250.036 189.5,249.5C 189.244,247.208 189.577,245.041 190.5,243C 192.7,242.536 195.033,242.036 197.5,241.5C 197.244,239.208 197.577,237.041 198.5,235C 200.7,234.536 203.033,234.036 205.5,233.5C 204.673,226.695 207.173,224.695 213,227.5C 213.218,224.574 213.718,221.74 214.5,219C 216.7,218.536 219.033,218.036 221.5,217.5C 221.244,215.208 221.577,213.041 222.5,211C 224.7,210.536 227.033,210.036 229.5,209.5C 228.673,202.695 231.173,200.695 237,203.5C 238.338,200.918 240.171,200.251 242.5,201.5 Z"/></g>
</svg>
