<?xml version="1.0" encoding="UTF-8"?>
<!DOCTYPE svg PUBLIC "-//W3C//DTD SVG 1.1//EN" "http://www.w3.org/Graphics/SVG/1.1/DTD/svg11.dtd">
<svg xmlns="http://www.w3.org/2000/svg" version="1.1" width="292px" height="293px" style="shape-rendering:geometricPrecision; text-rendering:geometricPrecision; image-rendering:optimizeQuality; fill-rule:evenodd; clip-rule:evenodd" xmlns:xlink="http://www.w3.org/1999/xlink">
<g><path style="opacity:1" fill="#f4e924" d="M 281.5,161.5 C 242.86,200.473 204.194,239.473 165.5,278.5C 152.352,287.95 139.352,287.784 126.5,278C 89.3333,240.833 52.1667,203.667 15,166.5C 6.22195,154.836 5.22195,142.503 12,129.5C 51.1667,90.3333 90.3333,51.1667 129.5,12C 141.389,5.73136 153.055,6.0647 164.5,13C 202.667,51.1667 240.833,89.3333 279,127.5C 286.649,138.328 287.483,149.661 281.5,161.5 Z"/></g>
<g><path style="opacity:1" fill="#2c2b2a" d="M 93.5,213.5 C 90.3752,214.479 87.0419,214.813 83.5,214.5C 91.3922,172.147 99.3922,129.813 107.5,87.5C 111.123,86.2418 114.79,86.2418 118.5,87.5C 109.653,129.403 101.319,171.403 93.5,213.5 Z"/></g>
<g><path style="opacity:1" fill="#292929" d="M 126.5,86.5 C 135.167,86.5 143.833,86.5 152.5,86.5C 158.5,86.5 164.5,86.5 170.5,86.5C 178.706,128.735 186.373,171.069 193.5,213.5C 161.5,213.5 129.5,213.5 97.5,213.5C 105.009,171.452 112.843,129.452 121,87.5C 122.699,86.5939 124.533,86.2606 126.5,86.5 Z"/></g>
<g><path style="opacity:1" fill="#2c2b2a" d="M 174.5,86.5 C 177.833,86.5 181.167,86.5 184.5,86.5C 192.166,129.165 199.833,171.832 207.5,214.5C 204.833,214.5 202.167,214.5 199.5,214.5C 198.069,214.119 197.236,213.119 197,211.5C 189.498,169.821 181.998,128.155 174.5,86.5 Z"/></g>
<g><path style="opacity:1" fill="#e9dd2a" d="M 174.5,86.5 C 181.998,128.155 189.498,169.821 197,211.5C 197.236,213.119 198.069,214.119 199.5,214.5C 198.531,215.309 197.698,216.309 197,217.5C 196.333,216.167 195.667,216.167 195,217.5C 193.086,216.324 193.252,215.324 195.5,214.5C 195.043,213.702 194.376,213.369 193.5,213.5C 186.373,171.069 178.706,128.735 170.5,86.5C 164.5,86.5 158.5,86.5 152.5,86.5C 158.319,85.6724 164.319,85.1724 170.5,85C 171.025,84.3076 171.692,83.8076 172.5,83.5C 172.016,84.7808 172.683,85.7808 174.5,86.5 Z"/></g>
<g><path style="opacity:1" fill="#323130" d="M 291.5,140.5 C 291.5,144.167 291.5,147.833 291.5,151.5C 290.481,156.549 288.481,161.216 285.5,165.5C 285.082,164.778 284.416,164.278 283.5,164C 284.451,163.282 284.617,162.449 284,161.5C 283.023,162.774 282.189,162.774 281.5,161.5C 287.483,149.661 286.649,138.328 279,127.5C 240.833,89.3333 202.667,51.1667 164.5,13C 153.055,6.0647 141.389,5.73136 129.5,12C 90.3333,51.1667 51.1667,90.3333 12,129.5C 5.22195,142.503 6.22195,154.836 15,166.5C 52.1667,203.667 89.3333,240.833 126.5,278C 139.352,287.784 152.352,287.95 165.5,278.5C 167.664,278.721 169.33,279.721 170.5,281.5C 155.918,293.787 140.585,294.62 124.5,284C 86,245.5 47.5,207 9,168.5C -0.604333,154.376 -0.937666,140.043 8,125.5C 46.8333,85.3333 86.3333,45.8333 126.5,7C 140.404,-0.608777 154.07,-0.275443 167.5,8C 206.667,47.1667 245.833,86.3333 285,125.5C 287.774,130.367 289.941,135.367 291.5,140.5 Z"/></g>
<g><path style="opacity:1" fill="#555239" d="M 147.5,81.5 C 153.906,81.6487 153.739,82.3153 147,83.5C 146.5,83.3333 146,83.1667 145.5,83C 146.416,82.7216 147.082,82.2216 147.5,81.5 Z"/></g>
<g><path style="opacity:1" fill="#625f3b" d="M 127.5,81.5 C 132.167,81.5 136.833,81.5 141.5,81.5C 138.785,82.8859 135.785,83.5526 132.5,83.5C 130.36,83.4439 128.694,82.7773 127.5,81.5 Z"/></g>
<g><path style="opacity:1" fill="#8d863e" d="M 111.5,77.5 C 111.5,78.5 111.5,79.5 111.5,80.5C 111.218,81.7777 110.551,82.7777 109.5,83.5C 108.5,84.8333 107.5,84.8333 106.5,83.5C 107.376,83.6309 108.043,83.2975 108.5,82.5C 107.687,81.1861 106.687,80.0195 105.5,79C 105.728,78.6012 106.062,78.4346 106.5,78.5C 108.042,77.6993 109.708,77.366 111.5,77.5 Z"/></g>
<g><path style="opacity:1" fill="#e7db2d" d="M 111.5,77.5 C 122.128,78.4808 122.128,79.4808 111.5,80.5C 111.5,79.5 111.5,78.5 111.5,77.5 Z"/></g>
<g><path style="opacity:1" fill="#a59d3f" d="M 142.5,74.5 C 143.574,76.525 145.574,78.1917 148.5,79.5C 145.447,79.8893 142.78,79.2227 140.5,77.5C 142.824,77.1227 143.491,76.1227 142.5,74.5 Z"/></g>
<g><path style="opacity:1" fill="#31302c" d="M 122.5,70.5 C 123.167,70.5 123.833,70.5 124.5,70.5C 126.5,70.5 128.5,70.5 130.5,70.5C 130.5,71.8333 130.5,73.1667 130.5,74.5C 134.893,74.4568 135.226,74.9568 131.5,76C 134.393,77.1488 137.393,77.6488 140.5,77.5C 142.78,79.2227 145.447,79.8893 148.5,79.5C 146.485,80.9238 144.152,81.5905 141.5,81.5C 136.833,81.5 132.167,81.5 127.5,81.5C 126.5,81.5 125.5,81.5 124.5,81.5C 123.183,81.179 121.849,80.8457 120.5,80.5C 116.872,81.7103 113.206,82.7103 109.5,83.5C 110.551,82.7777 111.218,81.7777 111.5,80.5C 122.128,79.4808 122.128,78.4808 111.5,77.5C 117.65,77.2427 123.984,77.0761 130.5,77C 130,76.5 129.5,76 129,75.5C 126.959,76.4231 124.792,76.7564 122.5,76.5C 122.5,74.5 122.5,72.5 122.5,70.5 Z"/></g>
<g><path style="opacity:1" fill="#ccc137" d="M 119.5,66.5 C 120.675,66.281 121.675,66.6143 122.5,67.5C 121.209,68.5272 121.209,69.5272 122.5,70.5C 122.5,72.5 122.5,74.5 122.5,76.5C 124.792,76.7564 126.959,76.4231 129,75.5C 129.5,76 130,76.5 130.5,77C 123.984,77.0761 117.65,77.2427 111.5,77.5C 109.708,77.366 108.042,77.6993 106.5,78.5C 106.267,76.9382 105.6,75.6049 104.5,74.5C 104.735,73.9033 105.235,73.5699 106,73.5C 110.65,75.0664 115.483,76.0664 120.5,76.5C 121.833,74.5 121.833,72.5 120.5,70.5C 119.604,71.5063 118.938,71.5063 118.5,70.5C 119.246,69.2638 119.579,67.9305 119.5,66.5 Z"/></g>
<g><path style="opacity:1" fill="#918a3d" d="M 177.5,83.5 C 177.631,84.3764 177.298,85.0431 176.5,85.5C 175.118,83.4514 173.452,81.7847 171.5,80.5C 171.201,78.396 171.534,76.396 172.5,74.5C 174.115,75.154 175.782,75.654 177.5,76C 175.744,76.2022 174.078,76.7022 172.5,77.5C 172.846,78.6956 173.346,78.6956 174,77.5C 175.459,79.4319 176.625,81.4319 177.5,83.5 Z"/></g>
<g><path style="opacity:1" fill="#68643d" d="M 181.5,72.5 C 182.833,73.1667 184.167,73.8333 185.5,74.5C 181.774,74.8226 178.107,74.4892 174.5,73.5C 176.743,72.5258 179.076,72.1924 181.5,72.5 Z"/></g>
<g><path style="opacity:1" fill="#e0d430" d="M 124.5,70.5 C 125.449,69.8476 126.615,69.5143 128,69.5C 130.672,70.51 133.338,71.51 136,72.5C 137.107,72.4148 138.107,72.0814 139,71.5C 139.759,73.0629 140.926,74.0629 142.5,74.5C 143.491,76.1227 142.824,77.1227 140.5,77.5C 137.393,77.6488 134.393,77.1488 131.5,76C 135.226,74.9568 134.893,74.4568 130.5,74.5C 130.5,73.1667 130.5,71.8333 130.5,70.5C 128.5,70.5 126.5,70.5 124.5,70.5 Z"/></g>
<g><path style="opacity:1" fill="#2f2e2b" d="M 161.5,73.5 C 159.879,71.7701 158.545,69.7701 157.5,67.5C 156.432,66.5655 155.099,66.2322 153.5,66.5C 153.5,70.1667 153.5,73.8333 153.5,77.5C 156.811,77.7736 159.145,77.107 160.5,75.5C 160.5,74.8333 160.833,74.5 161.5,74.5C 163.048,74.1788 163.715,73.1788 163.5,71.5C 165.109,71.9059 166.443,71.9059 167.5,71.5C 166.593,68.5788 166.26,65.5788 166.5,62.5C 169.187,62.3359 171.854,62.5026 174.5,63C 177.263,65.0483 180.263,66.5483 183.5,67.5C 183.598,69.5529 182.931,71.2196 181.5,72.5C 179.076,72.1924 176.743,72.5258 174.5,73.5C 178.107,74.4892 181.774,74.8226 185.5,74.5C 186.456,75.6594 187.456,76.8261 188.5,78C 188.265,78.8732 187.931,79.7065 187.5,80.5C 184.32,81.8988 181.153,82.2321 178,81.5C 177.536,82.0944 177.369,82.7611 177.5,83.5C 176.625,81.4319 175.459,79.4319 174,77.5C 173.346,78.6956 172.846,78.6956 172.5,77.5C 174.078,76.7022 175.744,76.2022 177.5,76C 175.782,75.654 174.115,75.154 172.5,74.5C 171.534,76.396 171.201,78.396 171.5,80.5C 169.068,78.0492 167.068,78.2159 165.5,81C 163.667,81.1667 161.833,81.3333 160,81.5C 155.942,80.7506 152.109,80.084 148.5,79.5C 145.574,78.1917 143.574,76.525 142.5,74.5C 142.196,73.8501 141.863,73.1835 141.5,72.5C 143.387,71.3344 145.053,70.6678 146.5,70.5C 144.814,69.1431 143.148,67.8098 141.5,66.5C 141.833,65.8333 142.167,65.1667 142.5,64.5C 144.646,64.1218 146.813,63.7885 149,63.5C 150.658,63.6752 151.991,64.3418 153,65.5C 154.333,63.5 155.667,61.5 157,59.5C 157.483,60.448 157.649,61.448 157.5,62.5C 159.5,62.5 161.5,62.5 163.5,62.5C 163.354,66.3875 162.687,70.0542 161.5,73.5 Z"/></g>
<g><path style="opacity:1" fill="#beb53b" d="M 157.5,67.5 C 156.5,67.5 155.5,67.5 154.5,67.5C 154.5,68.5 154.5,69.5 154.5,70.5C 154.5,72.5 154.5,74.5 154.5,76.5C 155.791,76.7373 156.791,76.404 157.5,75.5C 158.5,74.1667 159.5,74.1667 160.5,75.5C 159.145,77.107 156.811,77.7736 153.5,77.5C 153.5,73.8333 153.5,70.1667 153.5,66.5C 155.099,66.2322 156.432,66.5655 157.5,67.5 Z"/></g>
<g><path style="opacity:1" fill="#2c2c2a" d="M 154.5,70.5 C 155.5,70.5 156.5,70.5 157.5,70.5C 157.5,72.1667 157.5,73.8333 157.5,75.5C 156.791,76.404 155.791,76.7373 154.5,76.5C 154.5,74.5 154.5,72.5 154.5,70.5 Z"/></g>
<g><path style="opacity:1" fill="#6f6a3b" d="M 157.5,67.5 C 158.545,69.7701 159.879,71.7701 161.5,73.5C 161.5,73.8333 161.5,74.1667 161.5,74.5C 160.833,74.5 160.5,74.8333 160.5,75.5C 159.5,74.1667 158.5,74.1667 157.5,75.5C 157.5,73.8333 157.5,72.1667 157.5,70.5C 156.5,70.5 155.5,70.5 154.5,70.5C 154.5,69.5 154.5,68.5 154.5,67.5C 155.5,67.5 156.5,67.5 157.5,67.5 Z"/></g>
<g><path style="opacity:1" fill="#dbcf32" d="M 142.5,64.5 C 142.167,65.1667 141.833,65.8333 141.5,66.5C 139.621,66.3932 139.288,66.8932 140.5,68C 138.826,70.8816 136.826,71.0483 134.5,68.5C 136.212,66.541 138.878,65.2077 142.5,64.5 Z"/></g>
<g><path style="opacity:1" fill="#635e3a" d="M 126.5,63.5 C 122.667,64.8101 122.667,65.9767 126.5,67C 125.304,67.6543 125.304,68.1543 126.5,68.5C 127.183,68.1373 127.85,67.8039 128.5,67.5C 130.492,67.3285 132.158,67.9951 133.5,69.5C 134.107,69.3764 134.44,69.0431 134.5,68.5C 136.826,71.0483 138.826,70.8816 140.5,68C 139.288,66.8932 139.621,66.3932 141.5,66.5C 143.148,67.8098 144.814,69.1431 146.5,70.5C 145.053,70.6678 143.387,71.3344 141.5,72.5C 141.863,73.1835 142.196,73.8501 142.5,74.5C 140.926,74.0629 139.759,73.0629 139,71.5C 138.107,72.0814 137.107,72.4148 136,72.5C 133.338,71.51 130.672,70.51 128,69.5C 126.615,69.5143 125.449,69.8476 124.5,70.5C 123.833,70.5 123.167,70.5 122.5,70.5C 121.209,69.5272 121.209,68.5272 122.5,67.5C 121.675,66.6143 120.675,66.281 119.5,66.5C 120.715,61.8431 123.048,60.8431 126.5,63.5 Z"/></g>
<g><path style="opacity:1" fill="#3a382f" d="M 119.5,66.5 C 119.579,67.9305 119.246,69.2638 118.5,70.5C 118.938,71.5063 119.604,71.5063 120.5,70.5C 121.833,72.5 121.833,74.5 120.5,76.5C 115.483,76.0664 110.65,75.0664 106,73.5C 105.235,73.5699 104.735,73.9033 104.5,74.5C 102.637,74.1541 101.804,73.1541 102,71.5C 103.722,71.0385 105.555,70.8718 107.5,71C 108.167,69.3333 108.833,67.6667 109.5,66C 112.8,66.0455 116.134,66.2122 119.5,66.5 Z"/></g>
<g><path style="opacity:1" fill="#e1d62f" d="M 126.5,63.5 C 127.167,64.8333 127.833,66.1667 128.5,67.5C 127.85,67.8039 127.183,68.1373 126.5,68.5C 125.304,68.1543 125.304,67.6543 126.5,67C 122.667,65.9767 122.667,64.8101 126.5,63.5 Z"/></g>
<g><path style="opacity:1" fill="#2f2f2c" d="M 142.5,64.5 C 138.878,65.2077 136.212,66.541 134.5,68.5C 134.44,69.0431 134.107,69.3764 133.5,69.5C 132.158,67.9951 130.492,67.3285 128.5,67.5C 127.833,66.1667 127.167,64.8333 126.5,63.5C 128.017,63.4894 129.184,62.8228 130,61.5C 131.667,62.8333 133.333,62.8333 135,61.5C 137.756,62.0702 140.256,63.0702 142.5,64.5 Z"/></g>
<g><path style="opacity:0.992" fill="#3d3c37" d="M 281.5,161.5 C 282.189,162.774 283.023,162.774 284,161.5C 284.617,162.449 284.451,163.282 283.5,164C 284.416,164.278 285.082,164.778 285.5,165.5C 247.862,204.805 209.529,243.472 170.5,281.5C 169.33,279.721 167.664,278.721 165.5,278.5C 204.194,239.473 242.86,200.473 281.5,161.5 Z"/></g>
<g><path style="opacity:1" fill="#eade2a" d="M 124.5,81.5 C 124.461,82.5832 124.127,83.5832 123.5,84.5C 124.602,85.1757 125.602,85.8423 126.5,86.5C 124.533,86.2606 122.699,86.5939 121,87.5C 112.843,129.452 105.009,171.452 97.5,213.5C 97.6309,214.376 97.2975,215.043 96.5,215.5C 95.7492,214.624 95.2492,213.624 95,212.5C 94.6174,213.056 94.1174,213.389 93.5,213.5C 101.319,171.403 109.653,129.403 118.5,87.5C 114.79,86.2418 111.123,86.2418 107.5,87.5C 106.859,86.5178 106.193,85.5178 105.5,84.5C 105.624,83.8933 105.957,83.56 106.5,83.5C 107.5,84.8333 108.5,84.8333 109.5,83.5C 113.206,82.7103 116.872,81.7103 120.5,80.5C 121.849,80.8457 123.183,81.179 124.5,81.5 Z"/></g>
</svg>
