<?xml version="1.0" encoding="UTF-8"?>
<!DOCTYPE svg PUBLIC "-//W3C//DTD SVG 1.1//EN" "http://www.w3.org/Graphics/SVG/1.1/DTD/svg11.dtd">
<svg xmlns="http://www.w3.org/2000/svg" version="1.1" width="400px" height="400px" style="shape-rendering:geometricPrecision; text-rendering:geometricPrecision; image-rendering:optimizeQuality; fill-rule:evenodd; clip-rule:evenodd" xmlns:xlink="http://www.w3.org/1999/xlink">
<g><path style="opacity:1" fill="#f4e83c" d="M 193.5,5.5 C 191.736,6.32599 190.402,7.65932 189.5,9.5C 187.77,10.0256 186.436,11.0256 185.5,12.5C 180.554,16.7792 175.887,21.4458 171.5,26.5C 118.914,78.7519 66.2475,131.085 13.5,183.5C 9.81408,183.87 8.81408,182.537 10.5,179.5C 68.0427,120.957 126.043,62.6233 184.5,4.5C 185.325,3.61432 186.325,3.28099 187.5,3.5C 189.435,2.85048 191.435,2.51715 193.5,2.5C 193.5,3.5 193.5,4.5 193.5,5.5 Z"/></g>
<g><path style="opacity:1" fill="#f5ea24" d="M 215.5,28.5 C 257.404,70.3813 299.404,112.548 341.5,155C 342.094,155.464 342.761,155.631 343.5,155.5C 347.833,161.833 353.167,167.167 359.5,171.5C 366.407,179.912 373.907,187.912 382,195.5C 382.738,198.212 382.071,200.545 380,202.5C 320.365,262.135 260.865,321.635 201.5,381C 199.833,381.667 198.167,381.667 196.5,381C 193.297,377.629 189.964,374.462 186.5,371.5C 175.5,359.833 164.167,348.5 152.5,337.5C 146.833,331.167 140.833,325.167 134.5,319.5C 130.194,314.527 125.527,309.86 120.5,305.5C 116.167,301.833 112.167,297.833 108.5,293.5C 107.167,292.167 105.833,290.833 104.5,289.5C 100.194,285.86 96.1938,281.86 92.5,277.5C 91.1274,275.793 89.4607,274.46 87.5,273.5C 84.0749,269.285 80.4083,265.285 76.5,261.5C 75.1274,259.793 73.4607,258.46 71.5,257.5C 54.3112,239.143 36.4779,221.143 18,203.5C 15.729,200.88 15.0623,197.88 16,194.5C 70.3139,140.353 124.481,86.0194 178.5,31.5C 180.833,29.8333 182.833,27.8333 184.5,25.5C 185.5,25.1667 186.167,24.5 186.5,23.5C 189.631,20.8712 192.631,18.0379 195.5,15C 197.5,14.3333 199.5,14.3333 201.5,15C 206.518,19.3034 211.185,23.8034 215.5,28.5 Z"/></g>
<g><path style="opacity:1" fill="#211f21" d="M 186.5,23.5 C 186.167,24.5 185.5,25.1667 184.5,25.5C 181.043,25.0399 179.377,23.0399 179.5,19.5C 181.956,17.7356 184.623,16.0689 187.5,14.5C 186.757,13.8182 186.091,13.1515 185.5,12.5C 186.436,11.0256 187.77,10.0256 189.5,9.5C 189.369,10.3764 189.702,11.0431 190.5,11.5C 193.532,8.44275 197.199,7.10942 201.5,7.5C 201.5,8.83333 201.5,10.1667 201.5,11.5C 196.882,10.7606 193.549,12.4273 191.5,16.5C 190.271,17.2811 188.938,17.7811 187.5,18C 188.167,18.3333 188.833,18.6667 189.5,19C 187.624,19.9184 186.624,21.4184 186.5,23.5 Z"/></g>
<g><path style="opacity:1" fill="#2b2211" d="M 193.5,5.5 C 200.521,4.07428 206.187,6.07428 210.5,11.5C 215.404,14.6828 219.404,18.6828 222.5,23.5C 218.167,22.6853 215.834,24.352 215.5,28.5C 211.185,23.8034 206.518,19.3034 201.5,15C 199.5,14.3333 197.5,14.3333 195.5,15C 192.631,18.0379 189.631,20.8712 186.5,23.5C 186.624,21.4184 187.624,19.9184 189.5,19C 188.833,18.6667 188.167,18.3333 187.5,18C 188.938,17.7811 190.271,17.2811 191.5,16.5C 193.549,12.4273 196.882,10.7606 201.5,11.5C 201.5,10.1667 201.5,8.83333 201.5,7.5C 197.199,7.10942 193.532,8.44275 190.5,11.5C 189.702,11.0431 189.369,10.3764 189.5,9.5C 190.402,7.65932 191.736,6.32599 193.5,5.5 Z"/></g>
<g><path style="opacity:1" fill="#201d2e" d="M 210.5,11.5 C 210.868,14.0558 210.034,16.0558 208,17.5C 205.536,16.2375 204.37,14.2375 204.5,11.5C 206.5,11.5 208.5,11.5 210.5,11.5 Z"/></g>
<g><path style="opacity:1" fill="#f0df4c" d="M 192.5,-0.5 C 196.5,-0.5 200.5,-0.5 204.5,-0.5C 207.477,1.25799 210.477,3.25799 213.5,5.5C 221.502,13.1688 229.169,21.1688 236.5,29.5C 237.184,32.8506 239.184,34.8506 242.5,35.5C 251.456,43.7898 260.123,52.4564 268.5,61.5C 268.554,63.632 269.554,64.9653 271.5,65.5C 272.675,65.281 273.675,65.6143 274.5,66.5C 288.231,79.8967 301.565,93.5633 314.5,107.5C 315.711,109.95 317.378,111.95 319.5,113.5C 322.752,114.418 325.086,116.418 326.5,119.5C 326.539,120.583 326.873,121.583 327.5,122.5C 326.675,123.386 325.675,123.719 324.5,123.5C 323.761,123.631 323.094,123.464 322.5,123C 290.086,89.5868 257.419,56.5868 224.5,24C 223.906,23.5357 223.239,23.369 222.5,23.5C 219.404,18.6828 215.404,14.6828 210.5,11.5C 206.187,6.07428 200.521,4.07428 193.5,5.5C 193.5,4.5 193.5,3.5 193.5,2.5C 191.435,2.51715 189.435,2.85048 187.5,3.5C 189.167,2.16667 190.833,0.833333 192.5,-0.5 Z"/></g>
<g><path style="opacity:1" fill="#292410" d="M 185.5,12.5 C 186.091,13.1515 186.757,13.8182 187.5,14.5C 184.623,16.0689 181.956,17.7356 179.5,19.5C 179.377,23.0399 181.043,25.0399 184.5,25.5C 182.833,27.8333 180.833,29.8333 178.5,31.5C 178.461,28.6786 177.795,26.0119 176.5,23.5C 175.147,24.6853 173.98,26.0186 173,27.5C 172.617,26.944 172.117,26.6107 171.5,26.5C 175.887,21.4458 180.554,16.7792 185.5,12.5 Z"/></g>
<g><path style="opacity:1" fill="#211e21" d="M 178.5,31.5 C 176.257,32.3123 173.924,32.9789 171.5,33.5C 170.167,33.1667 168.833,32.8333 167.5,32.5C 169.35,30.7863 170.684,28.7863 171.5,26.5C 172.117,26.6107 172.617,26.944 173,27.5C 173.98,26.0186 175.147,24.6853 176.5,23.5C 177.795,26.0119 178.461,28.6786 178.5,31.5 Z"/></g>
<g><path style="opacity:0.2" fill="#fbe9a2" d="M 236.5,29.5 C 239.404,30.6144 241.404,32.6144 242.5,35.5C 239.184,34.8506 237.184,32.8506 236.5,29.5 Z"/></g>
<g><path style="opacity:0.2" fill="#fbe396" d="M 268.5,61.5 C 270.446,62.0347 271.446,63.368 271.5,65.5C 269.554,64.9653 268.554,63.632 268.5,61.5 Z"/></g>
<g><path style="opacity:1" fill="#282212" d="M 239.5,95.5 C 236.988,95.5772 234.988,94.5772 233.5,92.5C 227.324,89.9684 220.991,89.3018 214.5,90.5C 217.5,91.1667 220.5,91.8333 223.5,92.5C 217.167,93.1667 210.833,93.8333 204.5,94.5C 205.5,95.1667 206.5,95.8333 207.5,96.5C 206.833,96.8333 206.167,97.1667 205.5,97.5C 204.133,96.7745 202.8,96.1079 201.5,95.5C 202.74,93.0123 204.74,91.1789 207.5,90C 219.461,85.2925 230.128,87.1258 239.5,95.5 Z"/></g>
<g><path style="opacity:1" fill="#35280c" d="M 199.5,95.5 C 199.201,99.1055 198.035,102.439 196,105.5C 195.418,112.852 195.585,120.185 196.5,127.5C 190.552,116.213 191.552,105.546 199.5,95.5 Z"/></g>
<g><path style="opacity:0.153" fill="#fde9a5" d="M 314.5,107.5 C 315.847,108.171 317.014,108.171 318,107.5C 318.505,109.518 319.005,111.518 319.5,113.5C 317.378,111.95 315.711,109.95 314.5,107.5 Z"/></g>
<g><path style="opacity:1" fill="#f3e073" d="M 326.5,119.5 C 328.71,121.701 331.376,123.034 334.5,123.5C 334.517,125.565 334.85,127.565 335.5,129.5C 333.554,127.406 331.387,125.406 329,123.5C 328.25,124.126 327.416,124.626 326.5,125C 327.756,125.417 328.423,126.25 328.5,127.5C 326.29,127.106 324.957,125.773 324.5,123.5C 325.675,123.719 326.675,123.386 327.5,122.5C 326.873,121.583 326.539,120.583 326.5,119.5 Z"/></g>
<g><path style="opacity:1" fill="#918119" d="M 196.5,129.5 C 197.812,130.145 198.812,131.145 199.5,132.5C 182.847,133.499 166.18,133.833 149.5,133.5C 164.991,132.504 180.658,132.17 196.5,132.5C 196.5,131.5 196.5,130.5 196.5,129.5 Z"/></g>
<g><path style="opacity:1" fill="#2e290d" d="M 243.5,127.5 C 240.99,134.01 236.323,138.01 229.5,139.5C 231.12,137.587 233.12,136.253 235.5,135.5C 235.5,133.5 235.5,131.5 235.5,129.5C 238.417,129.635 241.084,128.968 243.5,127.5 Z"/></g>
<g><path style="opacity:1" fill="#231e20" d="M 239.5,95.5 C 246.562,102.333 249.062,110.666 247,120.5C 246.102,123.069 244.935,125.402 243.5,127.5C 241.084,128.968 238.417,129.635 235.5,129.5C 235.5,131.5 235.5,133.5 235.5,135.5C 233.12,136.253 231.12,137.587 229.5,139.5C 228.486,140.674 227.153,141.34 225.5,141.5C 222.5,141.5 219.5,141.5 216.5,141.5C 216.263,142.791 216.596,143.791 217.5,144.5C 220.797,153.409 224.463,162.076 228.5,170.5C 228.5,172.167 228.5,173.833 228.5,175.5C 227.5,175.5 226.5,175.5 225.5,175.5C 225.5,176.833 225.5,178.167 225.5,179.5C 226.833,179.5 228.167,179.5 229.5,179.5C 229.244,183.809 230.244,187.809 232.5,191.5C 233.167,190.833 233.833,190.167 234.5,189.5C 234.833,189.833 235.167,190.167 235.5,190.5C 234.167,192.5 234.167,194.5 235.5,196.5C 239.78,199.338 242.28,203.338 243,208.5C 244.113,209.305 245.279,209.972 246.5,210.5C 246.5,212.167 246.5,213.833 246.5,215.5C 248.5,215.5 250.5,215.5 252.5,215.5C 254.781,215.077 256.448,215.744 257.5,217.5C 259.988,219.388 262.988,220.055 266.5,219.5C 266.351,218.448 266.517,217.448 267,216.5C 269.473,217.12 271.973,217.786 274.5,218.5C 272.061,220.276 269.394,221.61 266.5,222.5C 267.375,224.773 269.042,225.773 271.5,225.5C 271.5,226.833 271.5,228.167 271.5,229.5C 273.5,229.5 275.5,229.5 277.5,229.5C 277.141,231.766 277.808,233.599 279.5,235C 276.413,235.259 273.413,235.759 270.5,236.5C 270.007,234.194 269.674,231.861 269.5,229.5C 268.167,229.5 266.833,229.5 265.5,229.5C 265.5,228.167 265.5,226.833 265.5,225.5C 262.318,224.626 259.318,223.293 256.5,221.5C 255.532,222.489 254.365,223.156 253,223.5C 250.325,221.745 247.491,220.411 244.5,219.5C 241.398,219.497 241.065,219.997 243.5,221C 242.167,221.333 240.833,221.667 239.5,222C 240.056,222.383 240.389,222.883 240.5,223.5C 237.645,224.803 234.645,224.803 231.5,223.5C 229.812,221.146 227.812,219.146 225.5,217.5C 225.918,216.778 226.584,216.278 227.5,216C 221.804,215.226 216.137,214.393 210.5,213.5C 209.665,212.057 208.332,211.057 206.5,210.5C 208.333,210.167 210.167,209.833 212,209.5C 215.838,210.283 219.671,210.95 223.5,211.5C 223.708,209.08 223.374,206.747 222.5,204.5C 224.173,202.477 224.84,200.144 224.5,197.5C 222.857,197.48 221.524,198.147 220.5,199.5C 219.702,197.922 219.202,196.256 219,194.5C 217.989,193.663 216.822,193.33 215.5,193.5C 215.662,191.473 215.495,189.473 215,187.5C 213.304,185.44 212.137,183.107 211.5,180.5C 209.955,179.548 208.288,179.215 206.5,179.5C 206.649,180.552 206.483,181.552 206,182.5C 204.303,183.364 203.137,184.697 202.5,186.5C 201.311,187.429 199.978,187.762 198.5,187.5C 197.872,183.044 199.206,179.378 202.5,176.5C 200.5,175.167 198.5,175.167 196.5,176.5C 195.885,178.116 194.885,179.449 193.5,180.5C 194.426,184.094 194.759,187.76 194.5,191.5C 199.874,191.178 200.541,192.512 196.5,195.5C 195.893,200.277 194.227,204.61 191.5,208.5C 192,208.833 192.5,209.167 193,209.5C 195.155,207.841 197.488,206.507 200,205.5C 201.871,205.709 203.038,206.709 203.5,208.5C 200.914,209.48 198.247,209.813 195.5,209.5C 195.67,210.822 195.337,211.989 194.5,213C 199.271,216.948 204.604,219.782 210.5,221.5C 212.062,221.733 213.395,222.4 214.5,223.5C 215.191,226.365 216.858,228.532 219.5,230C 219.167,230.333 218.833,230.667 218.5,231C 220.134,231.494 221.801,231.66 223.5,231.5C 223.387,234.049 224.054,236.382 225.5,238.5C 223.392,240.849 223.058,243.516 224.5,246.5C 223.287,252.109 222.621,257.775 222.5,263.5C 220.832,273.178 218.998,282.844 217,292.5C 215.334,295.331 213.168,297.664 210.5,299.5C 207.873,300.092 205.206,300.425 202.5,300.5C 200.067,300.727 198.401,299.727 197.5,297.5C 198.768,296.213 198.435,295.213 196.5,294.5C 195.833,292.5 195.167,290.5 194.5,288.5C 196.435,280.289 197.435,271.956 197.5,263.5C 199.124,263.64 200.29,262.973 201,261.5C 201.308,262.308 201.808,262.975 202.5,263.5C 203.652,259.745 203.318,256.078 201.5,252.5C 201.644,248.069 202.977,244.069 205.5,240.5C 204.833,240.167 204.167,239.833 203.5,239.5C 202.167,240.167 200.833,240.833 199.5,241.5C 197.502,240.033 195.836,238.2 194.5,236C 192.527,235.505 190.527,235.338 188.5,235.5C 184.027,233.095 179.694,230.429 175.5,227.5C 174.713,225.896 173.38,225.229 171.5,225.5C 171.5,249.167 171.5,272.833 171.5,296.5C 171.657,297.873 171.49,299.207 171,300.5C 169.924,303.079 168.091,304.746 165.5,305.5C 163.396,305.799 161.396,305.466 159.5,304.5C 160.689,303.571 162.022,303.238 163.5,303.5C 163.833,276.825 163.5,250.158 162.5,223.5C 161.5,249.491 161.167,275.491 161.5,301.5C 160.167,301.5 158.833,301.5 157.5,301.5C 157.397,298.781 157.731,296.115 158.5,293.5C 158.378,290.874 157.378,288.874 155.5,287.5C 155.5,292.167 155.5,296.833 155.5,301.5C 153.43,301.551 151.597,300.885 150,299.5C 148.989,300.056 148.156,300.722 147.5,301.5C 148.55,270.175 148.717,238.841 148,207.5C 148.083,203.689 147.25,200.355 145.5,197.5C 144.026,196.325 142.36,195.325 140.5,194.5C 133.833,193.833 127.167,193.167 120.5,192.5C 119.115,191.449 118.115,190.116 117.5,188.5C 108.661,187.23 99.994,185.23 91.5,182.5C 90.6258,180.253 90.2924,177.92 90.5,175.5C 98.5173,177.113 106.517,178.613 114.5,180C 119.245,173.323 123.579,166.489 127.5,159.5C 128.978,159.762 130.311,159.429 131.5,158.5C 133.827,153.175 136.66,148.175 140,143.5C 140.49,142.207 140.657,140.873 140.5,139.5C 143.925,139.633 144.258,138.967 141.5,137.5C 143.849,135.659 146.515,134.326 149.5,133.5C 166.18,133.833 182.847,133.499 199.5,132.5C 198.812,131.145 197.812,130.145 196.5,129.5C 196.5,128.833 196.5,128.167 196.5,127.5C 195.585,120.185 195.418,112.852 196,105.5C 198.035,102.439 199.201,99.1055 199.5,95.5C 200.167,95.5 200.833,95.5 201.5,95.5C 202.8,96.1079 204.133,96.7745 205.5,97.5C 206.167,97.1667 206.833,96.8333 207.5,96.5C 206.5,95.8333 205.5,95.1667 204.5,94.5C 210.833,93.8333 217.167,93.1667 223.5,92.5C 220.5,91.8333 217.5,91.1667 214.5,90.5C 220.991,89.3018 227.324,89.9684 233.5,92.5C 234.988,94.5772 236.988,95.5772 239.5,95.5 Z"/></g>
<g><path style="opacity:1" fill="#8b8517" d="M 225.5,141.5 C 222.523,141.902 219.857,142.902 217.5,144.5C 216.596,143.791 216.263,142.791 216.5,141.5C 219.5,141.5 222.5,141.5 225.5,141.5 Z"/></g>
<g><path style="opacity:1" fill="#28201a" d="M 222.5,23.5 C 223.239,23.369 223.906,23.5357 224.5,24C 257.419,56.5868 290.086,89.5868 322.5,123C 323.094,123.464 323.761,123.631 324.5,123.5C 324.957,125.773 326.29,127.106 328.5,127.5C 346.086,145.752 364.086,163.752 382.5,181.5C 384.909,183.902 386.909,186.569 388.5,189.5C 389.037,192.643 390.037,195.643 391.5,198.5C 389.629,201.234 388.629,204.234 388.5,207.5C 329.008,266.492 269.674,325.659 210.5,385C 208.266,386.75 205.932,388.25 203.5,389.5C 199.833,389.5 196.167,389.5 192.5,389.5C 180.167,377.833 168.167,365.833 156.5,353.5C 156.5,351.5 156.5,349.5 156.5,347.5C 155.5,347.5 154.5,347.5 153.5,347.5C 153.5,346.167 153.5,344.833 153.5,343.5C 150.921,343.917 148.754,343.25 147,341.5C 146.667,341.833 146.333,342.167 146,342.5C 145.241,340.937 144.074,339.937 142.5,339.5C 141.5,339.167 140.833,338.5 140.5,337.5C 139.033,334.738 139.866,332.738 143,331.5C 144.988,332.988 146.821,334.654 148.5,336.5C 149.689,337.429 151.022,337.762 152.5,337.5C 164.167,348.5 175.5,359.833 186.5,371.5C 189.964,374.462 193.297,377.629 196.5,381C 198.167,381.667 199.833,381.667 201.5,381C 260.865,321.635 320.365,262.135 380,202.5C 382.071,200.545 382.738,198.212 382,195.5C 373.907,187.912 366.407,179.912 359.5,171.5C 360.007,170.141 361.007,169.141 362.5,168.5C 360.35,163.134 358.35,162.801 356.5,167.5C 355.585,166.672 354.919,165.672 354.5,164.5C 355.681,162.802 355.681,161.135 354.5,159.5C 353.672,160.415 352.672,161.081 351.5,161.5C 348.796,159.451 346.13,157.451 343.5,155.5C 342.761,155.631 342.094,155.464 341.5,155C 299.404,112.548 257.404,70.3813 215.5,28.5C 215.834,24.352 218.167,22.6853 222.5,23.5 Z"/></g>
<g><path style="opacity:1" fill="#332b09" d="M 141.5,137.5 C 144.258,138.967 143.925,139.633 140.5,139.5C 140.657,140.873 140.49,142.207 140,143.5C 136.66,148.175 133.827,153.175 131.5,158.5C 130.311,159.429 128.978,159.762 127.5,159.5C 131.837,151.856 136.504,144.523 141.5,137.5 Z"/></g>
<g><path style="opacity:1" fill="#f6e583" d="M 361.5,153.5 C 364.52,155.523 366.854,158.19 368.5,161.5C 366.167,160.167 363.833,158.833 361.5,157.5C 361.5,156.167 361.5,154.833 361.5,153.5 Z"/></g>
<g><path style="opacity:1" fill="#f5dc2b" d="M 169.5,156.5 C 166.512,161.806 163.512,167.139 160.5,172.5C 156.377,177.641 153.044,183.308 150.5,189.5C 150.167,189.5 149.833,189.5 149.5,189.5C 145.538,188.624 141.538,187.958 137.5,187.5C 141.301,178.566 145.634,169.899 150.5,161.5C 152.262,160.738 153.262,159.404 153.5,157.5C 158.74,156.551 164.073,156.218 169.5,156.5 Z"/></g>
<g><path style="opacity:1" fill="#262016" d="M 160.5,172.5 C 163.512,167.139 166.512,161.806 169.5,156.5C 167.022,155.836 164.355,155.503 161.5,155.5C 158.41,155.522 155.743,156.188 153.5,157.5C 153.262,159.404 152.262,160.738 150.5,161.5C 150.083,158.921 150.75,156.754 152.5,155C 152.167,154.667 151.833,154.333 151.5,154C 155.486,153.501 159.486,153.334 163.5,153.5C 163.5,152.167 163.5,150.833 163.5,149.5C 159.217,149.377 155.05,150.044 151,151.5C 149.833,151.167 148.667,150.833 147.5,150.5C 147.833,149.833 148.167,149.167 148.5,148.5C 151.5,147.833 154.5,147.167 157.5,146.5C 160.833,145.167 164.167,145.167 167.5,146.5C 168.833,147.833 168.833,149.167 167.5,150.5C 168.714,152.421 170.214,154.088 172,155.5C 172.818,158.107 173.318,160.774 173.5,163.5C 172.155,167.506 170.822,171.506 169.5,175.5C 168.167,175.5 166.833,175.5 165.5,175.5C 166.167,172.833 166.833,170.167 167.5,167.5C 166.325,167.281 165.325,167.614 164.5,168.5C 163.985,170.225 163.318,171.892 162.5,173.5C 161.817,173.137 161.15,172.804 160.5,172.5 Z"/></g>
<g><path style="opacity:1" fill="#907e16" d="M 169.5,156.5 C 164.073,156.218 158.74,156.551 153.5,157.5C 155.743,156.188 158.41,155.522 161.5,155.5C 164.355,155.503 167.022,155.836 169.5,156.5 Z"/></g>
<g><path style="opacity:1" fill="#2a2511" d="M 343.5,155.5 C 346.13,157.451 348.796,159.451 351.5,161.5C 352.672,161.081 353.672,160.415 354.5,159.5C 355.681,161.135 355.681,162.802 354.5,164.5C 354.919,165.672 355.585,166.672 356.5,167.5C 358.35,162.801 360.35,163.134 362.5,168.5C 361.007,169.141 360.007,170.141 359.5,171.5C 353.167,167.167 347.833,161.833 343.5,155.5 Z"/></g>
<g><path style="opacity:1" fill="#f1e343" d="M 335.5,129.5 C 339.051,131.362 342.384,133.695 345.5,136.5C 348.015,138.764 350.015,141.431 351.5,144.5C 355.188,147.192 358.521,150.192 361.5,153.5C 361.5,154.833 361.5,156.167 361.5,157.5C 363.833,158.833 366.167,160.167 368.5,161.5C 372.446,164.442 376.112,167.775 379.5,171.5C 380.19,174.901 381.856,177.567 384.5,179.5C 384.5,180.833 383.833,181.5 382.5,181.5C 364.086,163.752 346.086,145.752 328.5,127.5C 328.423,126.25 327.756,125.417 326.5,125C 327.416,124.626 328.25,124.126 329,123.5C 331.387,125.406 333.554,127.406 335.5,129.5 Z"/></g>
<g><path style="opacity:0.384" fill="#f8ee9c" d="M 379.5,171.5 C 382.438,173.902 385.105,176.569 387.5,179.5C 386.5,179.5 385.5,179.5 384.5,179.5C 381.856,177.567 380.19,174.901 379.5,171.5 Z"/></g>
<g><path style="opacity:1" fill="#efde50" d="M 10.5,179.5 C 8.81408,182.537 9.81408,183.87 13.5,183.5C 11.1153,185.884 9.11528,188.55 7.5,191.5C 4.13406,198.295 5.4674,204.295 11.5,209.5C 27.1126,225.779 43.1126,241.779 59.5,257.5C 62.5,261.167 65.8333,264.5 69.5,267.5C 71.8333,270.5 74.5,273.167 77.5,275.5C 81.5532,279.89 85.8865,283.89 90.5,287.5C 93.4642,292.131 97.1308,296.131 101.5,299.5C 102.585,301.587 104.251,302.92 106.5,303.5C 106.369,304.239 106.536,304.906 107,305.5C 113.702,312.369 120.535,319.036 127.5,325.5C 131.18,330.179 135.514,334.179 140.5,337.5C 140.833,338.5 141.5,339.167 142.5,339.5C 146.118,345.118 150.785,349.785 156.5,353.5C 168.167,365.833 180.167,377.833 192.5,389.5C 194.349,390.837 196.516,391.503 199,391.5C 201.008,391.693 202.508,391.026 203.5,389.5C 205.932,388.25 208.266,386.75 210.5,385C 269.674,325.659 329.008,266.492 388.5,207.5C 392.668,202.822 393.501,197.488 391,191.5C 390.292,190.619 389.458,189.953 388.5,189.5C 386.909,186.569 384.909,183.902 382.5,181.5C 383.833,181.5 384.5,180.833 384.5,179.5C 385.5,179.5 386.5,179.5 387.5,179.5C 397.517,187.235 399.85,196.902 394.5,208.5C 334.305,268.468 274.639,328.468 215.5,388.5C 213.042,390.649 210.375,392.316 207.5,393.5C 201.5,393.5 195.5,393.5 189.5,393.5C 185.263,390.946 181.263,387.946 177.5,384.5C 177,383.5 176.5,382.5 176,381.5C 144.202,349.51 112.202,317.844 80,286.5C 79.5172,285.552 79.3505,284.552 79.5,283.5C 78.325,283.719 77.325,283.386 76.5,282.5C 73.6087,278.71 70.2754,275.377 66.5,272.5C 65.675,271.614 64.675,271.281 63.5,271.5C 63.6495,270.448 63.4828,269.448 63,268.5C 58.6817,264.682 54.515,260.682 50.5,256.5C 49.675,255.614 48.675,255.281 47.5,255.5C 47.6495,254.448 47.4828,253.448 47,252.5C 33.3315,238.735 19.1649,224.735 4.5,210.5C 2.30195,207.906 1.30195,204.906 1.5,201.5C 1.5,199.5 1.5,197.5 1.5,195.5C 1.38703,188.391 4.38703,183.057 10.5,179.5 Z"/></g>
<g><path style="opacity:1" fill="#282117" d="M 171.5,26.5 C 170.684,28.7863 169.35,30.7863 167.5,32.5C 168.833,32.8333 170.167,33.1667 171.5,33.5C 173.924,32.9789 176.257,32.3123 178.5,31.5C 124.481,86.0194 70.3139,140.353 16,194.5C 15.0623,197.88 15.729,200.88 18,203.5C 36.4779,221.143 54.3112,239.143 71.5,257.5C 69.6362,258.82 67.9695,260.487 66.5,262.5C 67,262.833 67.5,263.167 68,263.5C 69.5971,262.115 71.4305,261.449 73.5,261.5C 73.5,262.833 73.5,264.167 73.5,265.5C 71.6203,265.229 70.287,265.896 69.5,267.5C 65.8333,264.5 62.5,261.167 59.5,257.5C 43.1126,241.779 27.1126,225.779 11.5,209.5C 12.9778,209.762 14.3112,209.429 15.5,208.5C 13.8978,205.763 13.0645,202.763 13,199.5C 10.8901,196.82 9.05681,194.154 7.5,191.5C 9.11528,188.55 11.1153,185.884 13.5,183.5C 66.2475,131.085 118.914,78.7519 171.5,26.5 Z"/></g>
<g><path style="opacity:1" fill="#2f2512" d="M 228.5,170.5 C 234.445,183.735 240.445,197.068 246.5,210.5C 245.279,209.972 244.113,209.305 243,208.5C 242.28,203.338 239.78,199.338 235.5,196.5C 234.167,194.5 234.167,192.5 235.5,190.5C 235.167,190.167 234.833,189.833 234.5,189.5C 233.833,190.167 233.167,190.833 232.5,191.5C 230.244,187.809 229.244,183.809 229.5,179.5C 228.167,179.5 226.833,179.5 225.5,179.5C 225.5,178.167 225.5,176.833 225.5,175.5C 226.5,175.5 227.5,175.5 228.5,175.5C 228.5,173.833 228.5,172.167 228.5,170.5 Z"/></g>
<g><path style="opacity:1" fill="#382b06" d="M 90.5,175.5 C 90.2924,177.92 90.6258,180.253 91.5,182.5C 99.994,185.23 108.661,187.23 117.5,188.5C 118.115,190.116 119.115,191.449 120.5,192.5C 127.167,193.167 133.833,193.833 140.5,194.5C 142.36,195.325 144.026,196.325 145.5,197.5C 140.938,196.821 136.438,195.821 132,194.5C 127.862,195.497 123.696,195.664 119.5,195C 118.013,192.263 115.679,190.597 112.5,190C 104.353,187.965 96.3527,185.632 88.5,183C 89.1233,180.393 89.79,177.893 90.5,175.5 Z"/></g>
<g><path style="opacity:1" fill="#36260d" d="M 7.5,191.5 C 7.03565,197.715 8.70232,203.215 12.5,208C 11.944,208.383 11.6107,208.883 11.5,209.5C 5.4674,204.295 4.13406,198.295 7.5,191.5 Z"/></g>
<g><path style="opacity:0.031" fill="#fef5c2" d="M 1.5,195.5 C 1.5,197.5 1.5,199.5 1.5,201.5C 0.833333,201.167 0.166667,200.833 -0.5,200.5C -0.5,199.167 -0.5,197.833 -0.5,196.5C 0.166667,196.167 0.833333,195.833 1.5,195.5 Z"/></g>
<g><path style="opacity:1" fill="#201e2a" d="M 7.5,191.5 C 9.05681,194.154 10.8901,196.82 13,199.5C 13.0645,202.763 13.8978,205.763 15.5,208.5C 14.3112,209.429 12.9778,209.762 11.5,209.5C 11.6107,208.883 11.944,208.383 12.5,208C 8.70232,203.215 7.03565,197.715 7.5,191.5 Z"/></g>
<g><path style="opacity:1" fill="#402e0b" d="M 388.5,189.5 C 389.458,189.953 390.292,190.619 391,191.5C 393.501,197.488 392.668,202.822 388.5,207.5C 388.629,204.234 389.629,201.234 391.5,198.5C 390.037,195.643 389.037,192.643 388.5,189.5 Z"/></g>
<g><path style="opacity:1" fill="#221c2c" d="M 155.5,207.5 C 153.509,233.812 152.842,260.479 153.5,287.5C 152.139,255.029 150.806,222.363 149.5,189.5C 149.833,189.5 150.167,189.5 150.5,189.5C 153.128,186.306 155.795,182.973 158.5,179.5C 158.833,180.167 159.167,180.833 159.5,181.5C 158.008,183.972 157.342,186.639 157.5,189.5C 156.022,189.238 154.689,189.571 153.5,190.5C 155.388,195.938 156.054,201.605 155.5,207.5 Z"/></g>
<g><path style="opacity:1" fill="#2a2214" d="M 215.5,193.5 C 216.822,193.33 217.989,193.663 219,194.5C 219.202,196.256 219.702,197.922 220.5,199.5C 221.524,198.147 222.857,197.48 224.5,197.5C 224.84,200.144 224.173,202.477 222.5,204.5C 223.374,206.747 223.708,209.08 223.5,211.5C 219.671,210.95 215.838,210.283 212,209.5C 210.167,209.833 208.333,210.167 206.5,210.5C 208.332,211.057 209.665,212.057 210.5,213.5C 209.167,213.5 207.833,213.5 206.5,213.5C 195.975,210.262 195.308,211.262 204.5,216.5C 207.109,217.443 209.109,219.11 210.5,221.5C 204.604,219.782 199.271,216.948 194.5,213C 195.337,211.989 195.67,210.822 195.5,209.5C 198.247,209.813 200.914,209.48 203.5,208.5C 203.038,206.709 201.871,205.709 200,205.5C 197.488,206.507 195.155,207.841 193,209.5C 192.5,209.167 192,208.833 191.5,208.5C 194.227,204.61 195.893,200.277 196.5,195.5C 200.541,192.512 199.874,191.178 194.5,191.5C 194.759,187.76 194.426,184.094 193.5,180.5C 194.885,179.449 195.885,178.116 196.5,176.5C 198.5,175.167 200.5,175.167 202.5,176.5C 199.206,179.378 197.872,183.044 198.5,187.5C 199.978,187.762 201.311,187.429 202.5,186.5C 203.137,184.697 204.303,183.364 206,182.5C 206.483,181.552 206.649,180.552 206.5,179.5C 208.288,179.215 209.955,179.548 211.5,180.5C 212.137,183.107 213.304,185.44 215,187.5C 215.495,189.473 215.662,191.473 215.5,193.5 Z"/></g>
<g><path style="opacity:1" fill="#cab451" d="M 218.5,201.5 C 220.043,202.736 221.043,204.402 221.5,206.5C 219.201,207.757 217.201,207.423 215.5,205.5C 216.5,205.5 217.5,205.5 218.5,205.5C 218.5,204.167 218.5,202.833 218.5,201.5 Z"/></g>
<g><path style="opacity:1" fill="#f4db2d" d="M 215.5,193.5 C 216.199,196.31 217.199,198.977 218.5,201.5C 218.5,202.833 218.5,204.167 218.5,205.5C 217.5,205.5 216.5,205.5 215.5,205.5C 208.671,205.211 202.338,203.545 196.5,200.5C 200.25,193.998 204.25,187.665 208.5,181.5C 211.378,185.267 213.712,189.267 215.5,193.5 Z"/></g>
<g><path style="opacity:1" fill="#cec55e" d="M 206.5,213.5 C 204.952,213.821 204.285,214.821 204.5,216.5C 195.308,211.262 195.975,210.262 206.5,213.5 Z"/></g>
<g><path style="opacity:1" fill="#463709" d="M 210.5,213.5 C 216.137,214.393 221.804,215.226 227.5,216C 226.584,216.278 225.918,216.778 225.5,217.5C 220.112,217.238 215.112,215.905 210.5,213.5 Z"/></g>
<g><path style="opacity:1" fill="#705d1a" d="M 246.5,210.5 C 247.707,213.105 249.707,214.772 252.5,215.5C 250.5,215.5 248.5,215.5 246.5,215.5C 246.5,213.833 246.5,212.167 246.5,210.5 Z"/></g>
<g><path style="opacity:1" fill="#948a1f" d="M 287.5,219.5 C 290.152,219.41 292.485,220.076 294.5,221.5C 291.848,221.59 289.515,220.924 287.5,219.5 Z"/></g>
<g><path style="opacity:1" fill="#251f14" d="M 155.5,207.5 C 155.5,234.167 155.5,260.833 155.5,287.5C 154.833,287.5 154.167,287.5 153.5,287.5C 152.842,260.479 153.509,233.812 155.5,207.5 Z"/></g>
<g><path style="opacity:1" fill="#32290f" d="M 270.5,236.5 C 267.26,234.361 265.26,231.361 264.5,227.5C 256.599,225.516 248.599,224.183 240.5,223.5C 240.389,222.883 240.056,222.383 239.5,222C 240.833,221.667 242.167,221.333 243.5,221C 241.065,219.997 241.398,219.497 244.5,219.5C 247.491,220.411 250.325,221.745 253,223.5C 254.365,223.156 255.532,222.489 256.5,221.5C 259.318,223.293 262.318,224.626 265.5,225.5C 265.5,226.833 265.5,228.167 265.5,229.5C 266.833,229.5 268.167,229.5 269.5,229.5C 269.674,231.861 270.007,234.194 270.5,236.5 Z"/></g>
<g><path style="opacity:1" fill="#25201b" d="M 287.5,219.5 C 289.515,220.924 291.848,221.59 294.5,221.5C 304.669,224.468 315.002,226.801 325.5,228.5C 325.714,230.144 325.38,231.644 324.5,233C 314.087,237.685 303.087,240.185 291.5,240.5C 286.473,240.497 281.473,240.164 276.5,239.5C 274.456,238.492 272.456,237.492 270.5,236.5C 273.413,235.759 276.413,235.259 279.5,235C 277.808,233.599 277.141,231.766 277.5,229.5C 275.5,229.5 273.5,229.5 271.5,229.5C 271.5,228.167 271.5,226.833 271.5,225.5C 269.042,225.773 267.375,224.773 266.5,222.5C 269.394,221.61 272.061,220.276 274.5,218.5C 271.973,217.786 269.473,217.12 267,216.5C 266.517,217.448 266.351,218.448 266.5,219.5C 262.988,220.055 259.988,219.388 257.5,217.5C 261.073,217.959 264.073,216.959 266.5,214.5C 273.415,216.549 280.415,218.216 287.5,219.5 Z"/></g>
<g><path style="opacity:1" fill="#262213" d="M 165.5,305.5 C 158.325,310.407 152.325,309.074 147.5,301.5C 148.156,300.722 148.989,300.056 150,299.5C 151.597,300.885 153.43,301.551 155.5,301.5C 155.5,296.833 155.5,292.167 155.5,287.5C 157.378,288.874 158.378,290.874 158.5,293.5C 157.731,296.115 157.397,298.781 157.5,301.5C 158.833,301.5 160.167,301.5 161.5,301.5C 161.167,275.491 161.5,249.491 162.5,223.5C 163.5,250.158 163.833,276.825 163.5,303.5C 162.022,303.238 160.689,303.571 159.5,304.5C 161.396,305.466 163.396,305.799 165.5,305.5 Z"/></g>
<g><path style="opacity:1" fill="#c2b325" d="M 175.5,227.5 C 174.5,227.5 173.5,227.5 172.5,227.5C 172.831,250.673 172.498,273.673 171.5,296.5C 171.5,272.833 171.5,249.167 171.5,225.5C 173.38,225.229 174.713,225.896 175.5,227.5 Z"/></g>
<g><path style="opacity:1" fill="#705f1d" d="M 276.5,239.5 C 281.473,240.164 286.473,240.497 291.5,240.5C 289.866,241.161 288.033,241.494 286,241.5C 282.549,241.579 279.382,240.913 276.5,239.5 Z"/></g>
<g><path style="opacity:1" fill="#2c2410" d="M 214.5,223.5 C 218.124,225.951 221.624,228.617 225,231.5C 226.792,236 227.625,240.667 227.5,245.5C 226.388,247.599 225.721,249.933 225.5,252.5C 225.874,256.647 224.874,260.314 222.5,263.5C 222.621,257.775 223.287,252.109 224.5,246.5C 223.058,243.516 223.392,240.849 225.5,238.5C 224.054,236.382 223.387,234.049 223.5,231.5C 221.801,231.66 220.134,231.494 218.5,231C 218.833,230.667 219.167,230.333 219.5,230C 216.858,228.532 215.191,226.365 214.5,223.5 Z"/></g>
<g><path style="opacity:1" fill="#352710" d="M 145.5,197.5 C 147.25,200.355 148.083,203.689 148,207.5C 148.717,238.841 148.55,270.175 147.5,301.5C 146.71,300.391 146.21,299.058 146,297.5C 145.5,264.168 145.333,230.835 145.5,197.5 Z"/></g>
<g><path style="opacity:1" fill="#a0932b" d="M 227.5,245.5 C 227.829,248.228 227.163,250.562 225.5,252.5C 225.721,249.933 226.388,247.599 227.5,245.5 Z"/></g>
<g><path style="opacity:1" fill="#211d22" d="M 59.5,257.5 C 59.4606,256.417 59.1272,255.417 58.5,254.5C 59.9479,253.646 61.2813,252.646 62.5,251.5C 64.6184,253.023 66.6184,254.69 68.5,256.5C 67,257.5 65.5,258.5 64,259.5C 62.6998,258.293 61.1998,257.626 59.5,257.5 Z"/></g>
<g><path style="opacity:1" fill="#2e2510" d="M 188.5,235.5 C 190.527,235.338 192.527,235.505 194.5,236C 195.836,238.2 197.502,240.033 199.5,241.5C 200.833,240.833 202.167,240.167 203.5,239.5C 204.167,239.833 204.833,240.167 205.5,240.5C 202.977,244.069 201.644,248.069 201.5,252.5C 203.318,256.078 203.652,259.745 202.5,263.5C 201.808,262.975 201.308,262.308 201,261.5C 200.29,262.973 199.124,263.64 197.5,263.5C 197.435,271.956 196.435,280.289 194.5,288.5C 195.167,290.5 195.833,292.5 196.5,294.5C 198.435,295.213 198.768,296.213 197.5,297.5C 193.106,296.134 191.439,293.134 192.5,288.5C 194.749,274.666 197.083,260.832 199.5,247C 199.167,245.833 198.833,244.667 198.5,243.5C 194.732,241.294 191.398,238.628 188.5,235.5 Z"/></g>
<g><path style="opacity:1" fill="#291e29" d="M 71.5,257.5 C 73.4607,258.46 75.1274,259.793 76.5,261.5C 76.5394,262.583 76.8728,263.583 77.5,264.5C 75.3732,266.876 72.7065,267.876 69.5,267.5C 70.287,265.896 71.6203,265.229 73.5,265.5C 73.5,264.167 73.5,262.833 73.5,261.5C 71.4305,261.449 69.5971,262.115 68,263.5C 67.5,263.167 67,262.833 66.5,262.5C 67.9695,260.487 69.6362,258.82 71.5,257.5 Z"/></g>
<g><path style="opacity:1" fill="#291d29" d="M 87.5,273.5 C 89.4607,274.46 91.1274,275.793 92.5,277.5C 93.8558,280.697 92.6891,282.697 89,283.5C 85.8456,282.566 86.0123,281.899 89.5,281.5C 89.5,280.167 89.5,278.833 89.5,277.5C 87.5082,277.328 85.8415,277.995 84.5,279.5C 84.1667,279.167 83.8333,278.833 83.5,278.5C 84.1539,276.142 85.4872,274.475 87.5,273.5 Z"/></g>
<g><path style="opacity:1" fill="#2c240d" d="M 76.5,261.5 C 80.4083,265.285 84.0749,269.285 87.5,273.5C 85.4872,274.475 84.1539,276.142 83.5,278.5C 83.8333,278.833 84.1667,279.167 84.5,279.5C 85.8415,277.995 87.5082,277.328 89.5,277.5C 89.5,278.833 89.5,280.167 89.5,281.5C 86.0123,281.899 85.8456,282.566 89,283.5C 92.6891,282.697 93.8558,280.697 92.5,277.5C 96.1938,281.86 100.194,285.86 104.5,289.5C 102.723,289.786 101.056,290.453 99.5,291.5C 98.8333,291.167 98.1667,290.833 97.5,290.5C 98.9712,287.427 98.1378,285.094 95,283.5C 93.0245,284.465 91.5245,285.799 90.5,287.5C 85.8865,283.89 81.5532,279.89 77.5,275.5C 74.5,273.167 71.8333,270.5 69.5,267.5C 72.7065,267.876 75.3732,266.876 77.5,264.5C 76.8728,263.583 76.5394,262.583 76.5,261.5 Z"/></g>
<g><path style="opacity:1" fill="#221e25" d="M 77.5,275.5 C 77.2779,273.393 76.2779,271.726 74.5,270.5C 78.0691,266.924 81.0691,267.59 83.5,272.5C 82.0124,274.577 80.0124,275.577 77.5,275.5 Z"/></g>
<g><path style="opacity:1" fill="#28201d" d="M 104.5,289.5 C 105.833,290.833 107.167,292.167 108.5,293.5C 108.539,294.583 108.873,295.583 109.5,296.5C 107.204,298.552 104.537,299.552 101.5,299.5C 97.1308,296.131 93.4642,292.131 90.5,287.5C 91.5245,285.799 93.0245,284.465 95,283.5C 98.1378,285.094 98.9712,287.427 97.5,290.5C 98.1667,290.833 98.8333,291.167 99.5,291.5C 101.056,290.453 102.723,289.786 104.5,289.5 Z"/></g>
<g><path style="opacity:1" fill="#31250c" d="M 108.5,293.5 C 112.167,297.833 116.167,301.833 120.5,305.5C 116.887,304.315 113.72,302.315 111,299.5C 109.025,300.465 107.525,301.799 106.5,303.5C 104.251,302.92 102.585,301.587 101.5,299.5C 104.537,299.552 107.204,298.552 109.5,296.5C 108.873,295.583 108.539,294.583 108.5,293.5 Z"/></g>
<g><path style="opacity:1" fill="#8c7c32" d="M 210.5,299.5 C 208.007,301.584 205.34,301.917 202.5,300.5C 205.206,300.425 207.873,300.092 210.5,299.5 Z"/></g>
<g><path style="opacity:1" fill="#2a201d" d="M 120.5,305.5 C 125.527,309.86 130.194,314.527 134.5,319.5C 136.056,322.736 138.056,325.736 140.5,328.5C 139.213,331.281 137.213,331.948 134.5,330.5C 136.005,329.158 136.672,327.492 136.5,325.5C 135.5,325.5 134.5,325.5 133.5,325.5C 133.5,324.167 133.5,322.833 133.5,321.5C 132.167,321.5 130.833,321.5 129.5,321.5C 129.843,323.483 129.176,324.817 127.5,325.5C 120.535,319.036 113.702,312.369 107,305.5C 106.536,304.906 106.369,304.239 106.5,303.5C 107.525,301.799 109.025,300.465 111,299.5C 113.72,302.315 116.887,304.315 120.5,305.5 Z"/></g>
<g><path style="opacity:1" fill="#2e230e" d="M 134.5,319.5 C 140.833,325.167 146.833,331.167 152.5,337.5C 151.022,337.762 149.689,337.429 148.5,336.5C 146.821,334.654 144.988,332.988 143,331.5C 139.866,332.738 139.033,334.738 140.5,337.5C 135.514,334.179 131.18,330.179 127.5,325.5C 129.176,324.817 129.843,323.483 129.5,321.5C 130.833,321.5 132.167,321.5 133.5,321.5C 133.5,322.833 133.5,324.167 133.5,325.5C 134.5,325.5 135.5,325.5 136.5,325.5C 136.672,327.492 136.005,329.158 134.5,330.5C 137.213,331.948 139.213,331.281 140.5,328.5C 138.056,325.736 136.056,322.736 134.5,319.5 Z"/></g>
<g><path style="opacity:1" fill="#2f2512" d="M 142.5,339.5 C 144.074,339.937 145.241,340.937 146,342.5C 146.333,342.167 146.667,341.833 147,341.5C 148.754,343.25 150.921,343.917 153.5,343.5C 153.5,344.833 153.5,346.167 153.5,347.5C 154.5,347.5 155.5,347.5 156.5,347.5C 156.5,349.5 156.5,351.5 156.5,353.5C 150.785,349.785 146.118,345.118 142.5,339.5 Z"/></g>
<g><path style="opacity:1" fill="#211a2e" d="M 186.5,371.5 C 186.877,373.258 187.544,374.925 188.5,376.5C 187.675,377.386 186.675,377.719 185.5,377.5C 185.241,373.932 183.241,372.599 179.5,373.5C 179.5,372.167 179.5,370.833 179.5,369.5C 181.929,369.884 184.263,370.551 186.5,371.5 Z"/></g>
<g><path style="opacity:1" fill="#693f1c" d="M 192.5,389.5 C 196.167,389.5 199.833,389.5 203.5,389.5C 202.508,391.026 201.008,391.693 199,391.5C 196.516,391.503 194.349,390.837 192.5,389.5 Z"/></g>
<g><path style="opacity:1" fill="#f1ee6d" d="M 189.5,393.5 C 195.5,393.5 201.5,393.5 207.5,393.5C 207.389,394.117 207.056,394.617 206.5,395C 201.167,395.667 195.833,395.667 190.5,395C 189.944,394.617 189.611,394.117 189.5,393.5 Z"/></g>
</svg>
