<?xml version="1.0" encoding="UTF-8"?>
<!DOCTYPE svg PUBLIC "-//W3C//DTD SVG 1.1//EN" "http://www.w3.org/Graphics/SVG/1.1/DTD/svg11.dtd">
<svg xmlns="http://www.w3.org/2000/svg" version="1.1" width="283px" height="283px" style="shape-rendering:geometricPrecision; text-rendering:geometricPrecision; image-rendering:optimizeQuality; fill-rule:evenodd; clip-rule:evenodd" xmlns:xlink="http://www.w3.org/1999/xlink">
<g><path style="opacity:1" fill="#f2f1f1" d="M 16.5,5.5 C 16.8333,6.83333 17.1667,6.83333 17.5,5.5C 102.834,5.33334 188.167,5.5 273.5,6C 276.772,7.69329 279.272,10.1933 281,13.5C 281.5,99.166 281.667,184.833 281.5,270.5C 281.291,271.922 280.791,273.255 280,274.5C 279.086,273.346 278.253,273.513 277.5,275C 278.151,276.308 277.485,277.141 275.5,277.5C 275.167,276.167 274.833,276.167 274.5,277.5C 189.874,278.495 105.208,278.828 20.5,278.5C 19.5,278.5 18.5,278.5 17.5,278.5C 17.1667,277.167 16.8333,277.167 16.5,278.5C 14.9557,278.297 13.6223,277.63 12.5,276.5C 11.2888,275.726 11.2888,274.893 12.5,274C 11.5305,272.242 10.3639,271.742 9,272.5C 8.53566,271.906 8.36899,271.239 8.5,270.5C 9.83333,270.167 9.83333,269.833 8.5,269.5C 8.5,186.5 8.5,103.5 8.5,20.5C 8.76781,18.901 8.43448,17.5676 7.5,16.5C 8.37768,11.0688 11.3777,7.40212 16.5,5.5 Z"/></g>
<g><path style="opacity:1" fill="#131312" d="M 18.5,8.5 C 102.834,8.33334 187.167,8.5 271.5,9C 273.624,10.1217 275.457,11.6217 277,13.5C 278.661,98.4187 278.994,183.419 278,268.5C 276.437,271.728 273.937,273.895 270.5,275C 186.5,275.667 102.5,275.667 18.5,275C 16.3762,273.878 14.5429,272.378 13,270.5C 11.3415,185.557 11.0082,100.557 12,15.5C 13.6941,12.6424 15.8607,10.309 18.5,8.5 Z"/></g>
<g><path style="opacity:1" fill="#fcfcfb" d="M 271.5,15.5 C 272.493,99.2969 272.826,182.964 272.5,266.5C 272.443,267.609 272.11,268.609 271.5,269.5C 188.208,270.494 104.874,270.828 21.5,270.5C 20.609,269.89 19.609,269.557 18.5,269.5C 18.5386,268.244 18.0386,267.244 17,266.5C 16.5,183.834 16.3333,101.167 16.5,18.5C 16.8588,16.629 17.8588,15.129 19.5,14C 102.833,13.3333 186.167,13.3333 269.5,14C 270.416,14.2784 271.082,14.7784 271.5,15.5 Z"/></g>
<g><path style="opacity:0.094" fill="#8a8988" d="M 7.5,16.5 C 7.63101,17.2389 7.46434,17.9056 7,18.5C 6.30831,17.5632 6.47498,16.8966 7.5,16.5 Z"/></g>
<g><path style="opacity:1" fill="#e6e6e4" d="M 271.5,15.5 C 272.222,15.9175 272.722,16.5842 273,17.5C 273.832,100.668 273.666,183.668 272.5,266.5C 272.826,182.964 272.493,99.2969 271.5,15.5 Z"/></g>
<g><path style="opacity:1" fill="#eaeaea" d="M 16.5,5.5 C 104.998,4.50063 193.665,4.1673 282.5,4.5C 282.5,93.1667 282.5,181.833 282.5,270.5C 282.167,270.5 281.833,270.5 281.5,270.5C 281.667,184.833 281.5,99.166 281,13.5C 279.272,10.1933 276.772,7.69329 273.5,6C 188.167,5.5 102.834,5.33334 17.5,5.5C 17.1667,5.5 16.8333,5.5 16.5,5.5 Z"/></g>
<g><path style="opacity:1" fill="#b5b4b3" d="M 8.5,20.5 C 8.5,103.5 8.5,186.5 8.5,269.5C 8.5,269.833 8.5,270.167 8.5,270.5C 7.71003,269.391 7.21003,268.058 7,266.5C 6.33333,184.167 6.33333,101.833 7,19.5C 7.38258,20.056 7.88258,20.3893 8.5,20.5 Z"/></g>
<g><path style="opacity:1" fill="#242321" d="M 16.5,18.5 C 16.3333,101.167 16.5,183.834 17,266.5C 18.0386,267.244 18.5386,268.244 18.5,269.5C 17.5041,269.586 16.6708,269.252 16,268.5C 15.1677,184.999 15.3343,101.666 16.5,18.5 Z"/></g>
<g><path style="opacity:1" fill="#c05955" d="M 161.5,28.5 C 164.067,28.7215 166.401,29.3882 168.5,30.5C 165.772,30.8294 163.438,30.1628 161.5,28.5 Z"/></g>
<g><path style="opacity:1" fill="#cf736c" d="M 255.5,114.5 C 257.04,116.838 257.706,119.505 257.5,122.5C 256.232,120.095 255.565,117.428 255.5,114.5 Z"/></g>
<g><path style="opacity:1" fill="#d64941" d="M 257.5,124.5 C 260.325,139.302 259.659,153.969 255.5,168.5C 257.187,153.906 257.853,139.239 257.5,124.5 Z"/></g>
<g><path style="opacity:1" fill="#d9271e" d="M 161.5,28.5 C 163.438,30.1628 165.772,30.8294 168.5,30.5C 206.177,39.327 233.343,61.327 250,96.5C 252.459,102.341 254.292,108.341 255.5,114.5C 255.565,117.428 256.232,120.095 257.5,122.5C 257.5,123.167 257.5,123.833 257.5,124.5C 257.853,139.239 257.187,153.906 255.5,168.5C 243.094,214.074 214.094,242.574 168.5,254C 166.19,254.497 163.857,254.663 161.5,254.5C 150.167,254.5 138.833,254.5 127.5,254.5C 85.6372,247.171 56.1372,223.837 39,184.5C 23.6609,141.242 30.3276,101.909 59,66.5C 86.7144,36.7583 120.881,24.0916 161.5,28.5 Z"/></g>
<g><path style="opacity:1" fill="#fcfbfa" d="M 139.5,232.5 C 135.946,231.751 132.28,230.918 128.5,230C 128.833,229.667 129.167,229.333 129.5,229C 126.854,228.503 124.187,228.336 121.5,228.5C 109.964,226.664 99.6305,221.997 90.5,214.5C 54.0398,182.102 45.5398,143.435 65,98.5C 92.6672,56.0235 130.834,42.5235 179.5,58C 204.529,68.6963 221.695,86.8629 231,112.5C 241.746,150.617 232.913,183.284 204.5,210.5C 185.704,226.053 164.037,233.386 139.5,232.5 Z"/></g>
<g><path style="opacity:1" fill="#5f5c5a" d="M 95.5,105.5 C 96.4972,125.66 96.8305,145.993 96.5,166.5C 99.1667,166.5 101.833,166.5 104.5,166.5C 104.833,166.5 105.167,166.5 105.5,166.5C 102.375,167.479 99.0419,167.813 95.5,167.5C 95.5,146.833 95.5,126.167 95.5,105.5 Z"/></g>
<g><path style="opacity:1" fill="#221e1b" d="M 175.5,76.5 C 187.048,75.1874 194.548,80.1874 198,91.5C 199.313,95.4204 200.313,99.4204 201,103.5C 201.667,115.167 201.667,126.833 201,138.5C 200.858,149.265 197.024,158.432 189.5,166C 179.968,170.867 172.468,168.7 167,159.5C 163.595,152.212 161.595,144.545 161,136.5C 160.103,123.785 160.436,111.118 162,98.5C 163.743,89.3232 168.243,81.9899 175.5,76.5 Z"/></g>
<g><path style="opacity:1" fill="#fcfbfb" d="M 179.5,89.5 C 187.137,91.389 190.97,96.389 191,104.5C 191.667,115.5 191.667,126.5 191,137.5C 190.403,142.902 188.736,147.902 186,152.5C 181.675,155.569 178.008,154.902 175,150.5C 171.268,141.042 169.768,131.208 170.5,121C 170.211,113.035 171.044,105.201 173,97.5C 174.305,94.0386 176.471,91.372 179.5,89.5 Z"/></g>
<g><path style="opacity:1" fill="#221d1b" d="M 129.5,76.5 C 136.644,74.9924 142.477,76.9924 147,82.5C 151.452,89.5221 154.119,97.1888 155,105.5C 156.081,120.261 155.414,134.928 153,149.5C 151.503,155.998 148.337,161.498 143.5,166C 130.257,170.959 121.757,166.459 118,152.5C 114.186,134.635 113.519,116.635 116,98.5C 117.487,89.2082 121.987,81.8749 129.5,76.5 Z"/></g>
<g><path style="opacity:1" fill="#5a5756" d="M 145.5,113.5 C 146.656,120.989 146.822,128.655 146,136.5C 145.768,137.737 145.268,138.737 144.5,139.5C 145.377,130.867 145.711,122.2 145.5,113.5 Z"/></g>
<g><path style="opacity:1" fill="#fcfcfb" d="M 145.5,113.5 C 145.711,122.2 145.377,130.867 144.5,139.5C 144.106,144.458 142.439,148.958 139.5,153C 134.386,155.793 130.553,154.626 128,149.5C 126.687,145.58 125.687,141.58 125,137.5C 124.333,126.833 124.333,116.167 125,105.5C 125.386,98.8885 128.219,93.7218 133.5,90C 138.329,90.1405 141.496,92.6405 143,97.5C 144.798,102.689 145.631,108.022 145.5,113.5 Z"/></g>
<g><path style="opacity:1" fill="#1f1a18" d="M 97.5,78.5 C 99.8333,78.5 102.167,78.5 104.5,78.5C 104.5,107.833 104.5,137.167 104.5,166.5C 101.833,166.5 99.1667,166.5 96.5,166.5C 96.8305,145.993 96.4972,125.66 95.5,105.5C 93.1667,105.5 90.8333,105.5 88.5,105.5C 87.2907,98.9325 89.124,93.5992 94,89.5C 95.5925,85.8387 96.7592,82.172 97.5,78.5 Z"/></g>
<g><path style="opacity:1" fill="#383330" d="M 97.5,78.5 C 99.9479,77.5269 102.615,77.1936 105.5,77.5C 105.5,107.167 105.5,136.833 105.5,166.5C 105.167,166.5 104.833,166.5 104.5,166.5C 104.5,137.167 104.5,107.833 104.5,78.5C 102.167,78.5 99.8333,78.5 97.5,78.5 Z"/></g>
<g><path style="opacity:1" fill="#2c2826" d="M 164.5,176.5 C 165.833,176.5 167.167,176.5 168.5,176.5C 165.167,186.833 161.833,197.167 158.5,207.5C 156.801,207.66 155.134,207.494 153.5,207C 157.464,196.941 161.131,186.774 164.5,176.5 Z"/></g>
<g><path style="opacity:1" fill="#2b2725" d="M 115.5,184.5 C 118.677,185.677 121.843,185.677 125,184.5C 127.145,184.396 128.979,185.063 130.5,186.5C 134.642,183.593 138.476,183.926 142,187.5C 142.499,193.157 142.666,198.824 142.5,204.5C 140.833,204.5 139.167,204.5 137.5,204.5C 137.666,199.489 137.499,194.489 137,189.5C 135.062,188.14 133.396,188.473 132,190.5C 131.501,195.155 131.334,199.821 131.5,204.5C 129.833,204.5 128.167,204.5 126.5,204.5C 126.666,199.489 126.499,194.489 126,189.5C 124.062,188.14 122.396,188.473 121,190.5C 120.501,195.155 120.334,199.821 120.5,204.5C 118.833,204.5 117.167,204.5 115.5,204.5C 115.5,197.833 115.5,191.167 115.5,184.5 Z"/></g>
<g><path style="opacity:1" fill="#282422" d="M 180.5,177.5 C 182.167,177.5 183.833,177.5 185.5,177.5C 185.336,180.187 185.503,182.854 186,185.5C 190.467,183.567 194.133,184.567 197,188.5C 197.499,193.823 197.666,199.156 197.5,204.5C 195.833,204.5 194.167,204.5 192.5,204.5C 192.666,199.821 192.499,195.155 192,190.5C 190,187.833 188,187.833 186,190.5C 185.501,195.155 185.334,199.821 185.5,204.5C 183.833,204.5 182.167,204.5 180.5,204.5C 180.5,195.5 180.5,186.5 180.5,177.5 Z"/></g>
<g><path style="opacity:1" fill="#292624" d="M 95.5,177.5 C 97.1667,177.5 98.8333,177.5 100.5,177.5C 100.334,182.179 100.501,186.845 101,191.5C 103.167,189.333 105.333,187.167 107.5,185C 109.5,184.333 111.5,184.333 113.5,185C 110.983,187.349 108.65,189.849 106.5,192.5C 108.708,196.417 111.041,200.25 113.5,204C 111.421,204.808 109.421,204.641 107.5,203.5C 103.199,193.834 100.866,194.167 100.5,204.5C 98.8333,204.5 97.1667,204.5 95.5,204.5C 95.5,195.5 95.5,186.5 95.5,177.5 Z"/></g>
<g><path style="opacity:1" fill="#f0d3ce" d="M 121.5,228.5 C 124.187,228.336 126.854,228.503 129.5,229C 129.167,229.333 128.833,229.667 128.5,230C 132.28,230.918 135.946,231.751 139.5,232.5C 136.15,232.665 132.817,232.498 129.5,232C 126.399,231.362 123.732,230.195 121.5,228.5 Z"/></g>
<g><path style="opacity:1" fill="#d5453c" d="M 127.5,254.5 C 138.833,254.5 150.167,254.5 161.5,254.5C 150.159,257.101 138.826,257.101 127.5,254.5 Z"/></g>
<g><path style="opacity:1" fill="#1f1d1d" d="M 271.5,269.5 C 271.389,270.117 271.056,270.617 270.5,271C 187.332,271.832 104.332,271.666 21.5,270.5C 104.874,270.828 188.208,270.494 271.5,269.5 Z"/></g>
<g><path style="opacity:1" fill="#c9c9c9" d="M 274.5,277.5 C 274.833,277.5 275.167,277.5 275.5,277.5C 273.898,279.074 271.898,279.741 269.5,279.5C 186.332,279.833 103.332,279.499 20.5,278.5C 105.208,278.828 189.874,278.495 274.5,277.5 Z"/></g>
<g><path style="opacity:0.071" fill="#898989" d="M 16.5,278.5 C 16.8333,278.5 17.1667,278.5 17.5,278.5C 18.5,278.5 19.5,278.5 20.5,278.5C 103.332,279.499 186.332,279.833 269.5,279.5C 186.334,280.666 103.001,280.832 19.5,280C 18.2625,279.768 17.2625,279.268 16.5,278.5 Z"/></g>
</svg>
