<?xml version="1.0" encoding="UTF-8"?>
<!DOCTYPE svg PUBLIC "-//W3C//DTD SVG 1.1//EN" "http://www.w3.org/Graphics/SVG/1.1/DTD/svg11.dtd">
<svg xmlns="http://www.w3.org/2000/svg" version="1.1" width="283px" height="283px" style="shape-rendering:geometricPrecision; text-rendering:geometricPrecision; image-rendering:optimizeQuality; fill-rule:evenodd; clip-rule:evenodd" xmlns:xlink="http://www.w3.org/1999/xlink">
<g><path style="opacity:0.298" fill="#7f7f7f" d="M 265.5,1.5 C 182.5,2.16667 99.5,2.83333 16.5,3.5C 15.5,3.5 14.5,3.5 13.5,3.5C 13.1667,3.5 12.8333,3.5 12.5,3.5C 13.2625,2.73209 14.2625,2.23209 15.5,2C 98.8327,1.5 182.166,1.33334 265.5,1.5 Z"/></g>
<g><path style="opacity:1" fill="#d2d2d2" d="M 265.5,1.5 C 266.995,1.98869 268.329,2.65536 269.5,3.5C 269.167,3.5 268.833,3.5 268.5,3.5C 184.5,3.5 100.5,3.5 16.5,3.5C 99.5,2.83333 182.5,2.16667 265.5,1.5 Z"/></g>
<g><path style="opacity:1" fill="#959593" d="M 2.5,17.5 C 3.16667,99.5 3.83333,181.5 4.5,263.5C 4.5,264.833 4.5,266.167 4.5,267.5C 4.5,267.833 4.5,268.167 4.5,268.5C 3.71003,267.391 3.21003,266.058 3,264.5C 2.5,182.167 2.33334,99.834 2.5,17.5 Z"/></g>
<g><path style="opacity:1" fill="#f1f1f0" d="M 12.5,3.5 C 12.8333,4.83333 13.1667,4.83333 13.5,3.5C 14.5,3.5 15.5,3.5 16.5,3.5C 100.5,3.5 184.5,3.5 268.5,3.5C 268.833,4.83333 269.167,4.83333 269.5,3.5C 271.379,3.39318 271.712,3.89318 270.5,5C 271.572,6.28374 272.905,6.61707 274.5,6C 275.823,6.81595 276.489,7.98261 276.5,9.5C 276.892,11.1789 277.392,12.8455 278,14.5C 278.667,98.1667 278.667,181.833 278,265.5C 277.392,267.154 276.892,268.821 276.5,270.5C 276.672,271.492 276.338,272.158 275.5,272.5C 275.167,271.167 274.833,271.167 274.5,272.5C 273.167,272.833 273.167,273.167 274.5,273.5C 274.027,274.906 273.027,275.573 271.5,275.5C 271.167,274.167 270.833,274.167 270.5,275.5C 269.234,276.09 267.901,276.59 266.5,277C 181.805,277.825 97.1387,277.659 12.5,276.5C 11.0783,276.291 9.74499,275.791 8.5,275C 7.16667,274 7.16667,273 8.5,272C 7.74714,270.513 6.9138,270.346 6,271.5C 4.96141,270.756 4.46141,269.756 4.5,268.5C 5.83333,268.167 5.83333,267.833 4.5,267.5C 4.5,266.167 4.5,264.833 4.5,263.5C 4.33334,179.833 4.5,96.166 5,12.5C 5.79142,11.255 6.29142,9.92167 6.5,8.5C 9.13495,7.52651 11.135,5.85984 12.5,3.5 Z"/></g>
<g><path style="opacity:1" fill="#111111" d="M 15.5,6.5 C 99.5007,6.33334 183.501,6.5 267.5,7C 269.624,8.12173 271.457,9.62173 273,11.5C 274.661,96.4187 274.994,181.419 274,266.5C 272.833,269.667 270.667,271.833 267.5,273C 183.167,273.667 98.8333,273.667 14.5,273C 12.3762,271.878 10.5429,270.378 9,268.5C 7.34153,183.89 7.0082,99.2234 8,14.5C 9.35318,10.6499 11.8532,7.9832 15.5,6.5 Z"/></g>
<g><path style="opacity:1" fill="#fcfbfb" d="M 265.5,11.5 C 266.688,12.3636 267.855,13.3636 269,14.5C 269.667,97.8333 269.667,181.167 269,264.5C 268.487,265.527 267.987,266.527 267.5,267.5C 184.208,268.494 100.874,268.828 17.5,268.5C 14.8122,267.976 13.3122,266.309 13,263.5C 12.1723,180.126 12.339,96.793 13.5,13.5C 14.7562,13.5386 15.7562,13.0386 16.5,12C 99.4993,11.5 182.499,11.3333 265.5,11.5 Z"/></g>
<g><path style="opacity:1" fill="#232323" d="M 265.5,11.5 C 182.499,11.3333 99.4993,11.5 16.5,12C 15.7562,13.0386 14.7562,13.5386 13.5,13.5C 13.5774,12.2502 14.244,11.4169 15.5,11C 99.001,10.1677 182.334,10.3343 265.5,11.5 Z"/></g>
<g><path style="opacity:1" fill="#b6b6b4" d="M 6.5,8.5 C 6.29142,9.92167 5.79142,11.255 5,12.5C 4.5,96.166 4.33334,179.833 4.5,263.5C 3.83333,181.5 3.16667,99.5 2.5,17.5C 2.69238,13.8976 4.02571,10.8976 6.5,8.5 Z"/></g>
<g><path style="opacity:0.447" fill="#5c5a5b" d="M 276.5,9.5 C 277.966,10.347 278.8,11.6803 279,13.5C 279.667,97.8333 279.667,182.167 279,266.5C 278.8,268.32 277.966,269.653 276.5,270.5C 276.892,268.821 277.392,267.154 278,265.5C 278.667,181.833 278.667,98.1667 278,14.5C 277.392,12.8455 276.892,11.1789 276.5,9.5 Z"/></g>
<g><path style="opacity:1" fill="#fc070d" d="M 155.5,252.5 C 145.5,252.5 135.5,252.5 125.5,252.5C 124.167,252.5 122.833,252.5 121.5,252.5C 119.562,250.837 117.228,250.171 114.5,250.5C 80.5867,241.613 55.42,221.613 39,190.5C 19.4233,146.086 24.4233,104.752 54,66.5C 86.9332,30.5538 127.1,18.7205 174.5,31C 209.892,42.4796 234.392,65.6462 248,100.5C 261.022,140.686 255.022,177.686 230,211.5C 214.91,229.273 196.41,241.773 174.5,249C 168.298,250.968 161.965,252.135 155.5,252.5 Z"/></g>
<g><path style="opacity:1" fill="#cb6f6d" d="M 130.5,49.5 C 137.655,48.3448 144.988,48.1782 152.5,49C 153.416,49.2784 154.082,49.7784 154.5,50.5C 146.542,49.5973 138.542,49.264 130.5,49.5 Z"/></g>
<g><path style="opacity:1" fill="#fdfcfc" d="M 130.5,49.5 C 138.542,49.264 146.542,49.5973 154.5,50.5C 188.348,56.1617 212.182,74.8283 226,106.5C 238.842,146.632 230.009,181.132 199.5,210C 174.605,229.271 146.605,235.271 115.5,228C 104.432,224.429 94.4316,218.929 85.5,211.5C 93.1667,211.5 100.833,211.5 108.5,211.5C 108.333,193.164 108.5,174.83 109,156.5C 115.423,134.869 129.923,123.703 152.5,123C 148.132,127.033 144.132,131.366 140.5,136C 145.356,141.854 150.523,147.354 156,152.5C 169.362,138.804 183.029,125.471 197,112.5C 197.667,111.5 197.667,110.5 197,109.5C 183.333,95.8333 169.667,82.1667 156,68.5C 150.017,73.3158 144.517,78.6491 139.5,84.5C 142.943,89.4461 146.943,93.9461 151.5,98C 125.761,100.273 105.927,112.107 92,133.5C 87.1654,141.503 84.6654,150.169 84.5,159.5C 83.8333,176.167 83.1667,192.833 82.5,209.5C 53.5938,182.231 44.4271,149.231 55,110.5C 68.6982,75.9682 93.8649,55.6348 130.5,49.5 Z"/></g>
<g><path style="opacity:1" fill="#211c19" d="M 85.5,211.5 C 85.5,210.833 85.1667,210.5 84.5,210.5C 84.5,193.5 84.5,176.5 84.5,159.5C 84.6654,150.169 87.1654,141.503 92,133.5C 105.927,112.107 125.761,100.273 151.5,98C 146.943,93.9461 142.943,89.4461 139.5,84.5C 144.517,78.6491 150.017,73.3158 156,68.5C 169.667,82.1667 183.333,95.8333 197,109.5C 197.667,110.5 197.667,111.5 197,112.5C 183.029,125.471 169.362,138.804 156,152.5C 150.523,147.354 145.356,141.854 140.5,136C 144.132,131.366 148.132,127.033 152.5,123C 129.923,123.703 115.423,134.869 109,156.5C 108.5,174.83 108.333,193.164 108.5,211.5C 100.833,211.5 93.1667,211.5 85.5,211.5 Z"/></g>
<g><path style="opacity:1" fill="#cac7c4" d="M 84.5,159.5 C 84.5,176.5 84.5,193.5 84.5,210.5C 83.5084,210.672 82.8417,210.338 82.5,209.5C 83.1667,192.833 83.8333,176.167 84.5,159.5 Z"/></g>
<g><path style="opacity:1" fill="#d75553" d="M 114.5,250.5 C 117.228,250.171 119.562,250.837 121.5,252.5C 118.848,252.59 116.515,251.924 114.5,250.5 Z"/></g>
<g><path style="opacity:1" fill="#e9565b" d="M 125.5,252.5 C 135.5,252.5 145.5,252.5 155.5,252.5C 145.504,255.123 135.504,255.123 125.5,252.5 Z"/></g>
<g><path style="opacity:1" fill="#2b2b2b" d="M 267.5,267.5 C 267.389,268.117 267.056,268.617 266.5,269C 183.332,269.832 100.332,269.666 17.5,268.5C 100.874,268.828 184.208,268.494 267.5,267.5 Z"/></g>
<g><path style="opacity:0.318" fill="#787978" d="M 274.5,272.5 C 274.833,272.5 275.167,272.5 275.5,272.5C 275.315,273.17 274.981,273.17 274.5,272.5 Z"/></g>
<g><path style="opacity:0.361" fill="#6f6f6f" d="M 270.5,275.5 C 270.833,275.5 271.167,275.5 271.5,275.5C 270.653,276.966 269.32,277.8 267.5,278C 183.167,278.667 98.8333,278.667 14.5,278C 13.5842,277.722 12.9175,277.222 12.5,276.5C 97.1387,277.659 181.805,277.825 266.5,277C 267.901,276.59 269.234,276.09 270.5,275.5 Z"/></g>
</svg>
