<?xml version="1.0" encoding="UTF-8"?>
<!DOCTYPE svg PUBLIC "-//W3C//DTD SVG 1.1//EN" "http://www.w3.org/Graphics/SVG/1.1/DTD/svg11.dtd">
<svg xmlns="http://www.w3.org/2000/svg" version="1.1" width="292px" height="293px" style="shape-rendering:geometricPrecision; text-rendering:geometricPrecision; image-rendering:optimizeQuality; fill-rule:evenodd; clip-rule:evenodd" xmlns:xlink="http://www.w3.org/1999/xlink">
<g><path style="opacity:1" fill="#f4e925" d="M 279.5,162.5 C 240.833,200.5 202.5,238.833 164.5,277.5C 153.375,285.612 141.708,286.445 129.5,280C 101.66,253.327 74.3267,226.16 47.5,198.5C 47.6107,197.883 47.944,197.383 48.5,197C 46.2791,193.027 43.2791,189.86 39.5,187.5C 37.8001,183.899 35.1334,181.399 31.5,180C 32.5171,178.951 32.6838,177.784 32,176.5C 31.6667,177.167 31.3333,177.833 31,178.5C 26.344,174.452 22.1773,169.952 18.5,165C 17.1807,164.805 15.8474,164.972 14.5,165.5C 7.26535,157.946 4.76535,148.946 7,138.5C 7.89932,134.462 9.56599,130.795 12,127.5C 50.5,89 89,50.5 127.5,12C 140.052,4.437 152.386,4.77033 164.5,13C 202.667,51.1667 240.833,89.3333 279,127.5C 286.165,139.116 286.332,150.783 279.5,162.5 Z"/></g>
<g><path style="opacity:0.951" fill="#30302f" d="M 284.5,164.5 C 282.694,163.976 281.028,163.309 279.5,162.5C 286.332,150.783 286.165,139.116 279,127.5C 240.833,89.3333 202.667,51.1667 164.5,13C 152.386,4.77033 140.052,4.437 127.5,12C 89,50.5 50.5,89 12,127.5C 9.56599,130.795 7.89932,134.462 7,138.5C 4.76535,148.946 7.26535,157.946 14.5,165.5C 25.1667,176.833 36.1667,187.833 47.5,198.5C 74.3267,226.16 101.66,253.327 129.5,280C 141.708,286.445 153.375,285.612 164.5,277.5C 166.989,277.241 168.656,278.241 169.5,280.5C 154.931,292.785 139.597,293.619 123.5,283C 85,244.5 46.5,206 8,167.5C 0.10987,156.404 -1.5568,144.404 3,131.5C 4.52281,127.148 7.02281,123.481 10.5,120.5C 48.32,82.5134 86.32,44.68 124.5,7C 138.485,-1.62406 152.485,-1.62406 166.5,7C 205.667,46.1667 244.833,85.3333 284,124.5C 292.453,137.874 292.619,151.208 284.5,164.5 Z"/></g>
<g><path style="opacity:1" fill="#3a3838" d="M 93.5,78.5 C 100.663,77.3311 105.829,79.9978 109,86.5C 110.668,93.6651 108.168,98.8318 101.5,102C 89.1696,103.335 84.003,97.8346 86,85.5C 87.7424,82.2543 90.2424,79.921 93.5,78.5 Z"/></g>
<g><path style="opacity:1" fill="#3c3b3a" d="M 204.5,102.5 C 207.691,103.092 210.691,104.259 213.5,106C 212.5,106.833 211.5,107.667 210.5,108.5C 212.422,109.711 214.255,111.044 216,112.5C 216.483,113.448 216.649,114.448 216.5,115.5C 213.61,115.722 210.943,115.055 208.5,113.5C 207.833,114.5 207.167,115.5 206.5,116.5C 204.004,115.42 201.67,114.086 199.5,112.5C 200.167,111.833 200.833,111.167 201.5,110.5C 201,110.167 200.5,109.833 200,109.5C 187.469,113.308 181.802,108.641 183,95.5C 187.197,89.5291 192.697,88.0291 199.5,91C 202.949,94.0646 204.616,97.8979 204.5,102.5 Z"/></g>
<g><path style="opacity:1" fill="#3b3938" d="M 110.5,100.5 C 119.069,102.077 127.403,104.577 135.5,108C 140.387,110.277 145.387,112.277 150.5,114C 157.139,117.662 157.139,121.162 150.5,124.5C 143.421,122.193 136.421,120.026 129.5,118C 131.859,124.075 134.025,130.241 136,136.5C 139.468,141.934 143.301,147.101 147.5,152C 146.833,152.667 146.167,153.333 145.5,154C 147.049,155.214 148.215,156.714 149,158.5C 154.418,155.207 159.918,152.04 165.5,149C 169.731,147.733 172.398,149.233 173.5,153.5C 172.394,156.441 170.394,158.608 167.5,160C 161.125,164.437 154.292,167.937 147,170.5C 145.775,170.138 144.609,169.638 143.5,169C 141.69,166.356 139.69,163.856 137.5,161.5C 136.549,162.326 135.549,162.492 134.5,162C 133.274,160.365 131.941,158.865 130.5,157.5C 129.218,159.179 128.218,161.013 127.5,163C 126.551,163.617 125.718,163.451 125,162.5C 123.128,165.205 122.295,168.205 122.5,171.5C 123.468,182.217 124.802,192.884 126.5,203.5C 125.615,209.06 122.615,210.727 117.5,208.5C 116.416,207.335 115.583,206.002 115,204.5C 112.254,191.618 110.92,178.618 111,165.5C 111.557,163.385 112.391,161.385 113.5,159.5C 112.737,158.281 111.737,157.281 110.5,156.5C 112.372,152.588 114.372,148.755 116.5,145C 112.713,139.544 108.546,134.377 104,129.5C 100.292,135.751 96.4586,141.917 92.5,148C 88.0035,150.418 85.3368,149.085 84.5,144C 90.257,132.322 96.4237,120.822 103,109.5C 104.642,105.7 107.142,102.7 110.5,100.5 Z"/></g>
<g><path style="opacity:1" fill="#dfd53e" d="M 204.5,102.5 C 204.728,104.355 204.061,105.188 202.5,105C 203.066,104.005 203.733,103.172 204.5,102.5 Z"/></g>
<g><path style="opacity:1" fill="#3b3939" d="M 190.5,116.5 C 199.909,117.58 208.409,120.913 216,126.5C 218.063,131.001 219.063,135.667 219,140.5C 217.867,142.211 216.367,142.711 214.5,142C 212.294,138.732 210.461,135.232 209,131.5C 207.667,130.833 206.333,130.167 205,129.5C 203.423,133.642 201.923,137.808 200.5,142C 203.782,148.002 206.782,154.168 209.5,160.5C 207.468,161.968 207.635,163.635 210,165.5C 215.847,163.107 221.847,161.107 228,159.5C 234.026,162.81 233.859,165.977 227.5,169C 220.875,171.264 214.209,173.43 207.5,175.5C 205.303,175.152 203.47,174.152 202,172.5C 200.833,169.5 199.667,166.5 198.5,163.5C 197.277,162.386 195.944,162.219 194.5,163C 191.676,167.989 189.676,173.322 188.5,179C 189.997,188.137 190.831,197.304 191,206.5C 187.801,210.659 185.135,210.325 183,205.5C 181.631,196.319 180.131,187.152 178.5,178C 179.89,173.223 181.557,168.556 183.5,164C 182.167,163.667 180.833,163.333 179.5,163C 181.729,156.146 184.063,149.313 186.5,142.5C 185.089,139.09 183.589,135.757 182,132.5C 177.743,136.226 172.91,138.059 167.5,138C 163.663,133.96 160.329,129.627 157.5,125C 157.543,122.624 158.709,121.124 161,120.5C 164.62,123.117 167.953,126.117 171,129.5C 177.479,125.019 183.979,120.686 190.5,116.5 Z"/></g>
<g><path style="opacity:1" fill="#3d3b3a" d="M 225.5,142.5 C 228.72,145.913 231.72,149.579 234.5,153.5C 227.044,157.095 219.377,160.095 211.5,162.5C 211.334,157.821 211.501,153.155 212,148.5C 216.516,146.321 221.016,144.321 225.5,142.5 Z"/></g>
<g><path style="opacity:1" fill="#3a3838" d="M 71.5,141.5 C 79.3446,147.17 87.3446,152.67 95.5,158C 96.6872,159.019 97.6872,160.186 98.5,161.5C 93.9114,168.344 89.0781,175.01 84,181.5C 74.7176,175.378 65.8843,168.712 57.5,161.5C 62.1764,154.804 66.843,148.138 71.5,141.5 Z"/></g>
<g><path style="opacity:0.981" fill="#3c3b36" d="M 279.5,162.5 C 281.028,163.309 282.694,163.976 284.5,164.5C 246.862,203.805 208.529,242.472 169.5,280.5C 168.656,278.241 166.989,277.241 164.5,277.5C 202.5,238.833 240.833,200.5 279.5,162.5 Z"/></g>
<g><path style="opacity:1" fill="#e2d72d" d="M 47.5,198.5 C 36.1667,187.833 25.1667,176.833 14.5,165.5C 15.8474,164.972 17.1807,164.805 18.5,165C 22.1773,169.952 26.344,174.452 31,178.5C 31.3333,177.833 31.6667,177.167 32,176.5C 32.6838,177.784 32.5171,178.951 31.5,180C 35.1334,181.399 37.8001,183.899 39.5,187.5C 43.2791,189.86 46.2791,193.027 48.5,197C 47.944,197.383 47.6107,197.883 47.5,198.5 Z"/></g>
</svg>
