<?xml version="1.0" encoding="UTF-8"?>
<!DOCTYPE svg PUBLIC "-//W3C//DTD SVG 1.1//EN" "http://www.w3.org/Graphics/SVG/1.1/DTD/svg11.dtd">
<svg xmlns="http://www.w3.org/2000/svg" version="1.1" width="292px" height="293px" style="shape-rendering:geometricPrecision; text-rendering:geometricPrecision; image-rendering:optimizeQuality; fill-rule:evenodd; clip-rule:evenodd" xmlns:xlink="http://www.w3.org/1999/xlink">
<g><path style="opacity:1" fill="#373634" d="M 137.5,-0.5 C 143.5,-0.5 149.5,-0.5 155.5,-0.5C 160.73,1.78567 165.73,4.619 170.5,8C 208,45.5 245.5,83 283,120.5C 286.939,125.712 289.773,131.379 291.5,137.5C 291.5,141.833 291.5,146.167 291.5,150.5C 289.599,157.629 286.099,163.963 281,169.5C 243.274,207.559 205.107,245.392 166.5,283C 149.923,292.235 134.59,290.568 120.5,278C 84,241.5 47.5,205 11,168.5C -1.26125,152.762 -1.59459,136.762 10,120.5C 47.5,83 85,45.5 122.5,8C 126.978,4.09846 131.978,1.26512 137.5,-0.5 Z"/></g>
<g><path style="opacity:1" fill="#f4e924" d="M 142.5,4.5 C 150.028,4.29864 157.028,6.13197 163.5,10C 202.667,49.1667 241.833,88.3333 281,127.5C 286.956,138.473 286.956,149.473 281,160.5C 241.833,199.667 202.667,238.833 163.5,278C 152.15,285.263 140.817,285.263 129.5,278C 90.6667,239.167 51.8333,200.333 13,161.5C 7.40674,152.829 6.07341,143.495 9,133.5C 11.5573,128.277 14.8906,123.61 19,119.5C 55.947,83.0971 92.7803,46.5971 129.5,10C 133.741,7.6512 138.075,5.81787 142.5,4.5 Z"/></g>
<g><path style="opacity:1" fill="#8c853a" d="M 170.5,198.5 C 171.978,198.238 173.311,198.571 174.5,199.5C 173.833,199.833 173.167,200.167 172.5,200.5C 171.287,200.253 170.62,199.586 170.5,198.5 Z"/></g>
<g><path style="opacity:1" fill="#3a3930" d="M 173.5,154.5 C 173.573,156.027 172.906,157.027 171.5,157.5C 170.096,154.593 170.763,153.593 173.5,154.5 Z"/></g>
<g><path style="opacity:1" fill="#34332d" d="M 175.5,155.5 C 176.932,153.353 178.765,153.02 181,154.5C 181.617,153.551 181.451,152.718 180.5,152C 182.947,150.771 183.113,149.271 181,147.5C 178.555,149.636 176.388,149.636 174.5,147.5C 174.472,145.418 175.139,143.584 176.5,142C 175.106,141.044 174.439,139.711 174.5,138C 175.629,135.638 175.629,133.305 174.5,131C 175.866,127.108 177.533,126.775 179.5,130C 179.097,131.473 178.43,132.806 177.5,134C 178.624,134.839 179.291,136.006 179.5,137.5C 177.794,140.878 178.294,143.878 181,146.5C 181.308,145.692 181.808,145.025 182.5,144.5C 183.5,145.833 184.5,145.833 185.5,144.5C 186.452,146.045 186.785,147.712 186.5,149.5C 185.325,149.281 184.325,149.614 183.5,150.5C 184.833,151.5 184.833,152.5 183.5,153.5C 184.391,154.59 185.391,154.59 186.5,153.5C 187.833,154.5 187.833,155.5 186.5,156.5C 184.929,155.691 183.262,155.357 181.5,155.5C 181.682,157.675 182.349,159.675 183.5,161.5C 183.444,162.737 182.944,163.737 182,164.5C 180.879,162.485 179.713,160.152 178.5,157.5C 176.821,157.715 175.821,157.048 175.5,155.5 Z"/></g>
<g><path style="opacity:1" fill="#2c2b2a" d="M 88.5,126.5 C 109.169,126.333 129.836,126.5 150.5,127C 153.401,138.671 155.734,150.504 157.5,162.5C 156.872,164.258 155.872,165.758 154.5,167C 147.174,167.5 139.841,167.666 132.5,167.5C 132.5,166.167 132.5,164.833 132.5,163.5C 123.833,163.5 115.167,163.5 106.5,163.5C 106.5,164.833 106.5,166.167 106.5,167.5C 99.1591,167.666 91.8258,167.5 84.5,167C 83.6667,166.167 82.8333,165.333 82,164.5C 82.5501,151.532 84.7168,138.865 88.5,126.5 Z"/></g>
<g><path style="opacity:1" fill="#f1e626" d="M 97.5,135.5 C 111.837,135.333 126.171,135.5 140.5,136C 142.431,142.406 144.098,148.906 145.5,155.5C 145.291,156.086 144.957,156.586 144.5,157C 127.503,157.5 110.503,157.667 93.5,157.5C 94.1986,150.042 95.5319,142.708 97.5,135.5 Z"/></g>
<g><path style="opacity:1" fill="#e7da2d" d="M 178.5,81.5 C 180.833,81.5 183.167,81.5 185.5,81.5C 185.5,82.8333 185.5,84.1667 185.5,85.5C 183.726,86.881 182.226,86.5477 181,84.5C 178.919,86.4146 179.085,88.0813 181.5,89.5C 183.167,87.8333 184.167,88.1667 184.5,90.5C 184.333,91.1667 184.167,91.8333 184,92.5C 183,91.1667 182,91.1667 181,92.5C 180.333,93.8333 180.333,95.1667 181,96.5C 183.658,97.694 184.824,96.694 184.5,93.5C 191.569,93.0377 192.236,94.7044 186.5,98.5C 187.533,99.452 188.7,99.452 190,98.5C 191.03,98.8361 191.53,99.5028 191.5,100.5C 190.71,101.609 190.21,102.942 190,104.5C 187.195,102.127 186.362,102.793 187.5,106.5C 189.727,105.737 191.06,106.737 191.5,109.5C 188.621,112.031 189.288,113.031 193.5,112.5C 190.917,114.168 188.25,115.835 185.5,117.5C 187.912,116.622 190.579,116.622 193.5,117.5C 194.492,117.328 195.158,117.662 195.5,118.5C 194.198,119.807 192.865,119.807 191.5,118.5C 190.5,118.833 189.833,119.5 189.5,120.5C 191.006,121.747 192.506,121.747 194,120.5C 194.377,121.942 195.21,122.942 196.5,123.5C 197.317,125.308 196.65,126.808 194.5,128C 196.156,129.797 197.156,131.964 197.5,134.5C 196.554,137.976 196.554,141.309 197.5,144.5C 195.497,150.302 193.997,156.302 193,162.5C 191.974,165.239 190.474,167.572 188.5,169.5C 188.171,172.032 187.005,173.032 185,172.5C 183.312,173.325 183.145,174.325 184.5,175.5C 183.167,178.833 180.833,181.167 177.5,182.5C 177.167,182.167 176.833,181.833 176.5,181.5C 177.376,180.749 178.376,180.249 179.5,180C 177,178.167 174.5,176.333 172,174.5C 171.517,173.552 171.351,172.552 171.5,171.5C 172.552,171.351 173.552,171.517 174.5,172C 174.507,174.119 175.674,175.953 178,177.5C 178.5,177 179,176.5 179.5,176C 177.167,174.757 176.5,173.091 177.5,171C 175.5,169.667 173.833,168 172.5,166C 176.498,165.507 177.332,163.674 175,160.5C 174.184,159.177 173.017,158.511 171.5,158.5C 170.167,158.167 170.167,157.833 171.5,157.5C 172.906,157.027 173.573,156.027 173.5,154.5C 174.167,154.833 174.833,155.167 175.5,155.5C 175.821,157.048 176.821,157.715 178.5,157.5C 179.713,160.152 180.879,162.485 182,164.5C 182.944,163.737 183.444,162.737 183.5,161.5C 182.349,159.675 181.682,157.675 181.5,155.5C 183.262,155.357 184.929,155.691 186.5,156.5C 187.833,155.5 187.833,154.5 186.5,153.5C 185.391,154.59 184.391,154.59 183.5,153.5C 184.833,152.5 184.833,151.5 183.5,150.5C 184.325,149.614 185.325,149.281 186.5,149.5C 186.785,147.712 186.452,146.045 185.5,144.5C 184.5,145.833 183.5,145.833 182.5,144.5C 181.808,145.025 181.308,145.692 181,146.5C 178.294,143.878 177.794,140.878 179.5,137.5C 179.291,136.006 178.624,134.839 177.5,134C 178.43,132.806 179.097,131.473 179.5,130C 177.533,126.775 175.866,127.108 174.5,131C 175.629,133.305 175.629,135.638 174.5,138C 174.439,139.711 175.106,141.044 176.5,142C 175.139,143.584 174.472,145.418 174.5,147.5C 172.866,146.793 171.532,145.627 170.5,144C 171.167,143.667 171.833,143.333 172.5,143C 171.484,142.481 170.818,141.647 170.5,140.5C 170.722,137.645 170.889,134.645 171,131.5C 171.718,132.451 172.551,132.617 173.5,132C 172.5,130.333 171.5,128.667 170.5,127C 173.668,126.418 174.001,125.418 171.5,124C 172.167,123.667 172.833,123.333 173.5,123C 170.968,122.388 170.135,120.888 171,118.5C 171.741,119.641 172.575,119.641 173.5,118.5C 175.483,118.815 176.816,119.815 177.5,121.5C 178.239,121.631 178.906,121.464 179.5,121C 179.539,119.755 179.205,118.422 178.5,117C 178.892,115.989 179.559,115.489 180.5,115.5C 178.139,113.87 178.139,112.203 180.5,110.5C 180.751,108.83 181.418,107.33 182.5,106C 181.584,105.722 180.918,105.222 180.5,104.5C 184.35,104.299 185.35,102.466 183.5,99C 182.207,98.51 180.873,98.3433 179.5,98.5C 179.003,93.0958 178.67,87.4292 178.5,81.5 Z"/></g>
<g><path style="opacity:1" fill="#3f3e32" d="M 189.5,153.5 C 191.983,153.73 192.483,154.397 191,155.5C 189.97,155.164 189.47,154.497 189.5,153.5 Z"/></g>
<g><path style="opacity:1" fill="#37362f" d="M 190.5,143.5 C 191.756,143.461 192.756,143.961 193.5,145C 193.537,146.949 193.037,148.782 192,150.5C 191.49,148.455 190.657,146.621 189.5,145C 190.056,144.617 190.389,144.117 190.5,143.5 Z"/></g>
<g><path style="opacity:1" fill="#3c3b30" d="M 187.5,139.5 C 189.852,140.543 190.019,141.876 188,143.5C 186.232,142.318 186.065,140.985 187.5,139.5 Z"/></g>
<g><path style="opacity:1" fill="#30302d" d="M 187.5,135.5 C 186.653,136.966 185.32,137.8 183.5,138C 184.784,139.297 184.617,140.464 183,141.5C 182.07,139.644 181.57,137.644 181.5,135.5C 183.647,132.978 185.647,132.978 187.5,135.5 Z"/></g>
<g><path style="opacity:1" fill="#3d3c31" d="M 187.5,135.5 C 187.791,134.351 188.624,133.684 190,133.5C 190.833,133.667 191.667,133.833 192.5,134C 191.069,134.465 189.903,135.299 189,136.5C 188.617,135.944 188.117,135.611 187.5,135.5 Z"/></g>
<g><path style="opacity:1" fill="#2f2f2d" d="M 187.5,127.5 C 192.662,129.36 192.828,130.694 188,131.5C 186.232,130.318 186.065,128.985 187.5,127.5 Z"/></g>
<g><path style="opacity:1" fill="#36352e" d="M 185.5,117.5 C 187.351,122.27 186.351,126.27 182.5,129.5C 178.587,127.051 178.587,124.551 182.5,122C 179.627,119.629 179.961,117.796 183.5,116.5C 184.183,116.863 184.85,117.196 185.5,117.5 Z"/></g>
<g><path style="opacity:1" fill="#373630" d="M 190.5,122.5 C 193.674,122.952 194.007,123.952 191.5,125.5C 189.481,124.867 189.147,123.867 190.5,122.5 Z"/></g>
<g><path style="opacity:1" fill="#2b2a2a" d="M 177.5,121.5 C 176.312,126.796 175.478,126.796 175,121.5C 175.77,120.402 176.603,120.402 177.5,121.5 Z"/></g>
<g><path style="opacity:1" fill="#6e693b" d="M 195.5,118.5 C 197.345,119.995 197.678,121.662 196.5,123.5C 195.21,122.942 194.377,121.942 194,120.5C 192.506,121.747 191.006,121.747 189.5,120.5C 189.833,119.5 190.5,118.833 191.5,118.5C 192.865,119.807 194.198,119.807 195.5,118.5 Z"/></g>
<g><path style="opacity:1" fill="#5d5939" d="M 193.5,112.5 C 194.268,113.263 194.768,114.263 195,115.5C 195.399,115.272 195.565,114.938 195.5,114.5C 196.043,114.56 196.376,114.893 196.5,115.5C 195.398,116.176 194.398,116.842 193.5,117.5C 190.579,116.622 187.912,116.622 185.5,117.5C 188.25,115.835 190.917,114.168 193.5,112.5 Z"/></g>
<g><path style="opacity:1" fill="#e3d72f" d="M 195.5,114.5 C 195.565,114.938 195.399,115.272 195,115.5C 194.768,114.263 194.268,113.263 193.5,112.5C 192.449,111.778 191.782,110.778 191.5,109.5C 192.931,109.119 193.764,108.119 194,106.5C 194.822,109.117 195.322,111.784 195.5,114.5 Z"/></g>
<g><path style="opacity:1" fill="#5b5739" d="M 191.5,109.5 C 191.782,110.778 192.449,111.778 193.5,112.5C 189.288,113.031 188.621,112.031 191.5,109.5 Z"/></g>
<g><path style="opacity:1" fill="#32312c" d="M 186.5,110.5 C 187.238,108.24 188.238,108.073 189.5,110C 188.648,111.728 187.648,111.895 186.5,110.5 Z"/></g>
<g><path style="opacity:1" fill="#2d2d2b" d="M 186.5,110.5 C 186.586,111.496 186.252,112.329 185.5,113C 182.193,115.533 180.527,114.699 180.5,110.5C 182.5,109.167 184.5,109.167 186.5,110.5 Z"/></g>
<g><path style="opacity:1" fill="#37362f" d="M 179.5,98.5 C 180.873,98.3433 182.207,98.51 183.5,99C 185.35,102.466 184.35,104.299 180.5,104.5C 178.271,102.901 177.938,100.901 179.5,98.5 Z"/></g>
<g><path style="opacity:1" fill="#535038" d="M 180.5,78.5 C 176.16,77.1658 174.66,74.1658 176,69.5C 175.768,73.6992 177.601,76.3659 181.5,77.5C 181.376,78.1067 181.043,78.44 180.5,78.5 Z"/></g>
<g><path style="opacity:1" fill="#2b2b29" d="M 154.5,180.5 C 153.167,180.5 151.833,180.5 150.5,180.5C 150.216,182.415 150.549,184.081 151.5,185.5C 158.175,185.666 164.842,185.5 171.5,185C 174.935,181.864 174.435,179.031 170,176.5C 169.308,177.025 168.808,177.692 168.5,178.5C 171.51,180.392 171.843,182.392 169.5,184.5C 168.522,184.023 167.689,183.357 167,182.5C 166.707,180.075 165.541,178.242 163.5,177C 164.949,175.883 166.616,175.216 168.5,175C 165.925,172.597 163.592,170.097 161.5,167.5C 161.434,165.734 162.268,164.734 164,164.5C 165.982,164.99 167.649,165.99 169,167.5C 169.5,166.333 170.333,165.5 171.5,165C 169.377,163.806 167.043,163.14 164.5,163C 163.117,157.331 164.95,156.164 170,159.5C 170.765,159.43 171.265,159.097 171.5,158.5C 173.017,158.511 174.184,159.177 175,160.5C 177.332,163.674 176.498,165.507 172.5,166C 173.833,168 175.5,169.667 177.5,171C 176.5,173.091 177.167,174.757 179.5,176C 179,176.5 178.5,177 178,177.5C 175.674,175.953 174.507,174.119 174.5,172C 173.552,171.517 172.552,171.351 171.5,171.5C 171.351,172.552 171.517,173.552 172,174.5C 174.5,176.333 177,178.167 179.5,180C 178.376,180.249 177.376,180.749 176.5,181.5C 176.833,181.833 177.167,182.167 177.5,182.5C 180.833,181.167 183.167,178.833 184.5,175.5C 183.145,174.325 183.312,173.325 185,172.5C 187.005,173.032 188.171,172.032 188.5,169.5C 190.474,167.572 191.974,165.239 193,162.5C 193.997,156.302 195.497,150.302 197.5,144.5C 196.554,141.309 196.554,137.976 197.5,134.5C 197.156,131.964 196.156,129.797 194.5,128C 196.65,126.808 197.317,125.308 196.5,123.5C 197.678,121.662 197.345,119.995 195.5,118.5C 195.158,117.662 194.492,117.328 193.5,117.5C 194.398,116.842 195.398,116.176 196.5,115.5C 196.376,114.893 196.043,114.56 195.5,114.5C 195.322,111.784 194.822,109.117 194,106.5C 193.764,108.119 192.931,109.119 191.5,109.5C 191.06,106.737 189.727,105.737 187.5,106.5C 186.362,102.793 187.195,102.127 190,104.5C 190.21,102.942 190.71,101.609 191.5,100.5C 191.53,99.5028 191.03,98.8361 190,98.5C 188.7,99.452 187.533,99.452 186.5,98.5C 192.236,94.7044 191.569,93.0377 184.5,93.5C 184.824,96.694 183.658,97.694 181,96.5C 180.333,95.1667 180.333,93.8333 181,92.5C 182,91.1667 183,91.1667 184,92.5C 184.167,91.8333 184.333,91.1667 184.5,90.5C 184.167,88.1667 183.167,87.8333 181.5,89.5C 179.085,88.0813 178.919,86.4146 181,84.5C 182.226,86.5477 183.726,86.881 185.5,85.5C 185.5,84.1667 185.5,82.8333 185.5,81.5C 183.167,81.5 180.833,81.5 178.5,81.5C 178.427,79.9731 179.094,78.9731 180.5,78.5C 180.62,79.5862 181.287,80.2528 182.5,80.5C 183.167,80.1667 183.833,79.8333 184.5,79.5C 180.497,70.3494 175.497,61.8494 169.5,54C 170.167,53.3333 170.833,53.3333 171.5,54C 196.5,79.6667 221.5,105.333 246.5,131C 229.667,151.833 212.833,172.667 196,193.5C 188.913,194.315 181.747,194.815 174.5,195C 173.975,195.692 173.308,196.192 172.5,196.5C 136.985,194.682 101.319,193.848 65.5,194C 62.8333,191.333 60.1667,188.667 57.5,186C 67.1609,185.5 76.8276,185.334 86.5,185.5C 86.5,184.167 86.5,182.833 86.5,181.5C 84.0885,181.863 82.5885,180.863 82,178.5C 81.3333,175.5 81.3333,172.5 82,169.5C 86.0848,168.848 90.2515,168.515 94.5,168.5C 114.499,169.41 134.499,169.577 154.5,169C 155.821,172.934 155.821,176.767 154.5,180.5 Z"/></g>
<g><path style="opacity:1" fill="#7f7a40" d="M 154.5,180.5 C 153.791,181.404 152.791,181.737 151.5,181.5C 151.5,182.833 151.5,184.167 151.5,185.5C 150.549,184.081 150.216,182.415 150.5,180.5C 151.833,180.5 153.167,180.5 154.5,180.5 Z"/></g>
<g><path style="opacity:1" fill="#f0e426" d="M 98.5,181.5 C 111.833,181.5 125.167,181.5 138.5,181.5C 138.5,182.833 138.5,184.167 138.5,185.5C 125.167,185.5 111.833,185.5 98.5,185.5C 98.5,184.167 98.5,182.833 98.5,181.5 Z"/></g>
<g><path style="opacity:1" fill="#3d3c31" d="M 178.5,173.5 C 179.251,172.427 180.251,172.26 181.5,173C 180.648,174.728 179.648,174.895 178.5,173.5 Z"/></g>
<g><path style="opacity:1" fill="#3d3c32" d="M 188.5,169.5 C 182.849,170.772 182.349,169.772 187,166.5C 188.039,167.244 188.539,168.244 188.5,169.5 Z"/></g>
<g><path style="opacity:1" fill="#2f2f2c" d="M 178.5,164.5 C 179.496,164.414 180.329,164.748 181,165.5C 181.495,167.473 181.662,169.473 181.5,171.5C 180.5,171.5 179.5,171.5 178.5,171.5C 178.15,168.959 178.15,166.626 178.5,164.5 Z"/></g>
<g><path style="opacity:1" fill="#393831" d="M 185.5,162.5 C 188.018,163.759 187.852,165.093 185,166.5C 183.413,165.154 183.58,163.821 185.5,162.5 Z"/></g>
<g><path style="opacity:1" fill="#413f32" d="M 186.5,157.5 C 188.48,157.854 190.48,158.187 192.5,158.5C 190.433,159.134 188.6,160.134 187,161.5C 185.232,160.318 185.065,158.985 186.5,157.5 Z"/></g>
<g><path style="opacity:1" fill="#e2d631" d="M 191.5,100.5 C 192.703,101.943 193.203,103.609 193,105.5C 191.731,104.095 191.231,102.429 191.5,100.5 Z"/></g>
<g><path style="opacity:1" fill="#e5d82e" d="M 185.5,85.5 C 187.363,86.9672 188.696,88.9672 189.5,91.5C 188.277,92.6139 186.944,92.7805 185.5,92C 186.605,89.8797 186.605,87.7131 185.5,85.5 Z"/></g>
</svg>
